%TF.GenerationSoftware,KiCad,Pcbnew,9.0.7*%
%TF.CreationDate,2026-04-02T00:58:20-06:00*%
%TF.ProjectId,goodwings,676f6f64-7769-46e6-9773-2e6b69636164,v1.0.0*%
%TF.SameCoordinates,Original*%
%TF.FileFunction,Soldermask,Top*%
%TF.FilePolarity,Negative*%
%FSLAX46Y46*%
G04 Gerber Fmt 4.6, Leading zero omitted, Abs format (unit mm)*
G04 Created by KiCad (PCBNEW 9.0.7) date 2026-04-02 00:58:20*
%MOMM*%
%LPD*%
G01*
G04 APERTURE LIST*
G04 Aperture macros list*
%AMRoundRect*
0 Rectangle with rounded corners*
0 $1 Rounding radius*
0 $2 $3 $4 $5 $6 $7 $8 $9 X,Y pos of 4 corners*
0 Add a 4 corners polygon primitive as box body*
4,1,4,$2,$3,$4,$5,$6,$7,$8,$9,$2,$3,0*
0 Add four circle primitives for the rounded corners*
1,1,$1+$1,$2,$3*
1,1,$1+$1,$4,$5*
1,1,$1+$1,$6,$7*
1,1,$1+$1,$8,$9*
0 Add four rect primitives between the rounded corners*
20,1,$1+$1,$2,$3,$4,$5,0*
20,1,$1+$1,$4,$5,$6,$7,0*
20,1,$1+$1,$6,$7,$8,$9,0*
20,1,$1+$1,$8,$9,$2,$3,0*%
G04 Aperture macros list end*
%ADD10C,5.100000*%
%ADD11C,2.000000*%
%ADD12C,3.100000*%
%ADD13C,4.200000*%
%ADD14RoundRect,0.050000X-0.589958X-0.463087X0.279375X-0.696024X0.589958X0.463087X-0.279375X0.696024X0*%
%ADD15RoundRect,0.050000X-0.628074X-0.409907X0.217650X-0.717725X0.628074X0.409907X-0.217650X0.717725X0*%
%ADD16RoundRect,0.050000X-0.661409X-0.353606X0.154268X-0.733963X0.661409X0.353606X-0.154268X0.733963X0*%
%ADD17RoundRect,0.050000X-0.730393X-0.170372X-0.040953X-0.748881X0.730393X0.170372X0.040953X0.748881X0*%
%ADD18RoundRect,0.050000X-0.024473X-0.749601X0.712764X-0.233382X0.024473X0.749601X-0.712764X0.233382X0*%
%ADD19RoundRect,0.050000X-0.279375X-0.696024X0.589958X-0.463087X0.279375X0.696024X-0.589958X0.463087X0*%
%ADD20RoundRect,0.050000X-0.217650X-0.717725X0.628074X-0.409907X0.217650X0.717725X-0.628074X0.409907X0*%
%ADD21RoundRect,0.050000X-0.154268X-0.733963X0.661409X-0.353606X0.154268X0.733963X-0.661409X0.353606X0*%
%ADD22RoundRect,0.050000X0.040953X-0.748881X0.730393X-0.170372X-0.040953X0.748881X-0.730393X0.170372X0*%
%ADD23RoundRect,0.050000X-0.712764X-0.233382X0.024473X-0.749601X0.712764X0.233382X-0.024473X0.749601X0*%
%ADD24C,1.800000*%
%ADD25RoundRect,0.260000X0.665000X-0.390000X0.665000X0.390000X-0.665000X0.390000X-0.665000X-0.390000X0*%
%ADD26O,1.850000X1.300000*%
%ADD27RoundRect,0.050000X0.640301X-0.003802X-0.136845X0.625519X-0.640301X0.003802X0.136845X-0.625519X0*%
%ADD28RoundRect,0.050000X0.743991X0.362597X0.199989X0.803122X-0.743991X-0.362597X-0.199989X-0.803122X0*%
%ADD29C,1.000000*%
%ADD30RoundRect,0.050000X0.318035X0.865724X-0.919850X-0.067089X-0.318035X-0.865724X0.919850X0.067089X0*%
%ADD31RoundRect,0.050000X-0.140000X-0.625000X0.140000X-0.625000X0.140000X0.625000X-0.140000X0.625000X0*%
%ADD32RoundRect,0.050000X0.900000X1.000000X-0.900000X1.000000X-0.900000X-1.000000X0.900000X-1.000000X0*%
G04 APERTURE END LIST*
D10*
%TO.C,S1*%
X80204305Y-121015834D03*
D11*
X85516897Y-122439339D03*
X74891713Y-119592329D03*
D12*
X81744278Y-115268575D03*
X86004506Y-118687707D03*
%TD*%
D10*
%TO.C,S2*%
X85121867Y-102663243D03*
D11*
X90434459Y-104086748D03*
X79809275Y-101239738D03*
D12*
X86661840Y-96915984D03*
X90922068Y-100335116D03*
%TD*%
D10*
%TO.C,S3*%
X90039428Y-84310652D03*
D11*
X95352020Y-85734157D03*
X84726836Y-82887147D03*
D12*
X91579401Y-78563393D03*
X95839629Y-81982525D03*
%TD*%
D10*
%TO.C,S4*%
X101250643Y-120023246D03*
D11*
X106418952Y-121904357D03*
X96082334Y-118142135D03*
D12*
X103285663Y-114432075D03*
X107231682Y-118209499D03*
%TD*%
D10*
%TO.C,S5*%
X107749025Y-102169086D03*
D11*
X112917334Y-104050197D03*
X102580716Y-100287975D03*
D12*
X109784045Y-96577915D03*
X113730064Y-100355339D03*
%TD*%
D10*
%TO.C,S6*%
X114247408Y-84314927D03*
D11*
X119415717Y-86196038D03*
X109079099Y-82433816D03*
D12*
X116282428Y-78723756D03*
X120228447Y-82501180D03*
%TD*%
D10*
%TO.C,S7*%
X121127559Y-123887956D03*
D11*
X126112252Y-126212356D03*
X116142866Y-121563556D03*
D12*
X123642138Y-118495425D03*
X127243916Y-122602393D03*
%TD*%
D10*
%TO.C,S8*%
X129157306Y-106668108D03*
D11*
X134141999Y-108992508D03*
X124172613Y-104343708D03*
D12*
X131671885Y-101275577D03*
X135273663Y-105382545D03*
%TD*%
D10*
%TO.C,S9*%
X137187053Y-89448260D03*
D11*
X142171746Y-91772660D03*
X132202360Y-87123860D03*
D12*
X139701632Y-84055729D03*
X143303410Y-88162697D03*
%TD*%
D10*
%TO.C,S10*%
X139351125Y-129765222D03*
D11*
X144335818Y-132089622D03*
X134366432Y-127440822D03*
D12*
X141865704Y-124372691D03*
X145467482Y-128479659D03*
%TD*%
D10*
%TO.C,S11*%
X147380872Y-112545374D03*
D11*
X152365565Y-114869774D03*
X142396179Y-110220974D03*
D12*
X149895451Y-107152843D03*
X153497229Y-111259811D03*
%TD*%
D10*
%TO.C,S12*%
X155410619Y-95325526D03*
D11*
X160395312Y-97649926D03*
X150425926Y-93001126D03*
D12*
X157925198Y-89932995D03*
X161526976Y-94039963D03*
%TD*%
D10*
%TO.C,S13*%
X154563536Y-142099931D03*
D11*
X159548229Y-144424331D03*
X149578843Y-139775531D03*
D12*
X157078115Y-136707400D03*
X160679893Y-140814368D03*
%TD*%
D10*
%TO.C,S14*%
X162593283Y-124880083D03*
D11*
X167577976Y-127204483D03*
X157608590Y-122555683D03*
D12*
X165107862Y-119487552D03*
X168709640Y-123594520D03*
%TD*%
D10*
%TO.C,S15*%
X170623030Y-107660235D03*
D11*
X175607723Y-109984635D03*
X165638337Y-105335835D03*
D12*
X173137609Y-102267704D03*
X176739387Y-106374672D03*
%TD*%
D10*
%TO.C,S16*%
X170779666Y-152282159D03*
D11*
X175764359Y-154606559D03*
X165794973Y-149957759D03*
D12*
X173294245Y-146889628D03*
X176896023Y-150996596D03*
%TD*%
D10*
%TO.C,S17*%
X178809413Y-135062311D03*
D11*
X183794106Y-137386711D03*
X173824720Y-132737911D03*
D12*
X181323992Y-129669780D03*
X184925770Y-133776748D03*
%TD*%
D10*
%TO.C,S18*%
X186839160Y-117842463D03*
D11*
X191823853Y-120166863D03*
X181854467Y-115518063D03*
D12*
X189353739Y-112449932D03*
X192955517Y-116556900D03*
%TD*%
D10*
%TO.C,S19*%
X137395593Y-156437790D03*
D11*
X142380286Y-158762190D03*
X132410900Y-154113390D03*
D12*
X139910172Y-151045259D03*
X143511950Y-155152227D03*
%TD*%
D10*
%TO.C,S20*%
X155286987Y-167759804D03*
D11*
X159500231Y-171295136D03*
X151073743Y-164224472D03*
D12*
X159111573Y-163201840D03*
X161527663Y-168101075D03*
%TD*%
D10*
%TO.C,S21*%
X173808562Y-180690437D03*
D11*
X178313898Y-177535767D03*
X169303226Y-183845107D03*
D12*
X170395782Y-175816482D03*
X175753411Y-174750735D03*
%TD*%
D10*
%TO.C,S22*%
X347412819Y-121015834D03*
D11*
X352725411Y-119592329D03*
X342100227Y-122439339D03*
D12*
X345872846Y-115268575D03*
X351271877Y-116099517D03*
%TD*%
D10*
%TO.C,S23*%
X342495257Y-102663243D03*
D11*
X347807849Y-101239738D03*
X337182665Y-104086748D03*
D12*
X340955284Y-96915984D03*
X346354315Y-97746926D03*
%TD*%
D10*
%TO.C,S24*%
X337577696Y-84310652D03*
D11*
X342890288Y-82887147D03*
X332265104Y-85734157D03*
D12*
X336037723Y-78563393D03*
X341436754Y-79394335D03*
%TD*%
D10*
%TO.C,S25*%
X326366481Y-120023246D03*
D11*
X331534790Y-118142135D03*
X321198172Y-121904357D03*
D12*
X324331461Y-114432075D03*
X329782369Y-114789298D03*
%TD*%
D10*
%TO.C,S26*%
X319868099Y-102169086D03*
D11*
X325036408Y-100287975D03*
X314699790Y-104050197D03*
D12*
X317833079Y-96577915D03*
X323283987Y-96935138D03*
%TD*%
D10*
%TO.C,S27*%
X313369716Y-84314927D03*
D11*
X318538025Y-82433816D03*
X308201407Y-86196038D03*
D12*
X311334696Y-78723756D03*
X316785604Y-79080979D03*
%TD*%
D10*
%TO.C,S28*%
X306489565Y-123887956D03*
D11*
X311474258Y-121563556D03*
X301504872Y-126212356D03*
D12*
X303974986Y-118495425D03*
X309436285Y-118376210D03*
%TD*%
D10*
%TO.C,S29*%
X298459818Y-106668108D03*
D11*
X303444511Y-104343708D03*
X293475125Y-108992508D03*
D12*
X295945239Y-101275577D03*
X301406538Y-101156362D03*
%TD*%
D10*
%TO.C,S30*%
X290430071Y-89448260D03*
D11*
X295414764Y-87123860D03*
X285445378Y-91772660D03*
D12*
X287915492Y-84055729D03*
X293376791Y-83936514D03*
%TD*%
D10*
%TO.C,S31*%
X288265999Y-129765222D03*
D11*
X293250692Y-127440822D03*
X283281306Y-132089622D03*
D12*
X285751420Y-124372691D03*
X291212719Y-124253476D03*
%TD*%
D10*
%TO.C,S32*%
X280236252Y-112545374D03*
D11*
X285220945Y-110220974D03*
X275251559Y-114869774D03*
D12*
X277721673Y-107152843D03*
X283182972Y-107033628D03*
%TD*%
D10*
%TO.C,S33*%
X272206505Y-95325526D03*
D11*
X277191198Y-93001126D03*
X267221812Y-97649926D03*
D12*
X269691926Y-89932995D03*
X275153225Y-89813780D03*
%TD*%
D10*
%TO.C,S34*%
X273053588Y-142099931D03*
D11*
X278038281Y-139775531D03*
X268068895Y-144424331D03*
D12*
X270539009Y-136707400D03*
X276000308Y-136588185D03*
%TD*%
D10*
%TO.C,S35*%
X265023841Y-124880083D03*
D11*
X270008534Y-122555683D03*
X260039148Y-127204483D03*
D12*
X262509262Y-119487552D03*
X267970561Y-119368337D03*
%TD*%
D10*
%TO.C,S36*%
X256994093Y-107660235D03*
D11*
X261978786Y-105335835D03*
X252009400Y-109984635D03*
D12*
X254479514Y-102267704D03*
X259940813Y-102148489D03*
%TD*%
D10*
%TO.C,S37*%
X256837458Y-152282159D03*
D11*
X261822151Y-149957759D03*
X251852765Y-154606559D03*
D12*
X254322879Y-146889628D03*
X259784178Y-146770413D03*
%TD*%
D10*
%TO.C,S38*%
X248807711Y-135062311D03*
D11*
X253792404Y-132737911D03*
X243823018Y-137386711D03*
D12*
X246293132Y-129669780D03*
X251754431Y-129550565D03*
%TD*%
D10*
%TO.C,S39*%
X240777964Y-117842463D03*
D11*
X245762657Y-115518063D03*
X235793271Y-120166863D03*
D12*
X238263385Y-112449932D03*
X243724684Y-112330717D03*
%TD*%
D10*
%TO.C,S40*%
X290221531Y-156437790D03*
D11*
X295206224Y-154113390D03*
X285236838Y-158762190D03*
D12*
X287706952Y-151045259D03*
X293168251Y-150926044D03*
%TD*%
D10*
%TO.C,S41*%
X272330137Y-167759804D03*
D11*
X276543381Y-164224472D03*
X268116893Y-171295136D03*
D12*
X268505551Y-163201840D03*
X273749906Y-161673199D03*
%TD*%
D10*
%TO.C,S42*%
X253808562Y-180690437D03*
D11*
X258313898Y-183845107D03*
X249303226Y-177535767D03*
D12*
X257221342Y-175816482D03*
X260055234Y-180486499D03*
%TD*%
D13*
%TO.C,S43*%
X80204305Y-121015834D03*
D11*
X75297402Y-119701033D03*
X85111208Y-122330635D03*
D12*
X76436053Y-125265337D03*
X83227082Y-124455386D03*
%TD*%
D13*
%TO.C,S44*%
X85121867Y-102663243D03*
D11*
X80214964Y-101348442D03*
X90028770Y-103978044D03*
D12*
X81353615Y-106912746D03*
X88144644Y-106102795D03*
%TD*%
D13*
%TO.C,S45*%
X90039428Y-84310652D03*
D11*
X85132525Y-82995851D03*
X94946331Y-85625453D03*
D12*
X86271176Y-88560155D03*
X93062205Y-87750204D03*
%TD*%
D13*
%TO.C,S46*%
X101250643Y-120023246D03*
D11*
X96477004Y-118285784D03*
X106024282Y-121760708D03*
D12*
X97126361Y-123928153D03*
X103962141Y-123713162D03*
%TD*%
D13*
%TO.C,S47*%
X107749025Y-102169086D03*
D11*
X102975386Y-100431624D03*
X112522664Y-103906548D03*
D12*
X103624743Y-106073993D03*
X110460523Y-105859002D03*
%TD*%
D13*
%TO.C,S48*%
X114247408Y-84314927D03*
D11*
X109473769Y-82577465D03*
X119021047Y-86052389D03*
D12*
X110123126Y-88219834D03*
X116958906Y-88004843D03*
%TD*%
D13*
%TO.C,S49*%
X121127559Y-123887956D03*
D11*
X116523515Y-121741055D03*
X125731603Y-126034857D03*
D12*
X116678636Y-127418549D03*
X123507141Y-127800153D03*
%TD*%
D13*
%TO.C,S50*%
X129157306Y-106668108D03*
D11*
X124553262Y-104521207D03*
X133761350Y-108815009D03*
D12*
X124708383Y-110198701D03*
X131536888Y-110580305D03*
%TD*%
D13*
%TO.C,S51*%
X137187053Y-89448260D03*
D11*
X132583009Y-87301359D03*
X141791097Y-91595161D03*
D12*
X132738130Y-92978853D03*
X139566635Y-93360457D03*
%TD*%
D13*
%TO.C,S52*%
X139351125Y-129765222D03*
D11*
X134747081Y-127618321D03*
X143955169Y-131912123D03*
D12*
X134902202Y-133295815D03*
X141730707Y-133677419D03*
%TD*%
D13*
%TO.C,S53*%
X147380872Y-112545374D03*
D11*
X142776828Y-110398473D03*
X151984916Y-114692275D03*
D12*
X142931949Y-116075967D03*
X149760454Y-116457571D03*
%TD*%
D13*
%TO.C,S54*%
X155410619Y-95325526D03*
D11*
X150806575Y-93178625D03*
X160014663Y-97472427D03*
D12*
X150961696Y-98856119D03*
X157790201Y-99237723D03*
%TD*%
D13*
%TO.C,S55*%
X154563536Y-142099931D03*
D11*
X149959492Y-139953030D03*
X159167580Y-144246832D03*
D12*
X150114613Y-145630524D03*
X156943118Y-146012128D03*
%TD*%
D13*
%TO.C,S56*%
X162593283Y-124880083D03*
D11*
X157989239Y-122733182D03*
X167197327Y-127026984D03*
D12*
X158144360Y-128410676D03*
X164972865Y-128792280D03*
%TD*%
D13*
%TO.C,S57*%
X170623030Y-107660235D03*
D11*
X166018986Y-105513334D03*
X175227074Y-109807136D03*
D12*
X166174107Y-111190828D03*
X173002612Y-111572432D03*
%TD*%
D13*
%TO.C,S58*%
X170779666Y-152282159D03*
D11*
X166175622Y-150135258D03*
X175383710Y-154429060D03*
D12*
X166330743Y-155812752D03*
X173159248Y-156194356D03*
%TD*%
D13*
%TO.C,S59*%
X178809413Y-135062311D03*
D11*
X174205369Y-132915410D03*
X183413457Y-137209212D03*
D12*
X174360490Y-138592904D03*
X181188995Y-138974508D03*
%TD*%
D13*
%TO.C,S60*%
X186839160Y-117842463D03*
D11*
X182235116Y-115695562D03*
X191443204Y-119989364D03*
D12*
X182390237Y-121373056D03*
X189218742Y-121754660D03*
%TD*%
D13*
%TO.C,S61*%
X137395593Y-156437790D03*
D11*
X132791549Y-154290889D03*
X141999637Y-158584691D03*
D12*
X132946670Y-159968383D03*
X139775175Y-160349987D03*
%TD*%
D13*
%TO.C,S62*%
X155286987Y-167759804D03*
D11*
X151395481Y-164494443D03*
X159178493Y-171025165D03*
D12*
X150075873Y-170018629D03*
X156572936Y-172154578D03*
%TD*%
D13*
%TO.C,S63*%
X173808562Y-180690437D03*
D11*
X169647270Y-183604205D03*
X177969854Y-177776669D03*
D12*
X174641684Y-186308614D03*
X178386415Y-180585757D03*
%TD*%
D13*
%TO.C,S64*%
X347412819Y-121015834D03*
D11*
X342505916Y-122330635D03*
X352319722Y-119701033D03*
D12*
X346274168Y-126580138D03*
X351750397Y-122483185D03*
%TD*%
D13*
%TO.C,S65*%
X342495257Y-102663243D03*
D11*
X337588354Y-103978044D03*
X347402160Y-101348442D03*
D12*
X341356606Y-108227547D03*
X346832835Y-104130594D03*
%TD*%
D13*
%TO.C,S66*%
X337577696Y-84310652D03*
D11*
X332670793Y-85625453D03*
X342484599Y-82995851D03*
D12*
X336439045Y-89874956D03*
X341915274Y-85778003D03*
%TD*%
D13*
%TO.C,S67*%
X326366481Y-120023246D03*
D11*
X321592842Y-121760708D03*
X331140120Y-118285784D03*
D12*
X325717124Y-125665616D03*
X330815441Y-121106969D03*
%TD*%
D13*
%TO.C,S68*%
X319868099Y-102169086D03*
D11*
X315094460Y-103906548D03*
X324641738Y-100431624D03*
D12*
X319218742Y-107811456D03*
X324317059Y-103252809D03*
%TD*%
D13*
%TO.C,S69*%
X313369716Y-84314927D03*
D11*
X308596077Y-86052389D03*
X318143355Y-82577465D03*
D12*
X312720359Y-89957297D03*
X317818676Y-85398650D03*
%TD*%
D13*
%TO.C,S70*%
X306489565Y-123887956D03*
D11*
X301885521Y-126034857D03*
X311093609Y-121741055D03*
D12*
X306334444Y-129565450D03*
X311016048Y-124579802D03*
%TD*%
D13*
%TO.C,S71*%
X298459818Y-106668108D03*
D11*
X293855774Y-108815009D03*
X303063862Y-104521207D03*
D12*
X298304697Y-112345602D03*
X302986301Y-107359954D03*
%TD*%
D13*
%TO.C,S72*%
X290430071Y-89448260D03*
D11*
X285826027Y-91595161D03*
X295034115Y-87301359D03*
D12*
X290274950Y-95125754D03*
X294956554Y-90140106D03*
%TD*%
D13*
%TO.C,S73*%
X288265999Y-129765222D03*
D11*
X283661955Y-131912123D03*
X292870043Y-127618321D03*
D12*
X288110878Y-135442716D03*
X292792482Y-130457068D03*
%TD*%
D13*
%TO.C,S74*%
X280236252Y-112545374D03*
D11*
X275632208Y-114692275D03*
X284840296Y-110398473D03*
D12*
X280081131Y-118222868D03*
X284762735Y-113237220D03*
%TD*%
D13*
%TO.C,S75*%
X272206505Y-95325526D03*
D11*
X267602461Y-97472427D03*
X276810549Y-93178625D03*
D12*
X272051384Y-101003020D03*
X276732988Y-96017372D03*
%TD*%
D13*
%TO.C,S76*%
X273053588Y-142099931D03*
D11*
X268449544Y-144246832D03*
X277657632Y-139953030D03*
D12*
X272898467Y-147777425D03*
X277580071Y-142791777D03*
%TD*%
D13*
%TO.C,S77*%
X265023841Y-124880083D03*
D11*
X260419797Y-127026984D03*
X269627885Y-122733182D03*
D12*
X264868720Y-130557577D03*
X269550324Y-125571929D03*
%TD*%
D13*
%TO.C,S78*%
X256994093Y-107660235D03*
D11*
X252390049Y-109807136D03*
X261598137Y-105513334D03*
D12*
X256838972Y-113337729D03*
X261520576Y-108352081D03*
%TD*%
D13*
%TO.C,S79*%
X256837458Y-152282159D03*
D11*
X252233414Y-154429060D03*
X261441502Y-150135258D03*
D12*
X256682337Y-157959653D03*
X261363941Y-152974005D03*
%TD*%
D13*
%TO.C,S80*%
X248807711Y-135062311D03*
D11*
X244203667Y-137209212D03*
X253411755Y-132915410D03*
D12*
X248652590Y-140739805D03*
X253334194Y-135754157D03*
%TD*%
D13*
%TO.C,S81*%
X240777964Y-117842463D03*
D11*
X236173920Y-119989364D03*
X245382008Y-115695562D03*
D12*
X240622843Y-123519957D03*
X245304447Y-118534309D03*
%TD*%
D13*
%TO.C,S82*%
X290221531Y-156437790D03*
D11*
X285617487Y-158584691D03*
X294825575Y-154290889D03*
D12*
X290066410Y-162115284D03*
X294748014Y-157129636D03*
%TD*%
D13*
%TO.C,S83*%
X272330137Y-167759804D03*
D11*
X268438631Y-171025165D03*
X276221643Y-164494443D03*
D12*
X273649745Y-173283990D03*
X276881447Y-167256536D03*
%TD*%
D13*
%TO.C,S84*%
X253808562Y-180690437D03*
D11*
X249647270Y-177776669D03*
X257969854Y-183604205D03*
D12*
X248814148Y-183394845D03*
X255472647Y-184956409D03*
%TD*%
D14*
%TO.C,D1*%
X76281155Y-129282115D03*
X79468711Y-130136217D03*
%TD*%
%TO.C,D2*%
X81198717Y-110929524D03*
X84386273Y-111783626D03*
%TD*%
%TO.C,D3*%
X86116279Y-92576934D03*
X89303835Y-93431036D03*
%TD*%
D15*
%TO.C,D4*%
X96621968Y-127916147D03*
X99722954Y-129044813D03*
%TD*%
%TO.C,D5*%
X103120351Y-110061987D03*
X106221337Y-111190653D03*
%TD*%
%TO.C,D6*%
X109618734Y-92207827D03*
X112719720Y-93336493D03*
%TD*%
D16*
%TO.C,D7*%
X115828586Y-131347406D03*
X118819402Y-132742046D03*
%TD*%
%TO.C,D8*%
X123858333Y-114127558D03*
X126849149Y-115522198D03*
%TD*%
%TO.C,D9*%
X131888080Y-96907710D03*
X134878896Y-98302350D03*
%TD*%
%TO.C,D10*%
X134052153Y-137224672D03*
X137042969Y-138619312D03*
%TD*%
%TO.C,D11*%
X142081900Y-120004824D03*
X145072716Y-121399464D03*
%TD*%
%TO.C,D12*%
X150111647Y-102784976D03*
X153102463Y-104179616D03*
%TD*%
%TO.C,D13*%
X149264564Y-149559381D03*
X152255380Y-150954021D03*
%TD*%
%TO.C,D14*%
X157294311Y-132339533D03*
X160285127Y-133734173D03*
%TD*%
%TO.C,D15*%
X165324058Y-115119685D03*
X168314874Y-116514325D03*
%TD*%
%TO.C,D16*%
X165480693Y-159741609D03*
X168471509Y-161136249D03*
%TD*%
%TO.C,D17*%
X173510440Y-142521761D03*
X176501256Y-143916401D03*
%TD*%
%TO.C,D18*%
X181540188Y-125301913D03*
X184531004Y-126696553D03*
%TD*%
%TO.C,D19*%
X132096620Y-163897240D03*
X135087436Y-165291880D03*
%TD*%
D17*
%TO.C,D20*%
X148237925Y-173593604D03*
X150765871Y-175714804D03*
%TD*%
D18*
%TO.C,D21*%
X177619149Y-189009206D03*
X180322351Y-187116404D03*
%TD*%
D19*
%TO.C,D22*%
X348148413Y-130136217D03*
X351335969Y-129282115D03*
%TD*%
%TO.C,D23*%
X343230851Y-111783626D03*
X346418407Y-110929524D03*
%TD*%
%TO.C,D24*%
X338313289Y-93431036D03*
X341500845Y-92576934D03*
%TD*%
D20*
%TO.C,D25*%
X327894170Y-129044813D03*
X330995156Y-127916147D03*
%TD*%
%TO.C,D26*%
X321395787Y-111190653D03*
X324496773Y-110061987D03*
%TD*%
%TO.C,D27*%
X314897404Y-93336493D03*
X317998390Y-92207827D03*
%TD*%
D21*
%TO.C,D28*%
X308797721Y-132742046D03*
X311788537Y-131347406D03*
%TD*%
%TO.C,D29*%
X300767974Y-115522198D03*
X303758790Y-114127558D03*
%TD*%
%TO.C,D30*%
X292738227Y-98302350D03*
X295729043Y-96907710D03*
%TD*%
%TO.C,D31*%
X290574155Y-138619312D03*
X293564971Y-137224672D03*
%TD*%
%TO.C,D32*%
X282544408Y-121399464D03*
X285535224Y-120004824D03*
%TD*%
%TO.C,D33*%
X274514661Y-104179616D03*
X277505477Y-102784976D03*
%TD*%
%TO.C,D34*%
X275361744Y-150954021D03*
X278352560Y-149559381D03*
%TD*%
%TO.C,D35*%
X267331997Y-133734173D03*
X270322813Y-132339533D03*
%TD*%
%TO.C,D36*%
X259302250Y-116514325D03*
X262293066Y-115119685D03*
%TD*%
%TO.C,D37*%
X259145614Y-161136249D03*
X262136430Y-159741609D03*
%TD*%
%TO.C,D38*%
X251115867Y-143916401D03*
X254106683Y-142521761D03*
%TD*%
%TO.C,D39*%
X243086120Y-126696553D03*
X246076936Y-125301913D03*
%TD*%
%TO.C,D40*%
X292529688Y-165291880D03*
X295520504Y-163897240D03*
%TD*%
D22*
%TO.C,D41*%
X276851253Y-175714804D03*
X279379199Y-173593604D03*
%TD*%
D23*
%TO.C,D42*%
X247294773Y-187116404D03*
X249997975Y-189009206D03*
%TD*%
D24*
%TO.C,MCU1*%
X205851907Y-115465098D03*
X221091907Y-115465098D03*
X205851907Y-118005098D03*
X221091907Y-118005098D03*
X205851907Y-120545098D03*
X221091907Y-120545098D03*
X205851907Y-123085098D03*
X221091907Y-123085098D03*
X205851907Y-125625098D03*
X221091907Y-125625098D03*
X205851907Y-128165098D03*
X221091907Y-128165098D03*
X205851907Y-130705098D03*
X221091907Y-130705098D03*
X205851907Y-133245098D03*
X221091907Y-133245098D03*
X205851907Y-135785098D03*
X221091907Y-135785098D03*
X205851907Y-138325098D03*
X221091907Y-138325098D03*
X205851907Y-140865098D03*
X221091907Y-140865098D03*
X205851907Y-143405098D03*
X221091907Y-143405098D03*
%TD*%
D25*
%TO.C,JST1*%
X225070931Y-149248739D03*
D26*
X225070931Y-147248739D03*
%TD*%
D27*
%TO.C,PWR1*%
X193200095Y-104187455D03*
X191809297Y-105904948D03*
X197482462Y-110498987D03*
X198873260Y-108781494D03*
D28*
X195985400Y-110123083D03*
X193653962Y-108235122D03*
X192488243Y-107291141D03*
D29*
X194178706Y-106395355D03*
X196510144Y-108283316D03*
%TD*%
D30*
%TO.C,RST1*%
X237359873Y-102657755D03*
X238382959Y-104015436D03*
X233167037Y-105817284D03*
X234190123Y-107174965D03*
%TD*%
D31*
%TO.C,J2*%
X216231180Y-160977693D03*
X215731180Y-160977693D03*
X215231180Y-160977693D03*
X214731180Y-160977693D03*
X214231180Y-160977693D03*
X213731180Y-160977693D03*
X213231180Y-160977693D03*
X212731180Y-160977693D03*
X212231180Y-160977693D03*
X211731180Y-160977693D03*
X211231180Y-160977693D03*
X210731180Y-160977693D03*
D32*
X218031180Y-158253693D03*
X208931180Y-158253693D03*
%TD*%
M02*
