M48
; DRILL file {KiCad 9.0.7} date 2026-04-02T00:58:17-0600
; FORMAT={-:-/ absolute / metric / decimal}
; #@! TF.CreationDate,2026-04-02T00:58:17-06:00
; #@! TF.GenerationSoftware,Kicad,Pcbnew,9.0.7
; #@! TF.FileFunction,Plated,1,2,PTH
FMAT,2
METRIC
; #@! TA.AperFunction,Plated,PTH,ViaDrill
T1C0.300
; #@! TA.AperFunction,Plated,PTH,ComponentDrill
T2C0.300
; #@! TA.AperFunction,Plated,PTH,ComponentDrill
T3C0.750
; #@! TA.AperFunction,Plated,PTH,ComponentDrill
T4C1.000
%
G90
G05
T1
X193.5Y-113.75
X199.25Y-116.75
X199.25Y-131.75
X207.75Y-153.5
X208.5Y-153.5
X209.25Y-153.5
X210.0Y-153.5
X213.25Y-116.75
X213.549Y-141.5
X214.75Y-139.75
X216.0Y-153.25
X218.0Y-154.0
X232.0Y-134.75
X243.0Y-109.25
X255.75Y-124.25
T2
X76.281Y-129.282
X79.469Y-130.136
X81.199Y-110.93
X84.386Y-111.784
X86.116Y-92.577
X89.304Y-93.431
X96.622Y-127.916
X99.723Y-129.045
X103.12Y-110.062
X106.221Y-111.191
X109.619Y-92.208
X112.72Y-93.336
X115.829Y-131.347
X118.819Y-132.742
X123.858Y-114.128
X126.849Y-115.522
X131.888Y-96.908
X132.097Y-163.897
X134.052Y-137.225
X134.879Y-98.302
X135.087Y-165.292
X137.043Y-138.619
X142.082Y-120.005
X145.073Y-121.399
X148.238Y-173.594
X149.265Y-149.559
X150.112Y-102.785
X150.766Y-175.715
X152.255Y-150.954
X153.102Y-104.18
X157.294Y-132.34
X160.285Y-133.734
X165.324Y-115.12
X165.481Y-159.742
X168.315Y-116.514
X168.472Y-161.136
X173.51Y-142.522
X176.501Y-143.916
X177.619Y-189.009
X180.322Y-187.116
X181.54Y-125.302
X184.531Y-126.697
X243.086Y-126.697
X246.077Y-125.302
X247.295Y-187.116
X249.998Y-189.009
X251.116Y-143.916
X254.107Y-142.522
X259.146Y-161.136
X259.302Y-116.514
X262.136Y-159.742
X262.293Y-115.12
X267.332Y-133.734
X270.323Y-132.34
X274.515Y-104.18
X275.362Y-150.954
X276.851Y-175.715
X277.505Y-102.785
X278.353Y-149.559
X279.379Y-173.594
X282.544Y-121.399
X285.535Y-120.005
X290.574Y-138.619
X292.53Y-165.292
X292.738Y-98.302
X293.565Y-137.225
X295.521Y-163.897
X295.729Y-96.908
X300.768Y-115.522
X303.759Y-114.128
X308.798Y-132.742
X311.789Y-131.347
X314.897Y-93.336
X317.998Y-92.208
X321.396Y-111.191
X324.497Y-110.062
X327.894Y-129.045
X330.995Y-127.916
X338.313Y-93.431
X341.501Y-92.577
X343.231Y-111.784
X346.418Y-110.93
X348.148Y-130.136
X351.336Y-129.282
T3
X225.071Y-147.249
X225.071Y-149.249
T4
X205.852Y-115.465
X205.852Y-118.005
X205.852Y-120.545
X205.852Y-123.085
X205.852Y-125.625
X205.852Y-128.165
X205.852Y-130.705
X205.852Y-133.245
X205.852Y-135.785
X205.852Y-138.325
X205.852Y-140.865
X205.852Y-143.405
X221.092Y-115.465
X221.092Y-118.005
X221.092Y-120.545
X221.092Y-123.085
X221.092Y-125.625
X221.092Y-128.165
X221.092Y-130.705
X221.092Y-133.245
X221.092Y-135.785
X221.092Y-138.325
X221.092Y-140.865
X221.092Y-143.405
M30
