%TF.GenerationSoftware,KiCad,Pcbnew,9.0.7*%
%TF.CreationDate,2026-04-02T00:58:20-06:00*%
%TF.ProjectId,goodwings,676f6f64-7769-46e6-9773-2e6b69636164,v1.0.0*%
%TF.SameCoordinates,Original*%
%TF.FileFunction,Legend,Bot*%
%TF.FilePolarity,Positive*%
%FSLAX46Y46*%
G04 Gerber Fmt 4.6, Leading zero omitted, Abs format (unit mm)*
G04 Created by KiCad (PCBNEW 9.0.7) date 2026-04-02 00:58:20*
%MOMM*%
%LPD*%
G01*
G04 APERTURE LIST*
%ADD10C,0.100000*%
%ADD11C,0.150000*%
%ADD12C,0.400000*%
G04 APERTURE END LIST*
D10*
G36*
X223890699Y-171549891D02*
G01*
X224045341Y-171576713D01*
X224197684Y-171616108D01*
X224311810Y-171657679D01*
X224412637Y-171710925D01*
X224471316Y-171757953D01*
X224500732Y-171799871D01*
X224509525Y-171839030D01*
X224502282Y-171882190D01*
X224481437Y-171915966D01*
X224446546Y-171943626D01*
X224381420Y-171976538D01*
X224340659Y-172001293D01*
X224322069Y-172030638D01*
X224315043Y-172077780D01*
X224311444Y-172204905D01*
X224311444Y-172581772D01*
X224321092Y-172996496D01*
X224335873Y-173121722D01*
X224357728Y-173215582D01*
X224364689Y-173257714D01*
X224356027Y-173288567D01*
X224329733Y-173308111D01*
X224276029Y-173316210D01*
X224229407Y-173312590D01*
X224191399Y-173302533D01*
X224107990Y-173277131D01*
X224077337Y-173288855D01*
X223942072Y-173365988D01*
X223827110Y-173412686D01*
X223708206Y-173439585D01*
X223569801Y-173449078D01*
X223428255Y-173437858D01*
X223298728Y-173405067D01*
X223179013Y-173351062D01*
X223067393Y-173274933D01*
X222959548Y-173171631D01*
X222877210Y-173057606D01*
X222818225Y-172931401D01*
X222802180Y-172869124D01*
X223378314Y-172869124D01*
X223385063Y-172976450D01*
X223402966Y-173056398D01*
X223429361Y-173114954D01*
X223469075Y-173162062D01*
X223517620Y-173189473D01*
X223577983Y-173198974D01*
X223632122Y-173187671D01*
X223668363Y-173155613D01*
X223690334Y-173097369D01*
X223705187Y-172958441D01*
X223712072Y-172660785D01*
X223704025Y-172553938D01*
X223686671Y-172505812D01*
X223646556Y-172469496D01*
X223583600Y-172456475D01*
X223520363Y-172473428D01*
X223464898Y-172521200D01*
X223420381Y-172599299D01*
X223389956Y-172711512D01*
X223378314Y-172869124D01*
X222802180Y-172869124D01*
X222781973Y-172790695D01*
X222769417Y-172632452D01*
X222781640Y-172494138D01*
X222816723Y-172373775D01*
X222873733Y-172267989D01*
X222953698Y-172174375D01*
X223031695Y-172112151D01*
X223113505Y-172068944D01*
X223200326Y-172043154D01*
X223293806Y-172034424D01*
X223418502Y-172048870D01*
X223535855Y-172092144D01*
X223648691Y-172166437D01*
X223700959Y-172202463D01*
X223710693Y-172197587D01*
X223714759Y-172179138D01*
X223714759Y-172149096D01*
X223697051Y-171626172D01*
X223705554Y-171577614D01*
X223729476Y-171551518D01*
X223772034Y-171542030D01*
X223890699Y-171549891D01*
G37*
G36*
X221383827Y-172719281D02*
G01*
X221564200Y-173215704D01*
X221634741Y-173390639D01*
X221699145Y-173517222D01*
X221772859Y-173627097D01*
X221853384Y-173716524D01*
X221947862Y-173791350D01*
X222049845Y-173843996D01*
X222161028Y-173875851D01*
X222283740Y-173886762D01*
X222415682Y-173873885D01*
X222524219Y-173837650D01*
X222614200Y-173779539D01*
X222669136Y-173718718D01*
X222701433Y-173649258D01*
X222712508Y-173568147D01*
X222704634Y-173499889D01*
X222681837Y-173440887D01*
X222643876Y-173388995D01*
X222594227Y-173348360D01*
X222538626Y-173324398D01*
X222474982Y-173316210D01*
X222411244Y-173323985D01*
X222358309Y-173346214D01*
X222313660Y-173383011D01*
X222274703Y-173437233D01*
X222245760Y-173540425D01*
X222231360Y-173573431D01*
X222210408Y-173591398D01*
X222181280Y-173597578D01*
X222144537Y-173588924D01*
X222113136Y-173561919D01*
X222092643Y-173522775D01*
X222085415Y-173472892D01*
X222098982Y-173400823D01*
X222156123Y-173259912D01*
X222485362Y-172558203D01*
X222535897Y-172460294D01*
X222562543Y-172421915D01*
X222596937Y-172395453D01*
X222676116Y-172354504D01*
X222701742Y-172338537D01*
X222724965Y-172310418D01*
X222740550Y-172277043D01*
X222745359Y-172246549D01*
X222733584Y-172196036D01*
X222696496Y-172151761D01*
X222624411Y-172111789D01*
X222500383Y-172078510D01*
X222333161Y-172057610D01*
X222132187Y-172050055D01*
X221994631Y-172058640D01*
X221902599Y-172080341D01*
X221836140Y-172115978D01*
X221800140Y-172161304D01*
X221788049Y-172219071D01*
X221795081Y-172254745D01*
X221820167Y-172301748D01*
X221842996Y-172344199D01*
X221849476Y-172377341D01*
X221835310Y-172444508D01*
X221774860Y-172564309D01*
X221720998Y-172640946D01*
X221686688Y-172657976D01*
X221650697Y-172641989D01*
X221602424Y-172574811D01*
X221568624Y-172490899D01*
X221558094Y-172414099D01*
X221566817Y-172356986D01*
X221591311Y-172313960D01*
X221633006Y-172251609D01*
X221644190Y-172206493D01*
X221634832Y-172164140D01*
X221605603Y-172126647D01*
X221549790Y-172092309D01*
X221446571Y-172061805D01*
X221298709Y-172050055D01*
X221171376Y-172058650D01*
X221089945Y-172080070D01*
X221040805Y-172109595D01*
X221014079Y-172145651D01*
X221005129Y-172190373D01*
X221013029Y-172237385D01*
X221035415Y-172272561D01*
X221073080Y-172300039D01*
X221144347Y-172330568D01*
X221201854Y-172362913D01*
X221246196Y-172413244D01*
X221304631Y-172524661D01*
X221383827Y-172719281D01*
G37*
G36*
X219456995Y-172400788D02*
G01*
X219456995Y-172861308D01*
X219446584Y-172936114D01*
X219417672Y-172992222D01*
X219372641Y-173030217D01*
X219317533Y-173042658D01*
X219262612Y-173032310D01*
X219178681Y-172993077D01*
X219135816Y-172980132D01*
X219104151Y-172989528D01*
X219072679Y-173021775D01*
X219051453Y-173065318D01*
X219044469Y-173111779D01*
X219053856Y-173166568D01*
X219083572Y-173221949D01*
X219138747Y-173280062D01*
X219240786Y-173353638D01*
X219352205Y-173406041D01*
X219474872Y-173438051D01*
X219611235Y-173449078D01*
X219720314Y-173440529D01*
X219813986Y-173416220D01*
X219894917Y-173377287D01*
X219965143Y-173323660D01*
X220023029Y-173256789D01*
X220064358Y-173180750D01*
X220089844Y-173093734D01*
X220098743Y-172993199D01*
X220098743Y-172358534D01*
X220105094Y-172322264D01*
X220141364Y-172315792D01*
X220282048Y-172315792D01*
X220319050Y-172311423D01*
X220335537Y-172301625D01*
X220343681Y-172282555D01*
X220347505Y-172237878D01*
X220347505Y-172177428D01*
X220338155Y-172139346D01*
X220314288Y-172113925D01*
X219688293Y-171718984D01*
X219628942Y-171706161D01*
X219518300Y-171706161D01*
X219486291Y-171711085D01*
X219469574Y-171723258D01*
X219460865Y-171744482D01*
X219456995Y-171787983D01*
X219456995Y-171972630D01*
X219453282Y-172007857D01*
X219445150Y-172023189D01*
X219429228Y-172030879D01*
X219392637Y-172034424D01*
X219139846Y-172034424D01*
X219093259Y-172040434D01*
X219071458Y-172054330D01*
X219060384Y-172080067D01*
X219055338Y-172136395D01*
X219055338Y-172217972D01*
X219061366Y-172279681D01*
X219075488Y-172312372D01*
X219101440Y-172331672D01*
X219148028Y-172339239D01*
X219395324Y-172339239D01*
X219428321Y-172342999D01*
X219444539Y-172351695D01*
X219453230Y-172367812D01*
X219456995Y-172400788D01*
G37*
G36*
X218209647Y-171613349D02*
G01*
X218227355Y-172177428D01*
X218220241Y-172236574D01*
X218200356Y-172265084D01*
X218168370Y-172274392D01*
X218140142Y-172265046D01*
X218107431Y-172230551D01*
X218032819Y-172142734D01*
X217949832Y-172082654D01*
X217856738Y-172046758D01*
X217750348Y-172034424D01*
X217642436Y-172043556D01*
X217550178Y-172069535D01*
X217470708Y-172111297D01*
X217401936Y-172169246D01*
X217352510Y-172234396D01*
X217319748Y-172311029D01*
X217301978Y-172401803D01*
X217292882Y-172544891D01*
X217280547Y-173042048D01*
X217274977Y-173101324D01*
X217263939Y-173135471D01*
X217241781Y-173165020D01*
X217191765Y-173209842D01*
X217160626Y-173246667D01*
X217150732Y-173288611D01*
X217161965Y-173333069D01*
X217197819Y-173371450D01*
X217269299Y-173405164D01*
X217395210Y-173430757D01*
X217600017Y-173441263D01*
X217781228Y-173431583D01*
X217893233Y-173407933D01*
X217957358Y-173376591D01*
X217989905Y-173340555D01*
X218000209Y-173298381D01*
X217993126Y-173261011D01*
X217944644Y-173194211D01*
X217918502Y-173138212D01*
X217897249Y-173023861D01*
X217888101Y-172818077D01*
X217898235Y-172648509D01*
X217922051Y-172552585D01*
X217960285Y-172489261D01*
X218011450Y-172453347D01*
X218079588Y-172440844D01*
X218130645Y-172447852D01*
X218169527Y-172467400D01*
X218199267Y-172499584D01*
X218218663Y-172552964D01*
X218227355Y-172662616D01*
X218227355Y-172928108D01*
X218211235Y-173126434D01*
X218196937Y-173152667D01*
X218149075Y-173211919D01*
X218128918Y-173244390D01*
X218122208Y-173281894D01*
X218133255Y-173330157D01*
X218167479Y-173370595D01*
X218233383Y-173405088D01*
X218346583Y-173430802D01*
X218527773Y-173441263D01*
X218743298Y-173430059D01*
X218876032Y-173402737D01*
X218951593Y-173366676D01*
X218989642Y-173325490D01*
X219001605Y-173277620D01*
X218997282Y-173242315D01*
X218985973Y-173218879D01*
X218911113Y-173157086D01*
X218885419Y-173127527D01*
X218861136Y-173067576D01*
X218840893Y-172960471D01*
X218827191Y-172772890D01*
X218821231Y-172425823D01*
X218826308Y-172155013D01*
X218837595Y-172019525D01*
X218845826Y-171981453D01*
X218856769Y-171959197D01*
X218874599Y-171941496D01*
X218909281Y-171919996D01*
X218961453Y-171884985D01*
X218987958Y-171850713D01*
X218996109Y-171815582D01*
X218988993Y-171772200D01*
X218967902Y-171735063D01*
X218930774Y-171702376D01*
X218849672Y-171662991D01*
X218683112Y-171610296D01*
X218447485Y-171556710D01*
X218290003Y-171542030D01*
X218241805Y-171550985D01*
X218217196Y-171573870D01*
X218209647Y-171613349D01*
G37*
G36*
X216433859Y-172041205D02*
G01*
X216534662Y-172061124D01*
X216629640Y-172093897D01*
X216747253Y-172155750D01*
X216849304Y-172235085D01*
X216937386Y-172333011D01*
X216999001Y-172429210D01*
X217042436Y-172530037D01*
X217068589Y-172636689D01*
X217077459Y-172750666D01*
X217068464Y-172864000D01*
X217041597Y-172973265D01*
X216996371Y-173079783D01*
X216925815Y-173189279D01*
X216839689Y-173280307D01*
X216737792Y-173353298D01*
X216624754Y-173405671D01*
X216498471Y-173437904D01*
X216356210Y-173449078D01*
X216215603Y-173438598D01*
X216086001Y-173407922D01*
X215965470Y-173357418D01*
X215852459Y-173286413D01*
X215778485Y-173218353D01*
X215739839Y-173155164D01*
X215727896Y-173093949D01*
X215736291Y-173048081D01*
X215763066Y-173001503D01*
X215800783Y-172966656D01*
X215835607Y-172956685D01*
X215865375Y-172963398D01*
X215911688Y-172989413D01*
X215967665Y-173021079D01*
X216042480Y-173049497D01*
X216120553Y-173068198D01*
X216186828Y-173073921D01*
X216256877Y-173065409D01*
X216324436Y-173039600D01*
X216391137Y-172994665D01*
X216446756Y-172937019D01*
X216476763Y-172881636D01*
X216486270Y-172826381D01*
X216477054Y-172801371D01*
X216447801Y-172792554D01*
X215805565Y-172792554D01*
X215751406Y-172778509D01*
X215707013Y-172734302D01*
X215679258Y-172670562D01*
X215669155Y-172586046D01*
X215684596Y-172476773D01*
X215696206Y-172449148D01*
X216190736Y-172449148D01*
X216200237Y-172492704D01*
X216226275Y-172517426D01*
X216274267Y-172526817D01*
X216412264Y-172526817D01*
X216455697Y-172522196D01*
X216478576Y-172511308D01*
X216491861Y-172491499D01*
X216497138Y-172456109D01*
X216487543Y-172400982D01*
X216456838Y-172343757D01*
X216424783Y-172310727D01*
X216386483Y-172291274D01*
X216339846Y-172284528D01*
X216279071Y-172296207D01*
X216232013Y-172330324D01*
X216201519Y-172381550D01*
X216190736Y-172449148D01*
X215696206Y-172449148D01*
X215733879Y-172359511D01*
X215799075Y-172264605D01*
X215882379Y-172183168D01*
X215977455Y-172118765D01*
X216081867Y-172072578D01*
X216197363Y-172044221D01*
X216326168Y-172034424D01*
X216433859Y-172041205D01*
G37*
G36*
X215031523Y-171549891D02*
G01*
X215186165Y-171576713D01*
X215338508Y-171616108D01*
X215452634Y-171657679D01*
X215553460Y-171710925D01*
X215612139Y-171757953D01*
X215641556Y-171799871D01*
X215650348Y-171839030D01*
X215643105Y-171882190D01*
X215622260Y-171915966D01*
X215587370Y-171943626D01*
X215522243Y-171976538D01*
X215481482Y-172001293D01*
X215462892Y-172030638D01*
X215455867Y-172077780D01*
X215452267Y-172204905D01*
X215452267Y-172581772D01*
X215461915Y-172996496D01*
X215476696Y-173121722D01*
X215498551Y-173215582D01*
X215505512Y-173257714D01*
X215496851Y-173288567D01*
X215470557Y-173308111D01*
X215416852Y-173316210D01*
X215370231Y-173312590D01*
X215332222Y-173302533D01*
X215248813Y-173277131D01*
X215218161Y-173288855D01*
X215082895Y-173365988D01*
X214967934Y-173412686D01*
X214849030Y-173439585D01*
X214710624Y-173449078D01*
X214569079Y-173437858D01*
X214439552Y-173405067D01*
X214319836Y-173351062D01*
X214208217Y-173274933D01*
X214100372Y-173171631D01*
X214018034Y-173057606D01*
X213959048Y-172931401D01*
X213943003Y-172869124D01*
X214519138Y-172869124D01*
X214525886Y-172976450D01*
X214543789Y-173056398D01*
X214570184Y-173114954D01*
X214609899Y-173162062D01*
X214658443Y-173189473D01*
X214718806Y-173198974D01*
X214772946Y-173187671D01*
X214809186Y-173155613D01*
X214831158Y-173097369D01*
X214846011Y-172958441D01*
X214852896Y-172660785D01*
X214844849Y-172553938D01*
X214827494Y-172505812D01*
X214787380Y-172469496D01*
X214724424Y-172456475D01*
X214661186Y-172473428D01*
X214605722Y-172521200D01*
X214561205Y-172599299D01*
X214530780Y-172711512D01*
X214519138Y-172869124D01*
X213943003Y-172869124D01*
X213922796Y-172790695D01*
X213910240Y-172632452D01*
X213922463Y-172494138D01*
X213957547Y-172373775D01*
X214014556Y-172267989D01*
X214094521Y-172174375D01*
X214172518Y-172112151D01*
X214254329Y-172068944D01*
X214341149Y-172043154D01*
X214434630Y-172034424D01*
X214559325Y-172048870D01*
X214676678Y-172092144D01*
X214789515Y-172166437D01*
X214841782Y-172202463D01*
X214851517Y-172197587D01*
X214855582Y-172179138D01*
X214855582Y-172149096D01*
X214837875Y-171626172D01*
X214846377Y-171577614D01*
X214870300Y-171551518D01*
X214912857Y-171542030D01*
X215031523Y-171549891D01*
G37*
G36*
X213207399Y-171843931D02*
G01*
X213341168Y-171880650D01*
X213460815Y-171940535D01*
X213568667Y-172024532D01*
X213650439Y-172115825D01*
X213714411Y-172219401D01*
X213761255Y-172337013D01*
X213790554Y-172471070D01*
X213800819Y-172624515D01*
X213789837Y-172780534D01*
X213758283Y-172918609D01*
X213707403Y-173041533D01*
X213637274Y-173151556D01*
X213546807Y-173250265D01*
X213433962Y-173337292D01*
X213311334Y-173398832D01*
X213176843Y-173436230D01*
X213027669Y-173449078D01*
X212892805Y-173437840D01*
X212767188Y-173404710D01*
X212648812Y-173349578D01*
X212536130Y-173271025D01*
X212433440Y-173170397D01*
X212355502Y-173061476D01*
X212300069Y-172943059D01*
X212270200Y-172828335D01*
X212873185Y-172828335D01*
X212883674Y-172936176D01*
X212909202Y-172998661D01*
X212945126Y-173031610D01*
X212993597Y-173042658D01*
X213034458Y-173034123D01*
X213070534Y-173007733D01*
X213103506Y-172958150D01*
X213162393Y-172806280D01*
X213198605Y-172639651D01*
X213211095Y-172455621D01*
X213200543Y-172350568D01*
X213174721Y-172289230D01*
X213138019Y-172256521D01*
X213087997Y-172245450D01*
X213042378Y-172257098D01*
X213002616Y-172287932D01*
X212967096Y-172343513D01*
X212931630Y-172437020D01*
X212899808Y-172568217D01*
X212879590Y-172704961D01*
X212873185Y-172828335D01*
X212270200Y-172828335D01*
X212266266Y-172813224D01*
X212254640Y-172669455D01*
X212264334Y-172537278D01*
X212293101Y-172411318D01*
X212341102Y-172290146D01*
X212407601Y-172174823D01*
X212488003Y-172076158D01*
X212582965Y-171992523D01*
X212693911Y-171923049D01*
X212812857Y-171871631D01*
X212933187Y-171841305D01*
X213056367Y-171831214D01*
X213207399Y-171843931D01*
G37*
G36*
X211582814Y-171549891D02*
G01*
X211737456Y-171576713D01*
X211889799Y-171616108D01*
X212003925Y-171657679D01*
X212104751Y-171710925D01*
X212163430Y-171757953D01*
X212192847Y-171799871D01*
X212201639Y-171839030D01*
X212194396Y-171882190D01*
X212173551Y-171915966D01*
X212138661Y-171943626D01*
X212073534Y-171976538D01*
X212032773Y-172001293D01*
X212014183Y-172030638D01*
X212007158Y-172077780D01*
X212003558Y-172204905D01*
X212003558Y-172581772D01*
X212013206Y-172996496D01*
X212027987Y-173121722D01*
X212049842Y-173215582D01*
X212056803Y-173257714D01*
X212048142Y-173288567D01*
X212021848Y-173308111D01*
X211968143Y-173316210D01*
X211921522Y-173312590D01*
X211883513Y-173302533D01*
X211800104Y-173277131D01*
X211769452Y-173288855D01*
X211634186Y-173365988D01*
X211519225Y-173412686D01*
X211400321Y-173439585D01*
X211261915Y-173449078D01*
X211120370Y-173437858D01*
X210990843Y-173405067D01*
X210871127Y-173351062D01*
X210759508Y-173274933D01*
X210651663Y-173171631D01*
X210569325Y-173057606D01*
X210510339Y-172931401D01*
X210494294Y-172869124D01*
X211070429Y-172869124D01*
X211077177Y-172976450D01*
X211095080Y-173056398D01*
X211121475Y-173114954D01*
X211161190Y-173162062D01*
X211209734Y-173189473D01*
X211270097Y-173198974D01*
X211324237Y-173187671D01*
X211360477Y-173155613D01*
X211382449Y-173097369D01*
X211397302Y-172958441D01*
X211404187Y-172660785D01*
X211396140Y-172553938D01*
X211378785Y-172505812D01*
X211338671Y-172469496D01*
X211275715Y-172456475D01*
X211212477Y-172473428D01*
X211157013Y-172521200D01*
X211112496Y-172599299D01*
X211082071Y-172711512D01*
X211070429Y-172869124D01*
X210494294Y-172869124D01*
X210474087Y-172790695D01*
X210461531Y-172632452D01*
X210473754Y-172494138D01*
X210508838Y-172373775D01*
X210565847Y-172267989D01*
X210645812Y-172174375D01*
X210723809Y-172112151D01*
X210805620Y-172068944D01*
X210892440Y-172043154D01*
X210985921Y-172034424D01*
X211110616Y-172048870D01*
X211227969Y-172092144D01*
X211340806Y-172166437D01*
X211393073Y-172202463D01*
X211402808Y-172197587D01*
X211406873Y-172179138D01*
X211406873Y-172149096D01*
X211389166Y-171626172D01*
X211397668Y-171577614D01*
X211421591Y-171551518D01*
X211464148Y-171542030D01*
X211582814Y-171549891D01*
G37*
G36*
X208488882Y-171735495D02*
G01*
X208568527Y-171754277D01*
X208644850Y-171783211D01*
X208705547Y-171817292D01*
X208785872Y-171882814D01*
X208909519Y-172006976D01*
X209091695Y-172214675D01*
X209438642Y-172629155D01*
X209598531Y-172836050D01*
X209659316Y-172940565D01*
X209681975Y-173023177D01*
X209690945Y-173148049D01*
X209679380Y-173239063D01*
X209650889Y-173290198D01*
X209601281Y-173319913D01*
X209513503Y-173331842D01*
X208980687Y-173331842D01*
X208932945Y-173338113D01*
X208906926Y-173353457D01*
X208892284Y-173380378D01*
X208886165Y-173431249D01*
X208886165Y-173573154D01*
X208881180Y-173625486D01*
X208870167Y-173649480D01*
X208848606Y-173662335D01*
X208803000Y-173667920D01*
X208335642Y-173667920D01*
X208286064Y-173654938D01*
X208259876Y-173625332D01*
X208252599Y-173573642D01*
X208252599Y-173412320D01*
X208248944Y-173372058D01*
X208241364Y-173356266D01*
X208225253Y-173347713D01*
X208183600Y-173339658D01*
X208139904Y-173324858D01*
X208115348Y-173296979D01*
X208106420Y-173252219D01*
X208106420Y-172969508D01*
X208116785Y-172919954D01*
X208139770Y-172894572D01*
X208177250Y-172886343D01*
X208234647Y-172886343D01*
X208260843Y-172882257D01*
X208274825Y-172872055D01*
X208282177Y-172854028D01*
X208285450Y-172816978D01*
X208285450Y-172519490D01*
X208867114Y-172519490D01*
X208867114Y-172585802D01*
X208875296Y-172853248D01*
X208884951Y-172891767D01*
X208902529Y-172911988D01*
X208931705Y-172922124D01*
X208994364Y-172926765D01*
X209102076Y-172925422D01*
X209289898Y-172911622D01*
X209317804Y-172895703D01*
X209326535Y-172869490D01*
X209309997Y-172817138D01*
X209235799Y-172710122D01*
X209025383Y-172455621D01*
X208977862Y-172413475D01*
X208931472Y-172401032D01*
X208898768Y-172411600D01*
X208876679Y-172445760D01*
X208867114Y-172519490D01*
X208285450Y-172519490D01*
X208285450Y-171878841D01*
X208294354Y-171806971D01*
X208316591Y-171764780D01*
X208354777Y-171739372D01*
X208417829Y-171729609D01*
X208488882Y-171735495D01*
G37*
G36*
X207887700Y-173237686D02*
G01*
X207394696Y-172107330D01*
X207357815Y-172012564D01*
X207331803Y-171947962D01*
X207268911Y-171794089D01*
X207204797Y-171632156D01*
X207174777Y-171563454D01*
X207148133Y-171529330D01*
X207112607Y-171510314D01*
X207056297Y-171502951D01*
X206937674Y-171513279D01*
X206870659Y-171537983D01*
X206836641Y-171571613D01*
X206825610Y-171615425D01*
X206833298Y-171664224D01*
X206860293Y-171728510D01*
X207006403Y-172022429D01*
X207096475Y-172220048D01*
X207588258Y-173346618D01*
X207723447Y-173669141D01*
X207790712Y-173836424D01*
X207820900Y-173894089D01*
X207851765Y-173924459D01*
X207890273Y-173942797D01*
X207938869Y-173949288D01*
X208025505Y-173939999D01*
X208094330Y-173914117D01*
X208144239Y-173872972D01*
X208158688Y-173828632D01*
X208146842Y-173767693D01*
X208062578Y-173598677D01*
X207887700Y-173237686D01*
G37*
G36*
X205643108Y-173410000D02*
G01*
X206573551Y-173410000D01*
X206651819Y-173399310D01*
X206688758Y-173374264D01*
X206700436Y-173336360D01*
X206693986Y-173301217D01*
X206673935Y-173267972D01*
X206505163Y-173102498D01*
X206335136Y-172930067D01*
X206207288Y-172776579D01*
X206114986Y-172639780D01*
X206064260Y-172532973D01*
X206050017Y-172453056D01*
X206060125Y-172391916D01*
X206088485Y-172347177D01*
X206132500Y-172318224D01*
X206192288Y-172307976D01*
X206250051Y-172312906D01*
X206286444Y-172325195D01*
X206430181Y-172438157D01*
X206465049Y-172457381D01*
X206512002Y-172464291D01*
X206574107Y-172451885D01*
X206633025Y-172412878D01*
X206675085Y-172357398D01*
X206688101Y-172300282D01*
X206677064Y-172245256D01*
X206638398Y-172176085D01*
X206582202Y-172110421D01*
X206507484Y-172045903D01*
X206354022Y-171951272D01*
X206194653Y-171884691D01*
X206027639Y-171844721D01*
X205850837Y-171831214D01*
X205670416Y-171844173D01*
X205520837Y-171880368D01*
X205396667Y-171937093D01*
X205323432Y-171994896D01*
X205265387Y-172072892D01*
X205227961Y-172162619D01*
X205215683Y-172255464D01*
X205226174Y-172342580D01*
X205259418Y-172436048D01*
X205319694Y-172538393D01*
X205413176Y-172651905D01*
X205547609Y-172778632D01*
X205622619Y-172849362D01*
X205655522Y-172894767D01*
X205663747Y-172923590D01*
X205655566Y-172956649D01*
X205629553Y-172985750D01*
X205592347Y-173004753D01*
X205546144Y-173011395D01*
X205470572Y-173001538D01*
X205400641Y-172972016D01*
X205334263Y-172920903D01*
X205269905Y-172864849D01*
X205225087Y-172855080D01*
X205174430Y-172866162D01*
X205137410Y-172898781D01*
X205111467Y-172959681D01*
X205100889Y-173063663D01*
X205110475Y-173166256D01*
X205140090Y-173272491D01*
X205186976Y-173372031D01*
X205246702Y-173455062D01*
X205298972Y-173503229D01*
X205351238Y-173529856D01*
X205405338Y-173538471D01*
X205438365Y-173534444D01*
X205462124Y-173523572D01*
X205509752Y-173468251D01*
X205535301Y-173435933D01*
X205556769Y-173420502D01*
X205584835Y-173413288D01*
X205643108Y-173410000D01*
G37*
G36*
X204426976Y-171643517D02*
G01*
X204508600Y-171699689D01*
X204592805Y-171785804D01*
X204720481Y-171942222D01*
X204826420Y-172096142D01*
X204904448Y-172242757D01*
X204957704Y-172383319D01*
X204988586Y-172519201D01*
X204998674Y-172651870D01*
X204984796Y-172798691D01*
X204942376Y-172946793D01*
X204890139Y-173060112D01*
X204826530Y-173157413D01*
X204751500Y-173240495D01*
X204634678Y-173329845D01*
X204500634Y-173394580D01*
X204346102Y-173434917D01*
X204166782Y-173449078D01*
X204022227Y-173438724D01*
X203894649Y-173409000D01*
X203781362Y-173361084D01*
X203680219Y-173295009D01*
X203589729Y-173209664D01*
X203509159Y-173102864D01*
X203441055Y-172972731D01*
X203438114Y-172963035D01*
X203979570Y-172963035D01*
X203988122Y-173012100D01*
X204012543Y-173049131D01*
X204049979Y-173073242D01*
X204099982Y-173081737D01*
X204149394Y-173071439D01*
X204202130Y-173037424D01*
X204260938Y-172970851D01*
X204306415Y-172893964D01*
X204332205Y-172819752D01*
X204340561Y-172746636D01*
X204331459Y-172679077D01*
X204306856Y-172631475D01*
X204267363Y-172600093D01*
X204214654Y-172589344D01*
X204164364Y-172599023D01*
X204118789Y-172625736D01*
X204067510Y-172682832D01*
X204020237Y-172772404D01*
X203989345Y-172871435D01*
X203979570Y-172963035D01*
X203438114Y-172963035D01*
X203401382Y-172841931D01*
X203388258Y-172708290D01*
X203401210Y-172582648D01*
X203438533Y-172473806D01*
X203499942Y-172378189D01*
X203587805Y-172293565D01*
X203686947Y-172231597D01*
X203791251Y-172195164D01*
X203903122Y-172182923D01*
X204004471Y-172192758D01*
X204117690Y-172224200D01*
X204214654Y-172253998D01*
X204241887Y-172240931D01*
X204253122Y-172208691D01*
X204244612Y-172163816D01*
X204210502Y-172085837D01*
X204163931Y-172008824D01*
X204113415Y-171946496D01*
X204012421Y-171830237D01*
X203996301Y-171787128D01*
X204006301Y-171761343D01*
X204046615Y-171726311D01*
X204100559Y-171696575D01*
X204169713Y-171670013D01*
X204295876Y-171636332D01*
X204363642Y-171628004D01*
X204426976Y-171643517D01*
G37*
G36*
X234212665Y-166753323D02*
G01*
X234185275Y-167492185D01*
X234109992Y-168098133D01*
X233995900Y-168590640D01*
X233882945Y-168880697D01*
X233750942Y-169082904D01*
X233602279Y-169216838D01*
X233434438Y-169295119D01*
X233240273Y-169321842D01*
X232994725Y-169292679D01*
X232834525Y-169217123D01*
X232717959Y-169102006D01*
X232659891Y-168982955D01*
X232617759Y-168679178D01*
X232610737Y-168245952D01*
X232610737Y-167973316D01*
X232631803Y-167568178D01*
X232670535Y-167359050D01*
X232726142Y-167253715D01*
X232814914Y-167187850D01*
X232953593Y-167148996D01*
X233233251Y-167124572D01*
X233464061Y-167113886D01*
X233464061Y-166996650D01*
X230190291Y-166996650D01*
X230190291Y-167113886D01*
X230512081Y-167134647D01*
X230706616Y-167175413D01*
X230802730Y-167236008D01*
X230857777Y-167338915D01*
X230896763Y-167552608D01*
X230910807Y-167880198D01*
X230910807Y-168792751D01*
X230896763Y-169419539D01*
X231001788Y-169419539D01*
X231121903Y-169233956D01*
X231320219Y-169054091D01*
X231478109Y-168961538D01*
X231643649Y-168906956D01*
X231820307Y-168888616D01*
X231978364Y-168912974D01*
X232203511Y-169001478D01*
X232519757Y-169183539D01*
X232750386Y-169306054D01*
X233022750Y-169398194D01*
X233344121Y-169457149D01*
X233722958Y-169478157D01*
X234129721Y-169447461D01*
X234501923Y-169357860D01*
X234845565Y-169210704D01*
X235165409Y-169004140D01*
X235464715Y-168733217D01*
X235717320Y-168422310D01*
X235912911Y-168084087D01*
X236054186Y-167714641D01*
X236141167Y-167308700D01*
X236171188Y-166859874D01*
X236137737Y-166385061D01*
X236041504Y-165963596D01*
X235886114Y-165587180D01*
X235671680Y-165249122D01*
X235394801Y-164944705D01*
X235072143Y-164687892D01*
X234717968Y-164488000D01*
X234327855Y-164342886D01*
X233895949Y-164253137D01*
X233415212Y-164222051D01*
X232983781Y-164255049D01*
X232570391Y-164353276D01*
X232170184Y-164517890D01*
X231637803Y-164777617D01*
X231512561Y-164827773D01*
X231386800Y-164809203D01*
X231299227Y-164758732D01*
X231239619Y-164676038D01*
X231176136Y-164506511D01*
X231106812Y-164241591D01*
X230966983Y-164241591D01*
X230966983Y-166508164D01*
X231085746Y-166508164D01*
X231212056Y-166079084D01*
X231370845Y-165693943D01*
X231560867Y-165348387D01*
X231781838Y-165038738D01*
X231991591Y-164818064D01*
X232217503Y-164651376D01*
X232461952Y-164533335D01*
X232728876Y-164461601D01*
X233023508Y-164436985D01*
X233247110Y-164463648D01*
X233443291Y-164541455D01*
X233618909Y-164672347D01*
X233777519Y-164864895D01*
X233918963Y-165133382D01*
X234077896Y-165606345D01*
X234177690Y-166142971D01*
X234212665Y-166753323D01*
G37*
G36*
X228534345Y-166051709D02*
G01*
X228882439Y-166144629D01*
X229197820Y-166296768D01*
X229485956Y-166510607D01*
X229728323Y-166774344D01*
X229897575Y-167062870D01*
X229999780Y-167381714D01*
X230034891Y-167739148D01*
X230000151Y-168096986D01*
X229899090Y-168416050D01*
X229731938Y-168704542D01*
X229492978Y-168967995D01*
X229208441Y-169180844D01*
X228893414Y-169332946D01*
X228541978Y-169426295D01*
X228146284Y-169458618D01*
X227773335Y-169427220D01*
X227432041Y-169335317D01*
X227116156Y-169183389D01*
X226820961Y-168967995D01*
X226571577Y-168703227D01*
X226398037Y-168414314D01*
X226293526Y-168095750D01*
X226257676Y-167739148D01*
X226258370Y-167732126D01*
X227649555Y-167732126D01*
X227670621Y-168151919D01*
X227677643Y-168481341D01*
X227709466Y-168824530D01*
X227796711Y-169091643D01*
X227893192Y-169235477D01*
X228007595Y-169314794D01*
X228146284Y-169341381D01*
X228289893Y-169314960D01*
X228405275Y-169237294D01*
X228499520Y-169098665D01*
X228583524Y-168836263D01*
X228614924Y-168481341D01*
X228628968Y-168131158D01*
X228643012Y-167732126D01*
X228625610Y-167319661D01*
X228614924Y-166996955D01*
X228583426Y-166659218D01*
X228496161Y-166390012D01*
X228399515Y-166243353D01*
X228287195Y-166163427D01*
X228153306Y-166136915D01*
X228005095Y-166163627D01*
X227887548Y-166241580D01*
X227793047Y-166379631D01*
X227709043Y-166642034D01*
X227677643Y-166996955D01*
X227663599Y-167343780D01*
X227649555Y-167732126D01*
X226258370Y-167732126D01*
X226293345Y-167378395D01*
X226397009Y-167058035D01*
X226568481Y-166769453D01*
X226813939Y-166506943D01*
X227105313Y-166293993D01*
X227420849Y-166143020D01*
X227765609Y-166051199D01*
X228146284Y-166019678D01*
X228534345Y-166051709D01*
G37*
G36*
X224548302Y-166051709D02*
G01*
X224896395Y-166144629D01*
X225211777Y-166296768D01*
X225499912Y-166510607D01*
X225742280Y-166774344D01*
X225911532Y-167062870D01*
X226013737Y-167381714D01*
X226048848Y-167739148D01*
X226014108Y-168096986D01*
X225913047Y-168416050D01*
X225745895Y-168704542D01*
X225506934Y-168967995D01*
X225222397Y-169180844D01*
X224907371Y-169332946D01*
X224555935Y-169426295D01*
X224160240Y-169458618D01*
X223787292Y-169427220D01*
X223445998Y-169335317D01*
X223130113Y-169183389D01*
X222834918Y-168967995D01*
X222585534Y-168703227D01*
X222411993Y-168414314D01*
X222307482Y-168095750D01*
X222271632Y-167739148D01*
X222272326Y-167732126D01*
X223663511Y-167732126D01*
X223684577Y-168151919D01*
X223691599Y-168481341D01*
X223723423Y-168824530D01*
X223810668Y-169091643D01*
X223907149Y-169235477D01*
X224021551Y-169314794D01*
X224160240Y-169341381D01*
X224303849Y-169314960D01*
X224419231Y-169237294D01*
X224513476Y-169098665D01*
X224597481Y-168836263D01*
X224628881Y-168481341D01*
X224642925Y-168131158D01*
X224656969Y-167732126D01*
X224639567Y-167319661D01*
X224628881Y-166996955D01*
X224597383Y-166659218D01*
X224510118Y-166390012D01*
X224413472Y-166243353D01*
X224301152Y-166163427D01*
X224167262Y-166136915D01*
X224019052Y-166163627D01*
X223901505Y-166241580D01*
X223807004Y-166379631D01*
X223723000Y-166642034D01*
X223691599Y-166996955D01*
X223677555Y-167343780D01*
X223663511Y-167732126D01*
X222272326Y-167732126D01*
X222307302Y-167378395D01*
X222410965Y-167058035D01*
X222582438Y-166769453D01*
X222827896Y-166506943D01*
X223119269Y-166293993D01*
X223434806Y-166143020D01*
X223779566Y-166051199D01*
X224160240Y-166019678D01*
X224548302Y-166051709D01*
G37*
G36*
X220383941Y-164417445D02*
G01*
X220055129Y-164438511D01*
X219848678Y-164484418D01*
X219754405Y-164543230D01*
X219705947Y-164642470D01*
X219684490Y-164850976D01*
X219670446Y-165172766D01*
X219670446Y-166068222D01*
X219663729Y-166431838D01*
X219758206Y-166292650D01*
X219901561Y-166152486D01*
X220019446Y-166087762D01*
X220223222Y-166039433D01*
X220551857Y-166019678D01*
X220879340Y-166050270D01*
X221165391Y-166138382D01*
X221418182Y-166282452D01*
X221643318Y-166486182D01*
X221821832Y-166729857D01*
X221952195Y-167012346D01*
X222033966Y-167340963D01*
X222062805Y-167725104D01*
X222033576Y-168124581D01*
X221951180Y-168462339D01*
X221820725Y-168748871D01*
X221643318Y-168992419D01*
X221418201Y-169196003D01*
X221165417Y-169339981D01*
X220879358Y-169428043D01*
X220551857Y-169458618D01*
X220233625Y-169438963D01*
X220029276Y-169390119D01*
X219905225Y-169323368D01*
X219751840Y-169181801D01*
X219656707Y-169052259D01*
X219656707Y-169400000D01*
X217774816Y-169400000D01*
X217774816Y-169282763D01*
X217998604Y-169268719D01*
X218168006Y-169230583D01*
X218254143Y-169174685D01*
X218300819Y-169083540D01*
X218320394Y-168912430D01*
X218327416Y-168625750D01*
X218327416Y-167088546D01*
X219670446Y-167088546D01*
X219670446Y-167731516D01*
X219677468Y-168343039D01*
X219698534Y-168912430D01*
X219752228Y-169078536D01*
X219841054Y-169189499D01*
X219967783Y-169257714D01*
X220146109Y-169282763D01*
X220282754Y-169259401D01*
X220391222Y-169191671D01*
X220478585Y-169073325D01*
X220564629Y-168845639D01*
X220618414Y-168535075D01*
X220649860Y-168073761D01*
X220649860Y-167759298D01*
X220642838Y-167364541D01*
X220604370Y-166889488D01*
X220552596Y-166637633D01*
X220464541Y-166421153D01*
X220377836Y-166304430D01*
X220271565Y-166237910D01*
X220139087Y-166215073D01*
X219980258Y-166238268D01*
X219845385Y-166306053D01*
X219745173Y-166415491D01*
X219691512Y-166571362D01*
X219670446Y-167088546D01*
X218327416Y-167088546D01*
X218327416Y-164300209D01*
X220383941Y-164300209D01*
X220383941Y-164417445D01*
G37*
G36*
X211998168Y-165617288D02*
G01*
X212284848Y-164877843D01*
X212449406Y-164578035D01*
X212541644Y-164501716D01*
X212732728Y-164445228D01*
X212949494Y-164417445D01*
X212949494Y-164300209D01*
X209871728Y-164300209D01*
X209871728Y-164417445D01*
X209969731Y-164417445D01*
X210151692Y-164441870D01*
X210375479Y-164501099D01*
X210439679Y-164562203D01*
X210466460Y-164710537D01*
X210446605Y-164884076D01*
X210372121Y-165156891D01*
X210151692Y-165795280D01*
X209822880Y-166705696D01*
X209528872Y-167515055D01*
X209308749Y-166942916D01*
X208951849Y-165997697D01*
X208654483Y-165160554D01*
X208600467Y-164939510D01*
X208584569Y-164766407D01*
X208607806Y-164622618D01*
X208668527Y-164536209D01*
X208760046Y-164479948D01*
X208871554Y-164448892D01*
X209095341Y-164428131D01*
X209291041Y-164417445D01*
X209291041Y-164300209D01*
X207493414Y-164300209D01*
X207493414Y-164417445D01*
X207801160Y-164452250D01*
X208009121Y-164504398D01*
X208151038Y-164578035D01*
X208262750Y-164693553D01*
X208374825Y-164898909D01*
X208584569Y-165435938D01*
X210081472Y-169419539D01*
X210641093Y-169419539D01*
X211914209Y-165819705D01*
X213250523Y-169419539D01*
X213809839Y-169419539D01*
X215237133Y-165422199D01*
X215453899Y-164877843D01*
X215562468Y-164673734D01*
X215646240Y-164560633D01*
X215750097Y-164487020D01*
X215908496Y-164445228D01*
X216153349Y-164417445D01*
X216153349Y-164300209D01*
X213131454Y-164300209D01*
X213131454Y-164417445D01*
X213355242Y-164438511D01*
X213503174Y-164468591D01*
X213582998Y-164504762D01*
X213630580Y-164564834D01*
X213649249Y-164675427D01*
X213626292Y-164849217D01*
X213533845Y-165167576D01*
X213243501Y-165987316D01*
X212928733Y-166838197D01*
X212697923Y-167452163D01*
X211998168Y-165617288D01*
G37*
G36*
X205454596Y-169400000D02*
G01*
X207721170Y-169400000D01*
X207721170Y-169282763D01*
X207553253Y-169275741D01*
X207376892Y-169234829D01*
X207308705Y-169178044D01*
X207280242Y-169078222D01*
X207266573Y-168842821D01*
X207259551Y-168521336D01*
X207259551Y-166852241D01*
X207266268Y-166565867D01*
X207308400Y-166314296D01*
X207369454Y-166253418D01*
X207560275Y-166209577D01*
X207748953Y-166195533D01*
X207748953Y-166078297D01*
X205916215Y-166078297D01*
X205916215Y-168520115D01*
X205909193Y-168841905D01*
X205895799Y-169072127D01*
X205867367Y-169174380D01*
X205798617Y-169233925D01*
X205622513Y-169275741D01*
X205454596Y-169282763D01*
X205454596Y-169400000D01*
G37*
G36*
X207273290Y-164902267D02*
G01*
X207250969Y-164727855D01*
X207185406Y-164573875D01*
X207073927Y-164434848D01*
X206931445Y-164327132D01*
X206773453Y-164263362D01*
X206594600Y-164241591D01*
X206410834Y-164262854D01*
X206250679Y-164324628D01*
X206108557Y-164427826D01*
X205998082Y-164562844D01*
X205932049Y-164718790D01*
X205909193Y-164902267D01*
X205931716Y-165081525D01*
X205997478Y-165237834D01*
X206108557Y-165377015D01*
X206251174Y-165484383D01*
X206411299Y-165548325D01*
X206594600Y-165570272D01*
X206773453Y-165548501D01*
X206931445Y-165484731D01*
X207073927Y-165377015D01*
X207185005Y-165237834D01*
X207250767Y-165081525D01*
X207273290Y-164902267D01*
G37*
G36*
X202628096Y-167088546D02*
G01*
X202635118Y-166800950D01*
X202665759Y-166535862D01*
X202742680Y-166375565D01*
X202857041Y-166285769D01*
X203019801Y-166254152D01*
X203175032Y-166273432D01*
X203286625Y-166325568D01*
X203366015Y-166408330D01*
X203530268Y-166724014D01*
X203530268Y-168518588D01*
X203523246Y-168840989D01*
X203506084Y-169101627D01*
X203471039Y-169205826D01*
X203387918Y-169257704D01*
X203159630Y-169282763D01*
X203159630Y-169400000D01*
X205335223Y-169400000D01*
X205335223Y-169282763D01*
X205167306Y-169275741D01*
X204990676Y-169234818D01*
X204922452Y-169178044D01*
X204894199Y-169078240D01*
X204880626Y-168842821D01*
X204873604Y-168521336D01*
X204873604Y-166852241D01*
X204880626Y-166565867D01*
X204922452Y-166314296D01*
X204983507Y-166253418D01*
X205174328Y-166209577D01*
X205335223Y-166195533D01*
X205335223Y-166078297D01*
X203558356Y-166078297D01*
X203558356Y-166597618D01*
X203456174Y-166413861D01*
X203282056Y-166213546D01*
X203133893Y-166116937D01*
X202889964Y-166047503D01*
X202509028Y-166019678D01*
X202187618Y-166051767D01*
X201903587Y-166144874D01*
X201648988Y-166298726D01*
X201482634Y-166452218D01*
X201371312Y-166610546D01*
X201306663Y-166776297D01*
X201285066Y-166953907D01*
X201285066Y-168522862D01*
X201278044Y-168843431D01*
X201264650Y-169072806D01*
X201236217Y-169174685D01*
X201167226Y-169234184D01*
X200991058Y-169275741D01*
X200837185Y-169282763D01*
X200837185Y-169400000D01*
X202998735Y-169400000D01*
X202998735Y-169282763D01*
X202776570Y-169256996D01*
X202690989Y-169202163D01*
X202653210Y-169095556D01*
X202635118Y-168840989D01*
X202628096Y-168518588D01*
X202628096Y-167088546D01*
G37*
G36*
X199403189Y-166041109D02*
G01*
X199654851Y-166103274D01*
X199883513Y-166204779D01*
X200092855Y-166346659D01*
X200269692Y-166524345D01*
X200393548Y-166723906D01*
X200468847Y-166949839D01*
X200494940Y-167209141D01*
X200478342Y-167413773D01*
X200430273Y-167596794D01*
X200351753Y-167762046D01*
X200181809Y-167981339D01*
X199949363Y-168169016D01*
X200153444Y-168223465D01*
X200336269Y-168320626D01*
X200501962Y-168463633D01*
X200630042Y-168638676D01*
X200706507Y-168835073D01*
X200732772Y-169059586D01*
X200714418Y-169245843D01*
X200661716Y-169406521D01*
X200575540Y-169546851D01*
X200394083Y-169731639D01*
X200138346Y-169908025D01*
X200341444Y-169968446D01*
X200498604Y-170058234D01*
X200578530Y-170139361D01*
X200625554Y-170234644D01*
X200641791Y-170348883D01*
X200613672Y-170521740D01*
X200531310Y-170665136D01*
X200387453Y-170786943D01*
X200162770Y-170887438D01*
X199839681Y-170970204D01*
X199469853Y-171022772D01*
X199046885Y-171041311D01*
X198535880Y-171007036D01*
X198087945Y-170909077D01*
X197693475Y-170752189D01*
X197478958Y-170618311D01*
X197320049Y-170463930D01*
X197209100Y-170288738D01*
X197549982Y-170288738D01*
X197573480Y-170433485D01*
X197642937Y-170556703D01*
X197764960Y-170664509D01*
X197955730Y-170757379D01*
X198230535Y-170834131D01*
X198582068Y-170885551D01*
X199026125Y-170904535D01*
X199378520Y-170887439D01*
X199690536Y-170838620D01*
X199967070Y-170761043D01*
X200164134Y-170669965D01*
X200286587Y-170569727D01*
X200353983Y-170460598D01*
X200376177Y-170337587D01*
X200352554Y-170184630D01*
X200288860Y-170082048D01*
X200182931Y-170013187D01*
X200005539Y-169966643D01*
X198249433Y-169966643D01*
X197933297Y-169984767D01*
X197731943Y-170029535D01*
X197629871Y-170087299D01*
X197570971Y-170170919D01*
X197549982Y-170288738D01*
X197209100Y-170288738D01*
X197208423Y-170287669D01*
X197140221Y-170085137D01*
X197116451Y-169849406D01*
X197138624Y-169612083D01*
X197202944Y-169401216D01*
X197308828Y-169211466D01*
X197459307Y-169039131D01*
X197639220Y-168901352D01*
X197847941Y-168801062D01*
X198090975Y-168738261D01*
X198375523Y-168716120D01*
X199865404Y-168716120D01*
X199985767Y-168700947D01*
X200089192Y-168656891D01*
X200168844Y-168590689D01*
X200194216Y-168501186D01*
X200161822Y-168387046D01*
X200061409Y-168307318D01*
X199925022Y-168265518D01*
X199781446Y-168260301D01*
X199455146Y-168353239D01*
X199124127Y-168383949D01*
X198771901Y-168346868D01*
X198457704Y-168238623D01*
X198172801Y-168058190D01*
X197994019Y-167880837D01*
X197869093Y-167682107D01*
X197793290Y-167457579D01*
X197767551Y-167205172D01*
X198795315Y-167205172D01*
X198816381Y-167711671D01*
X198836699Y-167947332D01*
X198889959Y-168114061D01*
X198950052Y-168200353D01*
X199026338Y-168249650D01*
X199124127Y-168266713D01*
X199221662Y-168249468D01*
X199299168Y-168199240D01*
X199361653Y-168110703D01*
X199417661Y-167941353D01*
X199438590Y-167711671D01*
X199459656Y-167205172D01*
X199438590Y-166698979D01*
X199418446Y-166462858D01*
X199365317Y-166293230D01*
X199304778Y-166204595D01*
X199228353Y-166154263D01*
X199130844Y-166136915D01*
X199024169Y-166154572D01*
X198944932Y-166204381D01*
X198886296Y-166289567D01*
X198835878Y-166456831D01*
X198816381Y-166698979D01*
X198795315Y-167205172D01*
X197767551Y-167205172D01*
X197767053Y-167200287D01*
X197784652Y-166986698D01*
X197836967Y-166783548D01*
X197922606Y-166597544D01*
X198032667Y-166450767D01*
X197950029Y-166319270D01*
X197851011Y-166230033D01*
X197739088Y-166173027D01*
X197647984Y-166156454D01*
X197604495Y-166167401D01*
X197592114Y-166195533D01*
X197604760Y-166240584D01*
X197658670Y-166324371D01*
X197708844Y-166415031D01*
X197724921Y-166508164D01*
X197694562Y-166670756D01*
X197609516Y-166782937D01*
X197483172Y-166852503D01*
X197326195Y-166876666D01*
X197159083Y-166847768D01*
X197032493Y-166765230D01*
X196948872Y-166640853D01*
X196920446Y-166486488D01*
X196937638Y-166349358D01*
X196986522Y-166237573D01*
X197067297Y-166145158D01*
X197232667Y-166053002D01*
X197459002Y-166019678D01*
X197676861Y-166047166D01*
X197850706Y-166124703D01*
X197990699Y-166247004D01*
X198088538Y-166404056D01*
X198298757Y-166238423D01*
X198537430Y-166119261D01*
X198810012Y-166045468D01*
X199123822Y-166019678D01*
X199403189Y-166041109D01*
G37*
G36*
X196747034Y-167954082D02*
G01*
X196656053Y-167954082D01*
X196459623Y-168479749D01*
X196292437Y-168788782D01*
X196096318Y-169028361D01*
X195897069Y-169188729D01*
X195666716Y-169286842D01*
X195375915Y-169321842D01*
X195211243Y-169297618D01*
X195075191Y-169227503D01*
X194981156Y-169115643D01*
X194949101Y-168964942D01*
X194976354Y-168767398D01*
X195047103Y-168643152D01*
X195162588Y-168541630D01*
X195355155Y-168415701D01*
X195841198Y-168143065D01*
X196103682Y-167988681D01*
X196302817Y-167849363D01*
X196469293Y-167693898D01*
X196589802Y-167523909D01*
X196664979Y-167331441D01*
X196691163Y-167104117D01*
X196665291Y-166853453D01*
X196591427Y-166641260D01*
X196470932Y-166459435D01*
X196299459Y-166303000D01*
X196025805Y-166148525D01*
X195709720Y-166053102D01*
X195341111Y-166019678D01*
X195080983Y-166043186D01*
X194837360Y-166112796D01*
X194368719Y-166332309D01*
X194281561Y-166305737D01*
X194200802Y-166215683D01*
X194149016Y-166091351D01*
X194130887Y-165941521D01*
X194032885Y-165941521D01*
X194032885Y-167348360D01*
X194123866Y-167348360D01*
X194263695Y-166977416D01*
X194363514Y-166777632D01*
X194505190Y-166567698D01*
X194671588Y-166380143D01*
X194837360Y-166248961D01*
X195028980Y-166166925D01*
X195285240Y-166136915D01*
X195467403Y-166162025D01*
X195603367Y-166231559D01*
X195695989Y-166339127D01*
X195725793Y-166466338D01*
X195702542Y-166614322D01*
X195638476Y-166719129D01*
X195538146Y-166807186D01*
X195382937Y-166911775D01*
X194924677Y-167171284D01*
X194403524Y-167482083D01*
X194191670Y-167653632D01*
X194018841Y-167861270D01*
X193933881Y-168018150D01*
X193882553Y-168189669D01*
X193864968Y-168379675D01*
X193892290Y-168638998D01*
X193969760Y-168854387D01*
X194095543Y-169035260D01*
X194274380Y-169187203D01*
X194558428Y-169334956D01*
X194885181Y-169426538D01*
X195264174Y-169458618D01*
X195560243Y-169429006D01*
X195851578Y-169339244D01*
X196404178Y-169067829D01*
X196483426Y-169098131D01*
X196565073Y-169211017D01*
X196620866Y-169358454D01*
X196649031Y-169517236D01*
X196747034Y-169517236D01*
X196747034Y-167954082D01*
G37*
D11*
%TO.C,S1*%
X80877732Y-112707014D02*
X80265360Y-113060567D01*
X83775510Y-113483471D02*
X80877732Y-112707014D01*
X84129063Y-114095843D02*
X83775510Y-113483471D01*
X84129063Y-114095843D02*
X83890950Y-114984495D01*
X84243116Y-115679318D02*
X88570464Y-116838827D01*
X88570464Y-116838827D02*
X88415172Y-117418383D01*
X84243116Y-115679318D02*
G75*
G02*
X83890949Y-114984495I171328J523495D01*
G01*
X79713047Y-117053680D02*
X79359493Y-116441307D01*
X81934676Y-117648964D02*
X79713047Y-117053680D01*
X83007348Y-120213993D02*
X83188521Y-119537845D01*
X87354014Y-121378679D02*
X83007348Y-120213993D01*
X87483424Y-120895716D02*
X87354014Y-121378679D01*
X81934676Y-117648964D02*
G75*
G02*
X83193698Y-119518526I-305270J-1564292D01*
G01*
%TO.C,S2*%
X85795294Y-94354423D02*
X85182922Y-94707976D01*
X88693072Y-95130880D02*
X85795294Y-94354423D01*
X89046625Y-95743252D02*
X88693072Y-95130880D01*
X89046625Y-95743252D02*
X88808512Y-96631904D01*
X89160678Y-97326727D02*
X93488026Y-98486236D01*
X93488026Y-98486236D02*
X93332734Y-99065792D01*
X89160678Y-97326727D02*
G75*
G02*
X88808511Y-96631904I171328J523495D01*
G01*
X84630609Y-98701089D02*
X84277055Y-98088716D01*
X86852238Y-99296373D02*
X84630609Y-98701089D01*
X87924910Y-101861402D02*
X88106083Y-101185254D01*
X92271576Y-103026088D02*
X87924910Y-101861402D01*
X92400986Y-102543125D02*
X92271576Y-103026088D01*
X86852238Y-99296373D02*
G75*
G02*
X88111260Y-101165935I-305270J-1564292D01*
G01*
%TO.C,S3*%
X90712855Y-76001832D02*
X90100483Y-76355385D01*
X93610633Y-76778289D02*
X90712855Y-76001832D01*
X93964186Y-77390661D02*
X93610633Y-76778289D01*
X93964186Y-77390661D02*
X93726073Y-78279313D01*
X94078239Y-78974136D02*
X98405587Y-80133645D01*
X98405587Y-80133645D02*
X98250295Y-80713201D01*
X94078239Y-78974136D02*
G75*
G02*
X93726072Y-78279313I171328J523495D01*
G01*
X89548170Y-80348498D02*
X89194616Y-79736125D01*
X91769799Y-80943782D02*
X89548170Y-80348498D01*
X92842471Y-83508811D02*
X93023644Y-82832663D01*
X97189137Y-84673497D02*
X92842471Y-83508811D01*
X97318547Y-84190534D02*
X97189137Y-84673497D01*
X91769799Y-80943782D02*
G75*
G02*
X93028821Y-82813344I-305270J-1564292D01*
G01*
%TO.C,S4*%
X102645669Y-111804736D02*
X102004813Y-112103573D01*
X105464747Y-112830797D02*
X102645669Y-111804736D01*
X105763583Y-113471653D02*
X105464747Y-112830797D01*
X105763583Y-113471653D02*
X105448925Y-114336170D01*
X105739193Y-115059043D02*
X109949016Y-116591293D01*
X109949016Y-116591293D02*
X109743804Y-117155108D01*
X105739193Y-115059043D02*
G75*
G02*
X105448924Y-114336170I216302J506571D01*
G01*
X101106579Y-116033353D02*
X100807742Y-115392497D01*
X103267872Y-116819999D02*
X101106579Y-116033353D01*
X104112905Y-119468757D02*
X104352319Y-118810973D01*
X108341522Y-121007848D02*
X104112905Y-119468757D01*
X108512532Y-120538002D02*
X108341522Y-121007848D01*
X103267872Y-116819999D02*
G75*
G02*
X104359160Y-118792179I-440446J-1531734D01*
G01*
%TO.C,S5*%
X109144051Y-93950576D02*
X108503195Y-94249413D01*
X111963129Y-94976637D02*
X109144051Y-93950576D01*
X112261965Y-95617493D02*
X111963129Y-94976637D01*
X112261965Y-95617493D02*
X111947307Y-96482010D01*
X112237575Y-97204883D02*
X116447398Y-98737133D01*
X116447398Y-98737133D02*
X116242186Y-99300948D01*
X112237575Y-97204883D02*
G75*
G02*
X111947306Y-96482010I216302J506571D01*
G01*
X107604961Y-98179193D02*
X107306124Y-97538337D01*
X109766254Y-98965839D02*
X107604961Y-98179193D01*
X110611287Y-101614597D02*
X110850701Y-100956813D01*
X114839904Y-103153688D02*
X110611287Y-101614597D01*
X115010914Y-102683842D02*
X114839904Y-103153688D01*
X109766254Y-98965839D02*
G75*
G02*
X110857542Y-100938019I-440446J-1531734D01*
G01*
%TO.C,S6*%
X115642434Y-76096417D02*
X115001578Y-76395254D01*
X118461512Y-77122478D02*
X115642434Y-76096417D01*
X118760348Y-77763334D02*
X118461512Y-77122478D01*
X118760348Y-77763334D02*
X118445690Y-78627851D01*
X118735958Y-79350724D02*
X122945781Y-80882974D01*
X122945781Y-80882974D02*
X122740569Y-81446789D01*
X118735958Y-79350724D02*
G75*
G02*
X118445689Y-78627851I216302J506571D01*
G01*
X114103344Y-80325034D02*
X113804507Y-79684178D01*
X116264637Y-81111680D02*
X114103344Y-80325034D01*
X117109670Y-83760438D02*
X117349084Y-83102654D01*
X121338287Y-85299529D02*
X117109670Y-83760438D01*
X121509297Y-84829683D02*
X121338287Y-85299529D01*
X116264637Y-81111680D02*
G75*
G02*
X117355925Y-83083860I-440446J-1531734D01*
G01*
%TO.C,S7*%
X123233567Y-115822305D02*
X122569104Y-116064150D01*
X125952490Y-117090160D02*
X123233567Y-115822305D01*
X126194335Y-117754623D02*
X125952490Y-117090160D01*
X126194335Y-117754623D02*
X125805526Y-118588426D01*
X126031688Y-119333846D02*
X130091947Y-121227176D01*
X130091947Y-121227176D02*
X129838376Y-121770960D01*
X126031688Y-119333846D02*
G75*
G02*
X125805526Y-118588426I259629J485791D01*
G01*
X121331785Y-119900690D02*
X121089940Y-119236227D01*
X123416293Y-120872712D02*
X121331785Y-119900690D01*
X124027256Y-123585040D02*
X124323089Y-122950625D01*
X128105641Y-125486822D02*
X124027256Y-123585040D01*
X128316950Y-125033668D02*
X128105641Y-125486822D01*
X123416293Y-120872712D02*
G75*
G02*
X124331541Y-122932498I-572269J-1487517D01*
G01*
%TO.C,S8*%
X131263314Y-98602457D02*
X130598851Y-98844302D01*
X133982237Y-99870312D02*
X131263314Y-98602457D01*
X134224082Y-100534775D02*
X133982237Y-99870312D01*
X134224082Y-100534775D02*
X133835273Y-101368578D01*
X134061435Y-102113998D02*
X138121694Y-104007328D01*
X138121694Y-104007328D02*
X137868123Y-104551112D01*
X134061435Y-102113998D02*
G75*
G02*
X133835273Y-101368578I259629J485791D01*
G01*
X129361532Y-102680842D02*
X129119687Y-102016379D01*
X131446040Y-103652864D02*
X129361532Y-102680842D01*
X132057003Y-106365192D02*
X132352836Y-105730777D01*
X136135388Y-108266974D02*
X132057003Y-106365192D01*
X136346697Y-107813820D02*
X136135388Y-108266974D01*
X131446040Y-103652864D02*
G75*
G02*
X132361288Y-105712650I-572269J-1487517D01*
G01*
%TO.C,S9*%
X139293061Y-81382609D02*
X138628598Y-81624454D01*
X142011984Y-82650464D02*
X139293061Y-81382609D01*
X142253829Y-83314927D02*
X142011984Y-82650464D01*
X142253829Y-83314927D02*
X141865020Y-84148730D01*
X142091182Y-84894150D02*
X146151441Y-86787480D01*
X146151441Y-86787480D02*
X145897870Y-87331264D01*
X142091182Y-84894150D02*
G75*
G02*
X141865020Y-84148730I259629J485791D01*
G01*
X137391279Y-85460994D02*
X137149434Y-84796531D01*
X139475787Y-86433016D02*
X137391279Y-85460994D01*
X140086750Y-89145344D02*
X140382583Y-88510929D01*
X144165135Y-91047126D02*
X140086750Y-89145344D01*
X144376444Y-90593972D02*
X144165135Y-91047126D01*
X139475787Y-86433016D02*
G75*
G02*
X140391035Y-88492802I-572269J-1487517D01*
G01*
%TO.C,S10*%
X141457133Y-121699571D02*
X140792670Y-121941416D01*
X144176056Y-122967426D02*
X141457133Y-121699571D01*
X144417901Y-123631889D02*
X144176056Y-122967426D01*
X144417901Y-123631889D02*
X144029092Y-124465692D01*
X144255254Y-125211112D02*
X148315513Y-127104442D01*
X148315513Y-127104442D02*
X148061942Y-127648226D01*
X144255254Y-125211112D02*
G75*
G02*
X144029092Y-124465692I259629J485791D01*
G01*
X139555351Y-125777956D02*
X139313506Y-125113493D01*
X141639859Y-126749978D02*
X139555351Y-125777956D01*
X142250822Y-129462306D02*
X142546655Y-128827891D01*
X146329207Y-131364088D02*
X142250822Y-129462306D01*
X146540516Y-130910934D02*
X146329207Y-131364088D01*
X141639859Y-126749978D02*
G75*
G02*
X142555107Y-128809764I-572269J-1487517D01*
G01*
%TO.C,S11*%
X149486880Y-104479723D02*
X148822417Y-104721568D01*
X152205803Y-105747578D02*
X149486880Y-104479723D01*
X152447648Y-106412041D02*
X152205803Y-105747578D01*
X152447648Y-106412041D02*
X152058839Y-107245844D01*
X152285001Y-107991264D02*
X156345260Y-109884594D01*
X156345260Y-109884594D02*
X156091689Y-110428378D01*
X152285001Y-107991264D02*
G75*
G02*
X152058839Y-107245844I259629J485791D01*
G01*
X147585098Y-108558108D02*
X147343253Y-107893645D01*
X149669606Y-109530130D02*
X147585098Y-108558108D01*
X150280569Y-112242458D02*
X150576402Y-111608043D01*
X154358954Y-114144240D02*
X150280569Y-112242458D01*
X154570263Y-113691086D02*
X154358954Y-114144240D01*
X149669606Y-109530130D02*
G75*
G02*
X150584854Y-111589916I-572269J-1487517D01*
G01*
%TO.C,S12*%
X157516627Y-87259875D02*
X156852164Y-87501720D01*
X160235550Y-88527730D02*
X157516627Y-87259875D01*
X160477395Y-89192193D02*
X160235550Y-88527730D01*
X160477395Y-89192193D02*
X160088586Y-90025996D01*
X160314748Y-90771416D02*
X164375007Y-92664746D01*
X164375007Y-92664746D02*
X164121436Y-93208530D01*
X160314748Y-90771416D02*
G75*
G02*
X160088586Y-90025996I259629J485791D01*
G01*
X155614845Y-91338260D02*
X155373000Y-90673797D01*
X157699353Y-92310282D02*
X155614845Y-91338260D01*
X158310316Y-95022610D02*
X158606149Y-94388195D01*
X162388701Y-96924392D02*
X158310316Y-95022610D01*
X162600010Y-96471238D02*
X162388701Y-96924392D01*
X157699353Y-92310282D02*
G75*
G02*
X158614601Y-94370068I-572269J-1487517D01*
G01*
%TO.C,S13*%
X156669544Y-134034280D02*
X156005081Y-134276125D01*
X159388467Y-135302135D02*
X156669544Y-134034280D01*
X159630312Y-135966598D02*
X159388467Y-135302135D01*
X159630312Y-135966598D02*
X159241503Y-136800401D01*
X159467665Y-137545821D02*
X163527924Y-139439151D01*
X163527924Y-139439151D02*
X163274353Y-139982935D01*
X159467665Y-137545821D02*
G75*
G02*
X159241503Y-136800401I259629J485791D01*
G01*
X154767762Y-138112665D02*
X154525917Y-137448202D01*
X156852270Y-139084687D02*
X154767762Y-138112665D01*
X157463233Y-141797015D02*
X157759066Y-141162600D01*
X161541618Y-143698797D02*
X157463233Y-141797015D01*
X161752927Y-143245643D02*
X161541618Y-143698797D01*
X156852270Y-139084687D02*
G75*
G02*
X157767518Y-141144473I-572269J-1487517D01*
G01*
%TO.C,S14*%
X164699291Y-116814432D02*
X164034828Y-117056277D01*
X167418214Y-118082287D02*
X164699291Y-116814432D01*
X167660059Y-118746750D02*
X167418214Y-118082287D01*
X167660059Y-118746750D02*
X167271250Y-119580553D01*
X167497412Y-120325973D02*
X171557671Y-122219303D01*
X171557671Y-122219303D02*
X171304100Y-122763087D01*
X167497412Y-120325973D02*
G75*
G02*
X167271250Y-119580553I259629J485791D01*
G01*
X162797509Y-120892817D02*
X162555664Y-120228354D01*
X164882017Y-121864839D02*
X162797509Y-120892817D01*
X165492980Y-124577167D02*
X165788813Y-123942752D01*
X169571365Y-126478949D02*
X165492980Y-124577167D01*
X169782674Y-126025795D02*
X169571365Y-126478949D01*
X164882017Y-121864839D02*
G75*
G02*
X165797265Y-123924625I-572269J-1487517D01*
G01*
%TO.C,S15*%
X172729038Y-99594584D02*
X172064575Y-99836429D01*
X175447961Y-100862439D02*
X172729038Y-99594584D01*
X175689806Y-101526902D02*
X175447961Y-100862439D01*
X175689806Y-101526902D02*
X175300997Y-102360705D01*
X175527159Y-103106125D02*
X179587418Y-104999455D01*
X179587418Y-104999455D02*
X179333847Y-105543239D01*
X175527159Y-103106125D02*
G75*
G02*
X175300997Y-102360705I259629J485791D01*
G01*
X170827256Y-103672969D02*
X170585411Y-103008506D01*
X172911764Y-104644991D02*
X170827256Y-103672969D01*
X173522727Y-107357319D02*
X173818560Y-106722904D01*
X177601112Y-109259101D02*
X173522727Y-107357319D01*
X177812421Y-108805947D02*
X177601112Y-109259101D01*
X172911764Y-104644991D02*
G75*
G02*
X173827012Y-106704777I-572269J-1487517D01*
G01*
%TO.C,S16*%
X172885674Y-144216508D02*
X172221211Y-144458353D01*
X175604597Y-145484363D02*
X172885674Y-144216508D01*
X175846442Y-146148826D02*
X175604597Y-145484363D01*
X175846442Y-146148826D02*
X175457633Y-146982629D01*
X175683795Y-147728049D02*
X179744054Y-149621379D01*
X179744054Y-149621379D02*
X179490483Y-150165163D01*
X175683795Y-147728049D02*
G75*
G02*
X175457633Y-146982629I259629J485791D01*
G01*
X170983892Y-148294893D02*
X170742047Y-147630430D01*
X173068400Y-149266915D02*
X170983892Y-148294893D01*
X173679363Y-151979243D02*
X173975196Y-151344828D01*
X177757748Y-153881025D02*
X173679363Y-151979243D01*
X177969057Y-153427871D02*
X177757748Y-153881025D01*
X173068400Y-149266915D02*
G75*
G02*
X173983648Y-151326701I-572269J-1487517D01*
G01*
%TO.C,S17*%
X180915421Y-126996660D02*
X180250958Y-127238505D01*
X183634344Y-128264515D02*
X180915421Y-126996660D01*
X183876189Y-128928978D02*
X183634344Y-128264515D01*
X183876189Y-128928978D02*
X183487380Y-129762781D01*
X183713542Y-130508201D02*
X187773801Y-132401531D01*
X187773801Y-132401531D02*
X187520230Y-132945315D01*
X183713542Y-130508201D02*
G75*
G02*
X183487380Y-129762781I259629J485791D01*
G01*
X179013639Y-131075045D02*
X178771794Y-130410582D01*
X181098147Y-132047067D02*
X179013639Y-131075045D01*
X181709110Y-134759395D02*
X182004943Y-134124980D01*
X185787495Y-136661177D02*
X181709110Y-134759395D01*
X185998804Y-136208023D02*
X185787495Y-136661177D01*
X181098147Y-132047067D02*
G75*
G02*
X182013395Y-134106853I-572269J-1487517D01*
G01*
%TO.C,S18*%
X188945168Y-109776812D02*
X188280705Y-110018657D01*
X191664091Y-111044667D02*
X188945168Y-109776812D01*
X191905936Y-111709130D02*
X191664091Y-111044667D01*
X191905936Y-111709130D02*
X191517127Y-112542933D01*
X191743289Y-113288353D02*
X195803548Y-115181683D01*
X195803548Y-115181683D02*
X195549977Y-115725467D01*
X191743289Y-113288353D02*
G75*
G02*
X191517127Y-112542933I259629J485791D01*
G01*
X187043386Y-113855197D02*
X186801541Y-113190734D01*
X189127894Y-114827219D02*
X187043386Y-113855197D01*
X189738857Y-117539547D02*
X190034690Y-116905132D01*
X193817242Y-119441329D02*
X189738857Y-117539547D01*
X194028551Y-118988175D02*
X193817242Y-119441329D01*
X189127894Y-114827219D02*
G75*
G02*
X190043142Y-116887005I-572269J-1487517D01*
G01*
%TO.C,S19*%
X139501601Y-148372139D02*
X138837138Y-148613984D01*
X142220524Y-149639994D02*
X139501601Y-148372139D01*
X142462369Y-150304457D02*
X142220524Y-149639994D01*
X142462369Y-150304457D02*
X142073560Y-151138260D01*
X142299722Y-151883680D02*
X146359981Y-153777010D01*
X146359981Y-153777010D02*
X146106410Y-154320794D01*
X142299722Y-151883680D02*
G75*
G02*
X142073560Y-151138260I259629J485791D01*
G01*
X137599819Y-152450524D02*
X137357974Y-151786061D01*
X139684327Y-153422546D02*
X137599819Y-152450524D01*
X140295290Y-156134874D02*
X140591123Y-155500459D01*
X144373675Y-158036656D02*
X140295290Y-156134874D01*
X144584984Y-157583502D02*
X144373675Y-158036656D01*
X139684327Y-153422546D02*
G75*
G02*
X140599575Y-155482332I-572269J-1487517D01*
G01*
%TO.C,S20*%
X159408779Y-160514058D02*
X158704363Y-160575687D01*
X161706912Y-162442421D02*
X159408779Y-160514058D01*
X161768540Y-163146837D02*
X161706912Y-162442421D01*
X161768540Y-163146837D02*
X161177176Y-163851598D01*
X161202702Y-164630153D02*
X164634581Y-167509842D01*
X164634581Y-167509842D02*
X164248909Y-167969468D01*
X161202702Y-164630153D02*
G75*
G02*
X161177176Y-163851598I376515J402041D01*
G01*
X156516234Y-163961258D02*
X156454606Y-163256842D01*
X158278137Y-165439670D02*
X156516234Y-163961258D01*
X158166280Y-168217706D02*
X158616231Y-167681475D01*
X161613480Y-171110251D02*
X158166280Y-168217706D01*
X161934873Y-170727228D02*
X161613480Y-171110251D01*
X158278137Y-165439670D02*
G75*
G02*
X158629087Y-167666154I-937768J-1288717D01*
G01*
%TO.C,S21*%
X167876507Y-174833755D02*
X167753719Y-175530119D01*
X170333963Y-173113026D02*
X167876507Y-174833755D01*
X171030328Y-173235813D02*
X170333963Y-173113026D01*
X171030328Y-173235813D02*
X171558018Y-173989433D01*
X172316651Y-174166282D02*
X175986452Y-171596659D01*
X175986452Y-171596659D02*
X176330598Y-172088150D01*
X172316651Y-174166282D02*
G75*
G02*
X171558018Y-173989433I-290892J467741D01*
G01*
X170457601Y-178519939D02*
X169761237Y-178397151D01*
X172341651Y-177200713D02*
X170457601Y-178519939D01*
X174996077Y-178027768D02*
X174594574Y-177454361D01*
X178682262Y-175446674D02*
X174996077Y-178027768D01*
X178395473Y-175037098D02*
X178682262Y-175446674D01*
X172341651Y-177200713D02*
G75*
G02*
X174583102Y-177437978I1002093J-1239359D01*
G01*
%TO.C,S22*%
X343841614Y-113483471D02*
X343488061Y-114095843D01*
X346739392Y-112707014D02*
X343841614Y-113483471D01*
X347351764Y-113060567D02*
X346739392Y-112707014D01*
X347351764Y-113060567D02*
X347589878Y-113949219D01*
X348242274Y-114374870D02*
X352569622Y-113215361D01*
X352569622Y-113215361D02*
X352724913Y-113794916D01*
X348242274Y-114374870D02*
G75*
G02*
X347589877Y-113949219I-113373J539024D01*
G01*
X345006300Y-117830137D02*
X344393927Y-117476584D01*
X347227929Y-117234853D02*
X345006300Y-117830137D01*
X349439405Y-118919898D02*
X349258232Y-118243750D01*
X353786071Y-117755212D02*
X349439405Y-118919898D01*
X353656662Y-117272249D02*
X353786071Y-117755212D01*
X347227929Y-117234853D02*
G75*
G02*
X349253055Y-118224431I517774J-1507352D01*
G01*
%TO.C,S23*%
X338924052Y-95130880D02*
X338570499Y-95743252D01*
X341821830Y-94354423D02*
X338924052Y-95130880D01*
X342434202Y-94707976D02*
X341821830Y-94354423D01*
X342434202Y-94707976D02*
X342672316Y-95596628D01*
X343324712Y-96022279D02*
X347652060Y-94862770D01*
X347652060Y-94862770D02*
X347807351Y-95442325D01*
X343324712Y-96022279D02*
G75*
G02*
X342672315Y-95596628I-113373J539024D01*
G01*
X340088738Y-99477546D02*
X339476365Y-99123993D01*
X342310367Y-98882262D02*
X340088738Y-99477546D01*
X344521843Y-100567307D02*
X344340670Y-99891159D01*
X348868509Y-99402621D02*
X344521843Y-100567307D01*
X348739100Y-98919658D02*
X348868509Y-99402621D01*
X342310367Y-98882262D02*
G75*
G02*
X344335493Y-99871840I517774J-1507352D01*
G01*
%TO.C,S24*%
X334006491Y-76778289D02*
X333652938Y-77390661D01*
X336904269Y-76001832D02*
X334006491Y-76778289D01*
X337516641Y-76355385D02*
X336904269Y-76001832D01*
X337516641Y-76355385D02*
X337754755Y-77244037D01*
X338407151Y-77669688D02*
X342734499Y-76510179D01*
X342734499Y-76510179D02*
X342889790Y-77089734D01*
X338407151Y-77669688D02*
G75*
G02*
X337754754Y-77244037I-113373J539024D01*
G01*
X335171177Y-81124955D02*
X334558804Y-80771402D01*
X337392806Y-80529671D02*
X335171177Y-81124955D01*
X339604282Y-82214716D02*
X339423109Y-81538568D01*
X343950948Y-81050030D02*
X339604282Y-82214716D01*
X343821539Y-80567067D02*
X343950948Y-81050030D01*
X337392806Y-80529671D02*
G75*
G02*
X339417932Y-81519249I517774J-1507352D01*
G01*
%TO.C,S25*%
X322152377Y-112830797D02*
X321853541Y-113471653D01*
X324971455Y-111804736D02*
X322152377Y-112830797D01*
X325612311Y-112103573D02*
X324971455Y-111804736D01*
X325612311Y-112103573D02*
X325926970Y-112968090D01*
X326613982Y-113335261D02*
X330823804Y-111803011D01*
X330823804Y-111803011D02*
X331029017Y-112366826D01*
X326613982Y-113335261D02*
G75*
G02*
X325926969Y-112968090I-159921J527092D01*
G01*
X323691468Y-117059414D02*
X323050611Y-116760577D01*
X325852761Y-116272767D02*
X323691468Y-117059414D01*
X328202682Y-117758657D02*
X327963268Y-117100872D01*
X332431299Y-116219566D02*
X328202682Y-117758657D01*
X332260289Y-115749720D02*
X332431299Y-116219566D01*
X325852761Y-116272767D02*
G75*
G02*
X327956428Y-117082078I647178J-1456489D01*
G01*
%TO.C,S26*%
X315653995Y-94976637D02*
X315355159Y-95617493D01*
X318473073Y-93950576D02*
X315653995Y-94976637D01*
X319113929Y-94249413D02*
X318473073Y-93950576D01*
X319113929Y-94249413D02*
X319428588Y-95113930D01*
X320115600Y-95481101D02*
X324325422Y-93948851D01*
X324325422Y-93948851D02*
X324530635Y-94512666D01*
X320115600Y-95481101D02*
G75*
G02*
X319428587Y-95113930I-159921J527092D01*
G01*
X317193086Y-99205254D02*
X316552229Y-98906417D01*
X319354379Y-98418607D02*
X317193086Y-99205254D01*
X321704300Y-99904497D02*
X321464886Y-99246712D01*
X325932917Y-98365406D02*
X321704300Y-99904497D01*
X325761907Y-97895560D02*
X325932917Y-98365406D01*
X319354379Y-98418607D02*
G75*
G02*
X321458046Y-99227918I647178J-1456489D01*
G01*
%TO.C,S27*%
X309155612Y-77122478D02*
X308856776Y-77763334D01*
X311974690Y-76096417D02*
X309155612Y-77122478D01*
X312615546Y-76395254D02*
X311974690Y-76096417D01*
X312615546Y-76395254D02*
X312930205Y-77259771D01*
X313617217Y-77626942D02*
X317827039Y-76094692D01*
X317827039Y-76094692D02*
X318032252Y-76658507D01*
X313617217Y-77626942D02*
G75*
G02*
X312930204Y-77259771I-159921J527092D01*
G01*
X310694703Y-81351095D02*
X310053846Y-81052258D01*
X312855996Y-80564448D02*
X310694703Y-81351095D01*
X315205917Y-82050338D02*
X314966503Y-81392553D01*
X319434534Y-80511247D02*
X315205917Y-82050338D01*
X319263524Y-80041401D02*
X319434534Y-80511247D01*
X312855996Y-80564448D02*
G75*
G02*
X314959663Y-81373759I647178J-1456489D01*
G01*
%TO.C,S28*%
X301664634Y-117090160D02*
X301422789Y-117754623D01*
X304383557Y-115822305D02*
X301664634Y-117090160D01*
X305048020Y-116064150D02*
X304383557Y-115822305D01*
X305048020Y-116064150D02*
X305436829Y-116897953D01*
X306153227Y-117203850D02*
X310213486Y-115310520D01*
X310213486Y-115310520D02*
X310467057Y-115854305D01*
X306153227Y-117203850D02*
G75*
G02*
X305436829Y-116897953I-205250J511148D01*
G01*
X303566416Y-121168545D02*
X302901953Y-120926700D01*
X305650924Y-120196523D02*
X303566416Y-121168545D01*
X308121407Y-121471949D02*
X307825574Y-120837533D01*
X312199792Y-119570166D02*
X308121407Y-121471949D01*
X311988483Y-119117013D02*
X312199792Y-119570166D01*
X305650924Y-120196523D02*
G75*
G02*
X307817122Y-120819407I771657J-1394541D01*
G01*
%TO.C,S29*%
X293634887Y-99870312D02*
X293393042Y-100534775D01*
X296353810Y-98602457D02*
X293634887Y-99870312D01*
X297018273Y-98844302D02*
X296353810Y-98602457D01*
X297018273Y-98844302D02*
X297407082Y-99678105D01*
X298123480Y-99984002D02*
X302183739Y-98090672D01*
X302183739Y-98090672D02*
X302437310Y-98634457D01*
X298123480Y-99984002D02*
G75*
G02*
X297407082Y-99678105I-205250J511148D01*
G01*
X295536669Y-103948697D02*
X294872206Y-103706852D01*
X297621177Y-102976675D02*
X295536669Y-103948697D01*
X300091660Y-104252101D02*
X299795827Y-103617685D01*
X304170045Y-102350318D02*
X300091660Y-104252101D01*
X303958736Y-101897165D02*
X304170045Y-102350318D01*
X297621177Y-102976675D02*
G75*
G02*
X299787375Y-103599559I771657J-1394541D01*
G01*
%TO.C,S30*%
X285605140Y-82650464D02*
X285363295Y-83314927D01*
X288324063Y-81382609D02*
X285605140Y-82650464D01*
X288988526Y-81624454D02*
X288324063Y-81382609D01*
X288988526Y-81624454D02*
X289377335Y-82458257D01*
X290093733Y-82764154D02*
X294153992Y-80870824D01*
X294153992Y-80870824D02*
X294407563Y-81414609D01*
X290093733Y-82764154D02*
G75*
G02*
X289377335Y-82458257I-205250J511148D01*
G01*
X287506922Y-86728849D02*
X286842459Y-86487004D01*
X289591430Y-85756827D02*
X287506922Y-86728849D01*
X292061913Y-87032253D02*
X291766080Y-86397837D01*
X296140298Y-85130470D02*
X292061913Y-87032253D01*
X295928989Y-84677317D02*
X296140298Y-85130470D01*
X289591430Y-85756827D02*
G75*
G02*
X291757628Y-86379711I771657J-1394541D01*
G01*
%TO.C,S31*%
X283441068Y-122967426D02*
X283199223Y-123631889D01*
X286159991Y-121699571D02*
X283441068Y-122967426D01*
X286824454Y-121941416D02*
X286159991Y-121699571D01*
X286824454Y-121941416D02*
X287213263Y-122775219D01*
X287929661Y-123081116D02*
X291989920Y-121187786D01*
X291989920Y-121187786D02*
X292243491Y-121731571D01*
X287929661Y-123081116D02*
G75*
G02*
X287213263Y-122775219I-205250J511148D01*
G01*
X285342850Y-127045811D02*
X284678387Y-126803966D01*
X287427358Y-126073789D02*
X285342850Y-127045811D01*
X289897841Y-127349215D02*
X289602008Y-126714799D01*
X293976226Y-125447432D02*
X289897841Y-127349215D01*
X293764917Y-124994279D02*
X293976226Y-125447432D01*
X287427358Y-126073789D02*
G75*
G02*
X289593556Y-126696673I771657J-1394541D01*
G01*
%TO.C,S32*%
X275411321Y-105747578D02*
X275169476Y-106412041D01*
X278130244Y-104479723D02*
X275411321Y-105747578D01*
X278794707Y-104721568D02*
X278130244Y-104479723D01*
X278794707Y-104721568D02*
X279183516Y-105555371D01*
X279899914Y-105861268D02*
X283960173Y-103967938D01*
X283960173Y-103967938D02*
X284213744Y-104511723D01*
X279899914Y-105861268D02*
G75*
G02*
X279183516Y-105555371I-205250J511148D01*
G01*
X277313103Y-109825963D02*
X276648640Y-109584118D01*
X279397611Y-108853941D02*
X277313103Y-109825963D01*
X281868094Y-110129367D02*
X281572261Y-109494951D01*
X285946479Y-108227584D02*
X281868094Y-110129367D01*
X285735170Y-107774431D02*
X285946479Y-108227584D01*
X279397611Y-108853941D02*
G75*
G02*
X281563809Y-109476825I771657J-1394541D01*
G01*
%TO.C,S33*%
X267381574Y-88527730D02*
X267139729Y-89192193D01*
X270100497Y-87259875D02*
X267381574Y-88527730D01*
X270764960Y-87501720D02*
X270100497Y-87259875D01*
X270764960Y-87501720D02*
X271153769Y-88335523D01*
X271870167Y-88641420D02*
X275930426Y-86748090D01*
X275930426Y-86748090D02*
X276183997Y-87291875D01*
X271870167Y-88641420D02*
G75*
G02*
X271153769Y-88335523I-205250J511148D01*
G01*
X269283356Y-92606115D02*
X268618893Y-92364270D01*
X271367864Y-91634093D02*
X269283356Y-92606115D01*
X273838347Y-92909519D02*
X273542514Y-92275103D01*
X277916732Y-91007736D02*
X273838347Y-92909519D01*
X277705423Y-90554583D02*
X277916732Y-91007736D01*
X271367864Y-91634093D02*
G75*
G02*
X273534062Y-92256977I771657J-1394541D01*
G01*
%TO.C,S34*%
X268228657Y-135302135D02*
X267986812Y-135966598D01*
X270947580Y-134034280D02*
X268228657Y-135302135D01*
X271612043Y-134276125D02*
X270947580Y-134034280D01*
X271612043Y-134276125D02*
X272000852Y-135109928D01*
X272717250Y-135415825D02*
X276777509Y-133522495D01*
X276777509Y-133522495D02*
X277031080Y-134066280D01*
X272717250Y-135415825D02*
G75*
G02*
X272000852Y-135109928I-205250J511148D01*
G01*
X270130439Y-139380520D02*
X269465976Y-139138675D01*
X272214947Y-138408498D02*
X270130439Y-139380520D01*
X274685430Y-139683924D02*
X274389597Y-139049508D01*
X278763815Y-137782141D02*
X274685430Y-139683924D01*
X278552506Y-137328988D02*
X278763815Y-137782141D01*
X272214947Y-138408498D02*
G75*
G02*
X274381145Y-139031382I771657J-1394541D01*
G01*
%TO.C,S35*%
X260198910Y-118082287D02*
X259957065Y-118746750D01*
X262917833Y-116814432D02*
X260198910Y-118082287D01*
X263582296Y-117056277D02*
X262917833Y-116814432D01*
X263582296Y-117056277D02*
X263971105Y-117890080D01*
X264687503Y-118195977D02*
X268747762Y-116302647D01*
X268747762Y-116302647D02*
X269001333Y-116846432D01*
X264687503Y-118195977D02*
G75*
G02*
X263971105Y-117890080I-205250J511148D01*
G01*
X262100692Y-122160672D02*
X261436229Y-121918827D01*
X264185200Y-121188650D02*
X262100692Y-122160672D01*
X266655683Y-122464076D02*
X266359850Y-121829660D01*
X270734068Y-120562293D02*
X266655683Y-122464076D01*
X270522759Y-120109140D02*
X270734068Y-120562293D01*
X264185200Y-121188650D02*
G75*
G02*
X266351398Y-121811534I771657J-1394541D01*
G01*
%TO.C,S36*%
X252169162Y-100862439D02*
X251927317Y-101526902D01*
X254888085Y-99594584D02*
X252169162Y-100862439D01*
X255552548Y-99836429D02*
X254888085Y-99594584D01*
X255552548Y-99836429D02*
X255941357Y-100670232D01*
X256657755Y-100976129D02*
X260718014Y-99082799D01*
X260718014Y-99082799D02*
X260971585Y-99626584D01*
X256657755Y-100976129D02*
G75*
G02*
X255941357Y-100670232I-205250J511148D01*
G01*
X254070944Y-104940824D02*
X253406481Y-104698979D01*
X256155452Y-103968802D02*
X254070944Y-104940824D01*
X258625935Y-105244228D02*
X258330102Y-104609812D01*
X262704320Y-103342445D02*
X258625935Y-105244228D01*
X262493011Y-102889292D02*
X262704320Y-103342445D01*
X256155452Y-103968802D02*
G75*
G02*
X258321650Y-104591686I771657J-1394541D01*
G01*
%TO.C,S37*%
X252012527Y-145484363D02*
X251770682Y-146148826D01*
X254731450Y-144216508D02*
X252012527Y-145484363D01*
X255395913Y-144458353D02*
X254731450Y-144216508D01*
X255395913Y-144458353D02*
X255784722Y-145292156D01*
X256501120Y-145598053D02*
X260561379Y-143704723D01*
X260561379Y-143704723D02*
X260814950Y-144248508D01*
X256501120Y-145598053D02*
G75*
G02*
X255784722Y-145292156I-205250J511148D01*
G01*
X253914309Y-149562748D02*
X253249846Y-149320903D01*
X255998817Y-148590726D02*
X253914309Y-149562748D01*
X258469300Y-149866152D02*
X258173467Y-149231736D01*
X262547685Y-147964369D02*
X258469300Y-149866152D01*
X262336376Y-147511216D02*
X262547685Y-147964369D01*
X255998817Y-148590726D02*
G75*
G02*
X258165015Y-149213610I771657J-1394541D01*
G01*
%TO.C,S38*%
X243982780Y-128264515D02*
X243740935Y-128928978D01*
X246701703Y-126996660D02*
X243982780Y-128264515D01*
X247366166Y-127238505D02*
X246701703Y-126996660D01*
X247366166Y-127238505D02*
X247754975Y-128072308D01*
X248471373Y-128378205D02*
X252531632Y-126484875D01*
X252531632Y-126484875D02*
X252785203Y-127028660D01*
X248471373Y-128378205D02*
G75*
G02*
X247754975Y-128072308I-205250J511148D01*
G01*
X245884562Y-132342900D02*
X245220099Y-132101055D01*
X247969070Y-131370878D02*
X245884562Y-132342900D01*
X250439553Y-132646304D02*
X250143720Y-132011888D01*
X254517938Y-130744521D02*
X250439553Y-132646304D01*
X254306629Y-130291368D02*
X254517938Y-130744521D01*
X247969070Y-131370878D02*
G75*
G02*
X250135268Y-131993762I771657J-1394541D01*
G01*
%TO.C,S39*%
X235953033Y-111044667D02*
X235711188Y-111709130D01*
X238671956Y-109776812D02*
X235953033Y-111044667D01*
X239336419Y-110018657D02*
X238671956Y-109776812D01*
X239336419Y-110018657D02*
X239725228Y-110852460D01*
X240441626Y-111158357D02*
X244501885Y-109265027D01*
X244501885Y-109265027D02*
X244755456Y-109808812D01*
X240441626Y-111158357D02*
G75*
G02*
X239725228Y-110852460I-205250J511148D01*
G01*
X237854815Y-115123052D02*
X237190352Y-114881207D01*
X239939323Y-114151030D02*
X237854815Y-115123052D01*
X242409806Y-115426456D02*
X242113973Y-114792040D01*
X246488191Y-113524673D02*
X242409806Y-115426456D01*
X246276882Y-113071520D02*
X246488191Y-113524673D01*
X239939323Y-114151030D02*
G75*
G02*
X242105521Y-114773914I771657J-1394541D01*
G01*
%TO.C,S40*%
X285396600Y-149639994D02*
X285154755Y-150304457D01*
X288115523Y-148372139D02*
X285396600Y-149639994D01*
X288779986Y-148613984D02*
X288115523Y-148372139D01*
X288779986Y-148613984D02*
X289168795Y-149447787D01*
X289885193Y-149753684D02*
X293945452Y-147860354D01*
X293945452Y-147860354D02*
X294199023Y-148404139D01*
X289885193Y-149753684D02*
G75*
G02*
X289168795Y-149447787I-205250J511148D01*
G01*
X287298382Y-153718379D02*
X286633919Y-153476534D01*
X289382890Y-152746357D02*
X287298382Y-153718379D01*
X291853373Y-154021783D02*
X291557540Y-153387367D01*
X295931758Y-152120000D02*
X291853373Y-154021783D01*
X295720449Y-151666847D02*
X295931758Y-152120000D01*
X289382890Y-152746357D02*
G75*
G02*
X291549088Y-153369241I771657J-1394541D01*
G01*
%TO.C,S41*%
X265910212Y-162442421D02*
X265848584Y-163146837D01*
X268208345Y-160514058D02*
X265910212Y-162442421D01*
X268912761Y-160575687D02*
X268208345Y-160514058D01*
X268912761Y-160575687D02*
X269504126Y-161280447D01*
X270275286Y-161390504D02*
X273707165Y-158510815D01*
X273707165Y-158510815D02*
X274092837Y-158970442D01*
X270275286Y-161390504D02*
G75*
G02*
X269504126Y-161280447I-330552J440608D01*
G01*
X268802756Y-165889621D02*
X268098340Y-165827993D01*
X270564658Y-164411209D02*
X268802756Y-165889621D01*
X273281067Y-165003768D02*
X272831115Y-164467537D01*
X276728267Y-162111224D02*
X273281067Y-165003768D01*
X276406873Y-161728202D02*
X276728267Y-162111224D01*
X270564658Y-164411209D02*
G75*
G02*
X272818261Y-164452216I1106298J-1147305D01*
G01*
%TO.C,S42*%
X257283161Y-173113026D02*
X256586796Y-173235813D01*
X259740617Y-174833755D02*
X257283161Y-173113026D01*
X259863405Y-175530119D02*
X259740617Y-174833755D01*
X259863405Y-175530119D02*
X259335714Y-176283739D01*
X259428999Y-177057107D02*
X263098800Y-179626729D01*
X263098800Y-179626729D02*
X262754654Y-180118221D01*
X259428999Y-177057107D02*
G75*
G02*
X259335715Y-176283739I340042J433326D01*
G01*
X254702067Y-176799210D02*
X254579279Y-176102846D01*
X256586116Y-178118436D02*
X254702067Y-176799210D01*
X256716807Y-180895650D02*
X257118310Y-180322244D01*
X260402991Y-183476744D02*
X256716807Y-180895650D01*
X260689779Y-183067168D02*
X260402991Y-183476744D01*
X256586116Y-178118436D02*
G75*
G02*
X257129782Y-180305861I-821879J-1365545D01*
G01*
D12*
%TO.C,S43*%
X79827159Y-123968843D02*
X80323063Y-124049956D01*
X80687019Y-124043950D01*
X80980264Y-123915470D01*
X80912092Y-124363077D01*
X80962927Y-124946100D01*
X81206946Y-125580887D01*
X81432019Y-125900014D01*
X81837337Y-126319202D01*
X82378069Y-126619382D01*
X82861032Y-126748791D01*
X83321581Y-126768667D01*
X83588944Y-126736780D01*
X84088315Y-126611767D01*
X84207322Y-126747182D01*
X84326329Y-126882598D01*
X84222802Y-127268968D01*
X84022682Y-127629456D01*
X83813088Y-127832115D01*
X83616435Y-127986477D01*
X83432724Y-128092543D01*
X83200716Y-128185668D01*
X83029945Y-128243438D01*
X82810878Y-128288267D01*
X82495218Y-128307214D01*
X82192499Y-128277864D01*
X81999314Y-128226100D01*
X77797537Y-127100238D01*
X78203783Y-126743217D01*
X78452200Y-126395669D01*
X78565201Y-126167129D01*
X78655787Y-125829055D01*
X78733433Y-125539277D01*
X78740368Y-125127025D01*
X78686066Y-124750128D01*
X78605882Y-124469823D01*
X78406691Y-124054104D01*
X78216973Y-123796214D01*
X77847011Y-123438264D01*
X79827159Y-123968843D01*
G36*
X79827159Y-123968843D02*
G01*
X80323063Y-124049956D01*
X80687019Y-124043950D01*
X80980264Y-123915470D01*
X80912092Y-124363077D01*
X80962927Y-124946100D01*
X81206946Y-125580887D01*
X81432019Y-125900014D01*
X81837337Y-126319202D01*
X82378069Y-126619382D01*
X82861032Y-126748791D01*
X83321581Y-126768667D01*
X83588944Y-126736780D01*
X84088315Y-126611767D01*
X84207322Y-126747182D01*
X84326329Y-126882598D01*
X84222802Y-127268968D01*
X84022682Y-127629456D01*
X83813088Y-127832115D01*
X83616435Y-127986477D01*
X83432724Y-128092543D01*
X83200716Y-128185668D01*
X83029945Y-128243438D01*
X82810878Y-128288267D01*
X82495218Y-128307214D01*
X82192499Y-128277864D01*
X81999314Y-128226100D01*
X77797537Y-127100238D01*
X78203783Y-126743217D01*
X78452200Y-126395669D01*
X78565201Y-126167129D01*
X78655787Y-125829055D01*
X78733433Y-125539277D01*
X78740368Y-125127025D01*
X78686066Y-124750128D01*
X78605882Y-124469823D01*
X78406691Y-124054104D01*
X78216973Y-123796214D01*
X77847011Y-123438264D01*
X79827159Y-123968843D01*
G37*
%TO.C,S44*%
X84744721Y-105616252D02*
X85240625Y-105697365D01*
X85604581Y-105691359D01*
X85897826Y-105562879D01*
X85829654Y-106010486D01*
X85880489Y-106593509D01*
X86124508Y-107228296D01*
X86349581Y-107547423D01*
X86754899Y-107966611D01*
X87295631Y-108266791D01*
X87778594Y-108396200D01*
X88239143Y-108416076D01*
X88506506Y-108384189D01*
X89005877Y-108259176D01*
X89124884Y-108394591D01*
X89243891Y-108530007D01*
X89140364Y-108916377D01*
X88940244Y-109276865D01*
X88730650Y-109479524D01*
X88533997Y-109633886D01*
X88350286Y-109739952D01*
X88118278Y-109833077D01*
X87947507Y-109890847D01*
X87728440Y-109935676D01*
X87412780Y-109954623D01*
X87110061Y-109925273D01*
X86916876Y-109873509D01*
X82715099Y-108747647D01*
X83121345Y-108390626D01*
X83369762Y-108043078D01*
X83482763Y-107814538D01*
X83573349Y-107476464D01*
X83650995Y-107186686D01*
X83657930Y-106774434D01*
X83603628Y-106397537D01*
X83523444Y-106117232D01*
X83324253Y-105701513D01*
X83134535Y-105443623D01*
X82764573Y-105085673D01*
X84744721Y-105616252D01*
G36*
X84744721Y-105616252D02*
G01*
X85240625Y-105697365D01*
X85604581Y-105691359D01*
X85897826Y-105562879D01*
X85829654Y-106010486D01*
X85880489Y-106593509D01*
X86124508Y-107228296D01*
X86349581Y-107547423D01*
X86754899Y-107966611D01*
X87295631Y-108266791D01*
X87778594Y-108396200D01*
X88239143Y-108416076D01*
X88506506Y-108384189D01*
X89005877Y-108259176D01*
X89124884Y-108394591D01*
X89243891Y-108530007D01*
X89140364Y-108916377D01*
X88940244Y-109276865D01*
X88730650Y-109479524D01*
X88533997Y-109633886D01*
X88350286Y-109739952D01*
X88118278Y-109833077D01*
X87947507Y-109890847D01*
X87728440Y-109935676D01*
X87412780Y-109954623D01*
X87110061Y-109925273D01*
X86916876Y-109873509D01*
X82715099Y-108747647D01*
X83121345Y-108390626D01*
X83369762Y-108043078D01*
X83482763Y-107814538D01*
X83573349Y-107476464D01*
X83650995Y-107186686D01*
X83657930Y-106774434D01*
X83603628Y-106397537D01*
X83523444Y-106117232D01*
X83324253Y-105701513D01*
X83134535Y-105443623D01*
X82764573Y-105085673D01*
X84744721Y-105616252D01*
G37*
%TO.C,S45*%
X89662282Y-87263661D02*
X90158186Y-87344774D01*
X90522142Y-87338768D01*
X90815387Y-87210288D01*
X90747215Y-87657895D01*
X90798050Y-88240918D01*
X91042069Y-88875705D01*
X91267142Y-89194832D01*
X91672460Y-89614020D01*
X92213192Y-89914200D01*
X92696155Y-90043609D01*
X93156704Y-90063485D01*
X93424067Y-90031598D01*
X93923438Y-89906585D01*
X94042445Y-90042000D01*
X94161452Y-90177416D01*
X94057925Y-90563786D01*
X93857805Y-90924274D01*
X93648211Y-91126933D01*
X93451558Y-91281295D01*
X93267847Y-91387361D01*
X93035839Y-91480486D01*
X92865068Y-91538256D01*
X92646001Y-91583085D01*
X92330341Y-91602032D01*
X92027622Y-91572682D01*
X91834437Y-91520918D01*
X87632660Y-90395056D01*
X88038906Y-90038035D01*
X88287323Y-89690487D01*
X88400324Y-89461947D01*
X88490910Y-89123873D01*
X88568556Y-88834095D01*
X88575491Y-88421843D01*
X88521189Y-88044946D01*
X88441005Y-87764641D01*
X88241814Y-87348922D01*
X88052096Y-87091032D01*
X87682134Y-86733082D01*
X89662282Y-87263661D01*
G36*
X89662282Y-87263661D02*
G01*
X90158186Y-87344774D01*
X90522142Y-87338768D01*
X90815387Y-87210288D01*
X90747215Y-87657895D01*
X90798050Y-88240918D01*
X91042069Y-88875705D01*
X91267142Y-89194832D01*
X91672460Y-89614020D01*
X92213192Y-89914200D01*
X92696155Y-90043609D01*
X93156704Y-90063485D01*
X93424067Y-90031598D01*
X93923438Y-89906585D01*
X94042445Y-90042000D01*
X94161452Y-90177416D01*
X94057925Y-90563786D01*
X93857805Y-90924274D01*
X93648211Y-91126933D01*
X93451558Y-91281295D01*
X93267847Y-91387361D01*
X93035839Y-91480486D01*
X92865068Y-91538256D01*
X92646001Y-91583085D01*
X92330341Y-91602032D01*
X92027622Y-91572682D01*
X91834437Y-91520918D01*
X87632660Y-90395056D01*
X88038906Y-90038035D01*
X88287323Y-89690487D01*
X88400324Y-89461947D01*
X88490910Y-89123873D01*
X88568556Y-88834095D01*
X88575491Y-88421843D01*
X88521189Y-88044946D01*
X88441005Y-87764641D01*
X88241814Y-87348922D01*
X88052096Y-87091032D01*
X87682134Y-86733082D01*
X89662282Y-87263661D01*
G37*
%TO.C,S46*%
X100617561Y-122932147D02*
X101104508Y-123056173D01*
X101467602Y-123081911D01*
X101770930Y-122979477D01*
X101664005Y-123419440D01*
X101663833Y-124004675D01*
X101851599Y-124658314D01*
X102048001Y-124995843D01*
X102415242Y-125448761D01*
X102927754Y-125794927D01*
X103397600Y-125965937D01*
X103854664Y-126025877D01*
X104123789Y-126017412D01*
X104632156Y-125936398D01*
X104738908Y-126081671D01*
X104845660Y-126226943D01*
X104708852Y-126602820D01*
X104478074Y-126944495D01*
X104251615Y-127128115D01*
X104042258Y-127264751D01*
X103850001Y-127354401D01*
X103610759Y-127426951D01*
X103435603Y-127469618D01*
X103213463Y-127495183D01*
X102897353Y-127486546D01*
X102598344Y-127430925D01*
X102410406Y-127362521D01*
X98322743Y-125874733D01*
X98758559Y-125554477D01*
X99036321Y-125229903D01*
X99168811Y-125012081D01*
X99288518Y-124683189D01*
X99391124Y-124401281D01*
X99433963Y-123991202D01*
X99412716Y-123611006D01*
X99357267Y-123324780D01*
X99195067Y-122893282D01*
X99028547Y-122619838D01*
X98691191Y-122231006D01*
X100617561Y-122932147D01*
G36*
X100617561Y-122932147D02*
G01*
X101104508Y-123056173D01*
X101467602Y-123081911D01*
X101770930Y-122979477D01*
X101664005Y-123419440D01*
X101663833Y-124004675D01*
X101851599Y-124658314D01*
X102048001Y-124995843D01*
X102415242Y-125448761D01*
X102927754Y-125794927D01*
X103397600Y-125965937D01*
X103854664Y-126025877D01*
X104123789Y-126017412D01*
X104632156Y-125936398D01*
X104738908Y-126081671D01*
X104845660Y-126226943D01*
X104708852Y-126602820D01*
X104478074Y-126944495D01*
X104251615Y-127128115D01*
X104042258Y-127264751D01*
X103850001Y-127354401D01*
X103610759Y-127426951D01*
X103435603Y-127469618D01*
X103213463Y-127495183D01*
X102897353Y-127486546D01*
X102598344Y-127430925D01*
X102410406Y-127362521D01*
X98322743Y-125874733D01*
X98758559Y-125554477D01*
X99036321Y-125229903D01*
X99168811Y-125012081D01*
X99288518Y-124683189D01*
X99391124Y-124401281D01*
X99433963Y-123991202D01*
X99412716Y-123611006D01*
X99357267Y-123324780D01*
X99195067Y-122893282D01*
X99028547Y-122619838D01*
X98691191Y-122231006D01*
X100617561Y-122932147D01*
G37*
%TO.C,S47*%
X107115943Y-105077987D02*
X107602890Y-105202013D01*
X107965984Y-105227751D01*
X108269312Y-105125317D01*
X108162387Y-105565280D01*
X108162215Y-106150515D01*
X108349981Y-106804154D01*
X108546383Y-107141683D01*
X108913624Y-107594601D01*
X109426136Y-107940767D01*
X109895982Y-108111777D01*
X110353046Y-108171717D01*
X110622171Y-108163252D01*
X111130538Y-108082238D01*
X111237290Y-108227511D01*
X111344042Y-108372783D01*
X111207234Y-108748660D01*
X110976456Y-109090335D01*
X110749997Y-109273955D01*
X110540640Y-109410591D01*
X110348383Y-109500241D01*
X110109141Y-109572791D01*
X109933985Y-109615458D01*
X109711845Y-109641023D01*
X109395735Y-109632386D01*
X109096726Y-109576765D01*
X108908788Y-109508361D01*
X104821125Y-108020573D01*
X105256941Y-107700317D01*
X105534703Y-107375743D01*
X105667193Y-107157921D01*
X105786900Y-106829029D01*
X105889506Y-106547121D01*
X105932345Y-106137042D01*
X105911098Y-105756846D01*
X105855649Y-105470620D01*
X105693449Y-105039122D01*
X105526929Y-104765678D01*
X105189573Y-104376846D01*
X107115943Y-105077987D01*
G36*
X107115943Y-105077987D02*
G01*
X107602890Y-105202013D01*
X107965984Y-105227751D01*
X108269312Y-105125317D01*
X108162387Y-105565280D01*
X108162215Y-106150515D01*
X108349981Y-106804154D01*
X108546383Y-107141683D01*
X108913624Y-107594601D01*
X109426136Y-107940767D01*
X109895982Y-108111777D01*
X110353046Y-108171717D01*
X110622171Y-108163252D01*
X111130538Y-108082238D01*
X111237290Y-108227511D01*
X111344042Y-108372783D01*
X111207234Y-108748660D01*
X110976456Y-109090335D01*
X110749997Y-109273955D01*
X110540640Y-109410591D01*
X110348383Y-109500241D01*
X110109141Y-109572791D01*
X109933985Y-109615458D01*
X109711845Y-109641023D01*
X109395735Y-109632386D01*
X109096726Y-109576765D01*
X108908788Y-109508361D01*
X104821125Y-108020573D01*
X105256941Y-107700317D01*
X105534703Y-107375743D01*
X105667193Y-107157921D01*
X105786900Y-106829029D01*
X105889506Y-106547121D01*
X105932345Y-106137042D01*
X105911098Y-105756846D01*
X105855649Y-105470620D01*
X105693449Y-105039122D01*
X105526929Y-104765678D01*
X105189573Y-104376846D01*
X107115943Y-105077987D01*
G37*
%TO.C,S48*%
X113614326Y-87223828D02*
X114101273Y-87347854D01*
X114464367Y-87373592D01*
X114767695Y-87271158D01*
X114660770Y-87711121D01*
X114660598Y-88296356D01*
X114848364Y-88949995D01*
X115044766Y-89287524D01*
X115412007Y-89740442D01*
X115924519Y-90086608D01*
X116394365Y-90257618D01*
X116851429Y-90317558D01*
X117120554Y-90309093D01*
X117628921Y-90228079D01*
X117735673Y-90373352D01*
X117842425Y-90518624D01*
X117705617Y-90894501D01*
X117474839Y-91236176D01*
X117248380Y-91419796D01*
X117039023Y-91556432D01*
X116846766Y-91646082D01*
X116607524Y-91718632D01*
X116432368Y-91761299D01*
X116210228Y-91786864D01*
X115894118Y-91778227D01*
X115595109Y-91722606D01*
X115407171Y-91654202D01*
X111319508Y-90166414D01*
X111755324Y-89846158D01*
X112033086Y-89521584D01*
X112165576Y-89303762D01*
X112285283Y-88974870D01*
X112387889Y-88692962D01*
X112430728Y-88282883D01*
X112409481Y-87902687D01*
X112354032Y-87616461D01*
X112191832Y-87184963D01*
X112025312Y-86911519D01*
X111687956Y-86522687D01*
X113614326Y-87223828D01*
G36*
X113614326Y-87223828D02*
G01*
X114101273Y-87347854D01*
X114464367Y-87373592D01*
X114767695Y-87271158D01*
X114660770Y-87711121D01*
X114660598Y-88296356D01*
X114848364Y-88949995D01*
X115044766Y-89287524D01*
X115412007Y-89740442D01*
X115924519Y-90086608D01*
X116394365Y-90257618D01*
X116851429Y-90317558D01*
X117120554Y-90309093D01*
X117628921Y-90228079D01*
X117735673Y-90373352D01*
X117842425Y-90518624D01*
X117705617Y-90894501D01*
X117474839Y-91236176D01*
X117248380Y-91419796D01*
X117039023Y-91556432D01*
X116846766Y-91646082D01*
X116607524Y-91718632D01*
X116432368Y-91761299D01*
X116210228Y-91786864D01*
X115894118Y-91778227D01*
X115595109Y-91722606D01*
X115407171Y-91654202D01*
X111319508Y-90166414D01*
X111755324Y-89846158D01*
X112033086Y-89521584D01*
X112165576Y-89303762D01*
X112285283Y-88974870D01*
X112387889Y-88692962D01*
X112430728Y-88282883D01*
X112409481Y-87902687D01*
X112354032Y-87616461D01*
X112191832Y-87184963D01*
X112025312Y-86911519D01*
X111687956Y-86522687D01*
X113614326Y-87223828D01*
G37*
%TO.C,S49*%
X120243358Y-126730611D02*
X120717643Y-126896605D01*
X121077113Y-126953891D01*
X121388213Y-126878284D01*
X121243350Y-127307253D01*
X121192172Y-127890246D01*
X121322255Y-128557763D01*
X121488493Y-128911125D01*
X121814861Y-129394326D01*
X122295253Y-129783844D01*
X122748407Y-129995153D01*
X123198507Y-130094700D01*
X123467346Y-130109724D01*
X123980839Y-130073325D01*
X124074523Y-130227349D01*
X124168208Y-130381372D01*
X123999161Y-130743895D01*
X123739482Y-131064157D01*
X123497882Y-131227341D01*
X123277412Y-131345210D01*
X123078073Y-131417763D01*
X122833419Y-131469186D01*
X122655211Y-131496424D01*
X122431687Y-131502531D01*
X122117533Y-131466376D01*
X121824510Y-131384906D01*
X121643248Y-131300382D01*
X117700809Y-129461993D01*
X118162880Y-129180940D01*
X118467873Y-128881810D01*
X118618843Y-128676363D01*
X118766760Y-128359156D01*
X118893545Y-128087263D01*
X118971962Y-127682478D01*
X118983932Y-127301878D01*
X118953640Y-127011908D01*
X118829665Y-126567915D01*
X118687611Y-126280999D01*
X118385427Y-125864244D01*
X120243358Y-126730611D01*
G36*
X120243358Y-126730611D02*
G01*
X120717643Y-126896605D01*
X121077113Y-126953891D01*
X121388213Y-126878284D01*
X121243350Y-127307253D01*
X121192172Y-127890246D01*
X121322255Y-128557763D01*
X121488493Y-128911125D01*
X121814861Y-129394326D01*
X122295253Y-129783844D01*
X122748407Y-129995153D01*
X123198507Y-130094700D01*
X123467346Y-130109724D01*
X123980839Y-130073325D01*
X124074523Y-130227349D01*
X124168208Y-130381372D01*
X123999161Y-130743895D01*
X123739482Y-131064157D01*
X123497882Y-131227341D01*
X123277412Y-131345210D01*
X123078073Y-131417763D01*
X122833419Y-131469186D01*
X122655211Y-131496424D01*
X122431687Y-131502531D01*
X122117533Y-131466376D01*
X121824510Y-131384906D01*
X121643248Y-131300382D01*
X117700809Y-129461993D01*
X118162880Y-129180940D01*
X118467873Y-128881810D01*
X118618843Y-128676363D01*
X118766760Y-128359156D01*
X118893545Y-128087263D01*
X118971962Y-127682478D01*
X118983932Y-127301878D01*
X118953640Y-127011908D01*
X118829665Y-126567915D01*
X118687611Y-126280999D01*
X118385427Y-125864244D01*
X120243358Y-126730611D01*
G37*
%TO.C,S50*%
X128273105Y-109510763D02*
X128747390Y-109676757D01*
X129106860Y-109734043D01*
X129417960Y-109658436D01*
X129273097Y-110087405D01*
X129221919Y-110670398D01*
X129352002Y-111337915D01*
X129518240Y-111691277D01*
X129844608Y-112174478D01*
X130325000Y-112563996D01*
X130778154Y-112775305D01*
X131228254Y-112874852D01*
X131497093Y-112889876D01*
X132010586Y-112853477D01*
X132104270Y-113007501D01*
X132197955Y-113161524D01*
X132028908Y-113524047D01*
X131769229Y-113844309D01*
X131527629Y-114007493D01*
X131307159Y-114125362D01*
X131107820Y-114197915D01*
X130863166Y-114249338D01*
X130684958Y-114276576D01*
X130461434Y-114282683D01*
X130147280Y-114246528D01*
X129854257Y-114165058D01*
X129672995Y-114080534D01*
X125730556Y-112242145D01*
X126192627Y-111961092D01*
X126497620Y-111661962D01*
X126648590Y-111456515D01*
X126796507Y-111139308D01*
X126923292Y-110867415D01*
X127001709Y-110462630D01*
X127013679Y-110082030D01*
X126983387Y-109792060D01*
X126859412Y-109348067D01*
X126717358Y-109061151D01*
X126415174Y-108644396D01*
X128273105Y-109510763D01*
G36*
X128273105Y-109510763D02*
G01*
X128747390Y-109676757D01*
X129106860Y-109734043D01*
X129417960Y-109658436D01*
X129273097Y-110087405D01*
X129221919Y-110670398D01*
X129352002Y-111337915D01*
X129518240Y-111691277D01*
X129844608Y-112174478D01*
X130325000Y-112563996D01*
X130778154Y-112775305D01*
X131228254Y-112874852D01*
X131497093Y-112889876D01*
X132010586Y-112853477D01*
X132104270Y-113007501D01*
X132197955Y-113161524D01*
X132028908Y-113524047D01*
X131769229Y-113844309D01*
X131527629Y-114007493D01*
X131307159Y-114125362D01*
X131107820Y-114197915D01*
X130863166Y-114249338D01*
X130684958Y-114276576D01*
X130461434Y-114282683D01*
X130147280Y-114246528D01*
X129854257Y-114165058D01*
X129672995Y-114080534D01*
X125730556Y-112242145D01*
X126192627Y-111961092D01*
X126497620Y-111661962D01*
X126648590Y-111456515D01*
X126796507Y-111139308D01*
X126923292Y-110867415D01*
X127001709Y-110462630D01*
X127013679Y-110082030D01*
X126983387Y-109792060D01*
X126859412Y-109348067D01*
X126717358Y-109061151D01*
X126415174Y-108644396D01*
X128273105Y-109510763D01*
G37*
%TO.C,S51*%
X136302852Y-92290915D02*
X136777137Y-92456909D01*
X137136607Y-92514195D01*
X137447707Y-92438588D01*
X137302844Y-92867557D01*
X137251666Y-93450550D01*
X137381749Y-94118067D01*
X137547987Y-94471429D01*
X137874355Y-94954630D01*
X138354747Y-95344148D01*
X138807901Y-95555457D01*
X139258001Y-95655004D01*
X139526840Y-95670028D01*
X140040333Y-95633629D01*
X140134017Y-95787653D01*
X140227702Y-95941676D01*
X140058655Y-96304199D01*
X139798976Y-96624461D01*
X139557376Y-96787645D01*
X139336906Y-96905514D01*
X139137567Y-96978067D01*
X138892913Y-97029490D01*
X138714705Y-97056728D01*
X138491181Y-97062835D01*
X138177027Y-97026680D01*
X137884004Y-96945210D01*
X137702742Y-96860686D01*
X133760303Y-95022297D01*
X134222374Y-94741244D01*
X134527367Y-94442114D01*
X134678337Y-94236667D01*
X134826254Y-93919460D01*
X134953039Y-93647567D01*
X135031456Y-93242782D01*
X135043426Y-92862182D01*
X135013134Y-92572212D01*
X134889159Y-92128219D01*
X134747105Y-91841303D01*
X134444921Y-91424548D01*
X136302852Y-92290915D01*
G36*
X136302852Y-92290915D02*
G01*
X136777137Y-92456909D01*
X137136607Y-92514195D01*
X137447707Y-92438588D01*
X137302844Y-92867557D01*
X137251666Y-93450550D01*
X137381749Y-94118067D01*
X137547987Y-94471429D01*
X137874355Y-94954630D01*
X138354747Y-95344148D01*
X138807901Y-95555457D01*
X139258001Y-95655004D01*
X139526840Y-95670028D01*
X140040333Y-95633629D01*
X140134017Y-95787653D01*
X140227702Y-95941676D01*
X140058655Y-96304199D01*
X139798976Y-96624461D01*
X139557376Y-96787645D01*
X139336906Y-96905514D01*
X139137567Y-96978067D01*
X138892913Y-97029490D01*
X138714705Y-97056728D01*
X138491181Y-97062835D01*
X138177027Y-97026680D01*
X137884004Y-96945210D01*
X137702742Y-96860686D01*
X133760303Y-95022297D01*
X134222374Y-94741244D01*
X134527367Y-94442114D01*
X134678337Y-94236667D01*
X134826254Y-93919460D01*
X134953039Y-93647567D01*
X135031456Y-93242782D01*
X135043426Y-92862182D01*
X135013134Y-92572212D01*
X134889159Y-92128219D01*
X134747105Y-91841303D01*
X134444921Y-91424548D01*
X136302852Y-92290915D01*
G37*
%TO.C,S52*%
X138466924Y-132607877D02*
X138941209Y-132773871D01*
X139300679Y-132831157D01*
X139611779Y-132755550D01*
X139466916Y-133184519D01*
X139415738Y-133767512D01*
X139545821Y-134435029D01*
X139712059Y-134788391D01*
X140038427Y-135271592D01*
X140518819Y-135661110D01*
X140971973Y-135872419D01*
X141422073Y-135971966D01*
X141690912Y-135986990D01*
X142204405Y-135950591D01*
X142298089Y-136104615D01*
X142391774Y-136258638D01*
X142222727Y-136621161D01*
X141963048Y-136941423D01*
X141721448Y-137104607D01*
X141500978Y-137222476D01*
X141301639Y-137295029D01*
X141056985Y-137346452D01*
X140878777Y-137373690D01*
X140655253Y-137379797D01*
X140341099Y-137343642D01*
X140048076Y-137262172D01*
X139866814Y-137177648D01*
X135924375Y-135339259D01*
X136386446Y-135058206D01*
X136691439Y-134759076D01*
X136842409Y-134553629D01*
X136990326Y-134236422D01*
X137117111Y-133964529D01*
X137195528Y-133559744D01*
X137207498Y-133179144D01*
X137177206Y-132889174D01*
X137053231Y-132445181D01*
X136911177Y-132158265D01*
X136608993Y-131741510D01*
X138466924Y-132607877D01*
G36*
X138466924Y-132607877D02*
G01*
X138941209Y-132773871D01*
X139300679Y-132831157D01*
X139611779Y-132755550D01*
X139466916Y-133184519D01*
X139415738Y-133767512D01*
X139545821Y-134435029D01*
X139712059Y-134788391D01*
X140038427Y-135271592D01*
X140518819Y-135661110D01*
X140971973Y-135872419D01*
X141422073Y-135971966D01*
X141690912Y-135986990D01*
X142204405Y-135950591D01*
X142298089Y-136104615D01*
X142391774Y-136258638D01*
X142222727Y-136621161D01*
X141963048Y-136941423D01*
X141721448Y-137104607D01*
X141500978Y-137222476D01*
X141301639Y-137295029D01*
X141056985Y-137346452D01*
X140878777Y-137373690D01*
X140655253Y-137379797D01*
X140341099Y-137343642D01*
X140048076Y-137262172D01*
X139866814Y-137177648D01*
X135924375Y-135339259D01*
X136386446Y-135058206D01*
X136691439Y-134759076D01*
X136842409Y-134553629D01*
X136990326Y-134236422D01*
X137117111Y-133964529D01*
X137195528Y-133559744D01*
X137207498Y-133179144D01*
X137177206Y-132889174D01*
X137053231Y-132445181D01*
X136911177Y-132158265D01*
X136608993Y-131741510D01*
X138466924Y-132607877D01*
G37*
%TO.C,S53*%
X146496671Y-115388029D02*
X146970956Y-115554023D01*
X147330426Y-115611309D01*
X147641526Y-115535702D01*
X147496663Y-115964671D01*
X147445485Y-116547664D01*
X147575568Y-117215181D01*
X147741806Y-117568543D01*
X148068174Y-118051744D01*
X148548566Y-118441262D01*
X149001720Y-118652571D01*
X149451820Y-118752118D01*
X149720659Y-118767142D01*
X150234152Y-118730743D01*
X150327836Y-118884767D01*
X150421521Y-119038790D01*
X150252474Y-119401313D01*
X149992795Y-119721575D01*
X149751195Y-119884759D01*
X149530725Y-120002628D01*
X149331386Y-120075181D01*
X149086732Y-120126604D01*
X148908524Y-120153842D01*
X148685000Y-120159949D01*
X148370846Y-120123794D01*
X148077823Y-120042324D01*
X147896561Y-119957800D01*
X143954122Y-118119411D01*
X144416193Y-117838358D01*
X144721186Y-117539228D01*
X144872156Y-117333781D01*
X145020073Y-117016574D01*
X145146858Y-116744681D01*
X145225275Y-116339896D01*
X145237245Y-115959296D01*
X145206953Y-115669326D01*
X145082978Y-115225333D01*
X144940924Y-114938417D01*
X144638740Y-114521662D01*
X146496671Y-115388029D01*
G36*
X146496671Y-115388029D02*
G01*
X146970956Y-115554023D01*
X147330426Y-115611309D01*
X147641526Y-115535702D01*
X147496663Y-115964671D01*
X147445485Y-116547664D01*
X147575568Y-117215181D01*
X147741806Y-117568543D01*
X148068174Y-118051744D01*
X148548566Y-118441262D01*
X149001720Y-118652571D01*
X149451820Y-118752118D01*
X149720659Y-118767142D01*
X150234152Y-118730743D01*
X150327836Y-118884767D01*
X150421521Y-119038790D01*
X150252474Y-119401313D01*
X149992795Y-119721575D01*
X149751195Y-119884759D01*
X149530725Y-120002628D01*
X149331386Y-120075181D01*
X149086732Y-120126604D01*
X148908524Y-120153842D01*
X148685000Y-120159949D01*
X148370846Y-120123794D01*
X148077823Y-120042324D01*
X147896561Y-119957800D01*
X143954122Y-118119411D01*
X144416193Y-117838358D01*
X144721186Y-117539228D01*
X144872156Y-117333781D01*
X145020073Y-117016574D01*
X145146858Y-116744681D01*
X145225275Y-116339896D01*
X145237245Y-115959296D01*
X145206953Y-115669326D01*
X145082978Y-115225333D01*
X144940924Y-114938417D01*
X144638740Y-114521662D01*
X146496671Y-115388029D01*
G37*
%TO.C,S54*%
X154526418Y-98168181D02*
X155000703Y-98334175D01*
X155360173Y-98391461D01*
X155671273Y-98315854D01*
X155526410Y-98744823D01*
X155475232Y-99327816D01*
X155605315Y-99995333D01*
X155771553Y-100348695D01*
X156097921Y-100831896D01*
X156578313Y-101221414D01*
X157031467Y-101432723D01*
X157481567Y-101532270D01*
X157750406Y-101547294D01*
X158263899Y-101510895D01*
X158357583Y-101664919D01*
X158451268Y-101818942D01*
X158282221Y-102181465D01*
X158022542Y-102501727D01*
X157780942Y-102664911D01*
X157560472Y-102782780D01*
X157361133Y-102855333D01*
X157116479Y-102906756D01*
X156938271Y-102933994D01*
X156714747Y-102940101D01*
X156400593Y-102903946D01*
X156107570Y-102822476D01*
X155926308Y-102737952D01*
X151983869Y-100899563D01*
X152445940Y-100618510D01*
X152750933Y-100319380D01*
X152901903Y-100113933D01*
X153049820Y-99796726D01*
X153176605Y-99524833D01*
X153255022Y-99120048D01*
X153266992Y-98739448D01*
X153236700Y-98449478D01*
X153112725Y-98005485D01*
X152970671Y-97718569D01*
X152668487Y-97301814D01*
X154526418Y-98168181D01*
G36*
X154526418Y-98168181D02*
G01*
X155000703Y-98334175D01*
X155360173Y-98391461D01*
X155671273Y-98315854D01*
X155526410Y-98744823D01*
X155475232Y-99327816D01*
X155605315Y-99995333D01*
X155771553Y-100348695D01*
X156097921Y-100831896D01*
X156578313Y-101221414D01*
X157031467Y-101432723D01*
X157481567Y-101532270D01*
X157750406Y-101547294D01*
X158263899Y-101510895D01*
X158357583Y-101664919D01*
X158451268Y-101818942D01*
X158282221Y-102181465D01*
X158022542Y-102501727D01*
X157780942Y-102664911D01*
X157560472Y-102782780D01*
X157361133Y-102855333D01*
X157116479Y-102906756D01*
X156938271Y-102933994D01*
X156714747Y-102940101D01*
X156400593Y-102903946D01*
X156107570Y-102822476D01*
X155926308Y-102737952D01*
X151983869Y-100899563D01*
X152445940Y-100618510D01*
X152750933Y-100319380D01*
X152901903Y-100113933D01*
X153049820Y-99796726D01*
X153176605Y-99524833D01*
X153255022Y-99120048D01*
X153266992Y-98739448D01*
X153236700Y-98449478D01*
X153112725Y-98005485D01*
X152970671Y-97718569D01*
X152668487Y-97301814D01*
X154526418Y-98168181D01*
G37*
%TO.C,S55*%
X153679335Y-144942586D02*
X154153620Y-145108580D01*
X154513090Y-145165866D01*
X154824190Y-145090259D01*
X154679327Y-145519228D01*
X154628149Y-146102221D01*
X154758232Y-146769738D01*
X154924470Y-147123100D01*
X155250838Y-147606301D01*
X155731230Y-147995819D01*
X156184384Y-148207128D01*
X156634484Y-148306675D01*
X156903323Y-148321699D01*
X157416816Y-148285300D01*
X157510500Y-148439324D01*
X157604185Y-148593347D01*
X157435138Y-148955870D01*
X157175459Y-149276132D01*
X156933859Y-149439316D01*
X156713389Y-149557185D01*
X156514050Y-149629738D01*
X156269396Y-149681161D01*
X156091188Y-149708399D01*
X155867664Y-149714506D01*
X155553510Y-149678351D01*
X155260487Y-149596881D01*
X155079225Y-149512357D01*
X151136786Y-147673968D01*
X151598857Y-147392915D01*
X151903850Y-147093785D01*
X152054820Y-146888338D01*
X152202737Y-146571131D01*
X152329522Y-146299238D01*
X152407939Y-145894453D01*
X152419909Y-145513853D01*
X152389617Y-145223883D01*
X152265642Y-144779890D01*
X152123588Y-144492974D01*
X151821404Y-144076219D01*
X153679335Y-144942586D01*
G36*
X153679335Y-144942586D02*
G01*
X154153620Y-145108580D01*
X154513090Y-145165866D01*
X154824190Y-145090259D01*
X154679327Y-145519228D01*
X154628149Y-146102221D01*
X154758232Y-146769738D01*
X154924470Y-147123100D01*
X155250838Y-147606301D01*
X155731230Y-147995819D01*
X156184384Y-148207128D01*
X156634484Y-148306675D01*
X156903323Y-148321699D01*
X157416816Y-148285300D01*
X157510500Y-148439324D01*
X157604185Y-148593347D01*
X157435138Y-148955870D01*
X157175459Y-149276132D01*
X156933859Y-149439316D01*
X156713389Y-149557185D01*
X156514050Y-149629738D01*
X156269396Y-149681161D01*
X156091188Y-149708399D01*
X155867664Y-149714506D01*
X155553510Y-149678351D01*
X155260487Y-149596881D01*
X155079225Y-149512357D01*
X151136786Y-147673968D01*
X151598857Y-147392915D01*
X151903850Y-147093785D01*
X152054820Y-146888338D01*
X152202737Y-146571131D01*
X152329522Y-146299238D01*
X152407939Y-145894453D01*
X152419909Y-145513853D01*
X152389617Y-145223883D01*
X152265642Y-144779890D01*
X152123588Y-144492974D01*
X151821404Y-144076219D01*
X153679335Y-144942586D01*
G37*
%TO.C,S56*%
X161709082Y-127722738D02*
X162183367Y-127888732D01*
X162542837Y-127946018D01*
X162853937Y-127870411D01*
X162709074Y-128299380D01*
X162657896Y-128882373D01*
X162787979Y-129549890D01*
X162954217Y-129903252D01*
X163280585Y-130386453D01*
X163760977Y-130775971D01*
X164214131Y-130987280D01*
X164664231Y-131086827D01*
X164933070Y-131101851D01*
X165446563Y-131065452D01*
X165540247Y-131219476D01*
X165633932Y-131373499D01*
X165464885Y-131736022D01*
X165205206Y-132056284D01*
X164963606Y-132219468D01*
X164743136Y-132337337D01*
X164543797Y-132409890D01*
X164299143Y-132461313D01*
X164120935Y-132488551D01*
X163897411Y-132494658D01*
X163583257Y-132458503D01*
X163290234Y-132377033D01*
X163108972Y-132292509D01*
X159166533Y-130454120D01*
X159628604Y-130173067D01*
X159933597Y-129873937D01*
X160084567Y-129668490D01*
X160232484Y-129351283D01*
X160359269Y-129079390D01*
X160437686Y-128674605D01*
X160449656Y-128294005D01*
X160419364Y-128004035D01*
X160295389Y-127560042D01*
X160153335Y-127273126D01*
X159851151Y-126856371D01*
X161709082Y-127722738D01*
G36*
X161709082Y-127722738D02*
G01*
X162183367Y-127888732D01*
X162542837Y-127946018D01*
X162853937Y-127870411D01*
X162709074Y-128299380D01*
X162657896Y-128882373D01*
X162787979Y-129549890D01*
X162954217Y-129903252D01*
X163280585Y-130386453D01*
X163760977Y-130775971D01*
X164214131Y-130987280D01*
X164664231Y-131086827D01*
X164933070Y-131101851D01*
X165446563Y-131065452D01*
X165540247Y-131219476D01*
X165633932Y-131373499D01*
X165464885Y-131736022D01*
X165205206Y-132056284D01*
X164963606Y-132219468D01*
X164743136Y-132337337D01*
X164543797Y-132409890D01*
X164299143Y-132461313D01*
X164120935Y-132488551D01*
X163897411Y-132494658D01*
X163583257Y-132458503D01*
X163290234Y-132377033D01*
X163108972Y-132292509D01*
X159166533Y-130454120D01*
X159628604Y-130173067D01*
X159933597Y-129873937D01*
X160084567Y-129668490D01*
X160232484Y-129351283D01*
X160359269Y-129079390D01*
X160437686Y-128674605D01*
X160449656Y-128294005D01*
X160419364Y-128004035D01*
X160295389Y-127560042D01*
X160153335Y-127273126D01*
X159851151Y-126856371D01*
X161709082Y-127722738D01*
G37*
%TO.C,S57*%
X169738829Y-110502890D02*
X170213114Y-110668884D01*
X170572584Y-110726170D01*
X170883684Y-110650563D01*
X170738821Y-111079532D01*
X170687643Y-111662525D01*
X170817726Y-112330042D01*
X170983964Y-112683404D01*
X171310332Y-113166605D01*
X171790724Y-113556123D01*
X172243878Y-113767432D01*
X172693978Y-113866979D01*
X172962817Y-113882003D01*
X173476310Y-113845604D01*
X173569994Y-113999628D01*
X173663679Y-114153651D01*
X173494632Y-114516174D01*
X173234953Y-114836436D01*
X172993353Y-114999620D01*
X172772883Y-115117489D01*
X172573544Y-115190042D01*
X172328890Y-115241465D01*
X172150682Y-115268703D01*
X171927158Y-115274810D01*
X171613004Y-115238655D01*
X171319981Y-115157185D01*
X171138719Y-115072661D01*
X167196280Y-113234272D01*
X167658351Y-112953219D01*
X167963344Y-112654089D01*
X168114314Y-112448642D01*
X168262231Y-112131435D01*
X168389016Y-111859542D01*
X168467433Y-111454757D01*
X168479403Y-111074157D01*
X168449111Y-110784187D01*
X168325136Y-110340194D01*
X168183082Y-110053278D01*
X167880898Y-109636523D01*
X169738829Y-110502890D01*
G36*
X169738829Y-110502890D02*
G01*
X170213114Y-110668884D01*
X170572584Y-110726170D01*
X170883684Y-110650563D01*
X170738821Y-111079532D01*
X170687643Y-111662525D01*
X170817726Y-112330042D01*
X170983964Y-112683404D01*
X171310332Y-113166605D01*
X171790724Y-113556123D01*
X172243878Y-113767432D01*
X172693978Y-113866979D01*
X172962817Y-113882003D01*
X173476310Y-113845604D01*
X173569994Y-113999628D01*
X173663679Y-114153651D01*
X173494632Y-114516174D01*
X173234953Y-114836436D01*
X172993353Y-114999620D01*
X172772883Y-115117489D01*
X172573544Y-115190042D01*
X172328890Y-115241465D01*
X172150682Y-115268703D01*
X171927158Y-115274810D01*
X171613004Y-115238655D01*
X171319981Y-115157185D01*
X171138719Y-115072661D01*
X167196280Y-113234272D01*
X167658351Y-112953219D01*
X167963344Y-112654089D01*
X168114314Y-112448642D01*
X168262231Y-112131435D01*
X168389016Y-111859542D01*
X168467433Y-111454757D01*
X168479403Y-111074157D01*
X168449111Y-110784187D01*
X168325136Y-110340194D01*
X168183082Y-110053278D01*
X167880898Y-109636523D01*
X169738829Y-110502890D01*
G37*
%TO.C,S58*%
X169895465Y-155124814D02*
X170369750Y-155290808D01*
X170729220Y-155348094D01*
X171040320Y-155272487D01*
X170895457Y-155701456D01*
X170844279Y-156284449D01*
X170974362Y-156951966D01*
X171140600Y-157305328D01*
X171466968Y-157788529D01*
X171947360Y-158178047D01*
X172400514Y-158389356D01*
X172850614Y-158488903D01*
X173119453Y-158503927D01*
X173632946Y-158467528D01*
X173726630Y-158621552D01*
X173820315Y-158775575D01*
X173651268Y-159138098D01*
X173391589Y-159458360D01*
X173149989Y-159621544D01*
X172929519Y-159739413D01*
X172730180Y-159811966D01*
X172485526Y-159863389D01*
X172307318Y-159890627D01*
X172083794Y-159896734D01*
X171769640Y-159860579D01*
X171476617Y-159779109D01*
X171295355Y-159694585D01*
X167352916Y-157856196D01*
X167814987Y-157575143D01*
X168119980Y-157276013D01*
X168270950Y-157070566D01*
X168418867Y-156753359D01*
X168545652Y-156481466D01*
X168624069Y-156076681D01*
X168636039Y-155696081D01*
X168605747Y-155406111D01*
X168481772Y-154962118D01*
X168339718Y-154675202D01*
X168037534Y-154258447D01*
X169895465Y-155124814D01*
G36*
X169895465Y-155124814D02*
G01*
X170369750Y-155290808D01*
X170729220Y-155348094D01*
X171040320Y-155272487D01*
X170895457Y-155701456D01*
X170844279Y-156284449D01*
X170974362Y-156951966D01*
X171140600Y-157305328D01*
X171466968Y-157788529D01*
X171947360Y-158178047D01*
X172400514Y-158389356D01*
X172850614Y-158488903D01*
X173119453Y-158503927D01*
X173632946Y-158467528D01*
X173726630Y-158621552D01*
X173820315Y-158775575D01*
X173651268Y-159138098D01*
X173391589Y-159458360D01*
X173149989Y-159621544D01*
X172929519Y-159739413D01*
X172730180Y-159811966D01*
X172485526Y-159863389D01*
X172307318Y-159890627D01*
X172083794Y-159896734D01*
X171769640Y-159860579D01*
X171476617Y-159779109D01*
X171295355Y-159694585D01*
X167352916Y-157856196D01*
X167814987Y-157575143D01*
X168119980Y-157276013D01*
X168270950Y-157070566D01*
X168418867Y-156753359D01*
X168545652Y-156481466D01*
X168624069Y-156076681D01*
X168636039Y-155696081D01*
X168605747Y-155406111D01*
X168481772Y-154962118D01*
X168339718Y-154675202D01*
X168037534Y-154258447D01*
X169895465Y-155124814D01*
G37*
%TO.C,S59*%
X177925212Y-137904966D02*
X178399497Y-138070960D01*
X178758967Y-138128246D01*
X179070067Y-138052639D01*
X178925204Y-138481608D01*
X178874026Y-139064601D01*
X179004109Y-139732118D01*
X179170347Y-140085480D01*
X179496715Y-140568681D01*
X179977107Y-140958199D01*
X180430261Y-141169508D01*
X180880361Y-141269055D01*
X181149200Y-141284079D01*
X181662693Y-141247680D01*
X181756377Y-141401704D01*
X181850062Y-141555727D01*
X181681015Y-141918250D01*
X181421336Y-142238512D01*
X181179736Y-142401696D01*
X180959266Y-142519565D01*
X180759927Y-142592118D01*
X180515273Y-142643541D01*
X180337065Y-142670779D01*
X180113541Y-142676886D01*
X179799387Y-142640731D01*
X179506364Y-142559261D01*
X179325102Y-142474737D01*
X175382663Y-140636348D01*
X175844734Y-140355295D01*
X176149727Y-140056165D01*
X176300697Y-139850718D01*
X176448614Y-139533511D01*
X176575399Y-139261618D01*
X176653816Y-138856833D01*
X176665786Y-138476233D01*
X176635494Y-138186263D01*
X176511519Y-137742270D01*
X176369465Y-137455354D01*
X176067281Y-137038599D01*
X177925212Y-137904966D01*
G36*
X177925212Y-137904966D02*
G01*
X178399497Y-138070960D01*
X178758967Y-138128246D01*
X179070067Y-138052639D01*
X178925204Y-138481608D01*
X178874026Y-139064601D01*
X179004109Y-139732118D01*
X179170347Y-140085480D01*
X179496715Y-140568681D01*
X179977107Y-140958199D01*
X180430261Y-141169508D01*
X180880361Y-141269055D01*
X181149200Y-141284079D01*
X181662693Y-141247680D01*
X181756377Y-141401704D01*
X181850062Y-141555727D01*
X181681015Y-141918250D01*
X181421336Y-142238512D01*
X181179736Y-142401696D01*
X180959266Y-142519565D01*
X180759927Y-142592118D01*
X180515273Y-142643541D01*
X180337065Y-142670779D01*
X180113541Y-142676886D01*
X179799387Y-142640731D01*
X179506364Y-142559261D01*
X179325102Y-142474737D01*
X175382663Y-140636348D01*
X175844734Y-140355295D01*
X176149727Y-140056165D01*
X176300697Y-139850718D01*
X176448614Y-139533511D01*
X176575399Y-139261618D01*
X176653816Y-138856833D01*
X176665786Y-138476233D01*
X176635494Y-138186263D01*
X176511519Y-137742270D01*
X176369465Y-137455354D01*
X176067281Y-137038599D01*
X177925212Y-137904966D01*
G37*
%TO.C,S60*%
X185954959Y-120685118D02*
X186429244Y-120851112D01*
X186788714Y-120908398D01*
X187099814Y-120832791D01*
X186954951Y-121261760D01*
X186903773Y-121844753D01*
X187033856Y-122512270D01*
X187200094Y-122865632D01*
X187526462Y-123348833D01*
X188006854Y-123738351D01*
X188460008Y-123949660D01*
X188910108Y-124049207D01*
X189178947Y-124064231D01*
X189692440Y-124027832D01*
X189786124Y-124181856D01*
X189879809Y-124335879D01*
X189710762Y-124698402D01*
X189451083Y-125018664D01*
X189209483Y-125181848D01*
X188989013Y-125299717D01*
X188789674Y-125372270D01*
X188545020Y-125423693D01*
X188366812Y-125450931D01*
X188143288Y-125457038D01*
X187829134Y-125420883D01*
X187536111Y-125339413D01*
X187354849Y-125254889D01*
X183412410Y-123416500D01*
X183874481Y-123135447D01*
X184179474Y-122836317D01*
X184330444Y-122630870D01*
X184478361Y-122313663D01*
X184605146Y-122041770D01*
X184683563Y-121636985D01*
X184695533Y-121256385D01*
X184665241Y-120966415D01*
X184541266Y-120522422D01*
X184399212Y-120235506D01*
X184097028Y-119818751D01*
X185954959Y-120685118D01*
G36*
X185954959Y-120685118D02*
G01*
X186429244Y-120851112D01*
X186788714Y-120908398D01*
X187099814Y-120832791D01*
X186954951Y-121261760D01*
X186903773Y-121844753D01*
X187033856Y-122512270D01*
X187200094Y-122865632D01*
X187526462Y-123348833D01*
X188006854Y-123738351D01*
X188460008Y-123949660D01*
X188910108Y-124049207D01*
X189178947Y-124064231D01*
X189692440Y-124027832D01*
X189786124Y-124181856D01*
X189879809Y-124335879D01*
X189710762Y-124698402D01*
X189451083Y-125018664D01*
X189209483Y-125181848D01*
X188989013Y-125299717D01*
X188789674Y-125372270D01*
X188545020Y-125423693D01*
X188366812Y-125450931D01*
X188143288Y-125457038D01*
X187829134Y-125420883D01*
X187536111Y-125339413D01*
X187354849Y-125254889D01*
X183412410Y-123416500D01*
X183874481Y-123135447D01*
X184179474Y-122836317D01*
X184330444Y-122630870D01*
X184478361Y-122313663D01*
X184605146Y-122041770D01*
X184683563Y-121636985D01*
X184695533Y-121256385D01*
X184665241Y-120966415D01*
X184541266Y-120522422D01*
X184399212Y-120235506D01*
X184097028Y-119818751D01*
X185954959Y-120685118D01*
G37*
%TO.C,S61*%
X136511392Y-159280445D02*
X136985677Y-159446439D01*
X137345147Y-159503725D01*
X137656247Y-159428118D01*
X137511384Y-159857087D01*
X137460206Y-160440080D01*
X137590289Y-161107597D01*
X137756527Y-161460959D01*
X138082895Y-161944160D01*
X138563287Y-162333678D01*
X139016441Y-162544987D01*
X139466541Y-162644534D01*
X139735380Y-162659558D01*
X140248873Y-162623159D01*
X140342557Y-162777183D01*
X140436242Y-162931206D01*
X140267195Y-163293729D01*
X140007516Y-163613991D01*
X139765916Y-163777175D01*
X139545446Y-163895044D01*
X139346107Y-163967597D01*
X139101453Y-164019020D01*
X138923245Y-164046258D01*
X138699721Y-164052365D01*
X138385567Y-164016210D01*
X138092544Y-163934740D01*
X137911282Y-163850216D01*
X133968843Y-162011827D01*
X134430914Y-161730774D01*
X134735907Y-161431644D01*
X134886877Y-161226197D01*
X135034794Y-160908990D01*
X135161579Y-160637097D01*
X135239996Y-160232312D01*
X135251966Y-159851712D01*
X135221674Y-159561742D01*
X135097699Y-159117749D01*
X134955645Y-158830833D01*
X134653461Y-158414078D01*
X136511392Y-159280445D01*
G36*
X136511392Y-159280445D02*
G01*
X136985677Y-159446439D01*
X137345147Y-159503725D01*
X137656247Y-159428118D01*
X137511384Y-159857087D01*
X137460206Y-160440080D01*
X137590289Y-161107597D01*
X137756527Y-161460959D01*
X138082895Y-161944160D01*
X138563287Y-162333678D01*
X139016441Y-162544987D01*
X139466541Y-162644534D01*
X139735380Y-162659558D01*
X140248873Y-162623159D01*
X140342557Y-162777183D01*
X140436242Y-162931206D01*
X140267195Y-163293729D01*
X140007516Y-163613991D01*
X139765916Y-163777175D01*
X139545446Y-163895044D01*
X139346107Y-163967597D01*
X139101453Y-164019020D01*
X138923245Y-164046258D01*
X138699721Y-164052365D01*
X138385567Y-164016210D01*
X138092544Y-163934740D01*
X137911282Y-163850216D01*
X133968843Y-162011827D01*
X134430914Y-161730774D01*
X134735907Y-161431644D01*
X134886877Y-161226197D01*
X135034794Y-160908990D01*
X135161579Y-160637097D01*
X135239996Y-160232312D01*
X135251966Y-159851712D01*
X135221674Y-159561742D01*
X135097699Y-159117749D01*
X134955645Y-158830833D01*
X134653461Y-158414078D01*
X136511392Y-159280445D01*
G37*
%TO.C,S62*%
X153697181Y-170276750D02*
X154112343Y-170559842D01*
X154444737Y-170708213D01*
X154764806Y-170715701D01*
X154513854Y-171092560D01*
X154313529Y-171642442D01*
X154266414Y-172320882D01*
X154335530Y-172705229D01*
X154525716Y-173256436D01*
X154888925Y-173757016D01*
X155271947Y-174078409D01*
X155680946Y-174291059D01*
X155936736Y-174375152D01*
X156442153Y-174472895D01*
X156492781Y-174645918D01*
X156543408Y-174818940D01*
X156286293Y-175125358D01*
X155952574Y-175367497D01*
X155676970Y-175462590D01*
X155433506Y-175519381D01*
X155222181Y-175537869D01*
X154972554Y-175524218D01*
X154793369Y-175504405D01*
X154575881Y-175452452D01*
X154281789Y-175336220D01*
X154019836Y-175181686D01*
X153866628Y-175053128D01*
X150534334Y-172257002D01*
X151053402Y-172105118D01*
X151425424Y-171895119D01*
X151624423Y-171735747D01*
X151849398Y-171467632D01*
X152042235Y-171237818D01*
X152222745Y-170867122D01*
X152332814Y-170502588D01*
X152378605Y-170214659D01*
X152373767Y-169753707D01*
X152310813Y-169439801D01*
X152126790Y-168959036D01*
X153697181Y-170276750D01*
G36*
X153697181Y-170276750D02*
G01*
X154112343Y-170559842D01*
X154444737Y-170708213D01*
X154764806Y-170715701D01*
X154513854Y-171092560D01*
X154313529Y-171642442D01*
X154266414Y-172320882D01*
X154335530Y-172705229D01*
X154525716Y-173256436D01*
X154888925Y-173757016D01*
X155271947Y-174078409D01*
X155680946Y-174291059D01*
X155936736Y-174375152D01*
X156442153Y-174472895D01*
X156492781Y-174645918D01*
X156543408Y-174818940D01*
X156286293Y-175125358D01*
X155952574Y-175367497D01*
X155676970Y-175462590D01*
X155433506Y-175519381D01*
X155222181Y-175537869D01*
X154972554Y-175524218D01*
X154793369Y-175504405D01*
X154575881Y-175452452D01*
X154281789Y-175336220D01*
X154019836Y-175181686D01*
X153866628Y-175053128D01*
X150534334Y-172257002D01*
X151053402Y-172105118D01*
X151425424Y-171895119D01*
X151624423Y-171735747D01*
X151849398Y-171467632D01*
X152042235Y-171237818D01*
X152222745Y-170867122D01*
X152332814Y-170502588D01*
X152378605Y-170214659D01*
X152373767Y-169753707D01*
X152310813Y-169439801D01*
X152126790Y-168959036D01*
X153697181Y-170276750D01*
G37*
%TO.C,S63*%
X181181780Y-181631527D02*
X181329296Y-182016545D01*
X181349817Y-182307370D01*
X181341660Y-182557237D01*
X181304823Y-182766146D01*
X181227029Y-183003734D01*
X181161514Y-183171686D01*
X181055041Y-183368316D01*
X180866653Y-183622304D01*
X180649587Y-183835335D01*
X180485756Y-183950050D01*
X176922445Y-186445108D01*
X176910081Y-185904416D01*
X176803523Y-185490719D01*
X176701087Y-185257252D01*
X176500335Y-184970549D01*
X176328262Y-184724803D01*
X176016916Y-184454500D01*
X175693292Y-184253833D01*
X175427025Y-184135082D01*
X174980527Y-184020452D01*
X174661024Y-184000015D01*
X174149012Y-184053337D01*
X175828273Y-182877505D01*
X176209171Y-182549759D01*
X176438516Y-182267092D01*
X176528589Y-181959868D01*
X176827656Y-182299807D01*
X177306953Y-182635626D01*
X177950081Y-182856729D01*
X178339221Y-182889444D01*
X178920870Y-182848401D01*
X179498397Y-182627128D01*
X179907973Y-182340340D01*
X180219234Y-182000315D01*
X180366665Y-181775006D01*
X180591889Y-181312109D01*
X180772119Y-181307987D01*
X180952350Y-181303866D01*
X181181780Y-181631527D01*
G36*
X181181780Y-181631527D02*
G01*
X181329296Y-182016545D01*
X181349817Y-182307370D01*
X181341660Y-182557237D01*
X181304823Y-182766146D01*
X181227029Y-183003734D01*
X181161514Y-183171686D01*
X181055041Y-183368316D01*
X180866653Y-183622304D01*
X180649587Y-183835335D01*
X180485756Y-183950050D01*
X176922445Y-186445108D01*
X176910081Y-185904416D01*
X176803523Y-185490719D01*
X176701087Y-185257252D01*
X176500335Y-184970549D01*
X176328262Y-184724803D01*
X176016916Y-184454500D01*
X175693292Y-184253833D01*
X175427025Y-184135082D01*
X174980527Y-184020452D01*
X174661024Y-184000015D01*
X174149012Y-184053337D01*
X175828273Y-182877505D01*
X176209171Y-182549759D01*
X176438516Y-182267092D01*
X176528589Y-181959868D01*
X176827656Y-182299807D01*
X177306953Y-182635626D01*
X177950081Y-182856729D01*
X178339221Y-182889444D01*
X178920870Y-182848401D01*
X179498397Y-182627128D01*
X179907973Y-182340340D01*
X180219234Y-182000315D01*
X180366665Y-181775006D01*
X180591889Y-181312109D01*
X180772119Y-181307987D01*
X180952350Y-181303866D01*
X181181780Y-181631527D01*
G37*
%TO.C,S64*%
X349699402Y-123560738D02*
X350034938Y-124040234D01*
X350563659Y-124467965D01*
X350918141Y-124631801D01*
X351478750Y-124792169D01*
X352097128Y-124781767D01*
X352580091Y-124652357D01*
X352988876Y-124439296D01*
X353204475Y-124277999D01*
X353574437Y-123920049D01*
X353745208Y-123977818D01*
X353915979Y-124035588D01*
X354019506Y-124421958D01*
X354026441Y-124834211D01*
X353946257Y-125114515D01*
X353853132Y-125346523D01*
X353747066Y-125530235D01*
X353592704Y-125726887D01*
X353473697Y-125862303D01*
X353306394Y-126010659D01*
X353042498Y-126184897D01*
X352765661Y-126310839D01*
X352572476Y-126362603D01*
X348370698Y-127488466D01*
X348544008Y-126976154D01*
X348585369Y-126550961D01*
X348568960Y-126296538D01*
X348478374Y-125958464D01*
X348400728Y-125668686D01*
X348200608Y-125308198D01*
X347965132Y-125008947D01*
X347755539Y-124806288D01*
X347375174Y-124545860D01*
X347081929Y-124417379D01*
X346582558Y-124292367D01*
X348562706Y-123761788D01*
X349032727Y-123584082D01*
X349344920Y-123396903D01*
X349534637Y-123139013D01*
X349699402Y-123560738D01*
G36*
X349699402Y-123560738D02*
G01*
X350034938Y-124040234D01*
X350563659Y-124467965D01*
X350918141Y-124631801D01*
X351478750Y-124792169D01*
X352097128Y-124781767D01*
X352580091Y-124652357D01*
X352988876Y-124439296D01*
X353204475Y-124277999D01*
X353574437Y-123920049D01*
X353745208Y-123977818D01*
X353915979Y-124035588D01*
X354019506Y-124421958D01*
X354026441Y-124834211D01*
X353946257Y-125114515D01*
X353853132Y-125346523D01*
X353747066Y-125530235D01*
X353592704Y-125726887D01*
X353473697Y-125862303D01*
X353306394Y-126010659D01*
X353042498Y-126184897D01*
X352765661Y-126310839D01*
X352572476Y-126362603D01*
X348370698Y-127488466D01*
X348544008Y-126976154D01*
X348585369Y-126550961D01*
X348568960Y-126296538D01*
X348478374Y-125958464D01*
X348400728Y-125668686D01*
X348200608Y-125308198D01*
X347965132Y-125008947D01*
X347755539Y-124806288D01*
X347375174Y-124545860D01*
X347081929Y-124417379D01*
X346582558Y-124292367D01*
X348562706Y-123761788D01*
X349032727Y-123584082D01*
X349344920Y-123396903D01*
X349534637Y-123139013D01*
X349699402Y-123560738D01*
G37*
%TO.C,S65*%
X344781840Y-105208147D02*
X345117376Y-105687643D01*
X345646097Y-106115374D01*
X346000579Y-106279210D01*
X346561188Y-106439578D01*
X347179566Y-106429176D01*
X347662529Y-106299766D01*
X348071314Y-106086705D01*
X348286913Y-105925408D01*
X348656875Y-105567458D01*
X348827646Y-105625227D01*
X348998417Y-105682997D01*
X349101944Y-106069367D01*
X349108879Y-106481620D01*
X349028695Y-106761924D01*
X348935570Y-106993932D01*
X348829504Y-107177644D01*
X348675142Y-107374296D01*
X348556135Y-107509712D01*
X348388832Y-107658068D01*
X348124936Y-107832306D01*
X347848099Y-107958248D01*
X347654914Y-108010012D01*
X343453136Y-109135875D01*
X343626446Y-108623563D01*
X343667807Y-108198370D01*
X343651398Y-107943947D01*
X343560812Y-107605873D01*
X343483166Y-107316095D01*
X343283046Y-106955607D01*
X343047570Y-106656356D01*
X342837977Y-106453697D01*
X342457612Y-106193269D01*
X342164367Y-106064788D01*
X341664996Y-105939776D01*
X343645144Y-105409197D01*
X344115165Y-105231491D01*
X344427358Y-105044312D01*
X344617075Y-104786422D01*
X344781840Y-105208147D01*
G36*
X344781840Y-105208147D02*
G01*
X345117376Y-105687643D01*
X345646097Y-106115374D01*
X346000579Y-106279210D01*
X346561188Y-106439578D01*
X347179566Y-106429176D01*
X347662529Y-106299766D01*
X348071314Y-106086705D01*
X348286913Y-105925408D01*
X348656875Y-105567458D01*
X348827646Y-105625227D01*
X348998417Y-105682997D01*
X349101944Y-106069367D01*
X349108879Y-106481620D01*
X349028695Y-106761924D01*
X348935570Y-106993932D01*
X348829504Y-107177644D01*
X348675142Y-107374296D01*
X348556135Y-107509712D01*
X348388832Y-107658068D01*
X348124936Y-107832306D01*
X347848099Y-107958248D01*
X347654914Y-108010012D01*
X343453136Y-109135875D01*
X343626446Y-108623563D01*
X343667807Y-108198370D01*
X343651398Y-107943947D01*
X343560812Y-107605873D01*
X343483166Y-107316095D01*
X343283046Y-106955607D01*
X343047570Y-106656356D01*
X342837977Y-106453697D01*
X342457612Y-106193269D01*
X342164367Y-106064788D01*
X341664996Y-105939776D01*
X343645144Y-105409197D01*
X344115165Y-105231491D01*
X344427358Y-105044312D01*
X344617075Y-104786422D01*
X344781840Y-105208147D01*
G37*
%TO.C,S66*%
X339864279Y-86855556D02*
X340199815Y-87335052D01*
X340728536Y-87762783D01*
X341083018Y-87926619D01*
X341643627Y-88086987D01*
X342262005Y-88076585D01*
X342744968Y-87947175D01*
X343153753Y-87734114D01*
X343369352Y-87572817D01*
X343739314Y-87214867D01*
X343910085Y-87272636D01*
X344080856Y-87330406D01*
X344184383Y-87716776D01*
X344191318Y-88129029D01*
X344111134Y-88409333D01*
X344018009Y-88641341D01*
X343911943Y-88825053D01*
X343757581Y-89021705D01*
X343638574Y-89157121D01*
X343471271Y-89305477D01*
X343207375Y-89479715D01*
X342930538Y-89605657D01*
X342737353Y-89657421D01*
X338535575Y-90783284D01*
X338708885Y-90270972D01*
X338750246Y-89845779D01*
X338733837Y-89591356D01*
X338643251Y-89253282D01*
X338565605Y-88963504D01*
X338365485Y-88603016D01*
X338130009Y-88303765D01*
X337920416Y-88101106D01*
X337540051Y-87840678D01*
X337246806Y-87712197D01*
X336747435Y-87587185D01*
X338727583Y-87056606D01*
X339197604Y-86878900D01*
X339509797Y-86691721D01*
X339699514Y-86433831D01*
X339864279Y-86855556D01*
G36*
X339864279Y-86855556D02*
G01*
X340199815Y-87335052D01*
X340728536Y-87762783D01*
X341083018Y-87926619D01*
X341643627Y-88086987D01*
X342262005Y-88076585D01*
X342744968Y-87947175D01*
X343153753Y-87734114D01*
X343369352Y-87572817D01*
X343739314Y-87214867D01*
X343910085Y-87272636D01*
X344080856Y-87330406D01*
X344184383Y-87716776D01*
X344191318Y-88129029D01*
X344111134Y-88409333D01*
X344018009Y-88641341D01*
X343911943Y-88825053D01*
X343757581Y-89021705D01*
X343638574Y-89157121D01*
X343471271Y-89305477D01*
X343207375Y-89479715D01*
X342930538Y-89605657D01*
X342737353Y-89657421D01*
X338535575Y-90783284D01*
X338708885Y-90270972D01*
X338750246Y-89845779D01*
X338733837Y-89591356D01*
X338643251Y-89253282D01*
X338565605Y-88963504D01*
X338365485Y-88603016D01*
X338130009Y-88303765D01*
X337920416Y-88101106D01*
X337540051Y-87840678D01*
X337246806Y-87712197D01*
X336747435Y-87587185D01*
X338727583Y-87056606D01*
X339197604Y-86878900D01*
X339509797Y-86691721D01*
X339699514Y-86433831D01*
X339864279Y-86855556D01*
G37*
%TO.C,S67*%
X328866166Y-122359177D02*
X329242216Y-122807604D01*
X329806204Y-123187627D01*
X330173617Y-123319944D01*
X330746069Y-123430842D01*
X331361187Y-123366584D01*
X331831034Y-123195574D01*
X332219693Y-122947695D01*
X332420415Y-122768221D01*
X332757771Y-122379389D01*
X332932927Y-122422055D01*
X333108083Y-122464721D01*
X333244891Y-122840598D01*
X333287730Y-123250677D01*
X333232281Y-123536904D01*
X333159731Y-123776145D01*
X333070080Y-123968402D01*
X332933445Y-124177760D01*
X332826693Y-124323032D01*
X332672956Y-124485406D01*
X332425251Y-124681981D01*
X332160444Y-124831571D01*
X331972505Y-124899976D01*
X327884842Y-126387763D01*
X328012841Y-125862295D01*
X328016987Y-125435115D01*
X327978467Y-125183091D01*
X327858760Y-124854199D01*
X327756154Y-124572291D01*
X327525376Y-124230616D01*
X327264715Y-123953027D01*
X327038256Y-123769406D01*
X326636641Y-123543120D01*
X326333314Y-123440687D01*
X325824948Y-123359672D01*
X327751317Y-122658531D01*
X328204063Y-122440536D01*
X328498753Y-122226860D01*
X328665272Y-121953417D01*
X328866166Y-122359177D01*
G36*
X328866166Y-122359177D02*
G01*
X329242216Y-122807604D01*
X329806204Y-123187627D01*
X330173617Y-123319944D01*
X330746069Y-123430842D01*
X331361187Y-123366584D01*
X331831034Y-123195574D01*
X332219693Y-122947695D01*
X332420415Y-122768221D01*
X332757771Y-122379389D01*
X332932927Y-122422055D01*
X333108083Y-122464721D01*
X333244891Y-122840598D01*
X333287730Y-123250677D01*
X333232281Y-123536904D01*
X333159731Y-123776145D01*
X333070080Y-123968402D01*
X332933445Y-124177760D01*
X332826693Y-124323032D01*
X332672956Y-124485406D01*
X332425251Y-124681981D01*
X332160444Y-124831571D01*
X331972505Y-124899976D01*
X327884842Y-126387763D01*
X328012841Y-125862295D01*
X328016987Y-125435115D01*
X327978467Y-125183091D01*
X327858760Y-124854199D01*
X327756154Y-124572291D01*
X327525376Y-124230616D01*
X327264715Y-123953027D01*
X327038256Y-123769406D01*
X326636641Y-123543120D01*
X326333314Y-123440687D01*
X325824948Y-123359672D01*
X327751317Y-122658531D01*
X328204063Y-122440536D01*
X328498753Y-122226860D01*
X328665272Y-121953417D01*
X328866166Y-122359177D01*
G37*
%TO.C,S68*%
X322367784Y-104505017D02*
X322743834Y-104953444D01*
X323307822Y-105333467D01*
X323675235Y-105465784D01*
X324247687Y-105576682D01*
X324862805Y-105512424D01*
X325332652Y-105341414D01*
X325721311Y-105093535D01*
X325922033Y-104914061D01*
X326259389Y-104525229D01*
X326434545Y-104567895D01*
X326609701Y-104610561D01*
X326746509Y-104986438D01*
X326789348Y-105396517D01*
X326733899Y-105682744D01*
X326661349Y-105921985D01*
X326571698Y-106114242D01*
X326435063Y-106323600D01*
X326328311Y-106468872D01*
X326174574Y-106631246D01*
X325926869Y-106827821D01*
X325662062Y-106977411D01*
X325474123Y-107045816D01*
X321386460Y-108533603D01*
X321514459Y-108008135D01*
X321518605Y-107580955D01*
X321480085Y-107328931D01*
X321360378Y-107000039D01*
X321257772Y-106718131D01*
X321026994Y-106376456D01*
X320766333Y-106098867D01*
X320539874Y-105915246D01*
X320138259Y-105688960D01*
X319834932Y-105586527D01*
X319326566Y-105505512D01*
X321252935Y-104804371D01*
X321705681Y-104586376D01*
X322000371Y-104372700D01*
X322166890Y-104099257D01*
X322367784Y-104505017D01*
G36*
X322367784Y-104505017D02*
G01*
X322743834Y-104953444D01*
X323307822Y-105333467D01*
X323675235Y-105465784D01*
X324247687Y-105576682D01*
X324862805Y-105512424D01*
X325332652Y-105341414D01*
X325721311Y-105093535D01*
X325922033Y-104914061D01*
X326259389Y-104525229D01*
X326434545Y-104567895D01*
X326609701Y-104610561D01*
X326746509Y-104986438D01*
X326789348Y-105396517D01*
X326733899Y-105682744D01*
X326661349Y-105921985D01*
X326571698Y-106114242D01*
X326435063Y-106323600D01*
X326328311Y-106468872D01*
X326174574Y-106631246D01*
X325926869Y-106827821D01*
X325662062Y-106977411D01*
X325474123Y-107045816D01*
X321386460Y-108533603D01*
X321514459Y-108008135D01*
X321518605Y-107580955D01*
X321480085Y-107328931D01*
X321360378Y-107000039D01*
X321257772Y-106718131D01*
X321026994Y-106376456D01*
X320766333Y-106098867D01*
X320539874Y-105915246D01*
X320138259Y-105688960D01*
X319834932Y-105586527D01*
X319326566Y-105505512D01*
X321252935Y-104804371D01*
X321705681Y-104586376D01*
X322000371Y-104372700D01*
X322166890Y-104099257D01*
X322367784Y-104505017D01*
G37*
%TO.C,S69*%
X315869401Y-86650858D02*
X316245451Y-87099285D01*
X316809439Y-87479308D01*
X317176852Y-87611625D01*
X317749304Y-87722523D01*
X318364422Y-87658265D01*
X318834269Y-87487255D01*
X319222928Y-87239376D01*
X319423650Y-87059902D01*
X319761006Y-86671070D01*
X319936162Y-86713736D01*
X320111318Y-86756402D01*
X320248126Y-87132279D01*
X320290965Y-87542358D01*
X320235516Y-87828585D01*
X320162966Y-88067826D01*
X320073315Y-88260083D01*
X319936680Y-88469441D01*
X319829928Y-88614713D01*
X319676191Y-88777087D01*
X319428486Y-88973662D01*
X319163679Y-89123252D01*
X318975740Y-89191657D01*
X314888077Y-90679444D01*
X315016076Y-90153976D01*
X315020222Y-89726796D01*
X314981702Y-89474772D01*
X314861995Y-89145880D01*
X314759389Y-88863972D01*
X314528611Y-88522297D01*
X314267950Y-88244708D01*
X314041491Y-88061087D01*
X313639876Y-87834801D01*
X313336549Y-87732368D01*
X312828183Y-87651353D01*
X314754552Y-86950212D01*
X315207298Y-86732217D01*
X315501988Y-86518541D01*
X315668507Y-86245098D01*
X315869401Y-86650858D01*
G36*
X315869401Y-86650858D02*
G01*
X316245451Y-87099285D01*
X316809439Y-87479308D01*
X317176852Y-87611625D01*
X317749304Y-87722523D01*
X318364422Y-87658265D01*
X318834269Y-87487255D01*
X319222928Y-87239376D01*
X319423650Y-87059902D01*
X319761006Y-86671070D01*
X319936162Y-86713736D01*
X320111318Y-86756402D01*
X320248126Y-87132279D01*
X320290965Y-87542358D01*
X320235516Y-87828585D01*
X320162966Y-88067826D01*
X320073315Y-88260083D01*
X319936680Y-88469441D01*
X319829928Y-88614713D01*
X319676191Y-88777087D01*
X319428486Y-88973662D01*
X319163679Y-89123252D01*
X318975740Y-89191657D01*
X314888077Y-90679444D01*
X315016076Y-90153976D01*
X315020222Y-89726796D01*
X314981702Y-89474772D01*
X314861995Y-89145880D01*
X314759389Y-88863972D01*
X314528611Y-88522297D01*
X314267950Y-88244708D01*
X314041491Y-88061087D01*
X313639876Y-87834801D01*
X313336549Y-87732368D01*
X312828183Y-87651353D01*
X314754552Y-86950212D01*
X315207298Y-86732217D01*
X315501988Y-86518541D01*
X315668507Y-86245098D01*
X315869401Y-86650858D01*
G37*
%TO.C,S70*%
X309183328Y-125997136D02*
X309597029Y-126411082D01*
X310191993Y-126740504D01*
X310569539Y-126840296D01*
X311149479Y-126900879D01*
X311756656Y-126783254D01*
X312209810Y-126571945D01*
X312575387Y-126291136D01*
X312759702Y-126094850D01*
X313061886Y-125678095D01*
X313240094Y-125705333D01*
X313418302Y-125732571D01*
X313587349Y-126095094D01*
X313665766Y-126499879D01*
X313635474Y-126789849D01*
X313584052Y-127034503D01*
X313511498Y-127233842D01*
X313393629Y-127454312D01*
X313299945Y-127608336D01*
X313160945Y-127783490D01*
X312931315Y-128000906D01*
X312680553Y-128173007D01*
X312499292Y-128257531D01*
X308556853Y-130095920D01*
X308638567Y-129561296D01*
X308605466Y-129135380D01*
X308545127Y-128887673D01*
X308397210Y-128570465D01*
X308270425Y-128298573D01*
X308010747Y-127978311D01*
X307726884Y-127724496D01*
X307485283Y-127561312D01*
X307065475Y-127370890D01*
X306754374Y-127295283D01*
X306240881Y-127258884D01*
X308098812Y-126392517D01*
X308530835Y-126135892D01*
X308805781Y-125897345D01*
X308947834Y-125610429D01*
X309183328Y-125997136D01*
G36*
X309183328Y-125997136D02*
G01*
X309597029Y-126411082D01*
X310191993Y-126740504D01*
X310569539Y-126840296D01*
X311149479Y-126900879D01*
X311756656Y-126783254D01*
X312209810Y-126571945D01*
X312575387Y-126291136D01*
X312759702Y-126094850D01*
X313061886Y-125678095D01*
X313240094Y-125705333D01*
X313418302Y-125732571D01*
X313587349Y-126095094D01*
X313665766Y-126499879D01*
X313635474Y-126789849D01*
X313584052Y-127034503D01*
X313511498Y-127233842D01*
X313393629Y-127454312D01*
X313299945Y-127608336D01*
X313160945Y-127783490D01*
X312931315Y-128000906D01*
X312680553Y-128173007D01*
X312499292Y-128257531D01*
X308556853Y-130095920D01*
X308638567Y-129561296D01*
X308605466Y-129135380D01*
X308545127Y-128887673D01*
X308397210Y-128570465D01*
X308270425Y-128298573D01*
X308010747Y-127978311D01*
X307726884Y-127724496D01*
X307485283Y-127561312D01*
X307065475Y-127370890D01*
X306754374Y-127295283D01*
X306240881Y-127258884D01*
X308098812Y-126392517D01*
X308530835Y-126135892D01*
X308805781Y-125897345D01*
X308947834Y-125610429D01*
X309183328Y-125997136D01*
G37*
%TO.C,S71*%
X301153581Y-108777288D02*
X301567282Y-109191234D01*
X302162246Y-109520656D01*
X302539792Y-109620448D01*
X303119732Y-109681031D01*
X303726909Y-109563406D01*
X304180063Y-109352097D01*
X304545640Y-109071288D01*
X304729955Y-108875002D01*
X305032139Y-108458247D01*
X305210347Y-108485485D01*
X305388555Y-108512723D01*
X305557602Y-108875246D01*
X305636019Y-109280031D01*
X305605727Y-109570001D01*
X305554305Y-109814655D01*
X305481751Y-110013994D01*
X305363882Y-110234464D01*
X305270198Y-110388488D01*
X305131198Y-110563642D01*
X304901568Y-110781058D01*
X304650806Y-110953159D01*
X304469545Y-111037683D01*
X300527106Y-112876072D01*
X300608820Y-112341448D01*
X300575719Y-111915532D01*
X300515380Y-111667825D01*
X300367463Y-111350617D01*
X300240678Y-111078725D01*
X299981000Y-110758463D01*
X299697137Y-110504648D01*
X299455536Y-110341464D01*
X299035728Y-110151042D01*
X298724627Y-110075435D01*
X298211134Y-110039036D01*
X300069065Y-109172669D01*
X300501088Y-108916044D01*
X300776034Y-108677497D01*
X300918087Y-108390581D01*
X301153581Y-108777288D01*
G36*
X301153581Y-108777288D02*
G01*
X301567282Y-109191234D01*
X302162246Y-109520656D01*
X302539792Y-109620448D01*
X303119732Y-109681031D01*
X303726909Y-109563406D01*
X304180063Y-109352097D01*
X304545640Y-109071288D01*
X304729955Y-108875002D01*
X305032139Y-108458247D01*
X305210347Y-108485485D01*
X305388555Y-108512723D01*
X305557602Y-108875246D01*
X305636019Y-109280031D01*
X305605727Y-109570001D01*
X305554305Y-109814655D01*
X305481751Y-110013994D01*
X305363882Y-110234464D01*
X305270198Y-110388488D01*
X305131198Y-110563642D01*
X304901568Y-110781058D01*
X304650806Y-110953159D01*
X304469545Y-111037683D01*
X300527106Y-112876072D01*
X300608820Y-112341448D01*
X300575719Y-111915532D01*
X300515380Y-111667825D01*
X300367463Y-111350617D01*
X300240678Y-111078725D01*
X299981000Y-110758463D01*
X299697137Y-110504648D01*
X299455536Y-110341464D01*
X299035728Y-110151042D01*
X298724627Y-110075435D01*
X298211134Y-110039036D01*
X300069065Y-109172669D01*
X300501088Y-108916044D01*
X300776034Y-108677497D01*
X300918087Y-108390581D01*
X301153581Y-108777288D01*
G37*
%TO.C,S72*%
X293123834Y-91557440D02*
X293537535Y-91971386D01*
X294132499Y-92300808D01*
X294510045Y-92400600D01*
X295089985Y-92461183D01*
X295697162Y-92343558D01*
X296150316Y-92132249D01*
X296515893Y-91851440D01*
X296700208Y-91655154D01*
X297002392Y-91238399D01*
X297180600Y-91265637D01*
X297358808Y-91292875D01*
X297527855Y-91655398D01*
X297606272Y-92060183D01*
X297575980Y-92350153D01*
X297524558Y-92594807D01*
X297452004Y-92794146D01*
X297334135Y-93014616D01*
X297240451Y-93168640D01*
X297101451Y-93343794D01*
X296871821Y-93561210D01*
X296621059Y-93733311D01*
X296439798Y-93817835D01*
X292497359Y-95656224D01*
X292579073Y-95121600D01*
X292545972Y-94695684D01*
X292485633Y-94447977D01*
X292337716Y-94130769D01*
X292210931Y-93858877D01*
X291951253Y-93538615D01*
X291667390Y-93284800D01*
X291425789Y-93121616D01*
X291005981Y-92931194D01*
X290694880Y-92855587D01*
X290181387Y-92819188D01*
X292039318Y-91952821D01*
X292471341Y-91696196D01*
X292746287Y-91457649D01*
X292888340Y-91170733D01*
X293123834Y-91557440D01*
G36*
X293123834Y-91557440D02*
G01*
X293537535Y-91971386D01*
X294132499Y-92300808D01*
X294510045Y-92400600D01*
X295089985Y-92461183D01*
X295697162Y-92343558D01*
X296150316Y-92132249D01*
X296515893Y-91851440D01*
X296700208Y-91655154D01*
X297002392Y-91238399D01*
X297180600Y-91265637D01*
X297358808Y-91292875D01*
X297527855Y-91655398D01*
X297606272Y-92060183D01*
X297575980Y-92350153D01*
X297524558Y-92594807D01*
X297452004Y-92794146D01*
X297334135Y-93014616D01*
X297240451Y-93168640D01*
X297101451Y-93343794D01*
X296871821Y-93561210D01*
X296621059Y-93733311D01*
X296439798Y-93817835D01*
X292497359Y-95656224D01*
X292579073Y-95121600D01*
X292545972Y-94695684D01*
X292485633Y-94447977D01*
X292337716Y-94130769D01*
X292210931Y-93858877D01*
X291951253Y-93538615D01*
X291667390Y-93284800D01*
X291425789Y-93121616D01*
X291005981Y-92931194D01*
X290694880Y-92855587D01*
X290181387Y-92819188D01*
X292039318Y-91952821D01*
X292471341Y-91696196D01*
X292746287Y-91457649D01*
X292888340Y-91170733D01*
X293123834Y-91557440D01*
G37*
%TO.C,S73*%
X290959762Y-131874402D02*
X291373463Y-132288348D01*
X291968427Y-132617770D01*
X292345973Y-132717562D01*
X292925913Y-132778145D01*
X293533090Y-132660520D01*
X293986244Y-132449211D01*
X294351821Y-132168402D01*
X294536136Y-131972116D01*
X294838320Y-131555361D01*
X295016528Y-131582599D01*
X295194736Y-131609837D01*
X295363783Y-131972360D01*
X295442200Y-132377145D01*
X295411908Y-132667115D01*
X295360486Y-132911769D01*
X295287932Y-133111108D01*
X295170063Y-133331578D01*
X295076379Y-133485602D01*
X294937379Y-133660756D01*
X294707749Y-133878172D01*
X294456987Y-134050273D01*
X294275726Y-134134797D01*
X290333287Y-135973186D01*
X290415001Y-135438562D01*
X290381900Y-135012646D01*
X290321561Y-134764939D01*
X290173644Y-134447731D01*
X290046859Y-134175839D01*
X289787181Y-133855577D01*
X289503318Y-133601762D01*
X289261717Y-133438578D01*
X288841909Y-133248156D01*
X288530808Y-133172549D01*
X288017315Y-133136150D01*
X289875246Y-132269783D01*
X290307269Y-132013158D01*
X290582215Y-131774611D01*
X290724268Y-131487695D01*
X290959762Y-131874402D01*
G36*
X290959762Y-131874402D02*
G01*
X291373463Y-132288348D01*
X291968427Y-132617770D01*
X292345973Y-132717562D01*
X292925913Y-132778145D01*
X293533090Y-132660520D01*
X293986244Y-132449211D01*
X294351821Y-132168402D01*
X294536136Y-131972116D01*
X294838320Y-131555361D01*
X295016528Y-131582599D01*
X295194736Y-131609837D01*
X295363783Y-131972360D01*
X295442200Y-132377145D01*
X295411908Y-132667115D01*
X295360486Y-132911769D01*
X295287932Y-133111108D01*
X295170063Y-133331578D01*
X295076379Y-133485602D01*
X294937379Y-133660756D01*
X294707749Y-133878172D01*
X294456987Y-134050273D01*
X294275726Y-134134797D01*
X290333287Y-135973186D01*
X290415001Y-135438562D01*
X290381900Y-135012646D01*
X290321561Y-134764939D01*
X290173644Y-134447731D01*
X290046859Y-134175839D01*
X289787181Y-133855577D01*
X289503318Y-133601762D01*
X289261717Y-133438578D01*
X288841909Y-133248156D01*
X288530808Y-133172549D01*
X288017315Y-133136150D01*
X289875246Y-132269783D01*
X290307269Y-132013158D01*
X290582215Y-131774611D01*
X290724268Y-131487695D01*
X290959762Y-131874402D01*
G37*
%TO.C,S74*%
X282930015Y-114654554D02*
X283343716Y-115068500D01*
X283938680Y-115397922D01*
X284316226Y-115497714D01*
X284896166Y-115558297D01*
X285503343Y-115440672D01*
X285956497Y-115229363D01*
X286322074Y-114948554D01*
X286506389Y-114752268D01*
X286808573Y-114335513D01*
X286986781Y-114362751D01*
X287164989Y-114389989D01*
X287334036Y-114752512D01*
X287412453Y-115157297D01*
X287382161Y-115447267D01*
X287330739Y-115691921D01*
X287258185Y-115891260D01*
X287140316Y-116111730D01*
X287046632Y-116265754D01*
X286907632Y-116440908D01*
X286678002Y-116658324D01*
X286427240Y-116830425D01*
X286245979Y-116914949D01*
X282303540Y-118753338D01*
X282385254Y-118218714D01*
X282352153Y-117792798D01*
X282291814Y-117545091D01*
X282143897Y-117227883D01*
X282017112Y-116955991D01*
X281757434Y-116635729D01*
X281473571Y-116381914D01*
X281231970Y-116218730D01*
X280812162Y-116028308D01*
X280501061Y-115952701D01*
X279987568Y-115916302D01*
X281845499Y-115049935D01*
X282277522Y-114793310D01*
X282552468Y-114554763D01*
X282694521Y-114267847D01*
X282930015Y-114654554D01*
G36*
X282930015Y-114654554D02*
G01*
X283343716Y-115068500D01*
X283938680Y-115397922D01*
X284316226Y-115497714D01*
X284896166Y-115558297D01*
X285503343Y-115440672D01*
X285956497Y-115229363D01*
X286322074Y-114948554D01*
X286506389Y-114752268D01*
X286808573Y-114335513D01*
X286986781Y-114362751D01*
X287164989Y-114389989D01*
X287334036Y-114752512D01*
X287412453Y-115157297D01*
X287382161Y-115447267D01*
X287330739Y-115691921D01*
X287258185Y-115891260D01*
X287140316Y-116111730D01*
X287046632Y-116265754D01*
X286907632Y-116440908D01*
X286678002Y-116658324D01*
X286427240Y-116830425D01*
X286245979Y-116914949D01*
X282303540Y-118753338D01*
X282385254Y-118218714D01*
X282352153Y-117792798D01*
X282291814Y-117545091D01*
X282143897Y-117227883D01*
X282017112Y-116955991D01*
X281757434Y-116635729D01*
X281473571Y-116381914D01*
X281231970Y-116218730D01*
X280812162Y-116028308D01*
X280501061Y-115952701D01*
X279987568Y-115916302D01*
X281845499Y-115049935D01*
X282277522Y-114793310D01*
X282552468Y-114554763D01*
X282694521Y-114267847D01*
X282930015Y-114654554D01*
G37*
%TO.C,S75*%
X274900268Y-97434706D02*
X275313969Y-97848652D01*
X275908933Y-98178074D01*
X276286479Y-98277866D01*
X276866419Y-98338449D01*
X277473596Y-98220824D01*
X277926750Y-98009515D01*
X278292327Y-97728706D01*
X278476642Y-97532420D01*
X278778826Y-97115665D01*
X278957034Y-97142903D01*
X279135242Y-97170141D01*
X279304289Y-97532664D01*
X279382706Y-97937449D01*
X279352414Y-98227419D01*
X279300992Y-98472073D01*
X279228438Y-98671412D01*
X279110569Y-98891882D01*
X279016885Y-99045906D01*
X278877885Y-99221060D01*
X278648255Y-99438476D01*
X278397493Y-99610577D01*
X278216232Y-99695101D01*
X274273793Y-101533490D01*
X274355507Y-100998866D01*
X274322406Y-100572950D01*
X274262067Y-100325243D01*
X274114150Y-100008035D01*
X273987365Y-99736143D01*
X273727687Y-99415881D01*
X273443824Y-99162066D01*
X273202223Y-98998882D01*
X272782415Y-98808460D01*
X272471314Y-98732853D01*
X271957821Y-98696454D01*
X273815752Y-97830087D01*
X274247775Y-97573462D01*
X274522721Y-97334915D01*
X274664774Y-97047999D01*
X274900268Y-97434706D01*
G36*
X274900268Y-97434706D02*
G01*
X275313969Y-97848652D01*
X275908933Y-98178074D01*
X276286479Y-98277866D01*
X276866419Y-98338449D01*
X277473596Y-98220824D01*
X277926750Y-98009515D01*
X278292327Y-97728706D01*
X278476642Y-97532420D01*
X278778826Y-97115665D01*
X278957034Y-97142903D01*
X279135242Y-97170141D01*
X279304289Y-97532664D01*
X279382706Y-97937449D01*
X279352414Y-98227419D01*
X279300992Y-98472073D01*
X279228438Y-98671412D01*
X279110569Y-98891882D01*
X279016885Y-99045906D01*
X278877885Y-99221060D01*
X278648255Y-99438476D01*
X278397493Y-99610577D01*
X278216232Y-99695101D01*
X274273793Y-101533490D01*
X274355507Y-100998866D01*
X274322406Y-100572950D01*
X274262067Y-100325243D01*
X274114150Y-100008035D01*
X273987365Y-99736143D01*
X273727687Y-99415881D01*
X273443824Y-99162066D01*
X273202223Y-98998882D01*
X272782415Y-98808460D01*
X272471314Y-98732853D01*
X271957821Y-98696454D01*
X273815752Y-97830087D01*
X274247775Y-97573462D01*
X274522721Y-97334915D01*
X274664774Y-97047999D01*
X274900268Y-97434706D01*
G37*
%TO.C,S76*%
X275747351Y-144209111D02*
X276161052Y-144623057D01*
X276756016Y-144952479D01*
X277133562Y-145052271D01*
X277713502Y-145112854D01*
X278320679Y-144995229D01*
X278773833Y-144783920D01*
X279139410Y-144503111D01*
X279323725Y-144306825D01*
X279625909Y-143890070D01*
X279804117Y-143917308D01*
X279982325Y-143944546D01*
X280151372Y-144307069D01*
X280229789Y-144711854D01*
X280199497Y-145001824D01*
X280148075Y-145246478D01*
X280075521Y-145445817D01*
X279957652Y-145666287D01*
X279863968Y-145820311D01*
X279724968Y-145995465D01*
X279495338Y-146212881D01*
X279244576Y-146384982D01*
X279063315Y-146469506D01*
X275120876Y-148307895D01*
X275202590Y-147773271D01*
X275169489Y-147347355D01*
X275109150Y-147099648D01*
X274961233Y-146782440D01*
X274834448Y-146510548D01*
X274574770Y-146190286D01*
X274290907Y-145936471D01*
X274049306Y-145773287D01*
X273629498Y-145582865D01*
X273318397Y-145507258D01*
X272804904Y-145470859D01*
X274662835Y-144604492D01*
X275094858Y-144347867D01*
X275369804Y-144109320D01*
X275511857Y-143822404D01*
X275747351Y-144209111D01*
G36*
X275747351Y-144209111D02*
G01*
X276161052Y-144623057D01*
X276756016Y-144952479D01*
X277133562Y-145052271D01*
X277713502Y-145112854D01*
X278320679Y-144995229D01*
X278773833Y-144783920D01*
X279139410Y-144503111D01*
X279323725Y-144306825D01*
X279625909Y-143890070D01*
X279804117Y-143917308D01*
X279982325Y-143944546D01*
X280151372Y-144307069D01*
X280229789Y-144711854D01*
X280199497Y-145001824D01*
X280148075Y-145246478D01*
X280075521Y-145445817D01*
X279957652Y-145666287D01*
X279863968Y-145820311D01*
X279724968Y-145995465D01*
X279495338Y-146212881D01*
X279244576Y-146384982D01*
X279063315Y-146469506D01*
X275120876Y-148307895D01*
X275202590Y-147773271D01*
X275169489Y-147347355D01*
X275109150Y-147099648D01*
X274961233Y-146782440D01*
X274834448Y-146510548D01*
X274574770Y-146190286D01*
X274290907Y-145936471D01*
X274049306Y-145773287D01*
X273629498Y-145582865D01*
X273318397Y-145507258D01*
X272804904Y-145470859D01*
X274662835Y-144604492D01*
X275094858Y-144347867D01*
X275369804Y-144109320D01*
X275511857Y-143822404D01*
X275747351Y-144209111D01*
G37*
%TO.C,S77*%
X267717604Y-126989263D02*
X268131305Y-127403209D01*
X268726269Y-127732631D01*
X269103815Y-127832423D01*
X269683755Y-127893006D01*
X270290932Y-127775381D01*
X270744086Y-127564072D01*
X271109663Y-127283263D01*
X271293978Y-127086977D01*
X271596162Y-126670222D01*
X271774370Y-126697460D01*
X271952578Y-126724698D01*
X272121625Y-127087221D01*
X272200042Y-127492006D01*
X272169750Y-127781976D01*
X272118328Y-128026630D01*
X272045774Y-128225969D01*
X271927905Y-128446439D01*
X271834221Y-128600463D01*
X271695221Y-128775617D01*
X271465591Y-128993033D01*
X271214829Y-129165134D01*
X271033568Y-129249658D01*
X267091129Y-131088047D01*
X267172843Y-130553423D01*
X267139742Y-130127507D01*
X267079403Y-129879800D01*
X266931486Y-129562592D01*
X266804701Y-129290700D01*
X266545023Y-128970438D01*
X266261160Y-128716623D01*
X266019559Y-128553439D01*
X265599751Y-128363017D01*
X265288650Y-128287410D01*
X264775157Y-128251011D01*
X266633088Y-127384644D01*
X267065111Y-127128019D01*
X267340057Y-126889472D01*
X267482110Y-126602556D01*
X267717604Y-126989263D01*
G36*
X267717604Y-126989263D02*
G01*
X268131305Y-127403209D01*
X268726269Y-127732631D01*
X269103815Y-127832423D01*
X269683755Y-127893006D01*
X270290932Y-127775381D01*
X270744086Y-127564072D01*
X271109663Y-127283263D01*
X271293978Y-127086977D01*
X271596162Y-126670222D01*
X271774370Y-126697460D01*
X271952578Y-126724698D01*
X272121625Y-127087221D01*
X272200042Y-127492006D01*
X272169750Y-127781976D01*
X272118328Y-128026630D01*
X272045774Y-128225969D01*
X271927905Y-128446439D01*
X271834221Y-128600463D01*
X271695221Y-128775617D01*
X271465591Y-128993033D01*
X271214829Y-129165134D01*
X271033568Y-129249658D01*
X267091129Y-131088047D01*
X267172843Y-130553423D01*
X267139742Y-130127507D01*
X267079403Y-129879800D01*
X266931486Y-129562592D01*
X266804701Y-129290700D01*
X266545023Y-128970438D01*
X266261160Y-128716623D01*
X266019559Y-128553439D01*
X265599751Y-128363017D01*
X265288650Y-128287410D01*
X264775157Y-128251011D01*
X266633088Y-127384644D01*
X267065111Y-127128019D01*
X267340057Y-126889472D01*
X267482110Y-126602556D01*
X267717604Y-126989263D01*
G37*
%TO.C,S78*%
X259687856Y-109769415D02*
X260101557Y-110183361D01*
X260696521Y-110512783D01*
X261074067Y-110612575D01*
X261654007Y-110673158D01*
X262261184Y-110555533D01*
X262714338Y-110344224D01*
X263079915Y-110063415D01*
X263264230Y-109867129D01*
X263566414Y-109450374D01*
X263744622Y-109477612D01*
X263922830Y-109504850D01*
X264091877Y-109867373D01*
X264170294Y-110272158D01*
X264140002Y-110562128D01*
X264088580Y-110806782D01*
X264016026Y-111006121D01*
X263898157Y-111226591D01*
X263804473Y-111380615D01*
X263665473Y-111555769D01*
X263435843Y-111773185D01*
X263185081Y-111945286D01*
X263003820Y-112029810D01*
X259061381Y-113868199D01*
X259143095Y-113333575D01*
X259109994Y-112907659D01*
X259049655Y-112659952D01*
X258901738Y-112342744D01*
X258774953Y-112070852D01*
X258515275Y-111750590D01*
X258231412Y-111496775D01*
X257989811Y-111333591D01*
X257570003Y-111143169D01*
X257258902Y-111067562D01*
X256745409Y-111031163D01*
X258603340Y-110164796D01*
X259035363Y-109908171D01*
X259310309Y-109669624D01*
X259452362Y-109382708D01*
X259687856Y-109769415D01*
G36*
X259687856Y-109769415D02*
G01*
X260101557Y-110183361D01*
X260696521Y-110512783D01*
X261074067Y-110612575D01*
X261654007Y-110673158D01*
X262261184Y-110555533D01*
X262714338Y-110344224D01*
X263079915Y-110063415D01*
X263264230Y-109867129D01*
X263566414Y-109450374D01*
X263744622Y-109477612D01*
X263922830Y-109504850D01*
X264091877Y-109867373D01*
X264170294Y-110272158D01*
X264140002Y-110562128D01*
X264088580Y-110806782D01*
X264016026Y-111006121D01*
X263898157Y-111226591D01*
X263804473Y-111380615D01*
X263665473Y-111555769D01*
X263435843Y-111773185D01*
X263185081Y-111945286D01*
X263003820Y-112029810D01*
X259061381Y-113868199D01*
X259143095Y-113333575D01*
X259109994Y-112907659D01*
X259049655Y-112659952D01*
X258901738Y-112342744D01*
X258774953Y-112070852D01*
X258515275Y-111750590D01*
X258231412Y-111496775D01*
X257989811Y-111333591D01*
X257570003Y-111143169D01*
X257258902Y-111067562D01*
X256745409Y-111031163D01*
X258603340Y-110164796D01*
X259035363Y-109908171D01*
X259310309Y-109669624D01*
X259452362Y-109382708D01*
X259687856Y-109769415D01*
G37*
%TO.C,S79*%
X259531221Y-154391339D02*
X259944922Y-154805285D01*
X260539886Y-155134707D01*
X260917432Y-155234499D01*
X261497372Y-155295082D01*
X262104549Y-155177457D01*
X262557703Y-154966148D01*
X262923280Y-154685339D01*
X263107595Y-154489053D01*
X263409779Y-154072298D01*
X263587987Y-154099536D01*
X263766195Y-154126774D01*
X263935242Y-154489297D01*
X264013659Y-154894082D01*
X263983367Y-155184052D01*
X263931945Y-155428706D01*
X263859391Y-155628045D01*
X263741522Y-155848515D01*
X263647838Y-156002539D01*
X263508838Y-156177693D01*
X263279208Y-156395109D01*
X263028446Y-156567210D01*
X262847185Y-156651734D01*
X258904746Y-158490123D01*
X258986460Y-157955499D01*
X258953359Y-157529583D01*
X258893020Y-157281876D01*
X258745103Y-156964668D01*
X258618318Y-156692776D01*
X258358640Y-156372514D01*
X258074777Y-156118699D01*
X257833176Y-155955515D01*
X257413368Y-155765093D01*
X257102267Y-155689486D01*
X256588774Y-155653087D01*
X258446705Y-154786720D01*
X258878728Y-154530095D01*
X259153674Y-154291548D01*
X259295727Y-154004632D01*
X259531221Y-154391339D01*
G36*
X259531221Y-154391339D02*
G01*
X259944922Y-154805285D01*
X260539886Y-155134707D01*
X260917432Y-155234499D01*
X261497372Y-155295082D01*
X262104549Y-155177457D01*
X262557703Y-154966148D01*
X262923280Y-154685339D01*
X263107595Y-154489053D01*
X263409779Y-154072298D01*
X263587987Y-154099536D01*
X263766195Y-154126774D01*
X263935242Y-154489297D01*
X264013659Y-154894082D01*
X263983367Y-155184052D01*
X263931945Y-155428706D01*
X263859391Y-155628045D01*
X263741522Y-155848515D01*
X263647838Y-156002539D01*
X263508838Y-156177693D01*
X263279208Y-156395109D01*
X263028446Y-156567210D01*
X262847185Y-156651734D01*
X258904746Y-158490123D01*
X258986460Y-157955499D01*
X258953359Y-157529583D01*
X258893020Y-157281876D01*
X258745103Y-156964668D01*
X258618318Y-156692776D01*
X258358640Y-156372514D01*
X258074777Y-156118699D01*
X257833176Y-155955515D01*
X257413368Y-155765093D01*
X257102267Y-155689486D01*
X256588774Y-155653087D01*
X258446705Y-154786720D01*
X258878728Y-154530095D01*
X259153674Y-154291548D01*
X259295727Y-154004632D01*
X259531221Y-154391339D01*
G37*
%TO.C,S80*%
X251501474Y-137171491D02*
X251915175Y-137585437D01*
X252510139Y-137914859D01*
X252887685Y-138014651D01*
X253467625Y-138075234D01*
X254074802Y-137957609D01*
X254527956Y-137746300D01*
X254893533Y-137465491D01*
X255077848Y-137269205D01*
X255380032Y-136852450D01*
X255558240Y-136879688D01*
X255736448Y-136906926D01*
X255905495Y-137269449D01*
X255983912Y-137674234D01*
X255953620Y-137964204D01*
X255902198Y-138208858D01*
X255829644Y-138408197D01*
X255711775Y-138628667D01*
X255618091Y-138782691D01*
X255479091Y-138957845D01*
X255249461Y-139175261D01*
X254998699Y-139347362D01*
X254817438Y-139431886D01*
X250874999Y-141270275D01*
X250956713Y-140735651D01*
X250923612Y-140309735D01*
X250863273Y-140062028D01*
X250715356Y-139744820D01*
X250588571Y-139472928D01*
X250328893Y-139152666D01*
X250045030Y-138898851D01*
X249803429Y-138735667D01*
X249383621Y-138545245D01*
X249072520Y-138469638D01*
X248559027Y-138433239D01*
X250416958Y-137566872D01*
X250848981Y-137310247D01*
X251123927Y-137071700D01*
X251265980Y-136784784D01*
X251501474Y-137171491D01*
G36*
X251501474Y-137171491D02*
G01*
X251915175Y-137585437D01*
X252510139Y-137914859D01*
X252887685Y-138014651D01*
X253467625Y-138075234D01*
X254074802Y-137957609D01*
X254527956Y-137746300D01*
X254893533Y-137465491D01*
X255077848Y-137269205D01*
X255380032Y-136852450D01*
X255558240Y-136879688D01*
X255736448Y-136906926D01*
X255905495Y-137269449D01*
X255983912Y-137674234D01*
X255953620Y-137964204D01*
X255902198Y-138208858D01*
X255829644Y-138408197D01*
X255711775Y-138628667D01*
X255618091Y-138782691D01*
X255479091Y-138957845D01*
X255249461Y-139175261D01*
X254998699Y-139347362D01*
X254817438Y-139431886D01*
X250874999Y-141270275D01*
X250956713Y-140735651D01*
X250923612Y-140309735D01*
X250863273Y-140062028D01*
X250715356Y-139744820D01*
X250588571Y-139472928D01*
X250328893Y-139152666D01*
X250045030Y-138898851D01*
X249803429Y-138735667D01*
X249383621Y-138545245D01*
X249072520Y-138469638D01*
X248559027Y-138433239D01*
X250416958Y-137566872D01*
X250848981Y-137310247D01*
X251123927Y-137071700D01*
X251265980Y-136784784D01*
X251501474Y-137171491D01*
G37*
%TO.C,S81*%
X243471727Y-119951643D02*
X243885428Y-120365589D01*
X244480392Y-120695011D01*
X244857938Y-120794803D01*
X245437878Y-120855386D01*
X246045055Y-120737761D01*
X246498209Y-120526452D01*
X246863786Y-120245643D01*
X247048101Y-120049357D01*
X247350285Y-119632602D01*
X247528493Y-119659840D01*
X247706701Y-119687078D01*
X247875748Y-120049601D01*
X247954165Y-120454386D01*
X247923873Y-120744356D01*
X247872451Y-120989010D01*
X247799897Y-121188349D01*
X247682028Y-121408819D01*
X247588344Y-121562843D01*
X247449344Y-121737997D01*
X247219714Y-121955413D01*
X246968952Y-122127514D01*
X246787691Y-122212038D01*
X242845252Y-124050427D01*
X242926966Y-123515803D01*
X242893865Y-123089887D01*
X242833526Y-122842180D01*
X242685609Y-122524972D01*
X242558824Y-122253080D01*
X242299146Y-121932818D01*
X242015283Y-121679003D01*
X241773682Y-121515819D01*
X241353874Y-121325397D01*
X241042773Y-121249790D01*
X240529280Y-121213391D01*
X242387211Y-120347024D01*
X242819234Y-120090399D01*
X243094180Y-119851852D01*
X243236233Y-119564936D01*
X243471727Y-119951643D01*
G36*
X243471727Y-119951643D02*
G01*
X243885428Y-120365589D01*
X244480392Y-120695011D01*
X244857938Y-120794803D01*
X245437878Y-120855386D01*
X246045055Y-120737761D01*
X246498209Y-120526452D01*
X246863786Y-120245643D01*
X247048101Y-120049357D01*
X247350285Y-119632602D01*
X247528493Y-119659840D01*
X247706701Y-119687078D01*
X247875748Y-120049601D01*
X247954165Y-120454386D01*
X247923873Y-120744356D01*
X247872451Y-120989010D01*
X247799897Y-121188349D01*
X247682028Y-121408819D01*
X247588344Y-121562843D01*
X247449344Y-121737997D01*
X247219714Y-121955413D01*
X246968952Y-122127514D01*
X246787691Y-122212038D01*
X242845252Y-124050427D01*
X242926966Y-123515803D01*
X242893865Y-123089887D01*
X242833526Y-122842180D01*
X242685609Y-122524972D01*
X242558824Y-122253080D01*
X242299146Y-121932818D01*
X242015283Y-121679003D01*
X241773682Y-121515819D01*
X241353874Y-121325397D01*
X241042773Y-121249790D01*
X240529280Y-121213391D01*
X242387211Y-120347024D01*
X242819234Y-120090399D01*
X243094180Y-119851852D01*
X243236233Y-119564936D01*
X243471727Y-119951643D01*
G37*
%TO.C,S82*%
X292915294Y-158546970D02*
X293328995Y-158960916D01*
X293923959Y-159290338D01*
X294301505Y-159390130D01*
X294881445Y-159450713D01*
X295488622Y-159333088D01*
X295941776Y-159121779D01*
X296307353Y-158840970D01*
X296491668Y-158644684D01*
X296793852Y-158227929D01*
X296972060Y-158255167D01*
X297150268Y-158282405D01*
X297319315Y-158644928D01*
X297397732Y-159049713D01*
X297367440Y-159339683D01*
X297316018Y-159584337D01*
X297243464Y-159783676D01*
X297125595Y-160004146D01*
X297031911Y-160158170D01*
X296892911Y-160333324D01*
X296663281Y-160550740D01*
X296412519Y-160722841D01*
X296231258Y-160807365D01*
X292288819Y-162645754D01*
X292370533Y-162111130D01*
X292337432Y-161685214D01*
X292277093Y-161437507D01*
X292129176Y-161120299D01*
X292002391Y-160848407D01*
X291742713Y-160528145D01*
X291458850Y-160274330D01*
X291217249Y-160111146D01*
X290797441Y-159920724D01*
X290486340Y-159845117D01*
X289972847Y-159808718D01*
X291830778Y-158942351D01*
X292262801Y-158685726D01*
X292537747Y-158447179D01*
X292679800Y-158160263D01*
X292915294Y-158546970D01*
G36*
X292915294Y-158546970D02*
G01*
X293328995Y-158960916D01*
X293923959Y-159290338D01*
X294301505Y-159390130D01*
X294881445Y-159450713D01*
X295488622Y-159333088D01*
X295941776Y-159121779D01*
X296307353Y-158840970D01*
X296491668Y-158644684D01*
X296793852Y-158227929D01*
X296972060Y-158255167D01*
X297150268Y-158282405D01*
X297319315Y-158644928D01*
X297397732Y-159049713D01*
X297367440Y-159339683D01*
X297316018Y-159584337D01*
X297243464Y-159783676D01*
X297125595Y-160004146D01*
X297031911Y-160158170D01*
X296892911Y-160333324D01*
X296663281Y-160550740D01*
X296412519Y-160722841D01*
X296231258Y-160807365D01*
X292288819Y-162645754D01*
X292370533Y-162111130D01*
X292337432Y-161685214D01*
X292277093Y-161437507D01*
X292129176Y-161120299D01*
X292002391Y-160848407D01*
X291742713Y-160528145D01*
X291458850Y-160274330D01*
X291217249Y-160111146D01*
X290797441Y-159920724D01*
X290486340Y-159845117D01*
X289972847Y-159808718D01*
X291830778Y-158942351D01*
X292262801Y-158685726D01*
X292537747Y-158447179D01*
X292679800Y-158160263D01*
X292915294Y-158546970D01*
G37*
%TO.C,S83*%
X279757319Y-168054694D02*
X279937830Y-168425391D01*
X279983620Y-168713320D01*
X279997271Y-168962947D01*
X279978783Y-169174272D01*
X279921992Y-169417736D01*
X279871364Y-169590759D01*
X279782434Y-169795921D01*
X279616899Y-170065361D01*
X279419225Y-170296500D01*
X279266016Y-170425057D01*
X275933723Y-173221184D01*
X275874282Y-172683627D01*
X275732074Y-172280791D01*
X275609679Y-172057141D01*
X275384703Y-171789025D01*
X275191867Y-171559212D01*
X274858148Y-171317073D01*
X274518265Y-171145376D01*
X274242662Y-171050283D01*
X273787873Y-170975003D01*
X273467804Y-170982491D01*
X272962387Y-171080235D01*
X274532778Y-169762520D01*
X274883661Y-169402824D01*
X275087498Y-169101244D01*
X275150451Y-168787338D01*
X275478008Y-169099919D01*
X275984750Y-169392686D01*
X276644701Y-169556895D01*
X277035211Y-169555570D01*
X277611070Y-169463989D01*
X278167115Y-169193224D01*
X278550137Y-168871830D01*
X278830578Y-168505971D01*
X278957810Y-168268670D01*
X279141834Y-167787904D01*
X279321019Y-167768090D01*
X279500204Y-167748277D01*
X279757319Y-168054694D01*
G36*
X279757319Y-168054694D02*
G01*
X279937830Y-168425391D01*
X279983620Y-168713320D01*
X279997271Y-168962947D01*
X279978783Y-169174272D01*
X279921992Y-169417736D01*
X279871364Y-169590759D01*
X279782434Y-169795921D01*
X279616899Y-170065361D01*
X279419225Y-170296500D01*
X279266016Y-170425057D01*
X275933723Y-173221184D01*
X275874282Y-172683627D01*
X275732074Y-172280791D01*
X275609679Y-172057141D01*
X275384703Y-171789025D01*
X275191867Y-171559212D01*
X274858148Y-171317073D01*
X274518265Y-171145376D01*
X274242662Y-171050283D01*
X273787873Y-170975003D01*
X273467804Y-170982491D01*
X272962387Y-171080235D01*
X274532778Y-169762520D01*
X274883661Y-169402824D01*
X275087498Y-169101244D01*
X275150451Y-168787338D01*
X275478008Y-169099919D01*
X275984750Y-169392686D01*
X276644701Y-169556895D01*
X277035211Y-169555570D01*
X277611070Y-169463989D01*
X278167115Y-169193224D01*
X278550137Y-168871830D01*
X278830578Y-168505971D01*
X278957810Y-168268670D01*
X279141834Y-167787904D01*
X279321019Y-167768090D01*
X279500204Y-167748277D01*
X279757319Y-168054694D01*
G37*
%TO.C,S84*%
X252444172Y-183336366D02*
X252882427Y-183582197D01*
X253226488Y-183701033D01*
X253545991Y-183680597D01*
X253328840Y-184077894D01*
X253177203Y-184643143D01*
X253189397Y-185323107D01*
X253291748Y-185699968D01*
X253529251Y-186232502D01*
X253934706Y-186699521D01*
X254344282Y-186986309D01*
X254770258Y-187162503D01*
X255032404Y-187223982D01*
X255544416Y-187277303D01*
X255609931Y-187445255D01*
X255675447Y-187613207D01*
X255446016Y-187940868D01*
X255134670Y-188211171D01*
X254868403Y-188329922D01*
X254630815Y-188407716D01*
X254421906Y-188444553D01*
X254172039Y-188452710D01*
X253991809Y-188448589D01*
X253770621Y-188415789D01*
X253467517Y-188325631D01*
X253193093Y-188194516D01*
X253029263Y-188079800D01*
X249465951Y-185584743D01*
X249969806Y-185388197D01*
X250322110Y-185146573D01*
X250506461Y-184970464D01*
X250707213Y-184683761D01*
X250879286Y-184438015D01*
X251026801Y-184052997D01*
X251104680Y-183680257D01*
X251125202Y-183389432D01*
X251080208Y-182930656D01*
X250990135Y-182623432D01*
X250764911Y-182160534D01*
X252444172Y-183336366D01*
G36*
X252444172Y-183336366D02*
G01*
X252882427Y-183582197D01*
X253226488Y-183701033D01*
X253545991Y-183680597D01*
X253328840Y-184077894D01*
X253177203Y-184643143D01*
X253189397Y-185323107D01*
X253291748Y-185699968D01*
X253529251Y-186232502D01*
X253934706Y-186699521D01*
X254344282Y-186986309D01*
X254770258Y-187162503D01*
X255032404Y-187223982D01*
X255544416Y-187277303D01*
X255609931Y-187445255D01*
X255675447Y-187613207D01*
X255446016Y-187940868D01*
X255134670Y-188211171D01*
X254868403Y-188329922D01*
X254630815Y-188407716D01*
X254421906Y-188444553D01*
X254172039Y-188452710D01*
X253991809Y-188448589D01*
X253770621Y-188415789D01*
X253467517Y-188325631D01*
X253193093Y-188194516D01*
X253029263Y-188079800D01*
X249465951Y-185584743D01*
X249969806Y-185388197D01*
X250322110Y-185146573D01*
X250506461Y-184970464D01*
X250707213Y-184683761D01*
X250879286Y-184438015D01*
X251026801Y-184052997D01*
X251104680Y-183680257D01*
X251125202Y-183389432D01*
X251080208Y-182930656D01*
X250990135Y-182623432D01*
X250764911Y-182160534D01*
X252444172Y-183336366D01*
G37*
D10*
%TO.C,D1*%
X78116414Y-129773871D02*
X78599377Y-129903280D01*
X78012887Y-130160241D02*
X77536859Y-129618579D01*
X78219942Y-129387500D02*
X78012887Y-130160241D01*
X77536859Y-129618579D02*
X78219942Y-129387500D01*
X77536859Y-129618579D02*
X77394508Y-130149839D01*
X77536859Y-129618579D02*
X77679209Y-129087320D01*
X77150489Y-129515052D02*
X77536859Y-129618579D01*
%TO.C,D2*%
X83033976Y-111421280D02*
X83516939Y-111550689D01*
X82930449Y-111807650D02*
X82454421Y-111265988D01*
X83137504Y-111034909D02*
X82930449Y-111807650D01*
X82454421Y-111265988D02*
X83137504Y-111034909D01*
X82454421Y-111265988D02*
X82312070Y-111797248D01*
X82454421Y-111265988D02*
X82596771Y-110734729D01*
X82068051Y-111162461D02*
X82454421Y-111265988D01*
%TO.C,D3*%
X87951538Y-93068690D02*
X88434501Y-93198099D01*
X87848011Y-93455060D02*
X87371983Y-92913398D01*
X88055066Y-92682319D02*
X87848011Y-93455060D01*
X87371983Y-92913398D02*
X88055066Y-92682319D01*
X87371983Y-92913398D02*
X87229632Y-93444658D01*
X87371983Y-92913398D02*
X87514333Y-92382139D01*
X86985613Y-92809871D02*
X87371983Y-92913398D01*
%TO.C,D4*%
X98407384Y-128565985D02*
X98877230Y-128736995D01*
X98270576Y-128941862D02*
X97843569Y-128360773D01*
X98544192Y-128190108D02*
X98270576Y-128941862D01*
X97843569Y-128360773D02*
X98544192Y-128190108D01*
X97843569Y-128360773D02*
X97655458Y-128877604D01*
X97843569Y-128360773D02*
X98031680Y-127843942D01*
X97467692Y-128223965D02*
X97843569Y-128360773D01*
%TO.C,D5*%
X104905767Y-110711825D02*
X105375613Y-110882835D01*
X104768959Y-111087702D02*
X104341952Y-110506613D01*
X105042575Y-110335948D02*
X104768959Y-111087702D01*
X104341952Y-110506613D02*
X105042575Y-110335948D01*
X104341952Y-110506613D02*
X104153841Y-111023444D01*
X104341952Y-110506613D02*
X104530063Y-109989782D01*
X103966075Y-110369805D02*
X104341952Y-110506613D01*
%TO.C,D6*%
X111404150Y-92857665D02*
X111873996Y-93028675D01*
X111267342Y-93233542D02*
X110840335Y-92652453D01*
X111540958Y-92481788D02*
X111267342Y-93233542D01*
X110840335Y-92652453D02*
X111540958Y-92481788D01*
X110840335Y-92652453D02*
X110652224Y-93169284D01*
X110840335Y-92652453D02*
X111028446Y-92135622D01*
X110464458Y-92515645D02*
X110840335Y-92652453D01*
%TO.C,D7*%
X117550571Y-132150381D02*
X118003725Y-132361690D01*
X117381524Y-132512904D02*
X117006786Y-131896810D01*
X117719618Y-131787857D02*
X117381524Y-132512904D01*
X117006786Y-131896810D02*
X117719618Y-131787857D01*
X117006786Y-131896810D02*
X116774346Y-132395279D01*
X117006786Y-131896810D02*
X117239226Y-131398340D01*
X116644263Y-131727762D02*
X117006786Y-131896810D01*
%TO.C,D8*%
X125580318Y-114930533D02*
X126033472Y-115141842D01*
X125411271Y-115293056D02*
X125036533Y-114676962D01*
X125749365Y-114568009D02*
X125411271Y-115293056D01*
X125036533Y-114676962D02*
X125749365Y-114568009D01*
X125036533Y-114676962D02*
X124804093Y-115175431D01*
X125036533Y-114676962D02*
X125268973Y-114178492D01*
X124674010Y-114507914D02*
X125036533Y-114676962D01*
%TO.C,D9*%
X133610065Y-97710685D02*
X134063219Y-97921994D01*
X133441018Y-98073208D02*
X133066280Y-97457114D01*
X133779112Y-97348161D02*
X133441018Y-98073208D01*
X133066280Y-97457114D02*
X133779112Y-97348161D01*
X133066280Y-97457114D02*
X132833840Y-97955583D01*
X133066280Y-97457114D02*
X133298720Y-96958644D01*
X132703757Y-97288066D02*
X133066280Y-97457114D01*
%TO.C,D10*%
X135774138Y-138027647D02*
X136227292Y-138238956D01*
X135605091Y-138390170D02*
X135230353Y-137774076D01*
X135943185Y-137665123D02*
X135605091Y-138390170D01*
X135230353Y-137774076D02*
X135943185Y-137665123D01*
X135230353Y-137774076D02*
X134997913Y-138272545D01*
X135230353Y-137774076D02*
X135462793Y-137275606D01*
X134867830Y-137605028D02*
X135230353Y-137774076D01*
%TO.C,D11*%
X143803885Y-120807799D02*
X144257039Y-121019108D01*
X143634838Y-121170322D02*
X143260100Y-120554228D01*
X143972932Y-120445275D02*
X143634838Y-121170322D01*
X143260100Y-120554228D02*
X143972932Y-120445275D01*
X143260100Y-120554228D02*
X143027660Y-121052697D01*
X143260100Y-120554228D02*
X143492540Y-120055758D01*
X142897577Y-120385180D02*
X143260100Y-120554228D01*
%TO.C,D12*%
X151833632Y-103587951D02*
X152286786Y-103799260D01*
X151664585Y-103950474D02*
X151289847Y-103334380D01*
X152002679Y-103225427D02*
X151664585Y-103950474D01*
X151289847Y-103334380D02*
X152002679Y-103225427D01*
X151289847Y-103334380D02*
X151057407Y-103832849D01*
X151289847Y-103334380D02*
X151522287Y-102835910D01*
X150927324Y-103165332D02*
X151289847Y-103334380D01*
%TO.C,D13*%
X150986549Y-150362356D02*
X151439703Y-150573665D01*
X150817502Y-150724879D02*
X150442764Y-150108785D01*
X151155596Y-149999832D02*
X150817502Y-150724879D01*
X150442764Y-150108785D02*
X151155596Y-149999832D01*
X150442764Y-150108785D02*
X150210324Y-150607254D01*
X150442764Y-150108785D02*
X150675204Y-149610315D01*
X150080241Y-149939737D02*
X150442764Y-150108785D01*
%TO.C,D14*%
X159016296Y-133142508D02*
X159469450Y-133353817D01*
X158847249Y-133505031D02*
X158472511Y-132888937D01*
X159185343Y-132779984D02*
X158847249Y-133505031D01*
X158472511Y-132888937D02*
X159185343Y-132779984D01*
X158472511Y-132888937D02*
X158240071Y-133387406D01*
X158472511Y-132888937D02*
X158704951Y-132390467D01*
X158109988Y-132719889D02*
X158472511Y-132888937D01*
%TO.C,D15*%
X167046043Y-115922660D02*
X167499197Y-116133969D01*
X166876996Y-116285183D02*
X166502258Y-115669089D01*
X167215090Y-115560136D02*
X166876996Y-116285183D01*
X166502258Y-115669089D02*
X167215090Y-115560136D01*
X166502258Y-115669089D02*
X166269818Y-116167558D01*
X166502258Y-115669089D02*
X166734698Y-115170619D01*
X166139735Y-115500041D02*
X166502258Y-115669089D01*
%TO.C,D16*%
X167202678Y-160544584D02*
X167655832Y-160755893D01*
X167033631Y-160907107D02*
X166658893Y-160291013D01*
X167371725Y-160182060D02*
X167033631Y-160907107D01*
X166658893Y-160291013D02*
X167371725Y-160182060D01*
X166658893Y-160291013D02*
X166426453Y-160789482D01*
X166658893Y-160291013D02*
X166891333Y-159792543D01*
X166296370Y-160121965D02*
X166658893Y-160291013D01*
%TO.C,D17*%
X175232425Y-143324736D02*
X175685579Y-143536045D01*
X175063378Y-143687259D02*
X174688640Y-143071165D01*
X175401472Y-142962212D02*
X175063378Y-143687259D01*
X174688640Y-143071165D02*
X175401472Y-142962212D01*
X174688640Y-143071165D02*
X174456200Y-143569634D01*
X174688640Y-143071165D02*
X174921080Y-142572695D01*
X174326117Y-142902117D02*
X174688640Y-143071165D01*
%TO.C,D18*%
X183262173Y-126104888D02*
X183715327Y-126316197D01*
X183093126Y-126467411D02*
X182718388Y-125851317D01*
X183431220Y-125742364D02*
X183093126Y-126467411D01*
X182718388Y-125851317D02*
X183431220Y-125742364D01*
X182718388Y-125851317D02*
X182485948Y-126349786D01*
X182718388Y-125851317D02*
X182950828Y-125352847D01*
X182355865Y-125682269D02*
X182718388Y-125851317D01*
%TO.C,D19*%
X133818605Y-164700215D02*
X134271759Y-164911524D01*
X133649558Y-165062738D02*
X133274820Y-164446644D01*
X133987652Y-164337691D02*
X133649558Y-165062738D01*
X133274820Y-164446644D02*
X133987652Y-164337691D01*
X133274820Y-164446644D02*
X133042380Y-164945113D01*
X133274820Y-164446644D02*
X133507260Y-163948174D01*
X132912297Y-164277596D02*
X133274820Y-164446644D01*
%TO.C,D20*%
X149693409Y-174814901D02*
X150076431Y-175136295D01*
X149436294Y-175121319D02*
X149233782Y-174429228D01*
X149950524Y-174508483D02*
X149436294Y-175121319D01*
X149233782Y-174429228D02*
X149950524Y-174508483D01*
X149233782Y-174429228D02*
X148880249Y-174850553D01*
X149233782Y-174429228D02*
X149587316Y-174007904D01*
X148927365Y-174172113D02*
X149233782Y-174429228D01*
%TO.C,D21*%
X179175538Y-187919411D02*
X179585114Y-187632623D01*
X179404969Y-188247072D02*
X178684047Y-188263557D01*
X178946107Y-187591750D02*
X179404969Y-188247072D01*
X178684047Y-188263557D02*
X178946107Y-187591750D01*
X178684047Y-188263557D02*
X178999514Y-188714090D01*
X178684047Y-188263557D02*
X178368580Y-187813023D01*
X178356386Y-188492987D02*
X178684047Y-188263557D01*
%TO.C,D22*%
X349983672Y-129644461D02*
X350466635Y-129515052D01*
X350087200Y-130030832D02*
X349404117Y-129799753D01*
X349880145Y-129258091D02*
X350087200Y-130030832D01*
X349404117Y-129799753D02*
X349880145Y-129258091D01*
X349404117Y-129799753D02*
X349546467Y-130331012D01*
X349404117Y-129799753D02*
X349261766Y-129268493D01*
X349017747Y-129903280D02*
X349404117Y-129799753D01*
%TO.C,D23*%
X345066110Y-111291870D02*
X345549073Y-111162461D01*
X345169638Y-111678241D02*
X344486555Y-111447162D01*
X344962583Y-110905500D02*
X345169638Y-111678241D01*
X344486555Y-111447162D02*
X344962583Y-110905500D01*
X344486555Y-111447162D02*
X344628905Y-111978421D01*
X344486555Y-111447162D02*
X344344204Y-110915902D01*
X344100185Y-111550689D02*
X344486555Y-111447162D01*
%TO.C,D24*%
X340148548Y-92939280D02*
X340631511Y-92809871D01*
X340252076Y-93325651D02*
X339568993Y-93094572D01*
X340045021Y-92552910D02*
X340252076Y-93325651D01*
X339568993Y-93094572D02*
X340045021Y-92552910D01*
X339568993Y-93094572D02*
X339711343Y-93625831D01*
X339568993Y-93094572D02*
X339426642Y-92563312D01*
X339182623Y-93198099D02*
X339568993Y-93094572D01*
%TO.C,D25*%
X329679586Y-128394975D02*
X330149432Y-128223965D01*
X329816394Y-128770852D02*
X329115771Y-128600187D01*
X329542778Y-128019098D02*
X329816394Y-128770852D01*
X329115771Y-128600187D02*
X329542778Y-128019098D01*
X329115771Y-128600187D02*
X329303882Y-129117018D01*
X329115771Y-128600187D02*
X328927660Y-128083356D01*
X328739894Y-128736995D02*
X329115771Y-128600187D01*
%TO.C,D26*%
X323181203Y-110540815D02*
X323651049Y-110369805D01*
X323318011Y-110916692D02*
X322617388Y-110746027D01*
X323044395Y-110164938D02*
X323318011Y-110916692D01*
X322617388Y-110746027D02*
X323044395Y-110164938D01*
X322617388Y-110746027D02*
X322805499Y-111262858D01*
X322617388Y-110746027D02*
X322429277Y-110229196D01*
X322241511Y-110882835D02*
X322617388Y-110746027D01*
%TO.C,D27*%
X316682820Y-92686655D02*
X317152666Y-92515645D01*
X316819628Y-93062532D02*
X316119005Y-92891867D01*
X316546012Y-92310778D02*
X316819628Y-93062532D01*
X316119005Y-92891867D02*
X316546012Y-92310778D01*
X316119005Y-92891867D02*
X316307116Y-93408698D01*
X316119005Y-92891867D02*
X315930894Y-92375036D01*
X315743128Y-93028675D02*
X316119005Y-92891867D01*
%TO.C,D28*%
X310519706Y-131939071D02*
X310972860Y-131727762D01*
X310688753Y-132301595D02*
X309975921Y-132192642D01*
X310350659Y-131576548D02*
X310688753Y-132301595D01*
X309975921Y-132192642D02*
X310350659Y-131576548D01*
X309975921Y-132192642D02*
X310208361Y-132691112D01*
X309975921Y-132192642D02*
X309743481Y-131694173D01*
X309613398Y-132361690D02*
X309975921Y-132192642D01*
%TO.C,D29*%
X302489959Y-114719223D02*
X302943113Y-114507914D01*
X302659006Y-115081747D02*
X301946174Y-114972794D01*
X302320912Y-114356700D02*
X302659006Y-115081747D01*
X301946174Y-114972794D02*
X302320912Y-114356700D01*
X301946174Y-114972794D02*
X302178614Y-115471264D01*
X301946174Y-114972794D02*
X301713734Y-114474325D01*
X301583651Y-115141842D02*
X301946174Y-114972794D01*
%TO.C,D30*%
X294460212Y-97499375D02*
X294913366Y-97288066D01*
X294629259Y-97861899D02*
X293916427Y-97752946D01*
X294291165Y-97136852D02*
X294629259Y-97861899D01*
X293916427Y-97752946D02*
X294291165Y-97136852D01*
X293916427Y-97752946D02*
X294148867Y-98251416D01*
X293916427Y-97752946D02*
X293683987Y-97254477D01*
X293553904Y-97921994D02*
X293916427Y-97752946D01*
%TO.C,D31*%
X292296140Y-137816337D02*
X292749294Y-137605028D01*
X292465187Y-138178861D02*
X291752355Y-138069908D01*
X292127093Y-137453814D02*
X292465187Y-138178861D01*
X291752355Y-138069908D02*
X292127093Y-137453814D01*
X291752355Y-138069908D02*
X291984795Y-138568378D01*
X291752355Y-138069908D02*
X291519915Y-137571439D01*
X291389832Y-138238956D02*
X291752355Y-138069908D01*
%TO.C,D32*%
X284266393Y-120596489D02*
X284719547Y-120385180D01*
X284435440Y-120959013D02*
X283722608Y-120850060D01*
X284097346Y-120233966D02*
X284435440Y-120959013D01*
X283722608Y-120850060D02*
X284097346Y-120233966D01*
X283722608Y-120850060D02*
X283955048Y-121348530D01*
X283722608Y-120850060D02*
X283490168Y-120351591D01*
X283360085Y-121019108D02*
X283722608Y-120850060D01*
%TO.C,D33*%
X276236646Y-103376641D02*
X276689800Y-103165332D01*
X276405693Y-103739165D02*
X275692861Y-103630212D01*
X276067599Y-103014118D02*
X276405693Y-103739165D01*
X275692861Y-103630212D02*
X276067599Y-103014118D01*
X275692861Y-103630212D02*
X275925301Y-104128682D01*
X275692861Y-103630212D02*
X275460421Y-103131743D01*
X275330338Y-103799260D02*
X275692861Y-103630212D01*
%TO.C,D34*%
X277083729Y-150151046D02*
X277536883Y-149939737D01*
X277252776Y-150513570D02*
X276539944Y-150404617D01*
X276914682Y-149788523D02*
X277252776Y-150513570D01*
X276539944Y-150404617D02*
X276914682Y-149788523D01*
X276539944Y-150404617D02*
X276772384Y-150903087D01*
X276539944Y-150404617D02*
X276307504Y-149906148D01*
X276177421Y-150573665D02*
X276539944Y-150404617D01*
%TO.C,D35*%
X269053982Y-132931198D02*
X269507136Y-132719889D01*
X269223029Y-133293722D02*
X268510197Y-133184769D01*
X268884935Y-132568675D02*
X269223029Y-133293722D01*
X268510197Y-133184769D02*
X268884935Y-132568675D01*
X268510197Y-133184769D02*
X268742637Y-133683239D01*
X268510197Y-133184769D02*
X268277757Y-132686300D01*
X268147674Y-133353817D02*
X268510197Y-133184769D01*
%TO.C,D36*%
X261024235Y-115711350D02*
X261477389Y-115500041D01*
X261193282Y-116073874D02*
X260480450Y-115964921D01*
X260855188Y-115348827D02*
X261193282Y-116073874D01*
X260480450Y-115964921D02*
X260855188Y-115348827D01*
X260480450Y-115964921D02*
X260712890Y-116463391D01*
X260480450Y-115964921D02*
X260248010Y-115466452D01*
X260117927Y-116133969D02*
X260480450Y-115964921D01*
%TO.C,D37*%
X260867599Y-160333274D02*
X261320753Y-160121965D01*
X261036646Y-160695798D02*
X260323814Y-160586845D01*
X260698552Y-159970751D02*
X261036646Y-160695798D01*
X260323814Y-160586845D02*
X260698552Y-159970751D01*
X260323814Y-160586845D02*
X260556254Y-161085315D01*
X260323814Y-160586845D02*
X260091374Y-160088376D01*
X259961291Y-160755893D02*
X260323814Y-160586845D01*
%TO.C,D38*%
X252837852Y-143113426D02*
X253291006Y-142902117D01*
X253006899Y-143475950D02*
X252294067Y-143366997D01*
X252668805Y-142750903D02*
X253006899Y-143475950D01*
X252294067Y-143366997D02*
X252668805Y-142750903D01*
X252294067Y-143366997D02*
X252526507Y-143865467D01*
X252294067Y-143366997D02*
X252061627Y-142868528D01*
X251931544Y-143536045D02*
X252294067Y-143366997D01*
%TO.C,D39*%
X244808105Y-125893578D02*
X245261259Y-125682269D01*
X244977152Y-126256102D02*
X244264320Y-126147149D01*
X244639058Y-125531055D02*
X244977152Y-126256102D01*
X244264320Y-126147149D02*
X244639058Y-125531055D01*
X244264320Y-126147149D02*
X244496760Y-126645619D01*
X244264320Y-126147149D02*
X244031880Y-125648680D01*
X243901797Y-126316197D02*
X244264320Y-126147149D01*
%TO.C,D40*%
X294251673Y-164488905D02*
X294704827Y-164277596D01*
X294420720Y-164851429D02*
X293707888Y-164742476D01*
X294082626Y-164126382D02*
X294420720Y-164851429D01*
X293707888Y-164742476D02*
X294082626Y-164126382D01*
X293707888Y-164742476D02*
X293940328Y-165240946D01*
X293707888Y-164742476D02*
X293475448Y-164244007D01*
X293345365Y-164911524D02*
X293707888Y-164742476D01*
%TO.C,D41*%
X278306737Y-174493507D02*
X278689759Y-174172113D01*
X278563852Y-174799925D02*
X277847110Y-174879180D01*
X278049622Y-174187089D02*
X278563852Y-174799925D01*
X277847110Y-174879180D02*
X278049622Y-174187089D01*
X277847110Y-174879180D02*
X278200644Y-175300504D01*
X277847110Y-174879180D02*
X277493577Y-174457855D01*
X277540693Y-175136295D02*
X277847110Y-174879180D01*
%TO.C,D42*%
X248851162Y-188206199D02*
X249260738Y-188492987D01*
X248621731Y-188533860D02*
X248359671Y-187862053D01*
X249080593Y-187878538D02*
X248621731Y-188533860D01*
X248359671Y-187862053D02*
X249080593Y-187878538D01*
X248359671Y-187862053D02*
X248044204Y-188312587D01*
X248359671Y-187862053D02*
X248675138Y-187411520D01*
X248032010Y-187632623D02*
X248359671Y-187862053D01*
%TD*%
M02*
