%TF.GenerationSoftware,KiCad,Pcbnew,9.0.7*%
%TF.CreationDate,2026-04-02T00:58:20-06:00*%
%TF.ProjectId,goodwings,676f6f64-7769-46e6-9773-2e6b69636164,v1.0.0*%
%TF.SameCoordinates,Original*%
%TF.FileFunction,Copper,L1,Top*%
%TF.FilePolarity,Positive*%
%FSLAX46Y46*%
G04 Gerber Fmt 4.6, Leading zero omitted, Abs format (unit mm)*
G04 Created by KiCad (PCBNEW 9.0.7) date 2026-04-02 00:58:20*
%MOMM*%
%LPD*%
G01*
G04 APERTURE LIST*
G04 Aperture macros list*
%AMRoundRect*
0 Rectangle with rounded corners*
0 $1 Rounding radius*
0 $2 $3 $4 $5 $6 $7 $8 $9 X,Y pos of 4 corners*
0 Add a 4 corners polygon primitive as box body*
4,1,4,$2,$3,$4,$5,$6,$7,$8,$9,$2,$3,0*
0 Add four circle primitives for the rounded corners*
1,1,$1+$1,$2,$3*
1,1,$1+$1,$4,$5*
1,1,$1+$1,$6,$7*
1,1,$1+$1,$8,$9*
0 Add four rect primitives between the rounded corners*
20,1,$1+$1,$2,$3,$4,$5,0*
20,1,$1+$1,$4,$5,$6,$7,0*
20,1,$1+$1,$6,$7,$8,$9,0*
20,1,$1+$1,$8,$9,$2,$3,0*%
%AMRotRect*
0 Rectangle, with rotation*
0 The origin of the aperture is its center*
0 $1 length*
0 $2 width*
0 $3 Rotation angle, in degrees counterclockwise*
0 Add horizontal line*
21,1,$1,$2,0,0,$3*%
G04 Aperture macros list end*
%TA.AperFunction,SMDPad,CuDef*%
%ADD10RotRect,0.900000X1.200000X345.000000*%
%TD*%
%TA.AperFunction,ComponentPad*%
%ADD11C,0.600000*%
%TD*%
%TA.AperFunction,SMDPad,CuDef*%
%ADD12RotRect,0.900000X1.200000X340.000000*%
%TD*%
%TA.AperFunction,SMDPad,CuDef*%
%ADD13RotRect,0.900000X1.200000X335.000000*%
%TD*%
%TA.AperFunction,SMDPad,CuDef*%
%ADD14RotRect,0.900000X1.200000X320.000000*%
%TD*%
%TA.AperFunction,SMDPad,CuDef*%
%ADD15RotRect,0.900000X1.200000X35.000000*%
%TD*%
%TA.AperFunction,SMDPad,CuDef*%
%ADD16RotRect,0.900000X1.200000X15.000000*%
%TD*%
%TA.AperFunction,SMDPad,CuDef*%
%ADD17RotRect,0.900000X1.200000X20.000000*%
%TD*%
%TA.AperFunction,SMDPad,CuDef*%
%ADD18RotRect,0.900000X1.200000X25.000000*%
%TD*%
%TA.AperFunction,SMDPad,CuDef*%
%ADD19RotRect,0.900000X1.200000X40.000000*%
%TD*%
%TA.AperFunction,SMDPad,CuDef*%
%ADD20RotRect,0.900000X1.200000X325.000000*%
%TD*%
%TA.AperFunction,ComponentPad*%
%ADD21C,1.700000*%
%TD*%
%TA.AperFunction,ComponentPad*%
%ADD22RoundRect,0.240000X0.635000X-0.360000X0.635000X0.360000X-0.635000X0.360000X-0.635000X-0.360000X0*%
%TD*%
%TA.AperFunction,ComponentPad*%
%ADD23O,1.750000X1.200000*%
%TD*%
%TA.AperFunction,SMDPad,CuDef*%
%ADD24RotRect,1.000000X0.800000X141.000000*%
%TD*%
%TA.AperFunction,SMDPad,CuDef*%
%ADD25RotRect,0.700000X1.500000X141.000000*%
%TD*%
%TA.AperFunction,SMDPad,CuDef*%
%ADD26RotRect,1.550000X1.000000X217.000000*%
%TD*%
%TA.AperFunction,SMDPad,CuDef*%
%ADD27R,0.280000X1.250000*%
%TD*%
%TA.AperFunction,SMDPad,CuDef*%
%ADD28R,1.800000X2.000000*%
%TD*%
%TA.AperFunction,ViaPad*%
%ADD29C,0.600000*%
%TD*%
%TA.AperFunction,Conductor*%
%ADD30C,0.200000*%
%TD*%
G04 APERTURE END LIST*
D10*
%TO.P,D1,1*%
%TO.N,P10*%
X76281155Y-129282115D03*
%TO.P,D1,2*%
%TO.N,c1_r3*%
X79468711Y-130136217D03*
D11*
%TO.P,D1,1*%
%TO.N,P10*%
X76281155Y-129282115D03*
%TO.N,c1_r3*%
X79468711Y-130136217D03*
%TD*%
D10*
%TO.P,D2,1*%
%TO.N,P14*%
X81198717Y-110929524D03*
%TO.P,D2,2*%
%TO.N,c1_r2*%
X84386273Y-111783626D03*
D11*
%TO.P,D2,1*%
%TO.N,P14*%
X81198717Y-110929524D03*
%TO.N,c1_r2*%
X84386273Y-111783626D03*
%TD*%
D10*
%TO.P,D3,1*%
%TO.N,P15*%
X86116279Y-92576934D03*
%TO.P,D3,2*%
%TO.N,c1_r1*%
X89303835Y-93431036D03*
D11*
%TO.P,D3,1*%
%TO.N,P15*%
X86116279Y-92576934D03*
%TO.N,c1_r1*%
X89303835Y-93431036D03*
%TD*%
D12*
%TO.P,D4,1*%
%TO.N,P10*%
X96621968Y-127916147D03*
%TO.P,D4,2*%
%TO.N,c2_r3*%
X99722954Y-129044813D03*
D11*
%TO.P,D4,1*%
%TO.N,P10*%
X96621968Y-127916147D03*
%TO.N,c2_r3*%
X99722954Y-129044813D03*
%TD*%
D12*
%TO.P,D5,1*%
%TO.N,P14*%
X103120351Y-110061987D03*
%TO.P,D5,2*%
%TO.N,c2_r2*%
X106221337Y-111190653D03*
D11*
%TO.P,D5,1*%
%TO.N,P14*%
X103120351Y-110061987D03*
%TO.N,c2_r2*%
X106221337Y-111190653D03*
%TD*%
D12*
%TO.P,D6,1*%
%TO.N,P15*%
X109618734Y-92207827D03*
%TO.P,D6,2*%
%TO.N,c2_r1*%
X112719720Y-93336493D03*
D11*
%TO.P,D6,1*%
%TO.N,P15*%
X109618734Y-92207827D03*
%TO.N,c2_r1*%
X112719720Y-93336493D03*
%TD*%
D13*
%TO.P,D7,1*%
%TO.N,P10*%
X115828586Y-131347406D03*
%TO.P,D7,2*%
%TO.N,c3_r3*%
X118819402Y-132742046D03*
D11*
%TO.P,D7,1*%
%TO.N,P10*%
X115828586Y-131347406D03*
%TO.N,c3_r3*%
X118819402Y-132742046D03*
%TD*%
D13*
%TO.P,D8,1*%
%TO.N,P14*%
X123858333Y-114127558D03*
%TO.P,D8,2*%
%TO.N,c3_r2*%
X126849149Y-115522198D03*
D11*
%TO.P,D8,1*%
%TO.N,P14*%
X123858333Y-114127558D03*
%TO.N,c3_r2*%
X126849149Y-115522198D03*
%TD*%
D13*
%TO.P,D9,1*%
%TO.N,P15*%
X131888080Y-96907710D03*
%TO.P,D9,2*%
%TO.N,c3_r1*%
X134878896Y-98302350D03*
D11*
%TO.P,D9,1*%
%TO.N,P15*%
X131888080Y-96907710D03*
%TO.N,c3_r1*%
X134878896Y-98302350D03*
%TD*%
D13*
%TO.P,D10,1*%
%TO.N,P10*%
X134052153Y-137224672D03*
%TO.P,D10,2*%
%TO.N,c4_r3*%
X137042969Y-138619312D03*
D11*
%TO.P,D10,1*%
%TO.N,P10*%
X134052153Y-137224672D03*
%TO.N,c4_r3*%
X137042969Y-138619312D03*
%TD*%
D13*
%TO.P,D11,1*%
%TO.N,P14*%
X142081900Y-120004824D03*
%TO.P,D11,2*%
%TO.N,c4_r2*%
X145072716Y-121399464D03*
D11*
%TO.P,D11,1*%
%TO.N,P14*%
X142081900Y-120004824D03*
%TO.N,c4_r2*%
X145072716Y-121399464D03*
%TD*%
D13*
%TO.P,D12,1*%
%TO.N,P15*%
X150111647Y-102784976D03*
%TO.P,D12,2*%
%TO.N,c4_r1*%
X153102463Y-104179616D03*
D11*
%TO.P,D12,1*%
%TO.N,P15*%
X150111647Y-102784976D03*
%TO.N,c4_r1*%
X153102463Y-104179616D03*
%TD*%
D13*
%TO.P,D13,1*%
%TO.N,P10*%
X149264564Y-149559381D03*
%TO.P,D13,2*%
%TO.N,c5_r3*%
X152255380Y-150954021D03*
D11*
%TO.P,D13,1*%
%TO.N,P10*%
X149264564Y-149559381D03*
%TO.N,c5_r3*%
X152255380Y-150954021D03*
%TD*%
D13*
%TO.P,D14,1*%
%TO.N,P14*%
X157294311Y-132339533D03*
%TO.P,D14,2*%
%TO.N,c5_r2*%
X160285127Y-133734173D03*
D11*
%TO.P,D14,1*%
%TO.N,P14*%
X157294311Y-132339533D03*
%TO.N,c5_r2*%
X160285127Y-133734173D03*
%TD*%
D13*
%TO.P,D15,1*%
%TO.N,P15*%
X165324058Y-115119685D03*
%TO.P,D15,2*%
%TO.N,c5_r1*%
X168314874Y-116514325D03*
D11*
%TO.P,D15,1*%
%TO.N,P15*%
X165324058Y-115119685D03*
%TO.N,c5_r1*%
X168314874Y-116514325D03*
%TD*%
D13*
%TO.P,D16,1*%
%TO.N,P10*%
X165480693Y-159741609D03*
%TO.P,D16,2*%
%TO.N,c6_r3*%
X168471509Y-161136249D03*
D11*
%TO.P,D16,1*%
%TO.N,P10*%
X165480693Y-159741609D03*
%TO.N,c6_r3*%
X168471509Y-161136249D03*
%TD*%
D13*
%TO.P,D17,1*%
%TO.N,P14*%
X173510440Y-142521761D03*
%TO.P,D17,2*%
%TO.N,c6_r2*%
X176501256Y-143916401D03*
D11*
%TO.P,D17,1*%
%TO.N,P14*%
X173510440Y-142521761D03*
%TO.N,c6_r2*%
X176501256Y-143916401D03*
%TD*%
D13*
%TO.P,D18,1*%
%TO.N,P15*%
X181540188Y-125301913D03*
%TO.P,D18,2*%
%TO.N,c6_r1*%
X184531004Y-126696553D03*
D11*
%TO.P,D18,1*%
%TO.N,P15*%
X181540188Y-125301913D03*
%TO.N,c6_r1*%
X184531004Y-126696553D03*
%TD*%
D13*
%TO.P,D19,1*%
%TO.N,P16*%
X132096620Y-163897240D03*
%TO.P,D19,2*%
%TO.N,c4_r0*%
X135087436Y-165291880D03*
D11*
%TO.P,D19,1*%
%TO.N,P16*%
X132096620Y-163897240D03*
%TO.N,c4_r0*%
X135087436Y-165291880D03*
%TD*%
D14*
%TO.P,D20,1*%
%TO.N,P16*%
X148237925Y-173593604D03*
%TO.P,D20,2*%
%TO.N,c5_r0*%
X150765871Y-175714804D03*
D11*
%TO.P,D20,1*%
%TO.N,P16*%
X148237925Y-173593604D03*
%TO.N,c5_r0*%
X150765871Y-175714804D03*
%TD*%
D15*
%TO.P,D21,1*%
%TO.N,P16*%
X177619149Y-189009206D03*
%TO.P,D21,2*%
%TO.N,c6_r0*%
X180322351Y-187116404D03*
D11*
%TO.P,D21,1*%
%TO.N,P16*%
X177619149Y-189009206D03*
%TO.N,c6_r0*%
X180322351Y-187116404D03*
%TD*%
D16*
%TO.P,D22,1*%
%TO.N,P18*%
X348148413Y-130136217D03*
%TO.P,D22,2*%
%TO.N,mirror_c1_r3*%
X351335969Y-129282115D03*
D11*
%TO.P,D22,1*%
%TO.N,P18*%
X348148413Y-130136217D03*
%TO.N,mirror_c1_r3*%
X351335969Y-129282115D03*
%TD*%
D16*
%TO.P,D23,1*%
%TO.N,P19*%
X343230851Y-111783626D03*
%TO.P,D23,2*%
%TO.N,mirror_c1_r2*%
X346418407Y-110929524D03*
D11*
%TO.P,D23,1*%
%TO.N,P19*%
X343230851Y-111783626D03*
%TO.N,mirror_c1_r2*%
X346418407Y-110929524D03*
%TD*%
D16*
%TO.P,D24,1*%
%TO.N,P20*%
X338313289Y-93431036D03*
%TO.P,D24,2*%
%TO.N,mirror_c1_r1*%
X341500845Y-92576934D03*
D11*
%TO.P,D24,1*%
%TO.N,P20*%
X338313289Y-93431036D03*
%TO.N,mirror_c1_r1*%
X341500845Y-92576934D03*
%TD*%
D17*
%TO.P,D25,1*%
%TO.N,P18*%
X327894170Y-129044813D03*
%TO.P,D25,2*%
%TO.N,mirror_c2_r3*%
X330995156Y-127916147D03*
D11*
%TO.P,D25,1*%
%TO.N,P18*%
X327894170Y-129044813D03*
%TO.N,mirror_c2_r3*%
X330995156Y-127916147D03*
%TD*%
D17*
%TO.P,D26,1*%
%TO.N,P19*%
X321395787Y-111190653D03*
%TO.P,D26,2*%
%TO.N,mirror_c2_r2*%
X324496773Y-110061987D03*
D11*
%TO.P,D26,1*%
%TO.N,P19*%
X321395787Y-111190653D03*
%TO.N,mirror_c2_r2*%
X324496773Y-110061987D03*
%TD*%
D17*
%TO.P,D27,1*%
%TO.N,P20*%
X314897404Y-93336493D03*
%TO.P,D27,2*%
%TO.N,mirror_c2_r1*%
X317998390Y-92207827D03*
D11*
%TO.P,D27,1*%
%TO.N,P20*%
X314897404Y-93336493D03*
%TO.N,mirror_c2_r1*%
X317998390Y-92207827D03*
%TD*%
D18*
%TO.P,D28,1*%
%TO.N,P18*%
X308797721Y-132742046D03*
%TO.P,D28,2*%
%TO.N,mirror_c3_r3*%
X311788537Y-131347406D03*
D11*
%TO.P,D28,1*%
%TO.N,P18*%
X308797721Y-132742046D03*
%TO.N,mirror_c3_r3*%
X311788537Y-131347406D03*
%TD*%
D18*
%TO.P,D29,1*%
%TO.N,P19*%
X300767974Y-115522198D03*
%TO.P,D29,2*%
%TO.N,mirror_c3_r2*%
X303758790Y-114127558D03*
D11*
%TO.P,D29,1*%
%TO.N,P19*%
X300767974Y-115522198D03*
%TO.N,mirror_c3_r2*%
X303758790Y-114127558D03*
%TD*%
D18*
%TO.P,D30,1*%
%TO.N,P20*%
X292738227Y-98302350D03*
%TO.P,D30,2*%
%TO.N,mirror_c3_r1*%
X295729043Y-96907710D03*
D11*
%TO.P,D30,1*%
%TO.N,P20*%
X292738227Y-98302350D03*
%TO.N,mirror_c3_r1*%
X295729043Y-96907710D03*
%TD*%
D18*
%TO.P,D31,1*%
%TO.N,P18*%
X290574155Y-138619312D03*
%TO.P,D31,2*%
%TO.N,mirror_c4_r3*%
X293564971Y-137224672D03*
D11*
%TO.P,D31,1*%
%TO.N,P18*%
X290574155Y-138619312D03*
%TO.N,mirror_c4_r3*%
X293564971Y-137224672D03*
%TD*%
D18*
%TO.P,D32,1*%
%TO.N,P19*%
X282544408Y-121399464D03*
%TO.P,D32,2*%
%TO.N,mirror_c4_r2*%
X285535224Y-120004824D03*
D11*
%TO.P,D32,1*%
%TO.N,P19*%
X282544408Y-121399464D03*
%TO.N,mirror_c4_r2*%
X285535224Y-120004824D03*
%TD*%
D18*
%TO.P,D33,1*%
%TO.N,P20*%
X274514661Y-104179616D03*
%TO.P,D33,2*%
%TO.N,mirror_c4_r1*%
X277505477Y-102784976D03*
D11*
%TO.P,D33,1*%
%TO.N,P20*%
X274514661Y-104179616D03*
%TO.N,mirror_c4_r1*%
X277505477Y-102784976D03*
%TD*%
D18*
%TO.P,D34,1*%
%TO.N,P18*%
X275361744Y-150954021D03*
%TO.P,D34,2*%
%TO.N,mirror_c5_r3*%
X278352560Y-149559381D03*
D11*
%TO.P,D34,1*%
%TO.N,P18*%
X275361744Y-150954021D03*
%TO.N,mirror_c5_r3*%
X278352560Y-149559381D03*
%TD*%
D18*
%TO.P,D35,1*%
%TO.N,P19*%
X267331997Y-133734173D03*
%TO.P,D35,2*%
%TO.N,mirror_c5_r2*%
X270322813Y-132339533D03*
D11*
%TO.P,D35,1*%
%TO.N,P19*%
X267331997Y-133734173D03*
%TO.N,mirror_c5_r2*%
X270322813Y-132339533D03*
%TD*%
D18*
%TO.P,D36,1*%
%TO.N,P20*%
X259302250Y-116514325D03*
%TO.P,D36,2*%
%TO.N,mirror_c5_r1*%
X262293066Y-115119685D03*
D11*
%TO.P,D36,1*%
%TO.N,P20*%
X259302250Y-116514325D03*
%TO.N,mirror_c5_r1*%
X262293066Y-115119685D03*
%TD*%
D18*
%TO.P,D37,1*%
%TO.N,P18*%
X259145614Y-161136249D03*
%TO.P,D37,2*%
%TO.N,mirror_c6_r3*%
X262136430Y-159741609D03*
D11*
%TO.P,D37,1*%
%TO.N,P18*%
X259145614Y-161136249D03*
%TO.N,mirror_c6_r3*%
X262136430Y-159741609D03*
%TD*%
D18*
%TO.P,D38,1*%
%TO.N,P19*%
X251115867Y-143916401D03*
%TO.P,D38,2*%
%TO.N,mirror_c6_r2*%
X254106683Y-142521761D03*
D11*
%TO.P,D38,1*%
%TO.N,P19*%
X251115867Y-143916401D03*
%TO.N,mirror_c6_r2*%
X254106683Y-142521761D03*
%TD*%
D18*
%TO.P,D39,1*%
%TO.N,P20*%
X243086120Y-126696553D03*
%TO.P,D39,2*%
%TO.N,mirror_c6_r1*%
X246076936Y-125301913D03*
D11*
%TO.P,D39,1*%
%TO.N,P20*%
X243086120Y-126696553D03*
%TO.N,mirror_c6_r1*%
X246076936Y-125301913D03*
%TD*%
D18*
%TO.P,D40,1*%
%TO.N,P21*%
X292529688Y-165291880D03*
%TO.P,D40,2*%
%TO.N,mirror_c4_r0*%
X295520504Y-163897240D03*
D11*
%TO.P,D40,1*%
%TO.N,P21*%
X292529688Y-165291880D03*
%TO.N,mirror_c4_r0*%
X295520504Y-163897240D03*
%TD*%
D19*
%TO.P,D41,1*%
%TO.N,P21*%
X276851253Y-175714804D03*
%TO.P,D41,2*%
%TO.N,mirror_c5_r0*%
X279379199Y-173593604D03*
D11*
%TO.P,D41,1*%
%TO.N,P21*%
X276851253Y-175714804D03*
%TO.N,mirror_c5_r0*%
X279379199Y-173593604D03*
%TD*%
D20*
%TO.P,D42,1*%
%TO.N,P21*%
X247294773Y-187116404D03*
%TO.P,D42,2*%
%TO.N,mirror_c6_r0*%
X249997975Y-189009206D03*
D11*
%TO.P,D42,1*%
%TO.N,P21*%
X247294773Y-187116404D03*
%TO.N,mirror_c6_r0*%
X249997975Y-189009206D03*
%TD*%
D21*
%TO.P,MCU1,24*%
%TO.N,P1*%
X205851907Y-115465098D03*
%TO.P,MCU1,1*%
%TO.N,RAW*%
X221091907Y-115465098D03*
%TO.P,MCU1,23*%
%TO.N,P0*%
X205851907Y-118005098D03*
%TO.P,MCU1,2*%
%TO.N,GND*%
X221091907Y-118005098D03*
%TO.P,MCU1,22*%
X205851907Y-120545098D03*
%TO.P,MCU1,3*%
%TO.N,RST*%
X221091907Y-120545098D03*
%TO.P,MCU1,21*%
%TO.N,GND*%
X205851907Y-123085098D03*
%TO.P,MCU1,4*%
%TO.N,VCC*%
X221091907Y-123085098D03*
%TO.P,MCU1,20*%
%TO.N,P2*%
X205851907Y-125625098D03*
%TO.P,MCU1,5*%
%TO.N,P21*%
X221091907Y-125625098D03*
%TO.P,MCU1,19*%
%TO.N,P3*%
X205851907Y-128165098D03*
%TO.P,MCU1,6*%
%TO.N,P20*%
X221091907Y-128165098D03*
%TO.P,MCU1,18*%
%TO.N,P4*%
X205851907Y-130705098D03*
%TO.P,MCU1,7*%
%TO.N,P19*%
X221091907Y-130705098D03*
%TO.P,MCU1,17*%
%TO.N,P5*%
X205851907Y-133245098D03*
%TO.P,MCU1,8*%
%TO.N,P18*%
X221091907Y-133245098D03*
%TO.P,MCU1,16*%
%TO.N,P6*%
X205851907Y-135785098D03*
%TO.P,MCU1,9*%
%TO.N,P15*%
X221091907Y-135785098D03*
%TO.P,MCU1,15*%
%TO.N,P7*%
X205851907Y-138325098D03*
%TO.P,MCU1,10*%
%TO.N,P14*%
X221091907Y-138325098D03*
%TO.P,MCU1,14*%
%TO.N,P8*%
X205851907Y-140865098D03*
%TO.P,MCU1,11*%
%TO.N,P16*%
X221091907Y-140865098D03*
%TO.P,MCU1,13*%
%TO.N,P9*%
X205851907Y-143405098D03*
%TO.P,MCU1,12*%
%TO.N,P10*%
X221091907Y-143405098D03*
%TD*%
D22*
%TO.P,JST1,1*%
%TO.N,GND*%
X225070931Y-149248739D03*
D23*
%TO.P,JST1,2*%
%TO.N,BAT_P*%
X225070931Y-147248739D03*
%TD*%
D24*
%TO.P,PWR1,*%
%TO.N,*%
X193200095Y-104187455D03*
X191809297Y-105904948D03*
X197482462Y-110498987D03*
X198873260Y-108781494D03*
D25*
%TO.P,PWR1,1*%
%TO.N,BAT_P*%
X195985400Y-110123083D03*
%TO.P,PWR1,2*%
%TO.N,RAW*%
X193653962Y-108235122D03*
%TO.P,PWR1,3*%
%TO.N,N/C*%
X192488243Y-107291141D03*
%TD*%
D26*
%TO.P,RST1,1*%
%TO.N,GND*%
X237359873Y-102657755D03*
%TO.P,RST1,2*%
%TO.N,RST*%
X238382959Y-104015436D03*
%TO.P,RST1,3*%
%TO.N,GND*%
X233167037Y-105817284D03*
%TO.P,RST1,4*%
%TO.N,RST*%
X234190123Y-107174965D03*
%TD*%
D27*
%TO.P,J2,1*%
%TO.N,VCC*%
X216231180Y-160977693D03*
%TO.P,J2,2*%
%TO.N,GND*%
X215731180Y-160977693D03*
%TO.P,J2,3*%
%TO.N,N/C*%
X215231180Y-160977693D03*
%TO.P,J2,4*%
X214731180Y-160977693D03*
%TO.P,J2,5*%
X214231180Y-160977693D03*
%TO.P,J2,6*%
X213731180Y-160977693D03*
%TO.P,J2,7*%
X213231180Y-160977693D03*
%TO.P,J2,8*%
X212731180Y-160977693D03*
%TO.P,J2,9*%
%TO.N,P2*%
X212231180Y-160977693D03*
%TO.P,J2,10*%
%TO.N,P1*%
X211731180Y-160977693D03*
%TO.P,J2,11*%
%TO.N,P3*%
X211231180Y-160977693D03*
%TO.P,J2,12*%
%TO.N,P0*%
X210731180Y-160977693D03*
D28*
%TO.P,J2,13*%
%TO.N,N/C*%
X218031180Y-158253693D03*
%TO.P,J2,14*%
X208931180Y-158253693D03*
%TD*%
D29*
%TO.N,P8*%
X255750000Y-124250000D03*
X232000000Y-134750000D03*
X213549000Y-141500000D03*
X193500000Y-113750000D03*
%TO.N,P7*%
X243000000Y-109250000D03*
X199250000Y-131750000D03*
%TO.N,P5*%
X213250000Y-116750000D03*
X199250000Y-116750000D03*
%TO.N,P2*%
X210000000Y-153500000D03*
%TO.N,P1*%
X209250000Y-153500000D03*
%TO.N,P3*%
X208500000Y-153500000D03*
%TO.N,P0*%
X207750000Y-153500000D03*
%TO.N,VCC*%
X218000000Y-154000000D03*
%TO.N,GND*%
X216000000Y-153250000D03*
%TO.N,BAT_P*%
X214750000Y-139750000D03*
%TD*%
D30*
%TO.N,P8*%
X252902447Y-127097553D02*
X255750000Y-124250000D01*
X244652447Y-127097553D02*
X252902447Y-127097553D01*
X237000000Y-134750000D02*
X244652447Y-127097553D01*
X232000000Y-134750000D02*
X237000000Y-134750000D01*
X212750000Y-142250000D02*
X207236809Y-142250000D01*
X207236809Y-142250000D02*
X205851907Y-140865098D01*
X213500000Y-141500000D02*
X212750000Y-142250000D01*
X213549000Y-141500000D02*
X213500000Y-141500000D01*
X198649000Y-133662191D02*
X205851907Y-140865098D01*
X198649000Y-118899000D02*
X198649000Y-133662191D01*
X193500000Y-113750000D02*
X198649000Y-118899000D01*
%TO.N,P7*%
X214998943Y-140351000D02*
X207851000Y-140351000D01*
X219539907Y-135810036D02*
X214998943Y-140351000D01*
X219539907Y-125549338D02*
X219539907Y-135810036D01*
X220853147Y-124236098D02*
X219539907Y-125549338D01*
X224263902Y-124236098D02*
X220853147Y-124236098D01*
X227250000Y-121250000D02*
X224263902Y-124236098D01*
X237949068Y-114300932D02*
X231000000Y-121250000D01*
X240114385Y-112135615D02*
X240114385Y-113216641D01*
X243000000Y-109250000D02*
X240114385Y-112135615D01*
X239030094Y-114300932D02*
X237949068Y-114300932D01*
X240114385Y-113216641D02*
X239030094Y-114300932D01*
X231000000Y-121250000D02*
X227250000Y-121250000D01*
X207851000Y-140351000D02*
X199250000Y-131750000D01*
%TO.N,P5*%
X199250000Y-116750000D02*
X213250000Y-116750000D01*
%TO.N,P10*%
X76281155Y-129282115D02*
X77647123Y-127916147D01*
X77647123Y-127916147D02*
X96621968Y-127916147D01*
X149264564Y-149559381D02*
X146386862Y-149559381D01*
X146386862Y-149559381D02*
X134052153Y-137224672D01*
%TO.N,P15*%
X109618734Y-92207827D02*
X114318617Y-96907710D01*
X114318617Y-96907710D02*
X131888080Y-96907710D01*
%TO.N,P10*%
X149264564Y-149559381D02*
X155298465Y-149559381D01*
X155298465Y-149559381D02*
X165480693Y-159741609D01*
%TO.N,P16*%
X177619149Y-189009206D02*
X165386717Y-189009206D01*
X165386717Y-189009206D02*
X149971115Y-173593604D01*
%TO.N,P14*%
X107185922Y-114127558D02*
X103120351Y-110061987D01*
X123858333Y-114127558D02*
X107185922Y-114127558D01*
%TO.N,P16*%
X149971115Y-173593604D02*
X148237925Y-173593604D01*
%TO.N,P10*%
X134052153Y-137224672D02*
X128174887Y-131347406D01*
X128174887Y-131347406D02*
X115828586Y-131347406D01*
X96621968Y-127916147D02*
X100053227Y-131347406D01*
X100053227Y-131347406D02*
X115828586Y-131347406D01*
%TO.N,P16*%
X135397240Y-163897240D02*
X145093604Y-173593604D01*
X132096620Y-163897240D02*
X135397240Y-163897240D01*
X145093604Y-173593604D02*
X148237925Y-173593604D01*
%TO.N,P14*%
X123858333Y-114127558D02*
X136204634Y-114127558D01*
X136204634Y-114127558D02*
X142081900Y-120004824D01*
%TO.N,P15*%
X165324058Y-115119685D02*
X171357960Y-115119685D01*
X171357960Y-115119685D02*
X181540188Y-125301913D01*
%TO.N,P14*%
X157294311Y-131677506D02*
X145621629Y-120004824D01*
X145621629Y-120004824D02*
X142081900Y-120004824D01*
%TO.N,P15*%
X150111647Y-102784976D02*
X153284976Y-102784976D01*
X153284976Y-102784976D02*
X165324058Y-114824058D01*
X131888080Y-96907710D02*
X144234381Y-96907710D01*
X144234381Y-96907710D02*
X150111647Y-102784976D01*
%TO.N,P14*%
X167476539Y-142521761D02*
X157294311Y-132339533D01*
X173510440Y-142521761D02*
X167476539Y-142521761D01*
%TO.N,P3*%
X211231180Y-156331123D02*
X208500000Y-153599943D01*
X211231180Y-160977693D02*
X211231180Y-156331123D01*
%TO.N,P1*%
X211731180Y-156264023D02*
X209250000Y-153782843D01*
X211731180Y-160977693D02*
X211731180Y-156264023D01*
%TO.N,BAT_P*%
X195985400Y-114846351D02*
X205389049Y-124250000D01*
X195985400Y-110123083D02*
X195985400Y-114846351D01*
%TO.N,RAW*%
X194406768Y-107482316D02*
X196841929Y-107482316D01*
X196841929Y-107482316D02*
X197750000Y-108390387D01*
%TO.N,P0*%
X210731180Y-160977693D02*
X210731180Y-157551693D01*
X210731180Y-157551693D02*
X207750000Y-154570513D01*
%TO.N,RAW*%
X202250000Y-114250000D02*
X219876809Y-114250000D01*
X219876809Y-114250000D02*
X221091907Y-115465098D01*
%TO.N,VCC*%
X216231180Y-160977693D02*
X216231180Y-155768820D01*
X216231180Y-155768820D02*
X218000000Y-154000000D01*
%TO.N,BAT_P*%
X206104569Y-124250000D02*
X214750000Y-132895431D01*
X214750000Y-132895431D02*
X214750000Y-139750000D01*
%TO.N,P2*%
X212231180Y-160977693D02*
X212231180Y-155731180D01*
X212231180Y-155731180D02*
X210000000Y-153500000D01*
%TO.N,P19*%
X221091907Y-130705098D02*
X234303210Y-143916401D01*
X234303210Y-143916401D02*
X251115867Y-143916401D01*
X279666706Y-121399464D02*
X267331997Y-133734173D01*
X282544408Y-121399464D02*
X279666706Y-121399464D01*
%TO.N,P20*%
X309197650Y-98302350D02*
X292738227Y-98302350D01*
X314163507Y-93336493D02*
X309197650Y-98302350D01*
%TO.N,P18*%
X312494954Y-129044813D02*
X308797721Y-132742046D01*
X329000000Y-129044813D02*
X312494954Y-129044813D01*
X348148413Y-130136217D02*
X347057009Y-129044813D01*
X347057009Y-129044813D02*
X329000000Y-129044813D01*
%TO.N,P20*%
X249053447Y-126696553D02*
X243086120Y-126696553D01*
X259235675Y-116514325D02*
X249053447Y-126696553D01*
X274514661Y-104179616D02*
X271636959Y-104179616D01*
X271636959Y-104179616D02*
X259302250Y-116514325D01*
%TO.N,P21*%
X265449653Y-187116404D02*
X247294773Y-187116404D01*
X276851253Y-175714804D02*
X265449653Y-187116404D01*
%TO.N,P18*%
X248983058Y-161136249D02*
X259145614Y-161136249D01*
X221091907Y-133245098D02*
X248983058Y-161136249D01*
X290574155Y-138619312D02*
X287696453Y-138619312D01*
X287696453Y-138619312D02*
X275361744Y-150954021D01*
%TO.N,P20*%
X222560452Y-126696553D02*
X243086120Y-126696553D01*
X221091907Y-128165098D02*
X222560452Y-126696553D01*
%TO.N,P21*%
X221091907Y-125625098D02*
X219940907Y-126776098D01*
X219940907Y-126776098D02*
X219940907Y-133721858D01*
%TO.N,P18*%
X308797721Y-132742046D02*
X296451421Y-132742046D01*
X296451421Y-132742046D02*
X290574155Y-138619312D01*
%TO.N,P21*%
X246963148Y-160028579D02*
X246963148Y-186784779D01*
X221330667Y-134396098D02*
X246963148Y-160028579D01*
%TO.N,P19*%
X317064242Y-115522198D02*
X300767974Y-115522198D01*
X321395787Y-111190653D02*
X317064242Y-115522198D01*
X294890708Y-121399464D02*
X282544408Y-121399464D01*
X300767974Y-115522198D02*
X294890708Y-121399464D01*
%TO.N,P18*%
X275361744Y-150954021D02*
X269327842Y-150954021D01*
X269327842Y-150954021D02*
X259145614Y-161136249D01*
%TO.N,P19*%
X261298095Y-133734173D02*
X251115867Y-143916401D01*
X267331997Y-133734173D02*
X261298095Y-133734173D01*
%TO.N,P20*%
X286425084Y-104179616D02*
X274514661Y-104179616D01*
X292302350Y-98302350D02*
X286425084Y-104179616D01*
%TO.N,P21*%
X278584443Y-175714804D02*
X276851253Y-175714804D01*
X289007367Y-165291880D02*
X278584443Y-175714804D01*
X292529688Y-165291880D02*
X289007367Y-165291880D01*
%TO.N,GND*%
X221091907Y-118005098D02*
X208391907Y-118005098D01*
X208391907Y-118005098D02*
X205851907Y-120545098D01*
%TO.N,P10*%
X204500000Y-146000000D02*
X218497005Y-146000000D01*
X190758391Y-159741609D02*
X204500000Y-146000000D01*
X218497005Y-146000000D02*
X221091907Y-143405098D01*
%TO.N,P16*%
X182750000Y-186500000D02*
X192500000Y-176750000D01*
X182750000Y-188911459D02*
X182750000Y-186500000D01*
X192500000Y-176750000D02*
X192500000Y-159750000D01*
X222242907Y-147007093D02*
X222242907Y-142016098D01*
X220500000Y-148750000D02*
X222242907Y-147007093D01*
X222242907Y-142016098D02*
X221091907Y-140865098D01*
%TO.N,P15*%
X181540188Y-125301913D02*
X201337275Y-145099000D01*
X201337275Y-145099000D02*
X213750000Y-145099000D01*
%TO.N,P16*%
X192500000Y-159750000D02*
X204250000Y-148000000D01*
X204250000Y-148000000D02*
X219750000Y-148000000D01*
%TO.N,P14*%
X213917005Y-145500000D02*
X204250000Y-145500000D01*
X221091907Y-138325098D02*
X213917005Y-145500000D01*
X176000000Y-146000000D02*
X173510440Y-143510440D01*
X203750000Y-146000000D02*
X176000000Y-146000000D01*
%TO.N,P10*%
X165480693Y-159741609D02*
X190758391Y-159741609D01*
%TO.N,P15*%
X213750000Y-143127005D02*
X221091907Y-135785098D01*
X213750000Y-145099000D02*
X213750000Y-143127005D01*
%TO.N,P1*%
X209250000Y-153782843D02*
X209250000Y-153500000D01*
%TO.N,P3*%
X208500000Y-153599943D02*
X208500000Y-153500000D01*
%TO.N,P0*%
X207750000Y-154570513D02*
X207750000Y-153500000D01*
%TO.N,GND*%
X215731180Y-153518820D02*
X216000000Y-153250000D01*
X215731180Y-160977693D02*
X215731180Y-153518820D01*
%TO.N,BAT_P*%
X205389049Y-124250000D02*
X206104569Y-124250000D01*
%TO.N,RAW*%
X202250000Y-114000000D02*
X202250000Y-114250000D01*
X197750000Y-109500000D02*
X202250000Y-114000000D01*
X197750000Y-108390387D02*
X197750000Y-109500000D01*
X193653962Y-108235122D02*
X194406768Y-107482316D01*
%TO.N,RST*%
X234190123Y-107446882D02*
X221091907Y-120545098D01*
X234190123Y-107174965D02*
X234190123Y-107446882D01*
%TO.N,GND*%
X205851907Y-120545098D02*
X205851907Y-123085098D01*
X221091907Y-117892414D02*
X221091907Y-118005098D01*
X233167037Y-105817284D02*
X221091907Y-117892414D01*
%TO.N,RST*%
X237349652Y-104015436D02*
X234190123Y-107174965D01*
X238382959Y-104015436D02*
X237349652Y-104015436D01*
%TO.N,GND*%
X236326566Y-102657755D02*
X233167037Y-105817284D01*
X237359873Y-102657755D02*
X236326566Y-102657755D01*
%TO.N,P21*%
X246963148Y-186784779D02*
X247294773Y-187116404D01*
X220615147Y-134396098D02*
X221330667Y-134396098D01*
X219940907Y-133721858D02*
X220615147Y-134396098D01*
%TO.N,P18*%
X329000000Y-129044813D02*
X327894170Y-129044813D01*
%TO.N,P19*%
X342637878Y-111190653D02*
X321395787Y-111190653D01*
X343230851Y-111783626D02*
X342637878Y-111190653D01*
%TO.N,P20*%
X259302250Y-116514325D02*
X259235675Y-116514325D01*
X292738227Y-98302350D02*
X292302350Y-98302350D01*
X314897404Y-93336493D02*
X314163507Y-93336493D01*
X317766001Y-93336493D02*
X314897404Y-93336493D01*
X317860544Y-93431036D02*
X317766001Y-93336493D01*
X338313289Y-93431036D02*
X317860544Y-93431036D01*
%TO.N,P14*%
X173510440Y-143510440D02*
X173510440Y-142521761D01*
X204250000Y-145500000D02*
X203750000Y-146000000D01*
%TO.N,P16*%
X219750000Y-148000000D02*
X220500000Y-148750000D01*
X182652253Y-189009206D02*
X182750000Y-188911459D01*
X177619149Y-189009206D02*
X182652253Y-189009206D01*
%TO.N,P14*%
X157294311Y-132339533D02*
X157294311Y-131677506D01*
X82066254Y-110061987D02*
X103120351Y-110061987D01*
X81198717Y-110929524D02*
X82066254Y-110061987D01*
%TO.N,P15*%
X165324058Y-114824058D02*
X165324058Y-115119685D01*
X86485386Y-92207827D02*
X109618734Y-92207827D01*
X86116279Y-92576934D02*
X86485386Y-92207827D01*
%TD*%
M02*
