%TF.GenerationSoftware,KiCad,Pcbnew,9.0.7*%
%TF.CreationDate,2026-04-02T00:58:20-06:00*%
%TF.ProjectId,goodwings,676f6f64-7769-46e6-9773-2e6b69636164,v1.0.0*%
%TF.SameCoordinates,Original*%
%TF.FileFunction,Copper,L2,Bot*%
%TF.FilePolarity,Positive*%
%FSLAX46Y46*%
G04 Gerber Fmt 4.6, Leading zero omitted, Abs format (unit mm)*
G04 Created by KiCad (PCBNEW 9.0.7) date 2026-04-02 00:58:20*
%MOMM*%
%LPD*%
G01*
G04 APERTURE LIST*
G04 Aperture macros list*
%AMRoundRect*
0 Rectangle with rounded corners*
0 $1 Rounding radius*
0 $2 $3 $4 $5 $6 $7 $8 $9 X,Y pos of 4 corners*
0 Add a 4 corners polygon primitive as box body*
4,1,4,$2,$3,$4,$5,$6,$7,$8,$9,$2,$3,0*
0 Add four circle primitives for the rounded corners*
1,1,$1+$1,$2,$3*
1,1,$1+$1,$4,$5*
1,1,$1+$1,$6,$7*
1,1,$1+$1,$8,$9*
0 Add four rect primitives between the rounded corners*
20,1,$1+$1,$2,$3,$4,$5,0*
20,1,$1+$1,$4,$5,$6,$7,0*
20,1,$1+$1,$6,$7,$8,$9,0*
20,1,$1+$1,$8,$9,$2,$3,0*%
%AMRotRect*
0 Rectangle, with rotation*
0 The origin of the aperture is its center*
0 $1 length*
0 $2 width*
0 $3 Rotation angle, in degrees counterclockwise*
0 Add horizontal line*
21,1,$1,$2,0,0,$3*%
G04 Aperture macros list end*
%TA.AperFunction,SMDPad,CuDef*%
%ADD10RotRect,2.600000X2.600000X345.000000*%
%TD*%
%TA.AperFunction,SMDPad,CuDef*%
%ADD11RotRect,2.600000X2.600000X340.000000*%
%TD*%
%TA.AperFunction,SMDPad,CuDef*%
%ADD12RotRect,2.600000X2.600000X335.000000*%
%TD*%
%TA.AperFunction,SMDPad,CuDef*%
%ADD13RotRect,2.600000X2.600000X320.000000*%
%TD*%
%TA.AperFunction,SMDPad,CuDef*%
%ADD14RotRect,2.600000X2.600000X35.000000*%
%TD*%
%TA.AperFunction,SMDPad,CuDef*%
%ADD15RotRect,2.600000X2.600000X15.000000*%
%TD*%
%TA.AperFunction,SMDPad,CuDef*%
%ADD16RotRect,2.600000X2.600000X20.000000*%
%TD*%
%TA.AperFunction,SMDPad,CuDef*%
%ADD17RotRect,2.600000X2.600000X25.000000*%
%TD*%
%TA.AperFunction,SMDPad,CuDef*%
%ADD18RotRect,2.600000X2.600000X40.000000*%
%TD*%
%TA.AperFunction,SMDPad,CuDef*%
%ADD19RotRect,2.600000X2.600000X325.000000*%
%TD*%
%TA.AperFunction,SMDPad,CuDef*%
%ADD20RotRect,2.550000X2.500000X165.000000*%
%TD*%
%TA.AperFunction,SMDPad,CuDef*%
%ADD21RotRect,2.550000X2.500000X160.000000*%
%TD*%
%TA.AperFunction,SMDPad,CuDef*%
%ADD22RotRect,2.550000X2.500000X155.000000*%
%TD*%
%TA.AperFunction,SMDPad,CuDef*%
%ADD23RotRect,2.550000X2.500000X140.000000*%
%TD*%
%TA.AperFunction,SMDPad,CuDef*%
%ADD24RotRect,2.550000X2.500000X215.000000*%
%TD*%
%TA.AperFunction,SMDPad,CuDef*%
%ADD25RotRect,2.550000X2.500000X195.000000*%
%TD*%
%TA.AperFunction,SMDPad,CuDef*%
%ADD26RotRect,2.550000X2.500000X200.000000*%
%TD*%
%TA.AperFunction,SMDPad,CuDef*%
%ADD27RotRect,2.550000X2.500000X205.000000*%
%TD*%
%TA.AperFunction,SMDPad,CuDef*%
%ADD28RotRect,2.550000X2.500000X220.000000*%
%TD*%
%TA.AperFunction,SMDPad,CuDef*%
%ADD29RotRect,2.550000X2.500000X145.000000*%
%TD*%
%TA.AperFunction,SMDPad,CuDef*%
%ADD30RotRect,0.900000X1.200000X345.000000*%
%TD*%
%TA.AperFunction,ComponentPad*%
%ADD31C,0.600000*%
%TD*%
%TA.AperFunction,SMDPad,CuDef*%
%ADD32RotRect,0.900000X1.200000X340.000000*%
%TD*%
%TA.AperFunction,SMDPad,CuDef*%
%ADD33RotRect,0.900000X1.200000X335.000000*%
%TD*%
%TA.AperFunction,SMDPad,CuDef*%
%ADD34RotRect,0.900000X1.200000X320.000000*%
%TD*%
%TA.AperFunction,SMDPad,CuDef*%
%ADD35RotRect,0.900000X1.200000X35.000000*%
%TD*%
%TA.AperFunction,SMDPad,CuDef*%
%ADD36RotRect,0.900000X1.200000X15.000000*%
%TD*%
%TA.AperFunction,SMDPad,CuDef*%
%ADD37RotRect,0.900000X1.200000X20.000000*%
%TD*%
%TA.AperFunction,SMDPad,CuDef*%
%ADD38RotRect,0.900000X1.200000X25.000000*%
%TD*%
%TA.AperFunction,SMDPad,CuDef*%
%ADD39RotRect,0.900000X1.200000X40.000000*%
%TD*%
%TA.AperFunction,SMDPad,CuDef*%
%ADD40RotRect,0.900000X1.200000X325.000000*%
%TD*%
%TA.AperFunction,ComponentPad*%
%ADD41C,1.700000*%
%TD*%
%TA.AperFunction,ComponentPad*%
%ADD42RoundRect,0.240000X0.635000X-0.360000X0.635000X0.360000X-0.635000X0.360000X-0.635000X-0.360000X0*%
%TD*%
%TA.AperFunction,ComponentPad*%
%ADD43O,1.750000X1.200000*%
%TD*%
%TA.AperFunction,ViaPad*%
%ADD44C,0.600000*%
%TD*%
%TA.AperFunction,Conductor*%
%ADD45C,0.200000*%
%TD*%
G04 APERTURE END LIST*
D10*
%TO.P,S1,1*%
%TO.N,P4*%
X78580871Y-114420943D03*
%TO.P,S1,2*%
%TO.N,c1_r3*%
X89167913Y-119535340D03*
%TD*%
%TO.P,S2,1*%
%TO.N,P4*%
X83498433Y-96068352D03*
%TO.P,S2,2*%
%TO.N,c1_r2*%
X94085475Y-101182749D03*
%TD*%
%TO.P,S3,1*%
%TO.N,P4*%
X88415994Y-77715761D03*
%TO.P,S3,2*%
%TO.N,c1_r1*%
X99003036Y-82830158D03*
%TD*%
D11*
%TO.P,S4,1*%
%TO.N,P5*%
X100208170Y-113311959D03*
%TO.P,S4,2*%
%TO.N,c2_r3*%
X110309175Y-119329615D03*
%TD*%
%TO.P,S5,1*%
%TO.N,P5*%
X106706552Y-95457799D03*
%TO.P,S5,2*%
%TO.N,c2_r2*%
X116807557Y-101475455D03*
%TD*%
%TO.P,S6,1*%
%TO.N,P5*%
X113204935Y-77603640D03*
%TO.P,S6,2*%
%TO.N,c2_r1*%
X123305940Y-83621296D03*
%TD*%
D12*
%TO.P,S7,1*%
%TO.N,P6*%
X120673980Y-117111350D03*
%TO.P,S7,2*%
%TO.N,c3_r3*%
X130212074Y-123986468D03*
%TD*%
%TO.P,S8,1*%
%TO.N,P6*%
X128703727Y-99891502D03*
%TO.P,S8,2*%
%TO.N,c3_r2*%
X138241821Y-106766620D03*
%TD*%
%TO.P,S9,1*%
%TO.N,P6*%
X136733474Y-82671654D03*
%TO.P,S9,2*%
%TO.N,c3_r1*%
X146271568Y-89546772D03*
%TD*%
%TO.P,S10,1*%
%TO.N,P7*%
X138897546Y-122988616D03*
%TO.P,S10,2*%
%TO.N,c4_r3*%
X148435640Y-129863734D03*
%TD*%
%TO.P,S11,1*%
%TO.N,P7*%
X146927293Y-105768768D03*
%TO.P,S11,2*%
%TO.N,c4_r2*%
X156465387Y-112643886D03*
%TD*%
%TO.P,S12,1*%
%TO.N,P7*%
X154957040Y-88548920D03*
%TO.P,S12,2*%
%TO.N,c4_r1*%
X164495134Y-95424038D03*
%TD*%
%TO.P,S13,1*%
%TO.N,P8*%
X154109957Y-135323325D03*
%TO.P,S13,2*%
%TO.N,c5_r3*%
X163648051Y-142198443D03*
%TD*%
%TO.P,S14,1*%
%TO.N,P8*%
X162139704Y-118103477D03*
%TO.P,S14,2*%
%TO.N,c5_r2*%
X171677798Y-124978595D03*
%TD*%
%TO.P,S15,1*%
%TO.N,P8*%
X170169451Y-100883629D03*
%TO.P,S15,2*%
%TO.N,c5_r1*%
X179707545Y-107758747D03*
%TD*%
%TO.P,S16,1*%
%TO.N,P9*%
X170326087Y-145505553D03*
%TO.P,S16,2*%
%TO.N,c6_r3*%
X179864181Y-152380671D03*
%TD*%
%TO.P,S17,1*%
%TO.N,P9*%
X178355834Y-128285705D03*
%TO.P,S17,2*%
%TO.N,c6_r2*%
X187893928Y-135160823D03*
%TD*%
%TO.P,S18,1*%
%TO.N,P9*%
X186385581Y-111065857D03*
%TO.P,S18,2*%
%TO.N,c6_r1*%
X195923675Y-117940975D03*
%TD*%
%TO.P,S19,1*%
%TO.N,P7*%
X136942014Y-149661184D03*
%TO.P,S19,2*%
%TO.N,c4_r0*%
X146480108Y-156536302D03*
%TD*%
D13*
%TO.P,S20,1*%
%TO.N,P8*%
X156602778Y-161096710D03*
%TO.P,S20,2*%
%TO.N,c5_r0*%
X164036458Y-170206205D03*
%TD*%
D14*
%TO.P,S21,1*%
%TO.N,P9*%
X167713059Y-177694945D03*
%TO.P,S21,2*%
%TO.N,c6_r0*%
X178436134Y-172872272D03*
%TD*%
D15*
%TO.P,S22,1*%
%TO.N,P4*%
X342709439Y-116116208D03*
%TO.P,S22,2*%
%TO.N,mirror_c1_r3*%
X354435284Y-115251885D03*
%TD*%
%TO.P,S23,1*%
%TO.N,P4*%
X337791877Y-97763617D03*
%TO.P,S23,2*%
%TO.N,mirror_c1_r2*%
X349517722Y-96899294D03*
%TD*%
%TO.P,S24,1*%
%TO.N,P4*%
X332874316Y-79411026D03*
%TO.P,S24,2*%
%TO.N,mirror_c1_r1*%
X344600161Y-78546703D03*
%TD*%
D16*
%TO.P,S25,1*%
%TO.N,P5*%
X321253968Y-115552191D03*
%TO.P,S25,2*%
%TO.N,mirror_c2_r3*%
X332859862Y-113669182D03*
%TD*%
%TO.P,S26,1*%
%TO.N,P5*%
X314755586Y-97698031D03*
%TO.P,S26,2*%
%TO.N,mirror_c2_r2*%
X326361480Y-95815022D03*
%TD*%
%TO.P,S27,1*%
%TO.N,P5*%
X308257203Y-79843872D03*
%TO.P,S27,2*%
%TO.N,mirror_c2_r1*%
X319863097Y-77960863D03*
%TD*%
D17*
%TO.P,S28,1*%
%TO.N,P6*%
X301006828Y-119879499D03*
%TO.P,S28,2*%
%TO.N,mirror_c3_r3*%
X312404443Y-116992136D03*
%TD*%
%TO.P,S29,1*%
%TO.N,P6*%
X292977081Y-102659651D03*
%TO.P,S29,2*%
%TO.N,mirror_c3_r2*%
X304374696Y-99772288D03*
%TD*%
%TO.P,S30,1*%
%TO.N,P6*%
X284947334Y-85439803D03*
%TO.P,S30,2*%
%TO.N,mirror_c3_r1*%
X296344949Y-82552440D03*
%TD*%
%TO.P,S31,1*%
%TO.N,P7*%
X282783262Y-125756765D03*
%TO.P,S31,2*%
%TO.N,mirror_c4_r3*%
X294180877Y-122869402D03*
%TD*%
%TO.P,S32,1*%
%TO.N,P7*%
X274753515Y-108536917D03*
%TO.P,S32,2*%
%TO.N,mirror_c4_r2*%
X286151130Y-105649554D03*
%TD*%
%TO.P,S33,1*%
%TO.N,P7*%
X266723768Y-91317069D03*
%TO.P,S33,2*%
%TO.N,mirror_c4_r1*%
X278121383Y-88429706D03*
%TD*%
%TO.P,S34,1*%
%TO.N,P8*%
X267570851Y-138091474D03*
%TO.P,S34,2*%
%TO.N,mirror_c5_r3*%
X278968466Y-135204111D03*
%TD*%
%TO.P,S35,1*%
%TO.N,P8*%
X259541104Y-120871626D03*
%TO.P,S35,2*%
%TO.N,mirror_c5_r2*%
X270938719Y-117984263D03*
%TD*%
%TO.P,S36,1*%
%TO.N,P8*%
X251511356Y-103651778D03*
%TO.P,S36,2*%
%TO.N,mirror_c5_r1*%
X262908971Y-100764415D03*
%TD*%
%TO.P,S37,1*%
%TO.N,P9*%
X251354721Y-148273702D03*
%TO.P,S37,2*%
%TO.N,mirror_c6_r3*%
X262752336Y-145386339D03*
%TD*%
%TO.P,S38,1*%
%TO.N,P9*%
X243324974Y-131053854D03*
%TO.P,S38,2*%
%TO.N,mirror_c6_r2*%
X254722589Y-128166491D03*
%TD*%
%TO.P,S39,1*%
%TO.N,P9*%
X235295227Y-113834006D03*
%TO.P,S39,2*%
%TO.N,mirror_c6_r1*%
X246692842Y-110946643D03*
%TD*%
%TO.P,S40,1*%
%TO.N,P7*%
X284738794Y-152429333D03*
%TO.P,S40,2*%
%TO.N,mirror_c4_r0*%
X296136409Y-149541970D03*
%TD*%
D18*
%TO.P,S41,1*%
%TO.N,P8*%
X265996755Y-165306969D03*
%TO.P,S41,2*%
%TO.N,mirror_c5_r0*%
X276258701Y-159568070D03*
%TD*%
D19*
%TO.P,S42,1*%
%TO.N,P9*%
X254538619Y-173938020D03*
%TO.P,S42,2*%
%TO.N,mirror_c6_r0*%
X262737957Y-182364962D03*
%TD*%
D20*
%TO.P,S43,1*%
%TO.N,P4*%
X86390489Y-125303019D03*
%TO.P,S43,2*%
%TO.N,c1_r3*%
X73246566Y-124410716D03*
%TD*%
%TO.P,S44,1*%
%TO.N,P4*%
X91308051Y-106950428D03*
%TO.P,S44,2*%
%TO.N,c1_r2*%
X78164128Y-106058125D03*
%TD*%
%TO.P,S45,1*%
%TO.N,P4*%
X96225612Y-88597837D03*
%TO.P,S45,2*%
%TO.N,c1_r1*%
X83081689Y-87705534D03*
%TD*%
D21*
%TO.P,S46,1*%
%TO.N,P5*%
X107039634Y-124833278D03*
%TO.P,S46,2*%
%TO.N,c2_r3*%
X94023496Y-122798803D03*
%TD*%
%TO.P,S47,1*%
%TO.N,P5*%
X113538016Y-106979118D03*
%TO.P,S47,2*%
%TO.N,c2_r2*%
X100521878Y-104944643D03*
%TD*%
%TO.P,S48,1*%
%TO.N,P5*%
X120036399Y-89124959D03*
%TO.P,S48,2*%
%TO.N,c2_r1*%
X107020261Y-87090484D03*
%TD*%
D22*
%TO.P,S49,1*%
%TO.N,P6*%
X126475299Y-129184228D03*
%TO.P,S49,2*%
%TO.N,c3_r3*%
X113686008Y-126023064D03*
%TD*%
%TO.P,S50,1*%
%TO.N,P6*%
X134505046Y-111964380D03*
%TO.P,S50,2*%
%TO.N,c3_r2*%
X121715755Y-108803216D03*
%TD*%
%TO.P,S51,1*%
%TO.N,P6*%
X142534793Y-94744532D03*
%TO.P,S51,2*%
%TO.N,c3_r1*%
X129745502Y-91583368D03*
%TD*%
%TO.P,S52,1*%
%TO.N,P7*%
X144698865Y-135061494D03*
%TO.P,S52,2*%
%TO.N,c4_r3*%
X131909574Y-131900330D03*
%TD*%
%TO.P,S53,1*%
%TO.N,P7*%
X152728612Y-117841646D03*
%TO.P,S53,2*%
%TO.N,c4_r2*%
X139939321Y-114680482D03*
%TD*%
%TO.P,S54,1*%
%TO.N,P7*%
X160758359Y-100621798D03*
%TO.P,S54,2*%
%TO.N,c4_r1*%
X147969068Y-97460634D03*
%TD*%
%TO.P,S55,1*%
%TO.N,P8*%
X159911276Y-147396203D03*
%TO.P,S55,2*%
%TO.N,c5_r3*%
X147121985Y-144235039D03*
%TD*%
%TO.P,S56,1*%
%TO.N,P8*%
X167941023Y-130176355D03*
%TO.P,S56,2*%
%TO.N,c5_r2*%
X155151732Y-127015191D03*
%TD*%
%TO.P,S57,1*%
%TO.N,P8*%
X175970770Y-112956507D03*
%TO.P,S57,2*%
%TO.N,c5_r1*%
X163181479Y-109795343D03*
%TD*%
%TO.P,S58,1*%
%TO.N,P9*%
X176127406Y-157578431D03*
%TO.P,S58,2*%
%TO.N,c6_r3*%
X163338115Y-154417267D03*
%TD*%
%TO.P,S59,1*%
%TO.N,P9*%
X184157153Y-140358583D03*
%TO.P,S59,2*%
%TO.N,c6_r2*%
X171367862Y-137197419D03*
%TD*%
%TO.P,S60,1*%
%TO.N,P9*%
X192186900Y-123138735D03*
%TO.P,S60,2*%
%TO.N,c6_r1*%
X179397609Y-119977571D03*
%TD*%
%TO.P,S61,1*%
%TO.N,P7*%
X142743333Y-161734062D03*
%TO.P,S61,2*%
%TO.N,c4_r0*%
X129954042Y-158572898D03*
%TD*%
D23*
%TO.P,S62,1*%
%TO.N,P8*%
X159081731Y-174259707D03*
%TO.P,S62,2*%
%TO.N,c5_r0*%
X147546394Y-167896145D03*
%TD*%
D24*
%TO.P,S63,1*%
%TO.N,P9*%
X181069138Y-178707294D03*
%TO.P,S63,2*%
%TO.N,c6_r0*%
X171936844Y-188202563D03*
%TD*%
D25*
%TO.P,S64,1*%
%TO.N,P4*%
X354913804Y-121635553D03*
%TO.P,S64,2*%
%TO.N,mirror_c1_r3*%
X343084681Y-127434758D03*
%TD*%
%TO.P,S65,1*%
%TO.N,P4*%
X349996242Y-103282962D03*
%TO.P,S65,2*%
%TO.N,mirror_c1_r2*%
X338167119Y-109082167D03*
%TD*%
%TO.P,S66,1*%
%TO.N,P4*%
X345078681Y-84930371D03*
%TO.P,S66,2*%
%TO.N,mirror_c1_r1*%
X333249558Y-90729576D03*
%TD*%
D26*
%TO.P,S67,1*%
%TO.N,P5*%
X333892934Y-119986853D03*
%TO.P,S67,2*%
%TO.N,mirror_c2_r3*%
X322614259Y-126794966D03*
%TD*%
%TO.P,S68,1*%
%TO.N,P5*%
X327394552Y-102132693D03*
%TO.P,S68,2*%
%TO.N,mirror_c2_r2*%
X316115877Y-108940806D03*
%TD*%
%TO.P,S69,1*%
%TO.N,P5*%
X320896169Y-84278534D03*
%TO.P,S69,2*%
%TO.N,mirror_c2_r1*%
X309617494Y-91086647D03*
%TD*%
D27*
%TO.P,S70,1*%
%TO.N,P6*%
X313984206Y-123195727D03*
%TO.P,S70,2*%
%TO.N,mirror_c3_r3*%
X303341816Y-130960935D03*
%TD*%
%TO.P,S71,1*%
%TO.N,P6*%
X305954459Y-105975879D03*
%TO.P,S71,2*%
%TO.N,mirror_c3_r2*%
X295312069Y-113741087D03*
%TD*%
%TO.P,S72,1*%
%TO.N,P6*%
X297924712Y-88756031D03*
%TO.P,S72,2*%
%TO.N,mirror_c3_r1*%
X287282322Y-96521239D03*
%TD*%
%TO.P,S73,1*%
%TO.N,P7*%
X295760640Y-129072993D03*
%TO.P,S73,2*%
%TO.N,mirror_c4_r3*%
X285118250Y-136838201D03*
%TD*%
%TO.P,S74,1*%
%TO.N,P7*%
X287730893Y-111853145D03*
%TO.P,S74,2*%
%TO.N,mirror_c4_r2*%
X277088503Y-119618353D03*
%TD*%
%TO.P,S75,1*%
%TO.N,P7*%
X279701146Y-94633297D03*
%TO.P,S75,2*%
%TO.N,mirror_c4_r1*%
X269058756Y-102398505D03*
%TD*%
%TO.P,S76,1*%
%TO.N,P8*%
X280548229Y-141407702D03*
%TO.P,S76,2*%
%TO.N,mirror_c5_r3*%
X269905839Y-149172910D03*
%TD*%
%TO.P,S77,1*%
%TO.N,P8*%
X272518482Y-124187854D03*
%TO.P,S77,2*%
%TO.N,mirror_c5_r2*%
X261876092Y-131953062D03*
%TD*%
%TO.P,S78,1*%
%TO.N,P8*%
X264488734Y-106968006D03*
%TO.P,S78,2*%
%TO.N,mirror_c5_r1*%
X253846344Y-114733214D03*
%TD*%
%TO.P,S79,1*%
%TO.N,P9*%
X264332099Y-151589930D03*
%TO.P,S79,2*%
%TO.N,mirror_c6_r3*%
X253689709Y-159355138D03*
%TD*%
%TO.P,S80,1*%
%TO.N,P9*%
X256302352Y-134370082D03*
%TO.P,S80,2*%
%TO.N,mirror_c6_r2*%
X245659962Y-142135290D03*
%TD*%
%TO.P,S81,1*%
%TO.N,P9*%
X248272605Y-117150234D03*
%TO.P,S81,2*%
%TO.N,mirror_c6_r1*%
X237630215Y-124915442D03*
%TD*%
%TO.P,S82,1*%
%TO.N,P7*%
X297716172Y-155745561D03*
%TO.P,S82,2*%
%TO.N,mirror_c4_r0*%
X287073782Y-163510769D03*
%TD*%
D28*
%TO.P,S83,1*%
%TO.N,P8*%
X279390242Y-165151407D03*
%TO.P,S83,2*%
%TO.N,mirror_c5_r0*%
X271120266Y-175406475D03*
%TD*%
D29*
%TO.P,S84,1*%
%TO.N,P9*%
X258155370Y-186834872D03*
%TO.P,S84,2*%
%TO.N,mirror_c6_r0*%
X246109307Y-181500896D03*
%TD*%
D30*
%TO.P,D1,2*%
%TO.N,c1_r3*%
X79468711Y-130136217D03*
%TO.P,D1,1*%
%TO.N,P10*%
X76281155Y-129282115D03*
D31*
X76281155Y-129282115D03*
%TO.N,c1_r3*%
X79468711Y-130136217D03*
%TD*%
D30*
%TO.P,D2,2*%
%TO.N,c1_r2*%
X84386273Y-111783626D03*
%TO.P,D2,1*%
%TO.N,P14*%
X81198717Y-110929524D03*
D31*
X81198717Y-110929524D03*
%TO.N,c1_r2*%
X84386273Y-111783626D03*
%TD*%
D30*
%TO.P,D3,2*%
%TO.N,c1_r1*%
X89303835Y-93431036D03*
%TO.P,D3,1*%
%TO.N,P15*%
X86116279Y-92576934D03*
D31*
X86116279Y-92576934D03*
%TO.N,c1_r1*%
X89303835Y-93431036D03*
%TD*%
D32*
%TO.P,D4,2*%
%TO.N,c2_r3*%
X99722954Y-129044813D03*
%TO.P,D4,1*%
%TO.N,P10*%
X96621968Y-127916147D03*
D31*
X96621968Y-127916147D03*
%TO.N,c2_r3*%
X99722954Y-129044813D03*
%TD*%
D32*
%TO.P,D5,2*%
%TO.N,c2_r2*%
X106221337Y-111190653D03*
%TO.P,D5,1*%
%TO.N,P14*%
X103120351Y-110061987D03*
D31*
X103120351Y-110061987D03*
%TO.N,c2_r2*%
X106221337Y-111190653D03*
%TD*%
D32*
%TO.P,D6,2*%
%TO.N,c2_r1*%
X112719720Y-93336493D03*
%TO.P,D6,1*%
%TO.N,P15*%
X109618734Y-92207827D03*
D31*
X109618734Y-92207827D03*
%TO.N,c2_r1*%
X112719720Y-93336493D03*
%TD*%
D33*
%TO.P,D7,2*%
%TO.N,c3_r3*%
X118819402Y-132742046D03*
%TO.P,D7,1*%
%TO.N,P10*%
X115828586Y-131347406D03*
D31*
X115828586Y-131347406D03*
%TO.N,c3_r3*%
X118819402Y-132742046D03*
%TD*%
D33*
%TO.P,D8,2*%
%TO.N,c3_r2*%
X126849149Y-115522198D03*
%TO.P,D8,1*%
%TO.N,P14*%
X123858333Y-114127558D03*
D31*
X123858333Y-114127558D03*
%TO.N,c3_r2*%
X126849149Y-115522198D03*
%TD*%
D33*
%TO.P,D9,2*%
%TO.N,c3_r1*%
X134878896Y-98302350D03*
%TO.P,D9,1*%
%TO.N,P15*%
X131888080Y-96907710D03*
D31*
X131888080Y-96907710D03*
%TO.N,c3_r1*%
X134878896Y-98302350D03*
%TD*%
D33*
%TO.P,D10,2*%
%TO.N,c4_r3*%
X137042969Y-138619312D03*
%TO.P,D10,1*%
%TO.N,P10*%
X134052153Y-137224672D03*
D31*
X134052153Y-137224672D03*
%TO.N,c4_r3*%
X137042969Y-138619312D03*
%TD*%
D33*
%TO.P,D11,2*%
%TO.N,c4_r2*%
X145072716Y-121399464D03*
%TO.P,D11,1*%
%TO.N,P14*%
X142081900Y-120004824D03*
D31*
X142081900Y-120004824D03*
%TO.N,c4_r2*%
X145072716Y-121399464D03*
%TD*%
D33*
%TO.P,D12,2*%
%TO.N,c4_r1*%
X153102463Y-104179616D03*
%TO.P,D12,1*%
%TO.N,P15*%
X150111647Y-102784976D03*
D31*
X150111647Y-102784976D03*
%TO.N,c4_r1*%
X153102463Y-104179616D03*
%TD*%
D33*
%TO.P,D13,2*%
%TO.N,c5_r3*%
X152255380Y-150954021D03*
%TO.P,D13,1*%
%TO.N,P10*%
X149264564Y-149559381D03*
D31*
X149264564Y-149559381D03*
%TO.N,c5_r3*%
X152255380Y-150954021D03*
%TD*%
D33*
%TO.P,D14,2*%
%TO.N,c5_r2*%
X160285127Y-133734173D03*
%TO.P,D14,1*%
%TO.N,P14*%
X157294311Y-132339533D03*
D31*
X157294311Y-132339533D03*
%TO.N,c5_r2*%
X160285127Y-133734173D03*
%TD*%
D33*
%TO.P,D15,2*%
%TO.N,c5_r1*%
X168314874Y-116514325D03*
%TO.P,D15,1*%
%TO.N,P15*%
X165324058Y-115119685D03*
D31*
X165324058Y-115119685D03*
%TO.N,c5_r1*%
X168314874Y-116514325D03*
%TD*%
D33*
%TO.P,D16,2*%
%TO.N,c6_r3*%
X168471509Y-161136249D03*
%TO.P,D16,1*%
%TO.N,P10*%
X165480693Y-159741609D03*
D31*
X165480693Y-159741609D03*
%TO.N,c6_r3*%
X168471509Y-161136249D03*
%TD*%
D33*
%TO.P,D17,2*%
%TO.N,c6_r2*%
X176501256Y-143916401D03*
%TO.P,D17,1*%
%TO.N,P14*%
X173510440Y-142521761D03*
D31*
X173510440Y-142521761D03*
%TO.N,c6_r2*%
X176501256Y-143916401D03*
%TD*%
D33*
%TO.P,D18,2*%
%TO.N,c6_r1*%
X184531004Y-126696553D03*
%TO.P,D18,1*%
%TO.N,P15*%
X181540188Y-125301913D03*
D31*
X181540188Y-125301913D03*
%TO.N,c6_r1*%
X184531004Y-126696553D03*
%TD*%
D33*
%TO.P,D19,2*%
%TO.N,c4_r0*%
X135087436Y-165291880D03*
%TO.P,D19,1*%
%TO.N,P16*%
X132096620Y-163897240D03*
D31*
X132096620Y-163897240D03*
%TO.N,c4_r0*%
X135087436Y-165291880D03*
%TD*%
D34*
%TO.P,D20,2*%
%TO.N,c5_r0*%
X150765871Y-175714804D03*
%TO.P,D20,1*%
%TO.N,P16*%
X148237925Y-173593604D03*
D31*
X148237925Y-173593604D03*
%TO.N,c5_r0*%
X150765871Y-175714804D03*
%TD*%
D35*
%TO.P,D21,2*%
%TO.N,c6_r0*%
X180322351Y-187116404D03*
%TO.P,D21,1*%
%TO.N,P16*%
X177619149Y-189009206D03*
D31*
X177619149Y-189009206D03*
%TO.N,c6_r0*%
X180322351Y-187116404D03*
%TD*%
D36*
%TO.P,D22,2*%
%TO.N,mirror_c1_r3*%
X351335969Y-129282115D03*
%TO.P,D22,1*%
%TO.N,P18*%
X348148413Y-130136217D03*
D31*
X348148413Y-130136217D03*
%TO.N,mirror_c1_r3*%
X351335969Y-129282115D03*
%TD*%
D36*
%TO.P,D23,2*%
%TO.N,mirror_c1_r2*%
X346418407Y-110929524D03*
%TO.P,D23,1*%
%TO.N,P19*%
X343230851Y-111783626D03*
D31*
X343230851Y-111783626D03*
%TO.N,mirror_c1_r2*%
X346418407Y-110929524D03*
%TD*%
D36*
%TO.P,D24,2*%
%TO.N,mirror_c1_r1*%
X341500845Y-92576934D03*
%TO.P,D24,1*%
%TO.N,P20*%
X338313289Y-93431036D03*
D31*
X338313289Y-93431036D03*
%TO.N,mirror_c1_r1*%
X341500845Y-92576934D03*
%TD*%
D37*
%TO.P,D25,2*%
%TO.N,mirror_c2_r3*%
X330995156Y-127916147D03*
%TO.P,D25,1*%
%TO.N,P18*%
X327894170Y-129044813D03*
D31*
X327894170Y-129044813D03*
%TO.N,mirror_c2_r3*%
X330995156Y-127916147D03*
%TD*%
D37*
%TO.P,D26,2*%
%TO.N,mirror_c2_r2*%
X324496773Y-110061987D03*
%TO.P,D26,1*%
%TO.N,P19*%
X321395787Y-111190653D03*
D31*
X321395787Y-111190653D03*
%TO.N,mirror_c2_r2*%
X324496773Y-110061987D03*
%TD*%
D37*
%TO.P,D27,2*%
%TO.N,mirror_c2_r1*%
X317998390Y-92207827D03*
%TO.P,D27,1*%
%TO.N,P20*%
X314897404Y-93336493D03*
D31*
X314897404Y-93336493D03*
%TO.N,mirror_c2_r1*%
X317998390Y-92207827D03*
%TD*%
D38*
%TO.P,D28,2*%
%TO.N,mirror_c3_r3*%
X311788537Y-131347406D03*
%TO.P,D28,1*%
%TO.N,P18*%
X308797721Y-132742046D03*
D31*
X308797721Y-132742046D03*
%TO.N,mirror_c3_r3*%
X311788537Y-131347406D03*
%TD*%
D38*
%TO.P,D29,2*%
%TO.N,mirror_c3_r2*%
X303758790Y-114127558D03*
%TO.P,D29,1*%
%TO.N,P19*%
X300767974Y-115522198D03*
D31*
X300767974Y-115522198D03*
%TO.N,mirror_c3_r2*%
X303758790Y-114127558D03*
%TD*%
D38*
%TO.P,D30,2*%
%TO.N,mirror_c3_r1*%
X295729043Y-96907710D03*
%TO.P,D30,1*%
%TO.N,P20*%
X292738227Y-98302350D03*
D31*
X292738227Y-98302350D03*
%TO.N,mirror_c3_r1*%
X295729043Y-96907710D03*
%TD*%
D38*
%TO.P,D31,2*%
%TO.N,mirror_c4_r3*%
X293564971Y-137224672D03*
%TO.P,D31,1*%
%TO.N,P18*%
X290574155Y-138619312D03*
D31*
X290574155Y-138619312D03*
%TO.N,mirror_c4_r3*%
X293564971Y-137224672D03*
%TD*%
D38*
%TO.P,D32,2*%
%TO.N,mirror_c4_r2*%
X285535224Y-120004824D03*
%TO.P,D32,1*%
%TO.N,P19*%
X282544408Y-121399464D03*
D31*
X282544408Y-121399464D03*
%TO.N,mirror_c4_r2*%
X285535224Y-120004824D03*
%TD*%
D38*
%TO.P,D33,2*%
%TO.N,mirror_c4_r1*%
X277505477Y-102784976D03*
%TO.P,D33,1*%
%TO.N,P20*%
X274514661Y-104179616D03*
D31*
X274514661Y-104179616D03*
%TO.N,mirror_c4_r1*%
X277505477Y-102784976D03*
%TD*%
D38*
%TO.P,D34,2*%
%TO.N,mirror_c5_r3*%
X278352560Y-149559381D03*
%TO.P,D34,1*%
%TO.N,P18*%
X275361744Y-150954021D03*
D31*
X275361744Y-150954021D03*
%TO.N,mirror_c5_r3*%
X278352560Y-149559381D03*
%TD*%
D38*
%TO.P,D35,2*%
%TO.N,mirror_c5_r2*%
X270322813Y-132339533D03*
%TO.P,D35,1*%
%TO.N,P19*%
X267331997Y-133734173D03*
D31*
X267331997Y-133734173D03*
%TO.N,mirror_c5_r2*%
X270322813Y-132339533D03*
%TD*%
D38*
%TO.P,D36,2*%
%TO.N,mirror_c5_r1*%
X262293066Y-115119685D03*
%TO.P,D36,1*%
%TO.N,P20*%
X259302250Y-116514325D03*
D31*
X259302250Y-116514325D03*
%TO.N,mirror_c5_r1*%
X262293066Y-115119685D03*
%TD*%
D38*
%TO.P,D37,2*%
%TO.N,mirror_c6_r3*%
X262136430Y-159741609D03*
%TO.P,D37,1*%
%TO.N,P18*%
X259145614Y-161136249D03*
D31*
X259145614Y-161136249D03*
%TO.N,mirror_c6_r3*%
X262136430Y-159741609D03*
%TD*%
D38*
%TO.P,D38,2*%
%TO.N,mirror_c6_r2*%
X254106683Y-142521761D03*
%TO.P,D38,1*%
%TO.N,P19*%
X251115867Y-143916401D03*
D31*
X251115867Y-143916401D03*
%TO.N,mirror_c6_r2*%
X254106683Y-142521761D03*
%TD*%
D38*
%TO.P,D39,2*%
%TO.N,mirror_c6_r1*%
X246076936Y-125301913D03*
%TO.P,D39,1*%
%TO.N,P20*%
X243086120Y-126696553D03*
D31*
X243086120Y-126696553D03*
%TO.N,mirror_c6_r1*%
X246076936Y-125301913D03*
%TD*%
D38*
%TO.P,D40,2*%
%TO.N,mirror_c4_r0*%
X295520504Y-163897240D03*
%TO.P,D40,1*%
%TO.N,P21*%
X292529688Y-165291880D03*
D31*
X292529688Y-165291880D03*
%TO.N,mirror_c4_r0*%
X295520504Y-163897240D03*
%TD*%
D39*
%TO.P,D41,2*%
%TO.N,mirror_c5_r0*%
X279379199Y-173593604D03*
%TO.P,D41,1*%
%TO.N,P21*%
X276851253Y-175714804D03*
D31*
X276851253Y-175714804D03*
%TO.N,mirror_c5_r0*%
X279379199Y-173593604D03*
%TD*%
D40*
%TO.P,D42,2*%
%TO.N,mirror_c6_r0*%
X249997975Y-189009206D03*
%TO.P,D42,1*%
%TO.N,P21*%
X247294773Y-187116404D03*
D31*
X247294773Y-187116404D03*
%TO.N,mirror_c6_r0*%
X249997975Y-189009206D03*
%TD*%
D41*
%TO.P,MCU1,24*%
%TO.N,P1*%
X205851907Y-115465098D03*
%TO.P,MCU1,1*%
%TO.N,RAW*%
X221091907Y-115465098D03*
%TO.P,MCU1,23*%
%TO.N,P0*%
X205851907Y-118005098D03*
%TO.P,MCU1,2*%
%TO.N,GND*%
X221091907Y-118005098D03*
%TO.P,MCU1,22*%
X205851907Y-120545098D03*
%TO.P,MCU1,3*%
%TO.N,RST*%
X221091907Y-120545098D03*
%TO.P,MCU1,21*%
%TO.N,GND*%
X205851907Y-123085098D03*
%TO.P,MCU1,4*%
%TO.N,VCC*%
X221091907Y-123085098D03*
%TO.P,MCU1,20*%
%TO.N,P2*%
X205851907Y-125625098D03*
%TO.P,MCU1,5*%
%TO.N,P21*%
X221091907Y-125625098D03*
%TO.P,MCU1,19*%
%TO.N,P3*%
X205851907Y-128165098D03*
%TO.P,MCU1,6*%
%TO.N,P20*%
X221091907Y-128165098D03*
%TO.P,MCU1,18*%
%TO.N,P4*%
X205851907Y-130705098D03*
%TO.P,MCU1,7*%
%TO.N,P19*%
X221091907Y-130705098D03*
%TO.P,MCU1,17*%
%TO.N,P5*%
X205851907Y-133245098D03*
%TO.P,MCU1,8*%
%TO.N,P18*%
X221091907Y-133245098D03*
%TO.P,MCU1,16*%
%TO.N,P6*%
X205851907Y-135785098D03*
%TO.P,MCU1,9*%
%TO.N,P15*%
X221091907Y-135785098D03*
%TO.P,MCU1,15*%
%TO.N,P7*%
X205851907Y-138325098D03*
%TO.P,MCU1,10*%
%TO.N,P14*%
X221091907Y-138325098D03*
%TO.P,MCU1,14*%
%TO.N,P8*%
X205851907Y-140865098D03*
%TO.P,MCU1,11*%
%TO.N,P16*%
X221091907Y-140865098D03*
%TO.P,MCU1,13*%
%TO.N,P9*%
X205851907Y-143405098D03*
%TO.P,MCU1,12*%
%TO.N,P10*%
X221091907Y-143405098D03*
%TD*%
D42*
%TO.P,JST1,1*%
%TO.N,GND*%
X225070931Y-149248739D03*
D43*
%TO.P,JST1,2*%
%TO.N,BAT_P*%
X225070931Y-147248739D03*
%TD*%
D44*
%TO.N,P8*%
X255750000Y-124250000D03*
X232000000Y-134750000D03*
X213549000Y-141500000D03*
X193500000Y-113750000D03*
%TO.N,P7*%
X243000000Y-109250000D03*
X199250000Y-131750000D03*
%TO.N,P5*%
X213250000Y-116750000D03*
X199250000Y-116750000D03*
%TO.N,P2*%
X210000000Y-153500000D03*
%TO.N,P1*%
X209250000Y-153500000D03*
%TO.N,P3*%
X208500000Y-153500000D03*
%TO.N,P0*%
X207750000Y-153500000D03*
%TO.N,VCC*%
X218000000Y-154000000D03*
%TO.N,GND*%
X216000000Y-153250000D03*
%TO.N,BAT_P*%
X214750000Y-139750000D03*
%TD*%
D45*
%TO.N,P9*%
X203250000Y-146007005D02*
X205851907Y-143405098D01*
X203250000Y-173938020D02*
X203250000Y-146007005D01*
X203250000Y-173938020D02*
X254538619Y-173938020D01*
X181069138Y-178707294D02*
X185838412Y-173938020D01*
X185838412Y-173938020D02*
X203250000Y-173938020D01*
%TO.N,P8*%
X255750000Y-122381710D02*
X257260084Y-120871626D01*
X255750000Y-124250000D02*
X255750000Y-122381710D01*
X230500000Y-135750000D02*
X231500000Y-134750000D01*
X231500000Y-134750000D02*
X232000000Y-134750000D01*
X230500000Y-146720608D02*
X230500000Y-135750000D01*
X222619608Y-154601000D02*
X230500000Y-146720608D01*
X215933957Y-154601000D02*
X222619608Y-154601000D01*
X213549000Y-152216043D02*
X215933957Y-154601000D01*
X213549000Y-141500000D02*
X213549000Y-152216043D01*
X189500000Y-110000000D02*
X189750000Y-110000000D01*
X185158550Y-105658550D02*
X189500000Y-110000000D01*
X179024350Y-105658550D02*
X185158550Y-105658550D01*
X189750000Y-110000000D02*
X193500000Y-113750000D01*
X177865800Y-104500000D02*
X179024350Y-105658550D01*
X173606490Y-106143510D02*
X175250000Y-104500000D01*
X175250000Y-104500000D02*
X177865800Y-104500000D01*
X173606490Y-106143510D02*
X176911379Y-109448399D01*
%TO.N,P7*%
X265920812Y-98188818D02*
X267983855Y-100251861D01*
X243000000Y-109250000D02*
X254061182Y-98188818D01*
X254061182Y-98188818D02*
X265920812Y-98188818D01*
X268501861Y-100251861D02*
X270577195Y-98176526D01*
X267983855Y-100251861D02*
X268501861Y-100251861D01*
X198099000Y-130599000D02*
X199250000Y-131750000D01*
X198099000Y-116750000D02*
X198099000Y-130599000D01*
X198000000Y-116750000D02*
X198099000Y-116750000D01*
X178750000Y-104000000D02*
X185250000Y-104000000D01*
X165216450Y-91283550D02*
X178269857Y-104336957D01*
X185250000Y-104000000D02*
X198000000Y-116750000D01*
X164500000Y-92000000D02*
X165216450Y-91283550D01*
X178413043Y-104336957D02*
X178750000Y-104000000D01*
X160250000Y-92000000D02*
X164500000Y-92000000D01*
X158417639Y-93832361D02*
X160250000Y-92000000D01*
X178269857Y-104336957D02*
X178413043Y-104336957D01*
X158417639Y-93832361D02*
X161698968Y-97113690D01*
%TO.N,P6*%
X205375147Y-134396098D02*
X205375147Y-135308338D01*
X205375147Y-135308338D02*
X205851907Y-135785098D01*
X284144378Y-91670621D02*
X284144378Y-94394378D01*
X277367907Y-86401102D02*
X278874859Y-86401102D01*
X275806229Y-87962780D02*
X277367907Y-86401102D01*
X266537220Y-87962780D02*
X275806229Y-87962780D01*
X262750000Y-91750000D02*
X266537220Y-87962780D01*
X262750000Y-94250000D02*
X262750000Y-91750000D01*
X262000000Y-95000000D02*
X262750000Y-94250000D01*
X234651068Y-110598932D02*
X239151068Y-110598932D01*
X228633902Y-116616098D02*
X234651068Y-110598932D01*
X220633902Y-116616098D02*
X228633902Y-116616098D01*
X218262569Y-118987431D02*
X220633902Y-116616098D01*
X206328667Y-114314098D02*
X211002000Y-118987431D01*
X205375147Y-114314098D02*
X206328667Y-114314098D01*
X204299907Y-115389338D02*
X205375147Y-114314098D01*
X254000000Y-95000000D02*
X262000000Y-95000000D01*
X204299907Y-128240858D02*
X204299907Y-115389338D01*
X205375147Y-129316098D02*
X204299907Y-128240858D01*
X206328667Y-129316098D02*
X205375147Y-129316098D01*
X207002907Y-129990338D02*
X206328667Y-129316098D01*
X207002907Y-133721858D02*
X207002907Y-129990338D01*
X254000000Y-95750000D02*
X254000000Y-95000000D01*
X206328667Y-134396098D02*
X207002907Y-133721858D01*
X205375147Y-134396098D02*
X206328667Y-134396098D01*
X198500000Y-127520951D02*
X205375147Y-134396098D01*
X198500000Y-116567100D02*
X198500000Y-127520951D01*
X239151068Y-110598932D02*
X254000000Y-95750000D01*
X185750000Y-103817100D02*
X198500000Y-116567100D01*
X185750000Y-103750000D02*
X185750000Y-103817100D01*
X185500000Y-103500000D02*
X185750000Y-103750000D01*
X278874859Y-86401102D02*
X284144378Y-91670621D01*
X178000000Y-103500000D02*
X185500000Y-103500000D01*
X162250000Y-87750000D02*
X178000000Y-103500000D01*
X211002000Y-118987431D02*
X218262569Y-118987431D01*
X284144378Y-94394378D02*
X285425010Y-95675010D01*
X157250000Y-87250000D02*
X157750000Y-87750000D01*
X156750000Y-87250000D02*
X157250000Y-87250000D01*
X152250000Y-82750000D02*
X156750000Y-87250000D01*
X144750000Y-82750000D02*
X152250000Y-82750000D01*
X139869489Y-87630511D02*
X144750000Y-82750000D01*
X157750000Y-87750000D02*
X162250000Y-87750000D01*
X285297507Y-95802514D02*
X285425010Y-95675010D01*
X139869489Y-87630511D02*
X143475402Y-91236424D01*
%TO.N,P5*%
X199250000Y-126643191D02*
X205851907Y-133245098D01*
X199250000Y-116750000D02*
X199250000Y-126643191D01*
X294250000Y-80500000D02*
X294906128Y-79843872D01*
X280250000Y-80500000D02*
X294250000Y-80500000D01*
X273250000Y-87500000D02*
X280250000Y-80500000D01*
X266000000Y-87500000D02*
X273250000Y-87500000D01*
X262000000Y-91500000D02*
X266000000Y-87500000D01*
X262000000Y-92750000D02*
X262000000Y-91500000D01*
X261000000Y-93750000D02*
X262000000Y-92750000D01*
X253750000Y-93750000D02*
X261000000Y-93750000D01*
X294906128Y-79843872D02*
X308257203Y-79843872D01*
X253750000Y-94250000D02*
X253750000Y-93750000D01*
X239250000Y-108750000D02*
X253750000Y-94250000D01*
X239250000Y-109500000D02*
X239250000Y-108750000D01*
X234500000Y-109500000D02*
X239250000Y-109500000D01*
X230349000Y-113651000D02*
X234500000Y-109500000D01*
X216349000Y-113651000D02*
X230349000Y-113651000D01*
X213250000Y-116750000D02*
X216349000Y-113651000D01*
X198500000Y-116000000D02*
X199250000Y-116750000D01*
X198500000Y-115500000D02*
X198500000Y-116000000D01*
X185750000Y-102750000D02*
X198500000Y-115500000D01*
X178500000Y-102750000D02*
X185750000Y-102750000D01*
X178250000Y-103000000D02*
X178500000Y-102750000D01*
X162500000Y-87000000D02*
X178250000Y-102750000D01*
X157682900Y-87000000D02*
X162500000Y-87000000D01*
X152682900Y-82000000D02*
X157682900Y-87000000D01*
X145500000Y-82000000D02*
X152682900Y-82000000D01*
X136750000Y-78000000D02*
X141682900Y-78000000D01*
X141682900Y-78000000D02*
X141716450Y-78033550D01*
X135250000Y-76500000D02*
X136750000Y-78000000D01*
X141716450Y-78216450D02*
X145500000Y-82000000D01*
X141716450Y-78033550D02*
X141716450Y-78216450D01*
X122500000Y-76500000D02*
X135250000Y-76500000D01*
X178250000Y-102750000D02*
X178250000Y-103000000D01*
X116904275Y-82095725D02*
X122500000Y-76500000D01*
X116904275Y-82095725D02*
X119703588Y-84895038D01*
%TO.N,P4*%
X198250000Y-114250000D02*
X198500000Y-114250000D01*
X186000000Y-102000000D02*
X198250000Y-114250000D01*
X178250000Y-102000000D02*
X186000000Y-102000000D01*
X162770316Y-86520316D02*
X178250000Y-102000000D01*
X141754589Y-77250000D02*
X141754589Y-77504589D01*
X145250000Y-81000000D02*
X152250000Y-81000000D01*
X137500000Y-77250000D02*
X141754589Y-77250000D01*
X152250000Y-81000000D02*
X157770316Y-86520316D01*
X135886413Y-75636413D02*
X137500000Y-77250000D01*
X141754589Y-77504589D02*
X145250000Y-81000000D01*
X157770316Y-86520316D02*
X162770316Y-86520316D01*
X132250000Y-75636413D02*
X135886413Y-75636413D01*
X203500000Y-118250000D02*
X203500000Y-128353191D01*
X202500000Y-118250000D02*
X203500000Y-118250000D01*
X198500000Y-114250000D02*
X202500000Y-118250000D01*
X203500000Y-128353191D02*
X205851907Y-130705098D01*
%TO.N,P0*%
X210601000Y-153748943D02*
X210601000Y-122754191D01*
X208251057Y-154101000D02*
X210248943Y-154101000D01*
X207750000Y-153599943D02*
X208251057Y-154101000D01*
X210601000Y-122754191D02*
X205851907Y-118005098D01*
X207750000Y-153500000D02*
X207750000Y-153599943D01*
X210248943Y-154101000D02*
X210601000Y-153748943D01*
%TO.N,P4*%
X90864647Y-102677044D02*
X92328672Y-104141069D01*
X92328672Y-104141069D02*
X92328672Y-105929807D01*
%TO.N,P8*%
X156602778Y-161096710D02*
X145137170Y-149631102D01*
X145137170Y-149631102D02*
X145137170Y-143495182D01*
X156602778Y-161096710D02*
X156602778Y-165043672D01*
X156602778Y-165043672D02*
X159676663Y-168117557D01*
%TO.N,c5_r0*%
X159601876Y-176337817D02*
X151388884Y-176337817D01*
X164036458Y-171903235D02*
X159601876Y-176337817D01*
%TO.N,c6_r1*%
X191353754Y-126696553D02*
X195923675Y-122126632D01*
X184531004Y-126696553D02*
X191353754Y-126696553D01*
X195923675Y-122126632D02*
X195923675Y-117940975D01*
%TO.N,c5_r0*%
X147546394Y-171575629D02*
X150765871Y-174795106D01*
X147546394Y-167896145D02*
X147546394Y-171575629D01*
%TO.N,P9*%
X178355834Y-128285705D02*
X177377601Y-127307472D01*
X177377601Y-127307472D02*
X177377601Y-119272907D01*
%TO.N,P8*%
X159676663Y-168117557D02*
X159676663Y-169631676D01*
%TO.N,P9*%
X186385581Y-112888699D02*
X193127509Y-119630627D01*
X186385581Y-111065857D02*
X186385581Y-112888699D01*
X193127509Y-119630627D02*
X193127509Y-122198126D01*
%TO.N,c6_r2*%
X185333599Y-143916401D02*
X187893928Y-141356072D01*
X176501256Y-143916401D02*
X185333599Y-143916401D01*
X187893928Y-141356072D02*
X187893928Y-135160823D01*
%TO.N,P9*%
X184157153Y-140358583D02*
X185097762Y-139417974D01*
X185097762Y-139417974D02*
X185097762Y-136566449D01*
X184157153Y-140358583D02*
X183216544Y-141299192D01*
X183216544Y-141299192D02*
X179814928Y-141299192D01*
%TO.N,P8*%
X146370036Y-142262316D02*
X149364114Y-142262316D01*
X145137170Y-143495182D02*
X146370036Y-142262316D01*
X149364114Y-142262316D02*
X156754458Y-149652660D01*
X160801231Y-172540207D02*
X159081731Y-174259707D01*
X160801231Y-170756244D02*
X160801231Y-172540207D01*
%TO.N,P9*%
X177377601Y-119272907D02*
X178645660Y-118004848D01*
%TO.N,c5_r3*%
X163648051Y-142198443D02*
X163648051Y-146384100D01*
X163648051Y-146384100D02*
X159078130Y-150954021D01*
X147121985Y-144235039D02*
X147121985Y-145820626D01*
X147121985Y-145820626D02*
X152255380Y-150954021D01*
%TO.N,P8*%
X160851885Y-143888095D02*
X160851885Y-146455594D01*
X154109957Y-137146167D02*
X160851885Y-143888095D01*
X160851885Y-146455594D02*
X159911276Y-147396203D01*
%TO.N,P9*%
X178645660Y-118004848D02*
X182851221Y-118004848D01*
X182851221Y-118004848D02*
X188452033Y-123605660D01*
%TO.N,c6_r2*%
X176501256Y-143916401D02*
X171367862Y-138783007D01*
X171367862Y-138783007D02*
X171367862Y-137197419D01*
%TO.N,c5_r3*%
X159078130Y-150954021D02*
X152255380Y-150954021D01*
%TO.N,P9*%
X178355834Y-129824521D02*
X178355834Y-128285705D01*
X185097762Y-136566449D02*
X178355834Y-129824521D01*
%TO.N,c6_r1*%
X179397609Y-119977571D02*
X179397609Y-121563158D01*
X179397609Y-121563158D02*
X184531004Y-126696553D01*
%TO.N,c5_r0*%
X164036458Y-170206205D02*
X164036458Y-171903235D01*
%TO.N,P9*%
X188452033Y-123605660D02*
X191719975Y-123605660D01*
X170615913Y-135224696D02*
X169383047Y-136457562D01*
X173740432Y-135224696D02*
X170615913Y-135224696D01*
X193127509Y-122198126D02*
X192186900Y-123138735D01*
X179814928Y-141299192D02*
X173740432Y-135224696D01*
X169383047Y-136457562D02*
X169383047Y-144562513D01*
X169383047Y-144562513D02*
X170326087Y-145505553D01*
X170326087Y-147328395D02*
X177065359Y-154067667D01*
X170326087Y-145505553D02*
X170326087Y-147328395D01*
X177065359Y-154067667D02*
X177065359Y-156640478D01*
X176055055Y-177694945D02*
X167713059Y-177694945D01*
X177515233Y-176234767D02*
X176055055Y-177694945D01*
X181984607Y-177791825D02*
X181984607Y-151719017D01*
X181069138Y-178707294D02*
X181984607Y-177791825D01*
X181984607Y-151719017D02*
X179411186Y-149145596D01*
X177065359Y-156640478D02*
X176127406Y-157578431D01*
%TO.N,c6_r3*%
X163338115Y-154417267D02*
X163338115Y-156002855D01*
X163338115Y-156002855D02*
X168471509Y-161136249D01*
%TO.N,P9*%
X179411186Y-149145596D02*
X176129314Y-149145596D01*
X176129314Y-149145596D02*
X175045023Y-150229887D01*
%TO.N,c6_r3*%
X168471509Y-161136249D02*
X175294260Y-161136249D01*
X175294260Y-161136249D02*
X179864181Y-156566328D01*
X179864181Y-156566328D02*
X179864181Y-152380671D01*
%TO.N,P9*%
X175045023Y-150229887D02*
X175045023Y-151763305D01*
X175045023Y-151763305D02*
X178000000Y-154718282D01*
X180122579Y-176234767D02*
X177515233Y-176234767D01*
X181069138Y-177181326D02*
X180122579Y-176234767D01*
%TO.N,P6*%
X127760687Y-90843511D02*
X128993553Y-89610645D01*
X127760687Y-98948462D02*
X127760687Y-90843511D01*
X128993553Y-89610645D02*
X133199114Y-89610645D01*
X133199114Y-89610645D02*
X138838469Y-95250000D01*
%TO.N,c3_r1*%
X129745502Y-91583368D02*
X129745502Y-93168956D01*
X129745502Y-93168956D02*
X134878896Y-98302350D01*
%TO.N,P6*%
X138838469Y-95250000D02*
X142029325Y-95250000D01*
X128703727Y-101714344D02*
X135445655Y-108456272D01*
X128703727Y-99891502D02*
X128703727Y-101714344D01*
X135445655Y-108456272D02*
X135445655Y-111023771D01*
%TO.N,c3_r2*%
X138241821Y-106766620D02*
X138241821Y-110952277D01*
X138241821Y-110952277D02*
X133671900Y-115522198D01*
X133671900Y-115522198D02*
X126849149Y-115522198D01*
X121715755Y-108803216D02*
X121715755Y-110388804D01*
X121715755Y-110388804D02*
X126849149Y-115522198D01*
%TO.N,c4_r1*%
X159925213Y-104179616D02*
X153102463Y-104179616D01*
X164495134Y-99609695D02*
X159925213Y-104179616D01*
%TO.N,c3_r1*%
X146271568Y-89546772D02*
X146271568Y-93732429D01*
X146271568Y-93732429D02*
X141701647Y-98302350D01*
X141701647Y-98302350D02*
X134878896Y-98302350D01*
%TO.N,P6*%
X128703727Y-99891502D02*
X127760687Y-98948462D01*
X135445655Y-111023771D02*
X134505046Y-111964380D01*
X143475402Y-91236424D02*
X143475402Y-93803923D01*
X136733474Y-84494496D02*
X139869489Y-87630511D01*
X143475402Y-93803923D02*
X142534793Y-94744532D01*
X136733474Y-82671654D02*
X136733474Y-84494496D01*
X125169367Y-106830493D02*
X131243863Y-112904989D01*
X120963806Y-106830493D02*
X125169367Y-106830493D01*
X131243863Y-112904989D02*
X133564437Y-112904989D01*
X127413252Y-125673464D02*
X127413252Y-128246275D01*
X120673980Y-118934192D02*
X127413252Y-125673464D01*
X127413252Y-128246275D02*
X126475299Y-129184228D01*
%TO.N,c3_r3*%
X125642153Y-132742046D02*
X118819402Y-132742046D01*
X130212074Y-128172125D02*
X125642153Y-132742046D01*
%TO.N,P7*%
X154957040Y-90371762D02*
X158417639Y-93832361D01*
X154957040Y-88548920D02*
X154957040Y-90371762D01*
X161698968Y-97113690D02*
X161698968Y-99681189D01*
X161698968Y-99681189D02*
X160758359Y-100621798D01*
%TO.N,P6*%
X119730940Y-116168310D02*
X119730940Y-108063359D01*
X120673980Y-117111350D02*
X119730940Y-116168310D01*
X119730940Y-108063359D02*
X120963806Y-106830493D01*
X120673980Y-117111350D02*
X120673980Y-118934192D01*
%TO.N,c3_r3*%
X130212074Y-123986468D02*
X130212074Y-128172125D01*
X113686008Y-127608652D02*
X118819402Y-132742046D01*
X113686008Y-126023064D02*
X113686008Y-127608652D01*
%TO.N,P4*%
X92620422Y-81459652D02*
X95593927Y-84433157D01*
X88858505Y-81459652D02*
X92620422Y-81459652D01*
X84451025Y-85867132D02*
X88858505Y-81459652D01*
X83498433Y-96068352D02*
X81225610Y-93795529D01*
X81225610Y-93795529D02*
X81225610Y-86690500D01*
X82048978Y-85867132D02*
X84451025Y-85867132D01*
X78580871Y-114420943D02*
X76308049Y-112148121D01*
X76308049Y-112148121D02*
X76308049Y-105043091D01*
%TO.N,P5*%
X105093628Y-93844875D02*
X105093628Y-86210163D01*
X106706552Y-95457799D02*
X105093628Y-93844875D01*
X105093628Y-86210163D02*
X106124998Y-85178793D01*
%TO.N,c1_r3*%
X84428404Y-130136217D02*
X89167913Y-125396708D01*
X79468711Y-130136217D02*
X84428404Y-130136217D01*
X89167913Y-125396708D02*
X89167913Y-119535340D01*
%TO.N,c2_r1*%
X118631819Y-93336493D02*
X112719720Y-93336493D01*
X123305940Y-88662372D02*
X118631819Y-93336493D01*
%TO.N,P5*%
X115756401Y-89855843D02*
X119305515Y-89855843D01*
X111079351Y-85178793D02*
X115756401Y-89855843D01*
%TO.N,c2_r1*%
X123305940Y-83621296D02*
X123305940Y-88662372D01*
%TO.N,P4*%
X82646424Y-104219723D02*
X86380496Y-107953795D01*
X77131417Y-104219723D02*
X82646424Y-104219723D01*
X86380496Y-107953795D02*
X90304684Y-107953795D01*
%TO.N,P5*%
X106706552Y-95457799D02*
X106706552Y-97094690D01*
X106706552Y-97094690D02*
X111750000Y-102138138D01*
X106124998Y-85178793D02*
X111079351Y-85178793D01*
%TO.N,P4*%
X90304684Y-107953795D02*
X91308051Y-106950428D01*
%TO.N,c2_r2*%
X116807557Y-101475455D02*
X116807557Y-106516531D01*
X116807557Y-106516531D02*
X112133435Y-111190653D01*
%TO.N,c1_r2*%
X84386273Y-111783626D02*
X89345966Y-111783626D01*
X89345966Y-111783626D02*
X94085475Y-107044117D01*
%TO.N,P5*%
X112845167Y-102138138D02*
X114218334Y-103511305D01*
X114218334Y-103511305D02*
X114218334Y-106298800D01*
%TO.N,c2_r2*%
X112133435Y-111190653D02*
X106221337Y-111190653D01*
%TO.N,P5*%
X104580968Y-103032952D02*
X109502391Y-107954375D01*
X99626615Y-103032952D02*
X104580968Y-103032952D01*
X109502391Y-107954375D02*
X112562759Y-107954375D01*
X100208170Y-113311959D02*
X98595245Y-111699034D01*
X98595245Y-111699034D02*
X98595245Y-104064322D01*
X112562759Y-107954375D02*
X113538016Y-106979118D01*
%TO.N,c1_r2*%
X94085475Y-107044117D02*
X94085475Y-101182749D01*
%TO.N,P5*%
X98595245Y-104064322D02*
X99626615Y-103032952D01*
X106957844Y-120603357D02*
X108014891Y-121660404D01*
X108014891Y-121660404D02*
X108014891Y-123858021D01*
%TO.N,c2_r3*%
X110309175Y-119329615D02*
X110309175Y-124370691D01*
X110309175Y-124370691D02*
X105635053Y-129044813D01*
X105635053Y-129044813D02*
X99722954Y-129044813D01*
%TO.N,c4_r1*%
X164495134Y-95424038D02*
X164495134Y-99609695D01*
%TO.N,c1_r1*%
X94263526Y-93431036D02*
X89303835Y-93431036D01*
X99003036Y-88691526D02*
X94263526Y-93431036D01*
X99003036Y-82830158D02*
X99003036Y-88691526D01*
%TO.N,P7*%
X148255946Y-118782255D02*
X151788003Y-118782255D01*
X142181450Y-112707759D02*
X148255946Y-118782255D01*
X151788003Y-118782255D02*
X152728612Y-117841646D01*
%TO.N,c4_r0*%
X146480108Y-156536302D02*
X146480108Y-160721959D01*
X146480108Y-160721959D02*
X141910187Y-165291880D01*
%TO.N,P7*%
X151422680Y-95487911D02*
X157497176Y-101562407D01*
X147217119Y-95487911D02*
X151422680Y-95487911D01*
X157497176Y-101562407D02*
X159817750Y-101562407D01*
%TO.N,c4_r0*%
X141910187Y-165291880D02*
X135087436Y-165291880D01*
%TO.N,P7*%
X145984253Y-96720777D02*
X147217119Y-95487911D01*
X146927293Y-107591610D02*
X153669221Y-114333538D01*
X146927293Y-105768768D02*
X146927293Y-107591610D01*
X153669221Y-114333538D02*
X153669221Y-116901037D01*
X136942014Y-151484026D02*
X136942014Y-149661184D01*
X143683942Y-158225954D02*
X136942014Y-151484026D01*
%TO.N,c4_r0*%
X129954042Y-158572898D02*
X129954042Y-160158486D01*
X129954042Y-160158486D02*
X135087436Y-165291880D01*
%TO.N,P7*%
X142743333Y-161734062D02*
X143683942Y-160793453D01*
X143683942Y-160793453D02*
X143683942Y-158225954D01*
%TO.N,P8*%
X170169451Y-100883629D02*
X170169451Y-102706471D01*
X170169451Y-102706471D02*
X173606490Y-106143510D01*
X176911379Y-112015898D02*
X175970770Y-112956507D01*
X176911379Y-109448399D02*
X176911379Y-112015898D01*
%TO.N,c4_r1*%
X147969068Y-97460634D02*
X147969068Y-99046221D01*
X147969068Y-99046221D02*
X153102463Y-104179616D01*
%TO.N,P7*%
X138897546Y-124811458D02*
X145636818Y-131550730D01*
X138897546Y-122988616D02*
X138897546Y-124811458D01*
X145636818Y-131550730D02*
X145636818Y-134123541D01*
%TO.N,c4_r2*%
X156465387Y-116829543D02*
X151895466Y-121399464D01*
X156465387Y-112643886D02*
X156465387Y-116829543D01*
X151895466Y-121399464D02*
X145072716Y-121399464D01*
%TO.N,c5_r1*%
X175137624Y-116514325D02*
X168314874Y-116514325D01*
X179707545Y-111944404D02*
X175137624Y-116514325D01*
X163181479Y-109795343D02*
X163181479Y-111380930D01*
X163181479Y-111380930D02*
X168314874Y-116514325D01*
%TO.N,P7*%
X138897546Y-122988616D02*
X137919313Y-122010383D01*
X137919313Y-122010383D02*
X137919313Y-113975818D01*
X146927293Y-105768768D02*
X145984253Y-104825728D01*
X145984253Y-104825728D02*
X145984253Y-96720777D01*
X145636818Y-134123541D02*
X144698865Y-135061494D01*
X136942014Y-149661184D02*
X129924759Y-142643929D01*
X129924759Y-142643929D02*
X129924759Y-131160473D01*
X129924759Y-131160473D02*
X131157625Y-129927607D01*
X131157625Y-129927607D02*
X134990983Y-129927607D01*
X134990983Y-129927607D02*
X142063376Y-137000000D01*
%TO.N,c4_r3*%
X148435640Y-129863734D02*
X148435640Y-134049391D01*
X148435640Y-134049391D02*
X143865719Y-138619312D01*
%TO.N,P8*%
X162139704Y-118103477D02*
X161196664Y-117160437D01*
X161196664Y-117160437D02*
X161196664Y-109055486D01*
%TO.N,P7*%
X153669221Y-116901037D02*
X152728612Y-117841646D01*
X137919313Y-113975818D02*
X139187372Y-112707759D01*
X139187372Y-112707759D02*
X142181450Y-112707759D01*
%TO.N,P8*%
X172235903Y-113423432D02*
X175503845Y-113423432D01*
X166635091Y-107822620D02*
X172235903Y-113423432D01*
X161196664Y-109055486D02*
X162429530Y-107822620D01*
X162429530Y-107822620D02*
X166635091Y-107822620D01*
%TO.N,c5_r1*%
X179707545Y-107758747D02*
X179707545Y-111944404D01*
%TO.N,c4_r2*%
X139939321Y-116266069D02*
X145072716Y-121399464D01*
X139939321Y-114680482D02*
X139939321Y-116266069D01*
%TO.N,c4_r3*%
X143865719Y-138619312D02*
X137042969Y-138619312D01*
X131909574Y-131900330D02*
X131909574Y-133485917D01*
X131909574Y-133485917D02*
X137042969Y-138619312D01*
%TO.N,c5_r2*%
X171677798Y-124978595D02*
X171677798Y-129164252D01*
X171677798Y-129164252D02*
X167107877Y-133734173D01*
X167107877Y-133734173D02*
X160285127Y-133734173D01*
%TO.N,P8*%
X168881632Y-129235746D02*
X167941023Y-130176355D01*
X168881632Y-126668247D02*
X168881632Y-129235746D01*
X154109957Y-135323325D02*
X153166917Y-134380285D01*
X153166917Y-134380285D02*
X153166917Y-126275334D01*
%TO.N,c5_r2*%
X155151732Y-127015191D02*
X155151732Y-128600778D01*
X155151732Y-128600778D02*
X160285127Y-133734173D01*
%TO.N,P8*%
X162139704Y-119926319D02*
X168881632Y-126668247D01*
X162139704Y-118103477D02*
X162139704Y-119926319D01*
X154399783Y-125042468D02*
X158605344Y-125042468D01*
X153166917Y-126275334D02*
X154399783Y-125042468D01*
X158605344Y-125042468D02*
X164679840Y-131116964D01*
X164679840Y-131116964D02*
X167000414Y-131116964D01*
X154109957Y-135323325D02*
X154109957Y-137146167D01*
%TO.N,GND*%
X224871398Y-145500000D02*
X222242907Y-145500000D01*
X226647931Y-147276533D02*
X224871398Y-145500000D01*
X226647931Y-150005577D02*
X226647931Y-147276533D01*
X223403508Y-153250000D02*
X226647931Y-150005577D01*
%TO.N,VCC*%
X218000000Y-154000000D02*
X215900057Y-154000000D01*
X215900057Y-154000000D02*
X214149000Y-152248943D01*
X214149000Y-152248943D02*
X214149000Y-130028005D01*
X214149000Y-130028005D02*
X221091907Y-123085098D01*
%TO.N,GND*%
X216000000Y-153250000D02*
X223403508Y-153250000D01*
%TO.N,BAT_P*%
X214750000Y-140694546D02*
X224205193Y-150149739D01*
X224205193Y-150149739D02*
X225936669Y-150149739D01*
X226246931Y-148424739D02*
X225070931Y-147248739D01*
X226246931Y-149839477D02*
X226246931Y-148424739D01*
%TO.N,P2*%
X210000000Y-129773191D02*
X205851907Y-125625098D01*
X210000000Y-153500000D02*
X210000000Y-129773191D01*
%TO.N,P1*%
X209250000Y-153500000D02*
X209250000Y-129697431D01*
X209250000Y-129697431D02*
X206328667Y-126776098D01*
X204700907Y-116616098D02*
X205851907Y-115465098D01*
X204700907Y-126101858D02*
X204700907Y-116616098D01*
%TO.N,P3*%
X208500000Y-130813191D02*
X205851907Y-128165098D01*
X208500000Y-153500000D02*
X208500000Y-130813191D01*
%TO.N,P4*%
X265750000Y-86750000D02*
X272500000Y-86750000D01*
X259750000Y-92750000D02*
X265750000Y-86750000D01*
X272500000Y-86750000D02*
X279500000Y-79750000D01*
X229500000Y-113250000D02*
X234250000Y-108500000D01*
X199500000Y-113250000D02*
X229500000Y-113250000D01*
X234250000Y-108500000D02*
X238250000Y-108500000D01*
X314250000Y-72750000D02*
X323000000Y-72750000D01*
X311250000Y-75750000D02*
X314250000Y-72750000D01*
X90495342Y-75636413D02*
X132250000Y-75636413D01*
X88415994Y-77715761D02*
X90495342Y-75636413D01*
X253250000Y-92750000D02*
X259750000Y-92750000D01*
X198500000Y-114250000D02*
X199500000Y-113250000D01*
X238250000Y-107750000D02*
X253250000Y-92750000D01*
X298250000Y-75750000D02*
X311250000Y-75750000D01*
X294250000Y-79750000D02*
X298250000Y-75750000D01*
X325463290Y-72000000D02*
X332874316Y-79411026D01*
X323750000Y-72000000D02*
X325463290Y-72000000D01*
X279500000Y-79750000D02*
X294250000Y-79750000D01*
X339235003Y-81586147D02*
X343429180Y-81586147D01*
X338148856Y-80500000D02*
X339235003Y-81586147D01*
X343429180Y-81586147D02*
X345078681Y-83235648D01*
X332874316Y-79411026D02*
X333963290Y-80500000D01*
X333963290Y-80500000D02*
X338148856Y-80500000D01*
%TO.N,mirror_c1_r1*%
X346934760Y-80881302D02*
X346934760Y-87143019D01*
X344600161Y-78546703D02*
X346934760Y-80881302D01*
X346934760Y-87143019D02*
X341500845Y-92576934D01*
%TO.N,mirror_c1_r2*%
X338167119Y-109082167D02*
X339187740Y-110102788D01*
X339187740Y-110102788D02*
X345591671Y-110102788D01*
%TO.N,mirror_c2_r1*%
X322822802Y-87383415D02*
X317998390Y-92207827D01*
X322822802Y-80920568D02*
X322822802Y-87383415D01*
%TO.N,P4*%
X343770885Y-117177654D02*
X347956451Y-117177654D01*
X342709439Y-116116208D02*
X343770885Y-117177654D01*
X347956451Y-117177654D02*
X349070126Y-118291329D01*
X333491960Y-87629003D02*
X343674144Y-87629003D01*
X331393479Y-89727484D02*
X333491960Y-87629003D01*
X343674144Y-87629003D02*
X345078681Y-86224466D01*
%TO.N,mirror_c1_r3*%
X356769883Y-117586484D02*
X356769883Y-123848201D01*
X354435284Y-115251885D02*
X356769883Y-117586484D01*
X356769883Y-123848201D02*
X351335969Y-129282115D01*
%TO.N,P5*%
X307690861Y-91966968D02*
X307690861Y-90223428D01*
X313421924Y-97698031D02*
X307690861Y-91966968D01*
X314755586Y-97698031D02*
X313421924Y-97698031D01*
X314755586Y-97698031D02*
X316044530Y-98986975D01*
X316044530Y-98986975D02*
X325579056Y-98986975D01*
%TO.N,mirror_c1_r2*%
X351852321Y-105495610D02*
X346418407Y-110929524D01*
X351852321Y-99233893D02*
X351852321Y-105495610D01*
%TO.N,mirror_c1_r1*%
X334270179Y-91750197D02*
X340674108Y-91750197D01*
X333249558Y-90729576D02*
X334270179Y-91750197D01*
%TO.N,P4*%
X353264303Y-118291329D02*
X354913804Y-119940830D01*
X349070126Y-118291329D02*
X353264303Y-118291329D01*
%TO.N,P5*%
X309546147Y-81132816D02*
X319080673Y-81132816D01*
X308257203Y-79843872D02*
X309546147Y-81132816D01*
X319080673Y-81132816D02*
X320896169Y-82948312D01*
%TO.N,mirror_c1_r2*%
X349517722Y-96899294D02*
X351852321Y-99233893D01*
%TO.N,P4*%
X331393479Y-91744610D02*
X331393479Y-89727484D01*
X337412486Y-97763617D02*
X331393479Y-91744610D01*
%TO.N,P5*%
X327394552Y-100802471D02*
X327394552Y-102132693D01*
X325579056Y-98986975D02*
X327394552Y-100802471D01*
%TO.N,mirror_c2_r2*%
X329321185Y-98774727D02*
X329321185Y-105237575D01*
X326361480Y-95815022D02*
X329321185Y-98774727D01*
X329321185Y-105237575D02*
X324496773Y-110061987D01*
%TO.N,mirror_c1_r3*%
X344105302Y-128455379D02*
X350509233Y-128455379D01*
X343084681Y-127434758D02*
X344105302Y-128455379D01*
%TO.N,P4*%
X339840503Y-99812243D02*
X348220246Y-99812243D01*
X337791877Y-97763617D02*
X339840503Y-99812243D01*
X348220246Y-99812243D02*
X349996242Y-101588239D01*
%TO.N,P5*%
X320896169Y-82948312D02*
X320896169Y-84278534D01*
%TO.N,P4*%
X349996242Y-101588239D02*
X349996242Y-103282962D01*
%TO.N,mirror_c2_r1*%
X310738674Y-92207827D02*
X317998390Y-92207827D01*
X309617494Y-91086647D02*
X310738674Y-92207827D01*
%TO.N,P5*%
X320896169Y-85608756D02*
X320896169Y-84278534D01*
X319255275Y-87249650D02*
X320896169Y-85608756D01*
%TO.N,P4*%
X342330047Y-116116208D02*
X336311040Y-110097201D01*
X336311040Y-110097201D02*
X336311040Y-108080075D01*
X336311040Y-108080075D02*
X338409521Y-105981594D01*
X338409521Y-105981594D02*
X347599544Y-105981594D01*
%TO.N,mirror_c2_r1*%
X319863097Y-77960863D02*
X322822802Y-80920568D01*
%TO.N,P5*%
X307690861Y-90223428D02*
X310664639Y-87249650D01*
X310664639Y-87249650D02*
X319255275Y-87249650D01*
%TO.N,P4*%
X347599544Y-105981594D02*
X349996242Y-103584896D01*
%TO.N,P6*%
X298725809Y-119879499D02*
X293327254Y-114480944D01*
X301006828Y-119879499D02*
X298725809Y-119879499D01*
X293327254Y-114480944D02*
X293327254Y-113022362D01*
%TO.N,mirror_c3_r3*%
X312404443Y-116992136D02*
X315969021Y-120556714D01*
X315969021Y-120556714D02*
X315969021Y-127166922D01*
X315969021Y-127166922D02*
X311788537Y-131347406D01*
%TO.N,P6*%
X310702908Y-120262556D02*
X312013150Y-120262556D01*
X312013150Y-120262556D02*
X313984206Y-122233612D01*
X301006828Y-119879499D02*
X301985061Y-120857732D01*
X301985061Y-120857732D02*
X310107732Y-120857732D01*
%TO.N,P5*%
X321253968Y-115552191D02*
X319920308Y-115552191D01*
X319920308Y-115552191D02*
X314189244Y-109821127D01*
%TO.N,P6*%
X296830508Y-109519108D02*
X303444856Y-109519108D01*
X293327254Y-113022362D02*
X296830508Y-109519108D01*
X303444856Y-109519108D02*
X305954459Y-107009505D01*
%TO.N,P5*%
X333892934Y-118656631D02*
X333892934Y-119986853D01*
X332077438Y-116841135D02*
X333892934Y-118656631D01*
%TO.N,P6*%
X292977081Y-102659651D02*
X290696062Y-102659651D01*
X290696062Y-102659651D02*
X285297507Y-97261096D01*
%TO.N,mirror_c2_r3*%
X335819567Y-116628887D02*
X335819567Y-123091736D01*
X332859862Y-113669182D02*
X335819567Y-116628887D01*
X335819567Y-123091736D02*
X330995156Y-127916147D01*
X322614259Y-126794966D02*
X323735440Y-127916147D01*
X323735440Y-127916147D02*
X330995156Y-127916147D01*
%TO.N,P6*%
X285297507Y-97261096D02*
X285297507Y-95802514D01*
%TO.N,P5*%
X322542912Y-116841135D02*
X332077438Y-116841135D01*
X321253968Y-115552191D02*
X322542912Y-116841135D01*
X317163022Y-105103809D02*
X325083768Y-105103809D01*
X314189244Y-108077587D02*
X317163022Y-105103809D01*
X325083768Y-105103809D02*
X327394552Y-102793025D01*
%TO.N,mirror_c2_r2*%
X316115877Y-108940806D02*
X317237058Y-110061987D01*
X317237058Y-110061987D02*
X324496773Y-110061987D01*
%TO.N,P5*%
X314189244Y-109821127D02*
X314189244Y-108077587D01*
%TO.N,P6*%
X295415109Y-92299260D02*
X297924712Y-89789657D01*
X288800761Y-92299260D02*
X295415109Y-92299260D01*
X285425010Y-95675010D02*
X288800761Y-92299260D01*
X285925567Y-86418036D02*
X292310900Y-86418036D01*
X284947334Y-85439803D02*
X285925567Y-86418036D01*
X295953656Y-85822860D02*
X297924712Y-87793916D01*
X292906076Y-85822860D02*
X295953656Y-85822860D01*
%TO.N,mirror_c3_r1*%
X296344949Y-82552440D02*
X299909527Y-86117018D01*
X299909527Y-86117018D02*
X299909527Y-92727226D01*
%TO.N,P6*%
X302905619Y-103042708D02*
X304400510Y-103042708D01*
X304400510Y-103042708D02*
X305954459Y-104596657D01*
%TO.N,mirror_c3_r1*%
X299909527Y-92727226D02*
X295729043Y-96907710D01*
%TO.N,mirror_c3_r2*%
X307939274Y-103336866D02*
X307939274Y-109947074D01*
X304374696Y-99772288D02*
X307939274Y-103336866D01*
X307939274Y-109947074D02*
X303758790Y-114127558D01*
%TO.N,P7*%
X275103688Y-120358210D02*
X275103688Y-118899628D01*
X280502243Y-125756765D02*
X275103688Y-120358210D01*
X279701146Y-93254075D02*
X279701146Y-94633297D01*
X278147197Y-91700126D02*
X279701146Y-93254075D01*
%TO.N,mirror_c4_r1*%
X278121383Y-88429706D02*
X281685961Y-91994284D01*
X281685961Y-91994284D02*
X281685961Y-98604492D01*
%TO.N,P7*%
X278606942Y-115396374D02*
X285566886Y-115396374D01*
X275103688Y-118899628D02*
X278606942Y-115396374D01*
X285566886Y-115396374D02*
X287730893Y-113232367D01*
X282783262Y-125756765D02*
X280502243Y-125756765D01*
%TO.N,mirror_c4_r3*%
X297745455Y-126433980D02*
X297745455Y-133044188D01*
X294180877Y-122869402D02*
X297745455Y-126433980D01*
X297745455Y-133044188D02*
X293564971Y-137224672D01*
%TO.N,mirror_c4_r1*%
X281685961Y-98604492D02*
X277505477Y-102784976D01*
%TO.N,P7*%
X267073941Y-101679780D02*
X268501861Y-100251861D01*
X267073941Y-103138362D02*
X267073941Y-101679780D01*
X270577195Y-98176526D02*
X277537139Y-98176526D01*
X277537139Y-98176526D02*
X279701146Y-96012519D01*
X279701146Y-96012519D02*
X279701146Y-94633297D01*
X287730893Y-113232367D02*
X287730893Y-111853145D01*
X284738794Y-152429333D02*
X283133435Y-150823974D01*
X283133435Y-150823974D02*
X283133435Y-136119476D01*
X283133435Y-136119476D02*
X286636689Y-132616222D01*
X286636689Y-132616222D02*
X293251037Y-132616222D01*
X293251037Y-132616222D02*
X295760640Y-130106619D01*
%TO.N,mirror_c4_r2*%
X289715708Y-115824340D02*
X285535224Y-120004824D01*
X289715708Y-109214132D02*
X289715708Y-115824340D01*
%TO.N,P7*%
X284682053Y-108919974D02*
X286176944Y-108919974D01*
X286176944Y-108919974D02*
X287730893Y-110473923D01*
X272472496Y-108536917D02*
X267073941Y-103138362D01*
X274753515Y-108536917D02*
X272472496Y-108536917D01*
%TO.N,mirror_c4_r2*%
X286151130Y-105649554D02*
X289715708Y-109214132D01*
%TO.N,mirror_c5_r0*%
X271120266Y-175406475D02*
X275833138Y-175406475D01*
X275833138Y-175406475D02*
X277646009Y-173593604D01*
%TO.N,mirror_c5_r2*%
X274503297Y-128159049D02*
X270322813Y-132339533D01*
X274503297Y-121548841D02*
X274503297Y-128159049D01*
%TO.N,P8*%
X267570851Y-138091474D02*
X265289832Y-138091474D01*
X265289832Y-138091474D02*
X259891277Y-132692919D01*
X259891277Y-132692919D02*
X259891277Y-130858723D01*
X262172841Y-128577159D02*
X262172841Y-123699160D01*
X259891277Y-130858723D02*
X262172841Y-128577159D01*
X262172841Y-123699160D02*
X264617318Y-121254683D01*
X264617318Y-121254683D02*
X270547426Y-121254683D01*
%TO.N,mirror_c4_r0*%
X299700987Y-159716757D02*
X295520504Y-163897240D01*
X299700987Y-153106548D02*
X299700987Y-159716757D01*
%TO.N,P7*%
X294667332Y-152812390D02*
X296162223Y-152812390D01*
X296162223Y-152812390D02*
X297716172Y-154366339D01*
%TO.N,P8*%
X267250000Y-159158804D02*
X267250000Y-148750000D01*
X273000000Y-164908804D02*
X267250000Y-159158804D01*
X267250000Y-148750000D02*
X271049069Y-144950931D01*
%TO.N,mirror_c5_r3*%
X282533044Y-138768689D02*
X282533044Y-145378897D01*
X278968466Y-135204111D02*
X282533044Y-138768689D01*
X282533044Y-145378897D02*
X278352560Y-149559381D01*
%TO.N,mirror_c5_r2*%
X270938719Y-117984263D02*
X274503297Y-121548841D01*
%TO.N,P8*%
X270547426Y-121254683D02*
X272518482Y-123225739D01*
%TO.N,mirror_c5_r0*%
X276258701Y-159568070D02*
X281471433Y-164780802D01*
X281471433Y-164780802D02*
X281471433Y-171501370D01*
X281471433Y-171501370D02*
X279379199Y-173593604D01*
X277646009Y-173593604D02*
X279379199Y-173593604D01*
%TO.N,mirror_c4_r0*%
X296136409Y-149541970D02*
X299700987Y-153106548D01*
%TO.N,P8*%
X278384222Y-144950931D02*
X280548229Y-142786924D01*
X271049069Y-144950931D02*
X278384222Y-144950931D01*
X280548229Y-142786924D02*
X280548229Y-141407702D01*
X267570851Y-141472713D02*
X271049069Y-144950931D01*
X267570851Y-138091474D02*
X267570851Y-141472713D01*
%TO.N,mirror_c5_r1*%
X262908971Y-100764415D02*
X266473549Y-104328993D01*
X266473549Y-104328993D02*
X266473549Y-110939202D01*
%TO.N,P8*%
X259541104Y-120871626D02*
X257260084Y-120871626D01*
X257260084Y-120871626D02*
X251861529Y-115473071D01*
X254143093Y-106479312D02*
X256410071Y-104212334D01*
X254143093Y-111732925D02*
X254143093Y-106479312D01*
%TO.N,mirror_c6_r2*%
X254722589Y-128166491D02*
X258287167Y-131731069D01*
X258287167Y-131731069D02*
X258287167Y-138341277D01*
%TO.N,P9*%
X237926964Y-116661540D02*
X240193942Y-114394562D01*
X237926964Y-121915153D02*
X237926964Y-116661540D01*
%TO.N,P8*%
X264488734Y-105588784D02*
X264488734Y-106968006D01*
X262934785Y-104034835D02*
X264488734Y-105588784D01*
%TO.N,mirror_c6_r1*%
X250257420Y-121121429D02*
X246076936Y-125301913D01*
X250257420Y-114511221D02*
X250257420Y-121121429D01*
%TO.N,mirror_c6_r2*%
X258287167Y-138341277D02*
X254106683Y-142521761D01*
%TO.N,P9*%
X256302352Y-132990860D02*
X256302352Y-134370082D01*
X254748403Y-131436911D02*
X256302352Y-132990860D01*
X245956711Y-139135001D02*
X245956711Y-132657699D01*
X243675147Y-141416565D02*
X245956711Y-139135001D01*
X245956711Y-132657699D02*
X247000000Y-131614410D01*
X251354721Y-148273702D02*
X249073702Y-148273702D01*
X249073702Y-148273702D02*
X243675147Y-142875147D01*
%TO.N,P8*%
X251861529Y-114014489D02*
X254143093Y-111732925D01*
%TO.N,P9*%
X245223765Y-114217063D02*
X246718656Y-114217063D01*
X246718656Y-114217063D02*
X248272605Y-115771012D01*
%TO.N,P8*%
X251861529Y-115473071D02*
X251861529Y-114014489D01*
%TO.N,mirror_c6_r1*%
X246692842Y-110946643D02*
X250257420Y-114511221D01*
%TO.N,P9*%
X235645400Y-124196717D02*
X237926964Y-121915153D01*
X235645400Y-125655299D02*
X235645400Y-124196717D01*
X241043955Y-131053854D02*
X235645400Y-125655299D01*
X243324974Y-131053854D02*
X241043955Y-131053854D01*
%TO.N,mirror_c5_r1*%
X266473549Y-110939202D02*
X262293066Y-115119685D01*
%TO.N,P9*%
X243675147Y-142875147D02*
X243675147Y-141416565D01*
%TO.N,mirror_c6_r3*%
X262752336Y-145386339D02*
X266316914Y-148950917D01*
X266316914Y-148950917D02*
X266316914Y-155561125D01*
X266316914Y-155561125D02*
X262136430Y-159741609D01*
%TO.N,P9*%
X259614898Y-185375344D02*
X258155370Y-186834872D01*
X259614898Y-183306215D02*
X259614898Y-185375344D01*
%TO.N,mirror_c6_r0*%
X258489413Y-189009206D02*
X249997975Y-189009206D01*
X262737957Y-184760662D02*
X258489413Y-189009206D01*
%TO.N,P9*%
X259847111Y-148656759D02*
X262361043Y-148656759D01*
X262361043Y-148656759D02*
X264332099Y-150627815D01*
X253534414Y-154967952D02*
X253534414Y-149286349D01*
X251704894Y-156797472D02*
X253534414Y-154967952D01*
X258204234Y-179719790D02*
X258204234Y-181895551D01*
X254538619Y-176054175D02*
X258204234Y-179719790D01*
X251704894Y-171104295D02*
X251704894Y-156797472D01*
X254538619Y-173938020D02*
X251704894Y-171104295D01*
%TO.N,mirror_c6_r0*%
X246109307Y-181500896D02*
X246109307Y-184559113D01*
X246109307Y-184559113D02*
X249997975Y-188447781D01*
X262737957Y-182364962D02*
X262737957Y-184760662D01*
%TO.N,GND*%
X221091907Y-118005098D02*
X222242907Y-119156098D01*
X222242907Y-119156098D02*
X222242907Y-145500000D01*
%TO.N,P9*%
X254538619Y-173938020D02*
X254538619Y-176054175D01*
%TO.N,c6_r0*%
X178436134Y-172872272D02*
X169980258Y-172872272D01*
X169980258Y-172872272D02*
X165601512Y-177251018D01*
X177663561Y-184457614D02*
X180322351Y-187116404D01*
X173543816Y-184457614D02*
X177663561Y-184457614D01*
X169334000Y-181871360D02*
X170957562Y-181871360D01*
X165601512Y-178138872D02*
X169334000Y-181871360D01*
%TO.N,P4*%
X323000000Y-72750000D02*
X323750000Y-72000000D01*
X238250000Y-108500000D02*
X238250000Y-107750000D01*
%TO.N,P1*%
X205375147Y-126776098D02*
X204700907Y-126101858D01*
X206328667Y-126776098D02*
X205375147Y-126776098D01*
%TO.N,GND*%
X222242907Y-145500000D02*
X222242907Y-146420715D01*
%TO.N,BAT_P*%
X225936669Y-150149739D02*
X226246931Y-149839477D01*
X214750000Y-139750000D02*
X214750000Y-140694546D01*
%TO.N,GND*%
X222242907Y-146420715D02*
X225070931Y-149248739D01*
%TO.N,mirror_c6_r0*%
X249997975Y-188447781D02*
X249997975Y-189009206D01*
%TO.N,P9*%
X258204234Y-181895551D02*
X259614898Y-183306215D01*
X252332954Y-149251935D02*
X253500000Y-149251935D01*
X253534414Y-149286349D02*
X253500000Y-149251935D01*
X264332099Y-150627815D02*
X264332099Y-151589930D01*
X259251935Y-149251935D02*
X259847111Y-148656759D01*
X253500000Y-149251935D02*
X259251935Y-149251935D01*
X251354721Y-148273702D02*
X252332954Y-149251935D01*
%TO.N,mirror_c6_r3*%
X261776753Y-160101286D02*
X262136430Y-159741609D01*
X254435857Y-160101286D02*
X261776753Y-160101286D01*
X253689709Y-159355138D02*
X254435857Y-160101286D01*
%TO.N,P9*%
X247000000Y-131614410D02*
X253076013Y-131614410D01*
%TO.N,mirror_c6_r2*%
X253747006Y-142881438D02*
X254106683Y-142521761D01*
X246406110Y-142881438D02*
X253747006Y-142881438D01*
X245659962Y-142135290D02*
X246406110Y-142881438D01*
%TO.N,P9*%
X243885530Y-131614410D02*
X247000000Y-131614410D01*
X253076013Y-131614410D02*
X253253512Y-131436911D01*
X243324974Y-131053854D02*
X243885530Y-131614410D01*
X253253512Y-131436911D02*
X254748403Y-131436911D01*
X240193942Y-114394562D02*
X245046266Y-114394562D01*
%TO.N,mirror_c6_r1*%
X245717259Y-125661590D02*
X246076936Y-125301913D01*
X238376363Y-125661590D02*
X245717259Y-125661590D01*
X237630215Y-124915442D02*
X238376363Y-125661590D01*
%TO.N,P9*%
X248272605Y-115771012D02*
X248272605Y-117150234D01*
X245046266Y-114394562D02*
X245223765Y-114217063D01*
X235295227Y-113834006D02*
X235855783Y-114394562D01*
X235855783Y-114394562D02*
X240193942Y-114394562D01*
%TO.N,P8*%
X256410071Y-104212334D02*
X261262395Y-104212334D01*
X261262395Y-104212334D02*
X261439894Y-104034835D01*
X251511356Y-103651778D02*
X252071912Y-104212334D01*
X252071912Y-104212334D02*
X256410071Y-104212334D01*
X261439894Y-104034835D02*
X262934785Y-104034835D01*
%TO.N,mirror_c5_r1*%
X262224022Y-115188729D02*
X262293066Y-115119685D01*
X254301859Y-115188729D02*
X262224022Y-115188729D01*
X253846344Y-114733214D02*
X254301859Y-115188729D01*
%TO.N,P8*%
X262172841Y-123503363D02*
X262172841Y-123699160D01*
X259541104Y-120871626D02*
X262172841Y-123503363D01*
X272518482Y-123225739D02*
X272518482Y-124187854D01*
%TO.N,mirror_c5_r2*%
X262622240Y-132699210D02*
X269963136Y-132699210D01*
X269963136Y-132699210D02*
X270322813Y-132339533D01*
X261876092Y-131953062D02*
X262622240Y-132699210D01*
%TO.N,mirror_c5_r3*%
X270651987Y-149919058D02*
X277992883Y-149919058D01*
X277992883Y-149919058D02*
X278352560Y-149559381D01*
X269905839Y-149172910D02*
X270651987Y-149919058D01*
%TO.N,P8*%
X273000000Y-164908804D02*
X273967390Y-164908804D01*
X277162307Y-162923472D02*
X279390242Y-165151407D01*
X271149214Y-164908804D02*
X273000000Y-164908804D01*
X265996755Y-165306969D02*
X270751049Y-165306969D01*
X270751049Y-165306969D02*
X271149214Y-164908804D01*
X273967390Y-164908804D02*
X275952722Y-162923472D01*
X275952722Y-162923472D02*
X277162307Y-162923472D01*
%TO.N,mirror_c4_r0*%
X295160827Y-164256917D02*
X295520504Y-163897240D01*
X287819930Y-164256917D02*
X295160827Y-164256917D01*
X287073782Y-163510769D02*
X287819930Y-164256917D01*
%TO.N,P7*%
X297716172Y-154366339D02*
X297716172Y-155745561D01*
X294583463Y-152896259D02*
X294667332Y-152812390D01*
X285205720Y-152896259D02*
X294583463Y-152896259D01*
X284738794Y-152429333D02*
X285205720Y-152896259D01*
X295760640Y-130106619D02*
X295760640Y-129072993D01*
%TO.N,mirror_c4_r3*%
X285864398Y-137584349D02*
X293205294Y-137584349D01*
X285118250Y-136838201D02*
X285864398Y-137584349D01*
X293205294Y-137584349D02*
X293564971Y-137224672D01*
%TO.N,P7*%
X295760640Y-128110878D02*
X295760640Y-129072993D01*
X293789584Y-126139822D02*
X295760640Y-128110878D01*
X292534301Y-126317321D02*
X292711800Y-126139822D01*
X283343818Y-126317321D02*
X292534301Y-126317321D01*
X282783262Y-125756765D02*
X283343818Y-126317321D01*
X292711800Y-126139822D02*
X293789584Y-126139822D01*
%TO.N,mirror_c4_r2*%
X277834651Y-120364501D02*
X285175547Y-120364501D01*
X277088503Y-119618353D02*
X277834651Y-120364501D01*
X285175547Y-120364501D02*
X285535224Y-120004824D01*
%TO.N,P7*%
X284504554Y-109097473D02*
X284682053Y-108919974D01*
X287730893Y-110473923D02*
X287730893Y-111853145D01*
X274753515Y-108536917D02*
X275314071Y-109097473D01*
X275314071Y-109097473D02*
X284504554Y-109097473D01*
%TO.N,mirror_c4_r1*%
X277290453Y-103000000D02*
X277505477Y-102784976D01*
X269660251Y-103000000D02*
X277290453Y-103000000D01*
X269058756Y-102398505D02*
X269660251Y-103000000D01*
%TO.N,P7*%
X267284324Y-91877625D02*
X276474807Y-91877625D01*
X276474807Y-91877625D02*
X276652306Y-91700126D01*
X276652306Y-91700126D02*
X278147197Y-91700126D01*
X266723768Y-91317069D02*
X267284324Y-91877625D01*
%TO.N,mirror_c3_r3*%
X304087964Y-131707083D02*
X311428860Y-131707083D01*
X303341816Y-130960935D02*
X304087964Y-131707083D01*
X311428860Y-131707083D02*
X311788537Y-131347406D01*
%TO.N,P6*%
X310107732Y-120857732D02*
X310702908Y-120262556D01*
X313984206Y-122233612D02*
X313984206Y-123195727D01*
X305954459Y-107009505D02*
X305954459Y-105975879D01*
%TO.N,mirror_c3_r2*%
X303399113Y-114487235D02*
X303758790Y-114127558D01*
X296058217Y-114487235D02*
X303399113Y-114487235D01*
X295312069Y-113741087D02*
X296058217Y-114487235D01*
%TO.N,P6*%
X305954459Y-104596657D02*
X305954459Y-105975879D01*
X302728120Y-103220207D02*
X302905619Y-103042708D01*
X293537637Y-103220207D02*
X302728120Y-103220207D01*
X292977081Y-102659651D02*
X293537637Y-103220207D01*
X297924712Y-89789657D02*
X297924712Y-88756031D01*
%TO.N,mirror_c3_r1*%
X287761083Y-97000000D02*
X295636753Y-97000000D01*
X295636753Y-97000000D02*
X295729043Y-96907710D01*
X287282322Y-96521239D02*
X287761083Y-97000000D01*
%TO.N,P6*%
X292310900Y-86418036D02*
X292906076Y-85822860D01*
X297924712Y-87793916D02*
X297924712Y-88756031D01*
%TO.N,P5*%
X327394552Y-102793025D02*
X327394552Y-102132693D01*
%TO.N,P4*%
X354913804Y-119940830D02*
X354913804Y-121635553D01*
%TO.N,mirror_c1_r3*%
X350509233Y-128455379D02*
X351335969Y-129282115D01*
%TO.N,P4*%
X349996242Y-103584896D02*
X349996242Y-103282962D01*
X342709439Y-116116208D02*
X342330047Y-116116208D01*
X345078681Y-86224466D02*
X345078681Y-84930371D01*
X337791877Y-97763617D02*
X337412486Y-97763617D01*
%TO.N,mirror_c1_r2*%
X345591671Y-110102788D02*
X346418407Y-110929524D01*
%TO.N,mirror_c1_r1*%
X340674108Y-91750197D02*
X341500845Y-92576934D01*
%TO.N,P4*%
X345078681Y-83235648D02*
X345078681Y-84930371D01*
%TO.N,c6_r0*%
X172416074Y-184457614D02*
X173543816Y-184457614D01*
X171936844Y-184936844D02*
X172416074Y-184457614D01*
X171936844Y-188202563D02*
X171936844Y-184936844D01*
X170957562Y-181871360D02*
X173543816Y-184457614D01*
X165601512Y-177251018D02*
X165601512Y-178138872D01*
%TO.N,P9*%
X181069138Y-178707294D02*
X181069138Y-177181326D01*
X178000000Y-155705837D02*
X176127406Y-157578431D01*
X178000000Y-154718282D02*
X178000000Y-155705837D01*
X191719975Y-123605660D02*
X192186900Y-123138735D01*
%TO.N,c5_r0*%
X151388884Y-176337817D02*
X150765871Y-175714804D01*
%TO.N,P8*%
X159676663Y-169631676D02*
X160801231Y-170756244D01*
%TO.N,c5_r0*%
X150765871Y-174795106D02*
X150765871Y-175714804D01*
%TO.N,P8*%
X157654819Y-149652660D02*
X159911276Y-147396203D01*
X156754458Y-149652660D02*
X157654819Y-149652660D01*
X167000414Y-131116964D02*
X167941023Y-130176355D01*
X175503845Y-113423432D02*
X175970770Y-112956507D01*
%TO.N,P7*%
X142760359Y-137000000D02*
X144698865Y-135061494D01*
X142063376Y-137000000D02*
X142760359Y-137000000D01*
X159817750Y-101562407D02*
X160758359Y-100621798D01*
%TO.N,P6*%
X133564437Y-112904989D02*
X134505046Y-111964380D01*
X142029325Y-95250000D02*
X142534793Y-94744532D01*
%TO.N,c2_r3*%
X99544813Y-129044813D02*
X99722954Y-129044813D01*
X94023496Y-123523496D02*
X99544813Y-129044813D01*
X94023496Y-122798803D02*
X94023496Y-123523496D01*
%TO.N,P5*%
X108014891Y-123858021D02*
X107039634Y-124833278D01*
X100208170Y-114104704D02*
X106706823Y-120603357D01*
X106706823Y-120603357D02*
X106957844Y-120603357D01*
X100208170Y-113311959D02*
X100208170Y-114104704D01*
%TO.N,c2_r2*%
X106123694Y-111190653D02*
X106221337Y-111190653D01*
X100521878Y-105588837D02*
X106123694Y-111190653D01*
X100521878Y-104944643D02*
X100521878Y-105588837D01*
%TO.N,P5*%
X111750000Y-102138138D02*
X112845167Y-102138138D01*
X114218334Y-106298800D02*
X113538016Y-106979118D01*
X119305515Y-89855843D02*
X120036399Y-89124959D01*
%TO.N,c2_r1*%
X112586493Y-93336493D02*
X112719720Y-93336493D01*
X107020261Y-87770261D02*
X112586493Y-93336493D01*
X107020261Y-87090484D02*
X107020261Y-87770261D01*
%TO.N,P5*%
X120716717Y-85657146D02*
X120716717Y-88444641D01*
X119703588Y-84895038D02*
X119954609Y-84895038D01*
X119954609Y-84895038D02*
X120716717Y-85657146D01*
X113204935Y-78396385D02*
X116904275Y-82095725D01*
X120716717Y-88444641D02*
X120036399Y-89124959D01*
X113204935Y-77603640D02*
X113204935Y-78396385D01*
%TO.N,c1_r3*%
X73246566Y-124768802D02*
X78613981Y-130136217D01*
X73246566Y-124410716D02*
X73246566Y-124768802D01*
X78613981Y-130136217D02*
X79468711Y-130136217D01*
%TO.N,P4*%
X86817897Y-124875611D02*
X86390489Y-125303019D01*
X84779635Y-121029635D02*
X85947085Y-121029635D01*
X78580871Y-114830871D02*
X84779635Y-121029635D01*
X78580871Y-114420943D02*
X78580871Y-114830871D01*
X85947085Y-121029635D02*
X86817897Y-121900447D01*
X86817897Y-121900447D02*
X86817897Y-124875611D01*
X76308049Y-105043091D02*
X77131417Y-104219723D01*
%TO.N,c1_r2*%
X83606786Y-111783626D02*
X78164128Y-106340968D01*
X84386273Y-111783626D02*
X83606786Y-111783626D01*
X78164128Y-106340968D02*
X78164128Y-106058125D01*
%TO.N,P4*%
X89805191Y-102677044D02*
X90864647Y-102677044D01*
X83498433Y-96370286D02*
X89805191Y-102677044D01*
X83498433Y-96068352D02*
X83498433Y-96370286D01*
X92328672Y-105929807D02*
X91308051Y-106950428D01*
X96653020Y-88170429D02*
X96225612Y-88597837D01*
X96653020Y-85195265D02*
X96653020Y-88170429D01*
X95890912Y-84433157D02*
X96653020Y-85195265D01*
X95593927Y-84433157D02*
X95890912Y-84433157D01*
X81225610Y-86690500D02*
X82048978Y-85867132D01*
%TO.N,c1_r1*%
X83081689Y-87988377D02*
X83081689Y-87705534D01*
X88524348Y-93431036D02*
X83081689Y-87988377D01*
X89303835Y-93431036D02*
X88524348Y-93431036D01*
%TO.N,P4*%
X94574453Y-84324453D02*
X95782208Y-84324453D01*
X95782208Y-84324453D02*
X96653020Y-85195265D01*
X88415994Y-78165994D02*
X94574453Y-84324453D01*
X88415994Y-77715761D02*
X88415994Y-78165994D01*
%TD*%
M02*
