M48
; DRILL file {KiCad 9.0.7} date 2026-04-02T00:58:17-0600
; FORMAT={-:-/ absolute / metric / decimal}
; #@! TF.CreationDate,2026-04-02T00:58:17-06:00
; #@! TF.GenerationSoftware,Kicad,Pcbnew,9.0.7
; #@! TF.FileFunction,NonPlated,1,2,NPTH
FMAT,2
METRIC
; #@! TA.AperFunction,NonPlated,NPTH,ComponentDrill
T1C0.900
; #@! TA.AperFunction,NonPlated,NPTH,ComponentDrill
T2C1.900
; #@! TA.AperFunction,NonPlated,NPTH,ComponentDrill
T3C3.000
; #@! TA.AperFunction,NonPlated,NPTH,ComponentDrill
T4C4.100
; #@! TA.AperFunction,NonPlated,NPTH,ComponentDrill
T5C5.000
%
G90
G05
T1
X194.179Y-106.395
X196.51Y-108.283
T2
X74.892Y-119.592
X75.297Y-119.701
X79.809Y-101.24
X80.215Y-101.348
X84.727Y-82.887
X85.111Y-122.331
X85.133Y-82.996
X85.517Y-122.439
X90.029Y-103.978
X90.434Y-104.087
X94.946Y-85.625
X95.352Y-85.734
X96.082Y-118.142
X96.477Y-118.286
X102.581Y-100.288
X102.975Y-100.432
X106.024Y-121.761
X106.419Y-121.904
X109.079Y-82.434
X109.474Y-82.577
X112.523Y-103.907
X112.917Y-104.05
X116.143Y-121.564
X116.524Y-121.741
X119.021Y-86.052
X119.416Y-86.196
X124.173Y-104.344
X124.553Y-104.521
X125.732Y-126.035
X126.112Y-126.212
X132.202Y-87.124
X132.411Y-154.113
X132.583Y-87.301
X132.792Y-154.291
X133.761Y-108.815
X134.142Y-108.993
X134.366Y-127.441
X134.747Y-127.618
X141.791Y-91.595
X142.0Y-158.585
X142.172Y-91.773
X142.38Y-158.762
X142.396Y-110.221
X142.777Y-110.398
X143.955Y-131.912
X144.336Y-132.09
X149.579Y-139.776
X149.959Y-139.953
X150.426Y-93.001
X150.807Y-93.179
X151.074Y-164.224
X151.395Y-164.494
X151.985Y-114.692
X152.366Y-114.87
X157.609Y-122.556
X157.989Y-122.733
X159.168Y-144.247
X159.178Y-171.025
X159.5Y-171.295
X159.548Y-144.424
X160.015Y-97.472
X160.395Y-97.65
X165.638Y-105.336
X165.795Y-149.958
X166.019Y-105.513
X166.176Y-150.135
X167.197Y-127.027
X167.578Y-127.204
X169.303Y-183.845
X169.647Y-183.604
X173.825Y-132.738
X174.205Y-132.915
X175.227Y-109.807
X175.384Y-154.429
X175.608Y-109.985
X175.764Y-154.607
X177.97Y-177.777
X178.314Y-177.536
X181.854Y-115.518
X182.235Y-115.696
X183.413Y-137.209
X183.794Y-137.387
X191.443Y-119.989
X191.824Y-120.167
X235.793Y-120.167
X236.174Y-119.989
X243.823Y-137.387
X244.204Y-137.209
X245.382Y-115.696
X245.763Y-115.518
X249.303Y-177.536
X249.647Y-177.777
X251.853Y-154.607
X252.009Y-109.985
X252.233Y-154.429
X252.39Y-109.807
X253.412Y-132.915
X253.792Y-132.738
X257.97Y-183.604
X258.314Y-183.845
X260.039Y-127.204
X260.42Y-127.027
X261.442Y-150.135
X261.598Y-105.513
X261.822Y-149.958
X261.979Y-105.336
X267.222Y-97.65
X267.602Y-97.472
X268.069Y-144.424
X268.117Y-171.295
X268.439Y-171.025
X268.45Y-144.247
X269.628Y-122.733
X270.009Y-122.556
X275.252Y-114.87
X275.632Y-114.692
X276.222Y-164.494
X276.543Y-164.224
X276.811Y-93.179
X277.191Y-93.001
X277.658Y-139.953
X278.038Y-139.776
X283.281Y-132.09
X283.662Y-131.912
X284.84Y-110.398
X285.221Y-110.221
X285.237Y-158.762
X285.445Y-91.773
X285.617Y-158.585
X285.826Y-91.595
X292.87Y-127.618
X293.251Y-127.441
X293.475Y-108.993
X293.856Y-108.815
X294.826Y-154.291
X295.034Y-87.301
X295.206Y-154.113
X295.415Y-87.124
X301.505Y-126.212
X301.886Y-126.035
X303.064Y-104.521
X303.445Y-104.344
X308.201Y-86.196
X308.596Y-86.052
X311.094Y-121.741
X311.474Y-121.564
X314.7Y-104.05
X315.094Y-103.907
X318.143Y-82.577
X318.538Y-82.434
X321.198Y-121.904
X321.593Y-121.761
X324.642Y-100.432
X325.036Y-100.288
X331.14Y-118.286
X331.535Y-118.142
X332.265Y-85.734
X332.671Y-85.625
X337.183Y-104.087
X337.588Y-103.978
X342.1Y-122.439
X342.485Y-82.996
X342.506Y-122.331
X342.89Y-82.887
X347.402Y-101.348
X347.808Y-101.24
X352.32Y-119.701
X352.725Y-119.592
T3
X76.436Y-125.265
X81.354Y-106.913
X81.744Y-115.269
X83.227Y-124.455
X86.005Y-118.688
X86.271Y-88.56
X86.662Y-96.916
X88.145Y-106.103
X90.922Y-100.335
X91.579Y-78.563
X93.062Y-87.75
X95.84Y-81.983
X97.126Y-123.928
X103.286Y-114.432
X103.625Y-106.074
X103.962Y-123.713
X107.232Y-118.209
X109.784Y-96.578
X110.123Y-88.22
X110.461Y-105.859
X113.73Y-100.355
X116.282Y-78.724
X116.679Y-127.419
X116.959Y-88.005
X120.228Y-82.501
X123.507Y-127.8
X123.642Y-118.495
X124.708Y-110.199
X127.244Y-122.602
X131.537Y-110.58
X131.672Y-101.276
X132.738Y-92.979
X132.947Y-159.968
X134.902Y-133.296
X135.274Y-105.383
X139.567Y-93.36
X139.702Y-84.056
X139.775Y-160.35
X139.91Y-151.045
X141.731Y-133.677
X141.866Y-124.373
X142.932Y-116.076
X143.303Y-88.163
X143.512Y-155.152
X145.467Y-128.48
X149.76Y-116.458
X149.895Y-107.153
X150.076Y-170.019
X150.115Y-145.631
X150.962Y-98.856
X153.497Y-111.26
X156.573Y-172.155
X156.943Y-146.012
X157.078Y-136.707
X157.79Y-99.238
X157.925Y-89.933
X158.144Y-128.411
X159.112Y-163.202
X160.68Y-140.814
X161.527Y-94.04
X161.528Y-168.101
X164.973Y-128.792
X165.108Y-119.488
X166.174Y-111.191
X166.331Y-155.813
X168.71Y-123.595
X170.396Y-175.816
X173.003Y-111.572
X173.138Y-102.268
X173.159Y-156.194
X173.294Y-146.89
X174.36Y-138.593
X174.642Y-186.309
X175.753Y-174.751
X176.739Y-106.375
X176.896Y-150.997
X178.386Y-180.586
X181.189Y-138.975
X181.324Y-129.67
X182.39Y-121.373
X184.926Y-133.777
X189.219Y-121.755
X189.354Y-112.45
X192.956Y-116.557
X238.263Y-112.45
X240.623Y-123.52
X243.725Y-112.331
X245.304Y-118.534
X246.293Y-129.67
X248.653Y-140.74
X248.814Y-183.395
X251.754Y-129.551
X253.334Y-135.754
X254.323Y-146.89
X254.48Y-102.268
X255.473Y-184.956
X256.682Y-157.96
X256.839Y-113.338
X257.221Y-175.816
X259.784Y-146.77
X259.941Y-102.148
X260.055Y-180.486
X261.364Y-152.974
X261.521Y-108.352
X262.509Y-119.488
X264.869Y-130.558
X267.971Y-119.368
X268.506Y-163.202
X269.55Y-125.572
X269.692Y-89.933
X270.539Y-136.707
X272.051Y-101.003
X272.898Y-147.777
X273.65Y-173.284
X273.75Y-161.673
X275.153Y-89.814
X276.0Y-136.588
X276.733Y-96.017
X276.881Y-167.257
X277.58Y-142.792
X277.722Y-107.153
X280.081Y-118.223
X283.183Y-107.034
X284.763Y-113.237
X285.751Y-124.373
X287.707Y-151.045
X287.915Y-84.056
X288.111Y-135.443
X290.066Y-162.115
X290.275Y-95.126
X291.213Y-124.253
X292.792Y-130.457
X293.168Y-150.926
X293.377Y-83.937
X294.748Y-157.13
X294.957Y-90.14
X295.945Y-101.276
X298.305Y-112.346
X301.407Y-101.156
X302.986Y-107.36
X303.975Y-118.495
X306.334Y-129.565
X309.436Y-118.376
X311.016Y-124.58
X311.335Y-78.724
X312.72Y-89.957
X316.786Y-79.081
X317.819Y-85.399
X317.833Y-96.578
X319.219Y-107.811
X323.284Y-96.935
X324.317Y-103.253
X324.331Y-114.432
X325.717Y-125.666
X329.782Y-114.789
X330.815Y-121.107
X336.038Y-78.563
X336.439Y-89.875
X340.955Y-96.916
X341.357Y-108.228
X341.437Y-79.394
X341.915Y-85.778
X345.873Y-115.269
X346.274Y-126.58
X346.354Y-97.747
X346.833Y-104.131
X351.272Y-116.1
X351.75Y-122.483
T4
X80.204Y-121.016
X85.122Y-102.663
X90.039Y-84.311
X101.251Y-120.023
X107.749Y-102.169
X114.247Y-84.315
X121.128Y-123.888
X129.157Y-106.668
X137.187Y-89.448
X137.396Y-156.438
X139.351Y-129.765
X147.381Y-112.545
X154.564Y-142.1
X155.287Y-167.76
X155.411Y-95.326
X162.593Y-124.88
X170.623Y-107.66
X170.78Y-152.282
X173.809Y-180.69
X178.809Y-135.062
X186.839Y-117.842
X240.778Y-117.842
X248.808Y-135.062
X253.809Y-180.69
X256.837Y-152.282
X256.994Y-107.66
X265.024Y-124.88
X272.207Y-95.326
X272.33Y-167.76
X273.054Y-142.1
X280.236Y-112.545
X288.266Y-129.765
X290.222Y-156.438
X290.43Y-89.448
X298.46Y-106.668
X306.49Y-123.888
X313.37Y-84.315
X319.868Y-102.169
X326.366Y-120.023
X337.578Y-84.311
X342.495Y-102.663
X347.413Y-121.016
T5
X80.204Y-121.016
X85.122Y-102.663
X90.039Y-84.311
X101.251Y-120.023
X107.749Y-102.169
X114.247Y-84.315
X121.128Y-123.888
X129.157Y-106.668
X137.187Y-89.448
X137.396Y-156.438
X139.351Y-129.765
X147.381Y-112.545
X154.564Y-142.1
X155.287Y-167.76
X155.411Y-95.326
X162.593Y-124.88
X170.623Y-107.66
X170.78Y-152.282
X173.809Y-180.69
X178.809Y-135.062
X186.839Y-117.842
X240.778Y-117.842
X248.808Y-135.062
X253.809Y-180.69
X256.837Y-152.282
X256.994Y-107.66
X265.024Y-124.88
X272.207Y-95.326
X272.33Y-167.76
X273.054Y-142.1
X280.236Y-112.545
X288.266Y-129.765
X290.222Y-156.438
X290.43Y-89.448
X298.46Y-106.668
X306.49Y-123.888
X313.37Y-84.315
X319.868Y-102.169
X326.366Y-120.023
X337.578Y-84.311
X342.495Y-102.663
X347.413Y-121.016
M30
